<?xml version="1.0" encoding="UTF-8" standalone="no"?>
<!-- Created with Inkscape (http://www.inkscape.org/) -->

<svg
   width="70.0mm"
   height="70.0mm"
   viewBox="0 0 70.0 70.0"
   version="1.1"
   id="svg1287"
   sodipodi:docname="DC32H4X0R.svg"
   xml:space="preserve"
   inkscape:version="1.2.2 (732a01da63, 2022-12-09)"
   xmlns:inkscape="http://www.inkscape.org/namespaces/inkscape"
   xmlns:sodipodi="http://sodipodi.sourceforge.net/DTD/sodipodi-0.dtd"
   xmlns="http://www.w3.org/2000/svg"
   xmlns:svg="http://www.w3.org/2000/svg"><sodipodi:namedview
     id="namedview1289"
     pagecolor="#ffffff"
     bordercolor="#000000"
     borderopacity="0.25"
     inkscape:showpageshadow="2"
     inkscape:pageopacity="0.0"
     inkscape:pagecheckerboard="0"
     inkscape:deskcolor="#d1d1d1"
     inkscape:document-units="mm"
     showgrid="false"
     inkscape:zoom="4.7572176"
     inkscape:cx="93.857384"
     inkscape:cy="139.15697"
     inkscape:window-width="1920"
     inkscape:window-height="1129"
     inkscape:window-x="-8"
     inkscape:window-y="-8"
     inkscape:window-maximized="1"
     inkscape:current-layer="g1426" /><defs
     id="defs1284" /><g
     inkscape:label="[fixed] BG"
     inkscape:groupmode="layer"
     sodipodi:insensitive="true"
     id="g1424"><rect
       x="0"
       y="0"
       width="70.0"
       height="70.0"
       style="fill:#FFFFFF;fill-opacity:1;stroke:none"
       id="rect1422" /></g><g
     inkscape:label="Edge.Cuts"
     inkscape:groupmode="layer"
     id="g1426"><path
       id="rect1522"
       style="fill:#000000;fill-opacity:1.0;stroke:#000000;stroke-width:0.312547"
       d="M 4.52878 21.89 L 65.5213 21.89 L 65.967 21.9242 L 66.3996 22.0245 L 66.8169 22.1877 L 67.2166 22.4105 L 67.5968 22.6896 L 67.9553 23.0217 L 68.2898 23.4035 L 68.5982 23.8318 L 68.8784 24.3031 L 69.1283 24.8142 L 69.3455 25.3621 L 69.5281 25.9431 L 69.6739 26.554 L 69.7807 27.1918 L 69.8464 27.8528 L 69.8687 28.534 L 69.8687 53.0333 L 69.8464 53.7145 L 69.7807 54.3755 L 69.6739 55.0133 L 69.5281 55.6243 L 69.3455 56.2053 L 69.1283 56.7531 L 68.8784 57.2642 L 68.5982 57.7356 L 68.2898 58.1639 L 67.9553 58.5456 L 67.5968 58.8777 L 67.2166 59.1569 L 66.8169 59.3796 L 66.3996 59.5429 L 65.967 59.6432 L 65.5213 59.6774 L 4.52878 59.6774 L 4.08304 59.6432 L 3.65047 59.5429 L 3.2332 59.3797 L 2.8334 59.1569 L 2.4532 58.8777 L 2.09478 58.5456 L 1.76028 58.1639 L 1.45185 57.7356 L 1.17164 57.2642 L 0.921808 56.7531 L 0.704508 56.2053 L 0.52189 55.6243 L 0.376106 55.0133 L 0.269311 54.3755 L 0.203655 53.7145 L 0.181292 53.0333 L 0.181292 28.534 L 0.203655 27.8529 L 0.269311 27.1918 L 0.376106 26.554 L 0.52189 25.9431 L 0.704508 25.3621 L 0.921808 24.8142 L 1.17164 24.3031 L 1.45185 23.8318 L 1.76028 23.4035 L 2.09478 23.0217 L 2.4532 22.6896 L 2.8334 22.4105 L 3.2332 22.1877 L 3.65047 22.0245 L 4.08304 21.9242 L 4.52878 21.89 L 4.52878 21.89" /></g><g
     inkscape:label="B.Cu"
     inkscape:groupmode="layer"
     id="g1428" /><g
     inkscape:label="B.Mask"
     inkscape:groupmode="layer"
     id="g1430" /><g
     inkscape:label="B.SilkS"
     inkscape:groupmode="layer"
     id="g1432"><text
       xml:space="preserve"
       style="font-size:8.46667px;font-family:Arial;-inkscape-font-specification:'Arial, Normal';text-align:center;text-anchor:middle;fill:#000000;fill-opacity:1;stroke:#000000;stroke-width:0.264583;stroke-opacity:1"
       x="-35.335361"
       y="43.2146"
       id="text1829"
       transform="scale(-1,1)"><tspan
         sodipodi:role="line"
         id="tspan1827"
         style="stroke-width:0.264583"
         x="-35.335361"
         y="43.2146">RUSTIC!</tspan></text></g><g
     inkscape:label="F.Cu"
     inkscape:groupmode="layer"
     id="g1434"><path
       style="fill:#000000;stroke-width:0.0367541"
       d="M 14.134033,50.905142 C 11.126542,50.638069 8.5085978,49.072038 6.8587924,46.553153 6.0606637,45.334589 5.5831414,44.0317 5.376547,42.508946 5.29647,41.918748 5.29664,40.714565 5.3768771,40.11993 c 0.2963872,-2.19657 1.209288,-4.062706 2.7381116,-5.597195 2.6853943,-2.695346 6.7056353,-3.555043 10.2468073,-2.191199 2.925119,1.126578 5.152403,3.652796 5.885312,6.675208 0.803593,3.313908 -0.161013,6.749218 -2.564863,9.134398 -1.992912,1.977432 -4.805968,3.007516 -7.548208,2.764 z m 1.705859,-0.403514 c 3.72421,-0.372673 6.886425,-3.001298 7.933153,-6.594519 0.550429,-1.889526 0.474997,-3.990948 -0.209168,-5.827031 -0.816741,-2.191875 -2.469758,-4.013701 -4.586804,-5.055217 -3.016018,-1.48378 -6.646695,-1.193181 -9.3930513,0.751821 -2.1550895,1.526258 -3.5254113,3.85721 -3.8378648,6.528304 -0.4962557,4.242357 2.0823071,8.318907 6.1597401,9.738168 0.623919,0.217172 1.508539,0.411113 2.146127,0.470509 0.331825,0.03091 1.432744,0.0235 1.787868,-0.01203 z m -1.484647,-0.64981 -0.101074,-0.01531 5.61e-4,-0.466174 c 2.95e-4,-0.256395 0.01485,-0.488725 0.03232,-0.516291 0.04189,-0.06612 0.531015,-0.02163 0.67308,0.06121 0.125762,0.07335 0.195346,0.236182 0.191585,0.448326 -0.0074,0.411646 -0.263858,0.568916 -0.796469,0.488233 z m 0.4747,-0.21178 c 0.0903,-0.06324 0.126793,-0.272631 0.07844,-0.450007 -0.02662,-0.09766 -0.05848,-0.125477 -0.181707,-0.158659 -0.237747,-0.06401 -0.251982,-0.04532 -0.251982,0.33106 v 0.33194 h 0.138838 c 0.07637,0 0.173746,-0.02445 0.21641,-0.05434 z m -1.017732,0.107075 c -0.01972,-0.05185 -0.03585,-0.107971 -0.03585,-0.124708 0,-0.04061 -0.06699,-0.06406 -0.269914,-0.09448 -0.157648,-0.02364 -0.171998,-0.01889 -0.212746,0.07056 -0.0347,0.07618 -0.06957,0.0959 -0.169499,0.0959 -0.06919,0 -0.12029,-0.01495 -0.113551,-0.03321 0.0068,-0.01828 0.136297,-0.232787 0.287907,-0.476705 0.277324,-0.446172 0.337379,-0.498593 0.472856,-0.412765 0.04497,0.02849 0.256866,0.845716 0.260686,1.005385 0.0026,0.108073 -0.176702,0.08365 -0.219895,-0.02996 z m -0.09745,-0.466222 c -0.04973,-0.258202 -0.0651,-0.27127 -0.152563,-0.129748 -0.106894,0.172959 -0.101165,0.205144 0.03958,0.22261 0.06569,0.0082 0.123172,0.01747 0.12772,0.0207 0.0045,0.0033 -0.002,-0.04787 -0.01474,-0.113569 z m 1.736573,0.474618 c -0.08545,-0.08545 -0.15824,-0.388263 -0.17814,-0.741086 -0.0076,-0.134039 2.56e-4,-0.148009 0.0887,-0.158252 0.09543,-0.011 0.09773,-0.006 0.1426,0.31241 0.06545,0.464399 0.07827,0.489039 0.25439,0.489039 0.203979,0 0.232576,-0.06633 0.185117,-0.429395 -0.02066,-0.15802 -0.0453,-0.322668 -0.05477,-0.365884 -0.01404,-0.06412 0.0028,-0.08151 0.09124,-0.09449 0.124388,-0.01825 0.123405,-0.02082 0.183209,0.476706 0.05514,0.458709 -0.0465,0.596835 -0.439192,0.596835 -0.147256,0 -0.205618,-0.01835 -0.273148,-0.08588 z m 0.984378,-0.05051 c 0.01044,-0.03616 0.04805,-0.285272 0.08367,-0.553569 l 0.06475,-0.487814 0.112225,-0.02938 c 0.109923,-0.02878 0.118959,-0.02041 0.440203,0.408194 0.259619,0.346377 0.317072,0.444481 0.275655,0.470693 -0.09181,0.0581 -0.172827,0.03699 -0.246578,-0.06425 l -0.07175,-0.09849 -0.196298,0.05255 c -0.177342,0.04747 -0.198692,0.06426 -0.221092,0.173866 -0.02929,0.143302 -0.02374,0.137286 -0.155697,0.168982 -0.08829,0.0212 -0.101154,0.01505 -0.08508,-0.04077 z m 0.530814,-0.50549 c 0.009,-0.009 -0.03318,-0.08357 -0.09364,-0.165792 l -0.109934,-0.149494 -0.02312,0.115637 c -0.04693,0.234664 -0.03505,0.265037 0.09364,0.239299 0.06422,-0.01284 0.124104,-0.03069 0.133067,-0.03966 z m -4.19074,0.415718 c -0.07729,-0.02826 -0.118343,-0.08663 -0.180174,-0.25621 -0.06902,-0.189267 -0.176048,-0.326216 -0.254969,-0.326216 -0.01249,0 -0.04452,0.09097 -0.07119,0.202147 -0.04907,0.204564 -0.09893,0.243089 -0.217489,0.168048 -0.04363,-0.02762 -0.03039,-0.108936 0.08145,-0.500495 0.07345,-0.257136 0.141279,-0.475256 0.150735,-0.484713 0.03124,-0.03124 0.577573,0.148312 0.668228,0.219621 0.06598,0.0519 0.08891,0.105714 0.08891,0.208592 0,0.162647 -0.08755,0.260308 -0.233353,0.260308 h -0.09893 l 0.07014,0.137828 c 0.08194,0.161006 0.15694,0.414779 0.12135,0.410582 -0.01353,-0.0016 -0.06965,-0.01938 -0.1247,-0.0395 z m 0.03782,-0.771236 c 0.01,-0.08605 -0.0084,-0.103592 -0.163352,-0.156407 -0.189511,-0.06457 -0.216094,-0.05458 -0.253065,0.09517 -0.0219,0.08872 -0.01158,0.102912 0.09848,0.135296 0.20505,0.06034 0.305073,0.03705 0.317944,-0.07405 z m 4.803557,0.185232 c -0.08086,-0.20376 -0.159517,-0.378312 -0.174796,-0.387895 -0.01528,-0.0095 -0.08648,0.0039 -0.158213,0.02974 -0.110637,0.04 -0.135621,0.03896 -0.164616,-0.0069 -0.01881,-0.02972 -0.03444,-0.06464 -0.03475,-0.07757 -2.95e-4,-0.01294 0.174729,-0.09397 0.388976,-0.18008 0.319195,-0.128286 0.395421,-0.147269 0.42211,-0.105113 0.05344,0.0844 0.03994,0.10771 -0.09495,0.164073 -0.07075,0.02956 -0.12864,0.06604 -0.12864,0.08108 0,0.0216 0.199111,0.539163 0.279983,0.727788 0.01267,0.02956 -0.128731,0.127935 -0.180639,0.125674 -0.0042,-1.84e-4 -0.07362,-0.167037 -0.154476,-0.370794 z m -6.162095,0.11477 c -0.284568,-0.08597 -0.435265,-0.263853 -0.435265,-0.513795 0,-0.29545 0.224526,-0.553004 0.482087,-0.553004 0.146943,0 0.388292,0.09945 0.464664,0.191478 0.0698,0.0841 0.114204,0.234809 0.08372,0.284138 -0.0458,0.0741 -0.186981,0.0078 -0.226826,-0.106474 -0.0645,-0.185043 -0.300121,-0.238977 -0.448536,-0.102674 -0.193145,0.177384 -0.194427,0.486308 -0.0024,0.57381 0.229992,0.104795 0.453634,-0.01066 0.237327,-0.122547 -0.07841,-0.04055 -0.100734,-0.07387 -0.08634,-0.128929 0.01066,-0.04084 0.03458,-0.07425 0.0531,-0.07425 0.04614,0 0.398787,0.180389 0.398787,0.203989 0,0.01044 -0.04162,0.101131 -0.09251,0.201528 -0.08305,0.163903 -0.104636,0.182226 -0.211335,0.179389 -0.06535,-0.0017 -0.162783,-0.01644 -0.216501,-0.03266 z m 6.771594,-0.457554 c -0.12297,-0.230929 -0.223581,-0.436319 -0.223581,-0.45642 0,-0.05242 0.628695,-0.379727 0.686655,-0.357486 0.103536,0.03974 0.03892,0.129768 -0.178884,0.249285 -0.251418,0.137963 -0.271031,0.16386 -0.197586,0.260877 0.04801,0.06341 0.0611,0.06121 0.273363,-0.04594 0.12262,-0.0619 0.231105,-0.112543 0.241078,-0.112543 0.01,0 0.03561,0.03266 0.05698,0.07258 0.03476,0.06494 0.01458,0.08474 -0.191667,0.188126 -0.126778,0.06355 -0.235861,0.120322 -0.242407,0.126155 -0.01601,0.01426 0.100712,0.23796 0.124155,0.23796 0.01021,0 0.12138,-0.05363 0.247146,-0.119186 0.125765,-0.06556 0.23995,-0.124446 0.253741,-0.130874 0.01379,-0.0065 0.04272,0.02128 0.06427,0.06156 0.0356,0.06651 0.0075,0.09039 -0.305282,0.259513 -0.189467,0.102446 -0.353468,0.186258 -0.364446,0.186258 -0.011,0 -0.120571,-0.188942 -0.243541,-0.419871 z m -3.954122,-0.540153 c -0.923392,-0.0872 -1.854518,-0.375964 -2.672994,-0.82897 -0.960453,-0.531586 -1.8758473,-1.39152 -2.4668103,-2.317355 -0.78406,-1.228352 -1.166425,-2.748463 -1.0518548,-4.1817 0.076764,-0.960248 0.2947105,-1.742892 0.7209728,-2.588963 0.148285,-0.294324 0.380784,-0.69226 0.516666,-0.884298 0.303409,-0.428806 1.1665173,-1.298822 1.5775773,-1.590203 0.880281,-0.623987 1.820338,-1.018968 2.880262,-1.210192 0.603256,-0.108833 1.682379,-0.10914 2.278755,-6.38e-4 1.457624,0.265182 2.707479,0.918026 3.720251,1.94322 0.592483,0.599751 0.95697,1.114798 1.314865,1.858004 1.114013,2.313354 0.852462,4.989408 -0.692542,7.08571 -0.268819,0.364742 -0.870921,0.98191 -1.236853,1.267802 -1.406331,1.09873 -3.141408,1.612543 -4.888295,1.447583 z m 1.321658,-0.40145 c 2.230903,-0.255562 4.111549,-1.566717 5.11067,-3.563073 1.08148,-2.160917 0.838823,-4.798494 -0.62053,-6.744879 -1.663612,-2.218813 -4.55453,-3.127292 -7.193741,-2.260653 -2.146871,0.704969 -3.7801363,2.505986 -4.2754943,4.714629 -0.5886284,2.624502 0.491376,5.308751 2.7444633,6.821102 1.201311,0.806363 2.80256,1.196925 4.234632,1.032874 z m -0.93574,-0.86215 v -0.49618 l -0.137828,-1.1e-4 C 14.069995,46.386013 13.226811,46.149761 12.655361,45.863771 12.11712,45.594398 11.786352,45.353574 11.329982,44.898791 10.479431,44.05118 9.9635217,42.968172 9.8545117,41.801428 l -0.02146,-0.229713 h -0.490867 -0.490867 v -0.25728 -0.257278 h 0.491431 0.491433 l 0.02592,-0.266467 c 0.07906,-0.81287 0.3943113,-1.670815 0.8702283,-2.368294 0.107779,-0.157953 0.378262,-0.470116 0.601076,-0.693695 0.610101,-0.612196 1.246972,-1.004759 2.04231,-1.258868 0.372258,-0.118937 0.918181,-0.22715 1.146926,-0.227345 l 0.137827,-1.17e-4 V 35.74619 35.250011 h 0.257279 0.257279 v 0.496179 0.496181 l 0.137828,1.1e-4 c 0.194735,1.84e-4 0.742551,0.10011 1.012362,0.184704 0.125449,0.03933 0.246546,0.07173 0.269106,0.07198 0.02256,2.58e-4 0.07815,-0.1029 0.123515,-0.229239 0.04537,-0.126342 0.09626,-0.244485 0.113099,-0.262541 0.0332,-0.03561 0.475827,0.114683 0.475827,0.161572 0,0.01535 -0.04135,0.13775 -0.09189,0.272015 -0.05054,0.134263 -0.09188,0.250794 -0.09188,0.258956 0,0.0082 0.0951,0.06853 0.211336,0.134145 0.116234,0.06561 0.280474,0.166067 0.364975,0.223222 0.0845,0.05715 0.162447,0.103922 0.173212,0.103922 0.01078,0 0.08696,-0.09924 0.169329,-0.220524 0.08237,-0.121289 0.163197,-0.220524 0.179625,-0.220524 0.02725,0 0.308775,0.189349 0.385572,0.259327 0.01775,0.01618 -0.04551,0.140663 -0.140743,0.276885 l -0.173007,0.247488 0.238652,0.238652 0.238653,0.238653 0.247459,-0.196908 0.247457,-0.196908 0.159246,0.182036 c 0.08759,0.100121 0.159586,0.194163 0.160003,0.208982 4.15e-4,0.01481 -0.106746,0.111432 -0.238145,0.214691 -0.131397,0.103263 -0.238793,0.198641 -0.238661,0.211956 1.48e-4,0.01332 0.03408,0.07384 0.07543,0.134473 0.04135,0.06065 0.124175,0.205364 0.184058,0.321598 0.05988,0.116236 0.123121,0.211336 0.140529,0.211336 0.01741,0 0.125147,-0.04135 0.23942,-0.09189 0.258487,-0.114316 0.263888,-0.114155 0.308764,0.0092 0.02023,0.0556 0.06267,0.161332 0.09434,0.234983 l 0.05757,0.133907 -0.256347,0.104999 c -0.190262,0.07793 -0.250837,0.119207 -0.234973,0.160124 0.07479,0.192907 0.204103,0.764426 0.242413,1.071398 l 0.04518,0.362012 h 0.488926 0.488928 v 0.257278 0.257279 h -0.496188 -0.496181 v 0.123824 c 0,0.213783 -0.107642,0.762163 -0.223276,1.137445 -0.144629,0.469392 -0.486695,1.138479 -0.784648,1.534781 -0.457933,0.609087 -1.170494,1.199104 -1.832978,1.517745 -0.551186,0.26511 -1.422036,0.500308 -1.854434,0.500844 l -0.119451,1.54e-4 v 0.496181 0.496181 h -0.257277 -0.257279 z m 0,-1.501874 v -0.491139 l -0.284844,-0.0459 c -0.86713,-0.139706 -1.656418,-0.589011 -2.213861,-1.26025 -0.393977,-0.474399 -0.70485,-1.197049 -0.79035,-1.837229 l -0.02331,-0.174584 h -0.493934 c -0.37072,0 -0.493893,0.01146 -0.493781,0.04594 7.3e-5,0.02527 0.0254,0.203067 0.05627,0.395106 0.275074,1.71175 1.477451,3.116526 3.116316,3.640902 0.327853,0.104897 0.821509,0.208293 1.026432,0.214981 l 0.101075,0.0033 z m 1.188541,0.395148 c 1.457598,-0.297957 2.704004,-1.336954 3.288457,-2.741243 0.127685,-0.306791 0.281244,-0.914251 0.316407,-1.251662 l 0.02203,-0.211335 H 18.979649 18.4854 l -0.02331,0.174581 c -0.07124,0.533409 -0.294185,1.126721 -0.591952,1.575325 -0.527624,0.794901 -1.429133,1.363759 -2.41226,1.522154 l -0.284844,0.0459 v 0.493782 0.493782 l 0.211336,-0.02496 c 0.116235,-0.01373 0.324426,-0.04806 0.462647,-0.07632 z M 14.65846,44.002771 v -0.36226 l -0.24809,-0.06018 c -0.936082,-0.227069 -1.59322,-0.926913 -1.79114,-1.907538 l -0.02041,-0.101075 h -0.361274 -0.361278 l 0.0327,0.211336 c 0.05089,0.328841 0.09837,0.481087 0.254486,0.815874 0.411988,0.883532 1.179269,1.494841 2.12745,1.694985 0.171825,0.03628 0.324815,0.06711 0.339976,0.06853 0.01516,0.0015 0.02757,-0.160432 0.02757,-0.359674 z m 1.063362,0.246911 c 1.12754,-0.296646 2.023347,-1.300492 2.201156,-2.466627 l 0.03223,-0.211335 h -0.36128 -0.361278 l -0.02229,0.101075 c -0.126327,0.572947 -0.310631,0.927585 -0.667562,1.284515 -0.213109,0.213109 -0.334248,0.298578 -0.606692,0.42805 -0.187231,0.08897 -0.435518,0.181594 -0.551754,0.205818 l -0.211336,0.04405 v 0.362595 0.362594 l 0.137829,-0.01943 c 0.0758,-0.01066 0.260744,-0.05177 0.410975,-0.09129 z m -1.06435,-1.78668 -10e-4,-0.615632 -0.128174,-0.137828 -0.128139,-0.137827 H 13.771024 13.14189 l 0.02227,0.137827 c 0.03668,0.227077 0.26648,0.64564 0.465444,0.847767 0.208562,0.211877 0.442628,0.360703 0.715938,0.455211 0.332303,0.114907 0.313024,0.148875 0.311896,-0.549518 z m 1.053649,0.451142 c 0.34877,-0.172204 0.631007,-0.453309 0.801187,-0.79797 0.073,-0.147842 0.142743,-0.330826 0.154989,-0.406632 l 0.02227,-0.137827 h -0.625955 -0.625953 l -0.132314,0.132314 -0.132316,0.132315 v 0.625953 0.625953 l 0.137829,-0.02227 c 0.0758,-0.01224 0.255926,-0.08058 0.400269,-0.151844 z m -4.324715,-2.141831 c 0.186962,-1.160439 0.890155,-2.125671 1.93075,-2.650233 0.32394,-0.163297 0.804549,-0.314198 1.130347,-0.354902 l 0.210963,-0.02636 v -0.491945 c 0,-0.567852 0.05029,-0.520671 -0.465734,-0.436979 -0.927127,0.15037 -1.78393,0.585197 -2.453997,1.245402 -0.387431,0.38173 -0.63204,0.710294 -0.861801,1.157591 -0.273344,0.532143 -0.42959,1.042783 -0.499034,1.630933 l -0.02496,0.211336 h 0.493783 0.493782 z m 1.23283,0.18377 c 0.202708,-1.004346 0.893133,-1.723416 1.846271,-1.922868 l 0.192959,-0.04037 v -0.366974 c 0,-0.331761 -0.0062,-0.365267 -0.06432,-0.349208 -0.03537,0.0098 -0.143512,0.02853 -0.240305,0.0417 -0.363957,0.04949 -0.859366,0.267698 -1.267887,0.558461 -0.585036,0.416394 -1.062438,1.214743 -1.177448,1.96901 l -0.03222,0.211336 h 0.361276 0.361276 z m 1.909101,-0.03675 0.12814,-0.137828 10e-4,-0.620441 10e-4,-0.620439 -0.137829,0.02227 c -0.241967,0.03909 -0.675275,0.280003 -0.879676,0.489097 -0.203851,0.208529 -0.439639,0.637482 -0.476768,0.867347 l -0.02227,0.137829 h 0.629133 0.629134 l 0.12814,-0.137829 z m 2.151605,0.04594 c 0,-0.113542 -0.01611,-0.113672 -0.261754,-0.0022 l -0.197672,0.08976 0.229713,0.0022 c 0.221088,0.002 0.229713,-0.0014 0.229713,-0.08976 z m 1.261416,-0.0092 c -0.03991,-0.272874 -0.09891,-0.527823 -0.126008,-0.544575 -0.01662,-0.01032 -0.167247,0.03841 -0.334726,0.108198 -0.293001,0.122082 -0.304291,0.131214 -0.298918,0.241791 0.01448,0.297944 0.01134,0.295662 0.412691,0.295662 h 0.361744 z m 1.510992,-0.09189 C 19.4171,40.574008 19.329636,40.141579 19.26668,39.946299 l -0.05597,-0.173613 -0.116818,0.05107 c -0.06425,0.02809 -0.270414,0.113383 -0.458141,0.189539 -0.26841,0.10889 -0.336172,0.15077 -0.317209,0.196052 0.01326,0.03167 0.05906,0.23538 0.101766,0.452689 l 0.07765,0.395106 h 0.488916 0.488916 z m -4.054754,-1.283806 c -0.03255,-0.01374 -0.0964,-0.02615 -0.141879,-0.02757 -0.08089,-0.0025 -0.08266,0.006 -0.08092,0.392524 l 0.0017,0.395106 0.140102,-0.36754 c 0.122441,-0.32121 0.132642,-0.370691 0.08092,-0.392524 z m 3.086143,-0.07071 c 0.190472,-0.08296 0.384514,-0.165616 0.431206,-0.183696 l 0.0849,-0.03288 -0.113929,-0.211411 c -0.06266,-0.116276 -0.137002,-0.242046 -0.165201,-0.279488 -0.05933,-0.07877 -0.02219,-0.09944 -0.509722,0.283615 -0.303848,0.23873 -0.318375,0.256512 -0.270224,0.330787 0.02799,0.04318 0.07058,0.115709 0.09465,0.161191 0.02407,0.04549 0.05688,0.0827 0.07288,0.0827 0.01602,0 0.184964,-0.06787 0.375436,-0.150823 z m -2.803891,-0.501564 c 0.01992,-0.0556 0.07813,-0.211249 0.129362,-0.345908 l 0.09314,-0.244836 -0.245217,-0.05598 c -0.13487,-0.03079 -0.298971,-0.06492 -0.364669,-0.07585 l -0.119451,-0.01986 v 0.362388 0.362388 l 0.211336,0.05438 c 0.116236,0.0299 0.222123,0.05663 0.235306,0.05936 0.01318,0.0028 0.04026,-0.0405 0.06018,-0.09609 z m 2.46107,-0.532804 c 0.106122,-0.08073 0.192959,-0.157829 0.192959,-0.171321 0,-0.01349 -0.07857,-0.101732 -0.174582,-0.196079 l -0.174582,-0.171548 -0.282745,0.414953 -0.282744,0.414951 0.0777,0.07769 0.07769,0.07769 0.186671,-0.149779 c 0.102674,-0.08238 0.273503,-0.215835 0.37963,-0.29657 z m -0.841617,-0.459116 0.270193,-0.392509 -0.0841,-0.06811 c -0.108482,-0.08785 -0.505759,-0.320853 -0.547048,-0.320853 -0.03742,0 -0.385025,0.877987 -0.358217,0.904796 0.02685,0.02685 0.409021,0.263392 0.430603,0.266518 0.0101,0.0015 0.139965,-0.173969 0.288573,-0.389849 z m -1.060408,-0.512721 c 0.09097,-0.236266 0.170873,-0.4429 0.177568,-0.459187 0.02491,-0.06059 -0.56439,-0.213633 -1.032101,-0.268045 l -0.211336,-0.02458 v 0.49459 0.49459 l 0.200533,0.02506 c 0.110297,0.01378 0.30463,0.05516 0.43186,0.09195 0.127231,0.0368 0.239598,0.06877 0.249705,0.07105 0.0101,0.0023 0.09281,-0.189157 0.183771,-0.425425 z m -9.2764772,6.987201 c -0.040974,-0.106781 -0.024027,-0.118998 0.3274626,-0.236097 0.4478274,-0.149194 0.5207688,-0.219663 0.420771,-0.406509 -0.052046,-0.09725 -0.144323,-0.08987 -0.5450062,0.04362 -0.2822288,0.09403 -0.3500915,0.105623 -0.3762585,0.06432 -0.017549,-0.02772 -0.032171,-0.06971 -0.032489,-0.0933 -6.171e-4,-0.04713 0.7389373,-0.30626 0.8740876,-0.30626 0.2035837,0 0.3911565,0.379116 0.2871146,0.580309 -0.059578,0.115213 -0.125618,0.151157 -0.5615683,0.305643 -0.3487416,0.123582 -0.3644767,0.125509 -0.3941161,0.04827 z m 15.7496342,0.02491 c -0.04221,-0.02674 -0.03758,-0.07093 0.02762,-0.264013 0.08272,-0.244938 0.07448,-0.282471 -0.06553,-0.29895 -0.07597,-0.009 -0.09614,0.01665 -0.158486,0.201091 -0.05267,0.155799 -0.08938,0.211336 -0.139712,0.211336 -0.107313,0 -0.113641,-0.04958 -0.03537,-0.277097 0.04016,-0.116718 0.07301,-0.216102 0.07301,-0.220852 0,-0.0048 -0.03982,-0.01863 -0.08847,-0.03085 -0.04865,-0.01221 -0.112895,-0.03158 -0.14274,-0.04304 -0.04094,-0.01571 -0.07378,0.0434 -0.133704,0.240697 -0.07256,0.238885 -0.08645,0.259369 -0.160482,0.236628 -0.04457,-0.01369 -0.08558,-0.02876 -0.09113,-0.03348 -0.0056,-0.0047 0.04096,-0.167143 0.103366,-0.360941 0.07064,-0.219378 0.129926,-0.346791 0.157101,-0.3376 0.024,0.0082 0.254525,0.0825 0.512263,0.165301 0.257739,0.0828 0.468824,0.162072 0.46908,0.176165 2.57e-4,0.0141 -0.0437,0.170342 -0.09768,0.347222 -0.09612,0.314971 -0.12659,0.353315 -0.229138,0.288363 z m 0.149214,-1.078577 c 0.0065,-0.04549 0.04965,-0.09924 0.09597,-0.11945 0.08896,-0.03882 0.140169,-0.164656 0.104659,-0.257196 -0.03553,-0.0926 -0.133675,-0.0618 -0.199786,0.0627 -0.111431,0.209855 -0.24662,0.32314 -0.385613,0.32314 -0.15047,0 -0.302609,-0.108697 -0.335487,-0.239698 -0.06031,-0.240314 0.132192,-0.532139 0.351037,-0.532139 0.08782,0 0.105305,0.01526 0.105305,0.09189 0,0.06625 -0.01977,0.09189 -0.07088,0.09189 -0.17151,0 -0.261578,0.287964 -0.11466,0.366592 0.08016,0.0429 0.08398,0.0398 0.260927,-0.211765 0.134258,-0.190872 0.262367,-0.249594 0.410581,-0.188201 0.132374,0.05483 0.175608,0.135538 0.175608,0.327817 0,0.119282 -0.02327,0.17553 -0.107438,0.259695 -0.135618,0.135618 -0.308062,0.150316 -0.290228,0.02474 z M 6.7106987,43.410328 C 6.5904758,43.315758 6.519844,43.088666 6.5697936,42.95729 c 0.031842,-0.08374 0.1681861,-0.209438 0.2271892,-0.209438 0.05014,0 0.057809,0.18457 0.0093,0.224791 -0.067451,0.05598 -0.063378,0.232896 0.00669,0.291059 0.087189,0.07236 0.13665,-0.0048 0.1667465,-0.260033 0.030073,-0.255029 0.1003483,-0.354542 0.273325,-0.38699 0.2397129,-0.04498 0.4220914,0.142168 0.4220914,0.433106 0,0.14635 -0.05546,0.238156 -0.1840302,0.304643 -0.1053737,0.05448 -0.1089924,0.05342 -0.1321612,-0.03888 -0.018105,-0.07212 -0.0051,-0.108028 0.054303,-0.149615 0.1383494,-0.0969 0.075199,-0.344581 -0.08787,-0.344581 -0.09614,0 -0.1083004,0.02812 -0.141369,0.326991 -0.031026,0.280308 -0.2769959,0.416439 -0.4733637,0.261976 z M 22.30332,42.419092 c 0,-0.09531 0.02743,-0.122744 0.229713,-0.229713 0.352149,-0.186226 0.32903,-0.321726 -0.05513,-0.323124 -0.12238,-4.45e-4 -0.137828,-0.01078 -0.137828,-0.09239 0,-0.08637 0.01159,-0.09188 0.19296,-0.09169 0.106134,1.09e-4 0.356464,0.011 0.556306,0.02424 l 0.363347,0.02406 -0.02263,0.293482 c -0.01244,0.161416 -0.04721,0.331 -0.07726,0.376853 -0.108198,0.165138 -0.414404,0.141936 -0.513152,-0.03889 -0.02209,-0.04043 -0.04419,-0.08029 -0.04911,-0.0886 -0.0049,-0.0083 -0.038,0.01044 -0.07351,0.04165 -0.06287,0.05528 -0.354201,0.21233 -0.393868,0.21233 -0.01089,0 -0.01984,-0.0487 -0.01984,-0.108232 z m 0.926184,-0.292052 c 0.03405,-0.200875 0.0195,-0.224532 -0.13814,-0.224532 h -0.12647 v 0.177643 c 0,0.205746 0.01867,0.233992 0.144816,0.21915 0.078,-0.0092 0.09671,-0.03607 0.119794,-0.172261 z M 7.0687457,42.343813 c -0.2021475,-0.05729 -0.4378333,-0.122764 -0.5237454,-0.145508 -0.1371026,-0.0363 -0.1562058,-0.05404 -0.1562058,-0.145079 0,-0.09784 0.027316,-0.115629 0.481647,-0.313621 0.2649055,-0.115442 0.5047262,-0.218752 0.5329351,-0.229577 0.036822,-0.01412 0.051286,0.01123 0.051286,0.09006 0,0.08728 -0.022563,0.119083 -0.1102629,0.155407 -0.1162593,0.04816 -0.1314999,0.105147 -0.087257,0.326341 0.017957,0.08981 0.048155,0.121474 0.1378286,0.144546 0.088006,0.02264 0.1175434,0.05266 0.1264563,0.128492 0.014237,0.121152 0.013817,0.121141 -0.4526791,-0.011 z m -0.018377,-0.331044 c 0,-0.126925 -0.031638,-0.132013 -0.2389007,-0.03842 l -0.1470172,0.06639 0.1102629,0.02599 c 0.060645,0.01429 0.1268012,0.03151 0.147016,0.03824 0.098375,0.03282 0.128639,0.01112 0.128639,-0.0922 z M 22.488969,41.372253 c -0.109413,-0.0606 -0.142926,-0.138605 -0.146312,-0.340606 -0.0018,-0.110898 0.02137,-0.182008 0.0828,-0.253418 0.07953,-0.09246 0.114051,-0.101494 0.503612,-0.13177 0.230025,-0.01788 0.439693,-0.02426 0.465928,-0.0142 0.02624,0.0101 0.0477,0.06018 0.0477,0.111341 v 0.09304 l -0.358352,5.4e-4 c -0.213701,3.3e-4 -0.395443,0.0192 -0.450238,0.04679 -0.113189,0.05698 -0.139455,0.212254 -0.05089,0.300817 0.05566,0.05566 0.111727,0.0602 0.461422,0.03737 l 0.398061,-0.026 v 0.11428 0.114278 l -0.431861,-0.0012 c -0.292594,-8.74e-4 -0.460885,-0.01738 -0.521867,-0.05115 z m -15.7418212,-0.0117 -0.3583521,-0.01202 v -0.329457 c 0,-0.326917 7.09e-4,-0.329456 0.091886,-0.329456 0.088585,0 0.091886,0.0086 0.091886,0.238902 v 0.238901 h 0.12864 0.1286401 v -0.202147 c 0,-0.191122 0.00499,-0.202147 0.091886,-0.202147 0.086872,0 0.091886,0.011 0.091886,0.202147 v 0.202147 h 0.214399 c 0.11792,0 0.2230577,0.0086 0.2336405,0.01924 0.01055,0.01055 0.011412,0.0602 0.00182,0.110263 -0.015802,0.0827 -0.032965,0.09032 -0.1876976,0.08333 -0.093667,-0.0042 -0.3315556,-0.0131 -0.5286494,-0.01972 z M 6.4023811,40.349648 c 0.012183,-0.04548 0.022393,-0.09451 0.022665,-0.108935 2.949e-4,-0.01443 0.1577043,-0.03097 0.3498397,-0.03675 L 7.124223,40.193413 6.8392058,40.067898 c -0.1567605,-0.06904 -0.299096,-0.13769 -0.3163025,-0.152572 -0.017209,-0.01488 -0.020147,-0.07775 -0.00647,-0.139696 l 0.024741,-0.112634 0.374085,-0.01044 0.3740851,-0.01044 -0.3307865,-0.133769 C 6.6711583,39.392125 6.62625,39.361998 6.616146,39.278637 c -0.00635,-0.05277 0.00601,-0.09595 0.027611,-0.09595 0.039034,0 0.9023737,0.363937 0.9806399,0.413384 0.022563,0.01426 0.033306,0.06624 0.02389,0.115519 -0.016358,0.08553 -0.033249,0.09068 -0.3718004,0.113257 -0.1950689,0.013 -0.3788971,0.02694 -0.4085059,0.03097 -0.029608,0.0041 0.1068371,0.07992 0.3032207,0.168649 0.3241197,0.146439 0.3570567,0.170513 0.3570567,0.260977 0,0.09501 -0.01055,0.100757 -0.2259153,0.123271 -0.1242545,0.01299 -0.3825431,0.02362 -0.5739751,0.02362 -0.3430141,0 -0.3477388,-0.0012 -0.3258984,-0.0827 z m 16.1000869,0.04709 c -0.04208,-0.01703 -0.12064,-0.0834 -0.174583,-0.147507 -0.115455,-0.137211 -0.135647,-0.408462 -0.04052,-0.54428 0.09751,-0.139215 0.319587,-0.228211 0.569472,-0.228211 0.207632,0 0.23565,0.01 0.350628,0.124964 0.11007,0.11007 0.124964,0.147738 0.124964,0.316086 0,0.167176 -0.01519,0.206303 -0.121175,0.312296 -0.17298,0.17298 -0.50195,0.250327 -0.70879,0.166652 z m 0.480672,-0.237624 c 0.200369,-0.08372 0.225371,-0.303826 0.04943,-0.435064 -0.202115,-0.150753 -0.618981,0.01572 -0.618981,0.2472 0,0.215871 0.280836,0.308501 0.56956,0.187864 z M 22.118602,39.22417 c -0.19533,-0.195328 -0.188679,-0.417361 0.01836,-0.612618 0.144089,-0.135893 0.40599,-0.219127 0.593667,-0.188671 0.33219,0.05391 0.48673,0.466409 0.255955,0.683211 l -0.08476,0.07963 -0.05898,-0.09003 c -0.05257,-0.08022 -0.05293,-0.09505 -0.0033,-0.136205 0.09076,-0.07532 0.05145,-0.263905 -0.06677,-0.320284 -0.211402,-0.100814 -0.640568,0.130799 -0.591319,0.319126 0.02417,0.09243 0.146114,0.187616 0.240357,0.187616 0.04518,0 0.06533,0.02834 0.06533,0.09189 0,0.08088 -0.01574,0.09188 -0.131466,0.09188 -0.09577,0 -0.160132,-0.02867 -0.23702,-0.105555 z M 7.4179082,39.127576 c 0,-0.06738 0.019602,-0.09189 0.073509,-0.09189 0.1810115,0 0.2965811,-0.287496 0.1476173,-0.367218 -0.060463,-0.03237 -0.087133,-0.02183 -0.1562058,0.06165 -0.2086442,0.252171 -0.2793837,0.305562 -0.4048498,0.305562 -0.1745318,0 -0.28489,-0.124403 -0.28489,-0.321148 0,-0.208646 0.1410525,-0.37718 0.3156774,-0.37718 0.06896,0 0.1253719,0.01519 0.1253719,0.03375 0,0.07396 -0.047236,0.150023 -0.09319,0.150023 -0.077002,0 -0.1640864,0.107518 -0.1640864,0.202604 0,0.162895 0.079975,0.14296 0.2753362,-0.06862 0.1563782,-0.169369 0.2132725,-0.207486 0.3096981,-0.207486 0.3162867,0 0.4404504,0.288224 0.2652164,0.615654 -0.055642,0.103967 -0.1547788,0.156182 -0.2965222,0.156182 -0.095686,0 -0.1126791,-0.01386 -0.1126791,-0.09189 z M 21.642955,38.119763 c -0.04104,-0.09909 -0.03446,-0.12874 0.06857,-0.308834 0.114722,-0.200513 0.143131,-0.333312 0.07969,-0.37252 -0.01886,-0.01165 -0.112645,0.02255 -0.208409,0.07602 -0.166196,0.09278 -0.176342,0.09417 -0.222988,0.03038 -0.02687,-0.03675 -0.04887,-0.08009 -0.04887,-0.0963 0,-0.0162 0.213513,-0.136459 0.474472,-0.267225 0.354707,-0.177744 0.483231,-0.226516 0.509176,-0.193222 0.08284,0.106304 0.229238,0.471936 0.229238,0.572526 0,0.205415 -0.353339,0.357063 -0.479042,0.205599 -0.04061,-0.04894 -0.0602,-0.03245 -0.144292,0.121299 -0.05352,0.09785 -0.123139,0.214819 -0.154724,0.25991 l -0.05742,0.08198 z m 0.643835,-0.532668 c 0.06988,-0.05109 0.0697,-0.05469 -0.01134,-0.221476 l -0.08237,-0.169537 -0.110274,0.05703 c -0.131106,0.06779 -0.133378,0.08529 -0.03314,0.255186 0.08424,0.142773 0.129201,0.157715 0.237121,0.07881 z M 7.7349084,37.740109 C 7.5406902,37.512693 7.382168,37.310086 7.3826377,37.289871 c 4.707e-4,-0.02022 0.022143,-0.06476 0.048166,-0.099 0.044207,-0.05816 0.083287,-0.0559 0.5960855,0.03449 0.3018277,0.0532 0.5556935,0.101914 0.5641455,0.108244 0.0085,0.0064 -0.0058,0.05103 -0.0316,0.0993 -0.040373,0.07544 -0.06685,0.08513 -0.1881931,0.06886 -0.1374906,-0.01843 -0.1433759,-0.01449 -0.2234866,0.150414 l -0.082278,0.169353 0.083673,0.08906 c 0.069277,0.07374 0.076583,0.1023 0.042472,0.166038 -0.022654,0.04233 -0.055222,0.07698 -0.072386,0.07698 -0.017152,0 -0.1900912,-0.186068 -0.3843094,-0.413484 z M 8.0014497,37.5424 c 0.024208,-0.05316 0.039273,-0.100836 0.033465,-0.105975 -0.026556,-0.02347 -0.3597282,-0.08011 -0.3597282,-0.06115 0,0.02964 0.2295284,0.263761 0.2585892,0.263761 0.013012,0 0.043459,-0.04348 0.067678,-0.09664 z M 8.2327953,36.938768 C 8.0080359,36.775983 7.8151008,36.628162 7.8040462,36.610277 c -0.028076,-0.04543 0.2781869,-0.413595 0.3884816,-0.466981 0.1251314,-0.06057 0.3406398,-0.0068 0.5045869,0.125893 0.322752,0.261227 0.353319,0.439652 0.130336,0.76083 -0.07784,0.112112 -0.151535,0.204046 -0.163766,0.204285 -0.01223,2.57e-4 -0.2061323,-0.132751 -0.4308894,-0.295536 z m 0.5450144,-0.223051 c 0,-0.122551 -0.06639,-0.208786 -0.2382725,-0.309519 -0.1985368,-0.11635 -0.2957337,-0.106905 -0.4083789,0.03968 l -0.085771,0.111624 0.2835152,0.208117 0.2835152,0.208116 0.0827,-0.09207 c 0.04549,-0.05064 0.0827,-0.125316 0.0827,-0.165948 z m 12.1980353,0.266068 c -0.304182,-0.304182 -0.117686,-0.746021 0.374463,-0.887167 0.322323,-0.09244 0.640396,0.232382 0.546872,0.558478 -0.0677,0.236053 -0.389311,0.471381 -0.644214,0.471381 -0.107144,0 -0.163385,-0.02895 -0.277121,-0.142692 z m 0.596714,-0.220525 c 0.161991,-0.161991 0.184265,-0.293539 0.06919,-0.408619 -0.09451,-0.09451 -0.234761,-0.09342 -0.390796,0.0031 -0.2266,0.140046 -0.28942,0.305835 -0.176809,0.46661 0.04315,0.06161 0.09389,0.08169 0.206472,0.08169 0.124373,0 0.173045,-0.02379 0.291948,-0.142693 z M 8.9103677,36.015464 8.3997279,35.758781 l 0.073565,-0.07356 0.073565,-0.07357 0.3779818,0.189681 0.377982,0.189679 -0.09243,-0.159162 c -0.05083,-0.08754 -0.146493,-0.255604 -0.212563,-0.373477 l -0.120127,-0.214315 0.07457,-0.07457 0.07457,-0.07458 0.174825,0.32564 c 0.09615,0.179101 0.221772,0.409853 0.279154,0.512782 l 0.10433,0.187144 -0.08206,0.07583 -0.08206,0.07583 z m 11.4064443,0.169635 c -0.04082,-0.04919 -0.0025,-0.102572 0.271209,-0.377511 l 0.318749,-0.320231 -0.100054,-0.100053 c -0.09477,-0.09477 -0.0967,-0.103411 -0.03662,-0.163497 0.06009,-0.06009 0.07795,-0.04902 0.33796,0.209243 0.259309,0.257579 0.271162,0.276394 0.213943,0.33962 -0.05824,0.06435 -0.06455,0.06313 -0.163819,-0.03198 -0.102436,-0.09814 -0.103899,-0.09836 -0.186575,-0.02889 -0.04583,0.03851 -0.184167,0.173648 -0.307412,0.300302 -0.123245,0.126654 -0.24113,0.230279 -0.261967,0.230279 -0.02084,0 -0.05927,-0.02578 -0.08542,-0.05728 z M 9.5546617,35.40489 c -0.104546,-0.277219 -0.189794,-0.522147 -0.189437,-0.544281 3.68e-4,-0.02213 0.02998,-0.06679 0.06584,-0.09925 0.06063,-0.05487 0.09839,-0.03978 0.54011,0.215878 0.2612043,0.151182 0.4826133,0.282573 0.4920193,0.291979 0.0094,0.0094 -0.0128,0.05013 -0.04932,0.0905 -0.06578,0.07269 -0.06754,0.07271 -0.180998,0.0026 l -0.114573,-0.0708 -0.1533533,0.127382 c -0.15266,0.126809 -0.153119,0.127942 -0.101584,0.25127 0.05251,0.12566 0.04504,0.146275 -0.07833,0.216009 -0.02518,0.01424 -0.1115,-0.166083 -0.230363,-0.481269 z m 0.28576,-0.133029 0.08306,-0.08841 -0.140322,-0.09536 c -0.07717,-0.05244 -0.152105,-0.09535 -0.166507,-0.09535 -0.0144,0 0.0082,0.0827 0.05019,0.18377 0.04201,0.101075 0.07955,0.183771 0.08345,0.183771 0.0039,0 0.04445,-0.03978 0.09014,-0.08842 z m 9.8362563,0.305137 c -0.112135,-0.09845 -0.129919,-0.136436 -0.129919,-0.277481 0,-0.193924 0.05949,-0.319156 0.228962,-0.481973 0.153253,-0.147238 0.314841,-0.198641 0.480579,-0.152879 0.190163,0.0525 0.301197,0.193735 0.301197,0.383104 0,0.190224 -0.02363,0.221698 -0.125491,0.16718 -0.05059,-0.02708 -0.07665,-0.07718 -0.07665,-0.147369 0,-0.134509 -0.08601,-0.221856 -0.218469,-0.221856 -0.07486,0 -0.144357,0.04491 -0.254653,0.164571 -0.172662,0.187317 -0.19784,0.333588 -0.07634,0.443538 0.06529,0.05909 0.09104,0.06226 0.192959,0.02369 0.101142,-0.03827 0.12404,-0.03576 0.163552,0.01804 0.06637,0.09037 0.05758,0.119399 -0.04834,0.159668 -0.170626,0.06488 -0.300945,0.04157 -0.437377,-0.07823 z m -9.350134,-0.780812 c -0.321256,-0.51464 -0.322181,-0.516994 -0.220873,-0.562199 0.0669,-0.02985 0.136996,-0.005 0.396624,0.140639 0.173451,0.0973 0.327496,0.176935 0.342321,0.176981 0.01483,3.7e-5 -0.04944,-0.123703 -0.142805,-0.274997 -0.141124,-0.228677 -0.161962,-0.284477 -0.123528,-0.330787 0.02543,-0.03064 0.05892,-0.05571 0.07442,-0.05571 0.02717,0 0.528333,0.780572 0.568701,0.885769 0.01089,0.02839 -0.01422,0.07286 -0.05585,0.09885 -0.06684,0.04175 -0.113909,0.02568 -0.404093,-0.137903 -0.180643,-0.101835 -0.3389,-0.185149 -0.351683,-0.185149 -0.01278,0 0.0067,0.04548 0.04316,0.101074 0.255417,0.388738 0.28338,0.448372 0.236645,0.504685 -0.02548,0.0307 -0.05901,0.05581 -0.07451,0.05581 -0.01551,0 -0.145344,-0.187685 -0.288539,-0.417079 z m 8.468035,0.155992 c -0.156394,-0.137316 -0.172919,-0.300809 -0.05118,-0.506412 0.296017,-0.499952 0.368755,-0.591543 0.43965,-0.553601 0.03832,0.02051 0.06967,0.05343 0.06967,0.07316 0,0.01973 -0.08033,0.164027 -0.178494,0.320672 -0.232439,0.370887 -0.248865,0.426404 -0.154173,0.521097 0.141905,0.141903 0.20869,0.101142 0.448581,-0.273777 0.221267,-0.345814 0.278657,-0.394321 0.35611,-0.300995 0.03019,0.03637 -0.0047,0.120503 -0.142271,0.343533 -0.260213,0.421723 -0.3317,0.490397 -0.51049,0.490397 -0.112565,0 -0.178257,-0.02701 -0.27741,-0.11407 z m -0.509307,-0.299413 c -0.05032,-0.0369 -0.133664,-0.353874 -0.134956,-0.513265 -1.1e-4,-0.01445 -0.03382,-0.04425 -0.07488,-0.06624 -0.06752,-0.03613 -0.08362,-0.02042 -0.168088,0.1641 -0.09997,0.218362 -0.114042,0.229004 -0.2091,0.158117 -0.05619,-0.0419 -0.04363,-0.08636 0.142787,-0.505368 0.112419,-0.252685 0.216687,-0.472149 0.231711,-0.487699 0.03242,-0.03356 0.484228,0.164739 0.569403,0.249914 0.147413,0.147413 0.0078,0.495064 -0.19877,0.495064 -0.09849,0 -0.103524,0.0069 -0.07393,0.101074 0.01746,0.05559 0.04109,0.179635 0.05251,0.275656 0.02214,0.186153 -0.01307,0.219291 -0.136693,0.128639 z m 0.143169,-0.680514 c 0.05526,-0.03784 0.08702,-0.136769 0.05824,-0.181412 -0.02752,-0.04268 -0.24189,-0.158001 -0.29371,-0.158001 -0.01887,0 -0.04261,0.02895 -0.05278,0.06432 -0.01021,0.03537 -0.0296,0.09111 -0.04314,0.12387 -0.01846,0.0446 0.01044,0.07411 0.115282,0.117557 0.164962,0.06838 0.165333,0.06844 0.216118,0.03367 z m -7.012282,0.559069 c -0.159235,-0.08642 -0.300506,-0.362719 -0.302645,-0.59191 -0.0016,-0.169908 0.01268,-0.209266 0.111874,-0.308519 0.161695,-0.161798 0.368239,-0.185708 0.513672,-0.05947 0.105498,0.09158 0.106213,0.09462 0.03488,0.147507 -0.06174,0.04578 -0.0873,0.04652 -0.167943,0.0048 -0.07623,-0.03942 -0.112838,-0.04022 -0.184447,-0.0041 -0.07729,0.03903 -0.08915,0.0703 -0.08802,0.231817 0.0017,0.239644 0.147033,0.45316 0.308458,0.45316 0.124291,0 0.175614,-0.05394 0.192336,-0.202146 0.0101,-0.0892 0.03175,-0.112486 0.113516,-0.121893 0.09051,-0.01044 0.101074,-3.5e-5 0.101074,0.09934 0,0.329406 -0.332756,0.514168 -0.632765,0.35134 z m 0.907795,-0.246429 c -0.24978,-0.692932 -0.339741,-0.983938 -0.309878,-1.002395 0.0198,-0.01224 0.17562,-0.06945 0.346264,-0.127126 0.30523,-0.103173 0.310648,-0.103672 0.333862,-0.03053 0.03019,0.0951 0.0031,0.117829 -0.231362,0.193879 -0.225929,0.07329 -0.244792,0.09474 -0.189697,0.215663 l 0.04138,0.09082 0.220444,-0.07445 c 0.183912,-0.06211 0.225767,-0.06604 0.252555,-0.02375 0.06237,0.09846 0.03095,0.131632 -0.18729,0.197711 -0.121288,0.03672 -0.220525,0.07823 -0.220525,0.09223 0,0.05513 0.0821,0.256966 0.104671,0.257316 0.01318,2.2e-4 0.127117,-0.03586 0.253187,-0.08013 0.245724,-0.0863 0.253364,-0.08569 0.272658,0.02173 0.01055,0.05898 -0.04352,0.09071 -0.328575,0.192626 -0.248424,0.08882 -0.345727,0.109605 -0.357696,0.0764 z m 4.785148,-0.09007 c -0.03686,-0.0094 -0.05996,-0.03632 -0.05134,-0.05983 0.124271,-0.338669 0.249667,-0.772969 0.234553,-0.812356 -0.01066,-0.02773 -0.07073,-0.06169 -0.133537,-0.07549 -0.09612,-0.02111 -0.110331,-0.03766 -0.0898,-0.104534 0.01341,-0.0437 0.02956,-0.08531 0.03588,-0.09245 0.0091,-0.01032 0.710517,0.208463 0.740569,0.230944 0.0042,0.0032 -0.0022,0.0435 -0.01419,0.0896 -0.01823,0.0697 -0.03812,0.07953 -0.117994,0.05839 -0.191382,-0.05067 -0.19421,-0.04756 -0.333319,0.366856 -0.07421,0.221103 -0.150435,0.405149 -0.169373,0.408991 -0.01894,0.0039 -0.06459,-7.09e-4 -0.101448,-0.0101 z m -3.895783,-0.185259 c -0.0088,-0.01517 -0.05425,-0.247964 -0.100904,-0.517341 -0.09788,-0.565098 -0.108709,-0.539968 0.249227,-0.5783 0.34657,-0.03712 0.499709,0.08989 0.558753,0.463405 0.0576,0.364394 -0.05994,0.549112 -0.393921,0.619028 -0.229132,0.04796 -0.291348,0.05059 -0.31315,0.0132 z m 0.480232,-0.291029 c 0.06304,-0.08621 0.0578,-0.275418 -0.0125,-0.451112 -0.06477,-0.161891 -0.143689,-0.203825 -0.313416,-0.166547 -0.111318,0.02445 -0.112668,0.02746 -0.08806,0.195698 0.01375,0.09397 0.04196,0.251305 0.06269,0.349619 l 0.0377,0.178751 0.133767,-0.02171 c 0.07357,-0.01193 0.154495,-0.05005 0.17983,-0.0847 z m 2.532204,0.282139 c -0.152378,-0.0476 -0.239452,-0.14007 -0.266211,-0.282713 -0.02846,-0.151689 -0.01453,-0.169222 0.109616,-0.138062 0.05843,0.01467 0.09622,0.04969 0.09622,0.08918 0,0.09765 0.09085,0.153949 0.227311,0.140852 0.101744,-0.0098 0.121851,-0.0266 0.121851,-0.102027 0,-0.07037 -0.04223,-0.114435 -0.191188,-0.199449 -0.208635,-0.119082 -0.287127,-0.246984 -0.247779,-0.403759 0.03412,-0.135959 0.150645,-0.20694 0.339711,-0.20694 0.127884,0 0.181631,0.02159 0.267477,0.107438 0.05999,0.06 0.107439,0.147007 0.107439,0.197051 0,0.07654 -0.01385,0.08696 -0.0949,0.07148 -0.05219,-0.01 -0.104738,-0.0449 -0.116769,-0.0776 -0.03026,-0.08229 -0.08421,-0.113371 -0.197877,-0.114026 -0.199765,-0.0011 -0.14713,0.143333 0.09723,0.266898 0.174399,0.08819 0.253733,0.198036 0.249551,0.345536 -0.0067,0.236722 -0.249544,0.384916 -0.501677,0.306154 z m -0.861218,-0.468914 c -0.148178,-0.310512 -0.172378,-0.343632 -0.181279,-0.248089 -0.0057,0.06065 -0.01985,0.213633 -0.03156,0.339975 -0.01995,0.21543 -0.02704,0.229713 -0.113974,0.229713 -0.09202,0 -0.09253,-0.0018 -0.0715,-0.24809 0.01165,-0.136449 0.03159,-0.38454 0.04431,-0.551311 0.02222,-0.291438 0.02664,-0.303222 0.113626,-0.303222 0.07878,0 0.113393,0.04878 0.267265,0.37673 l 0.176763,0.37673 0.02732,-0.358354 c 0.02671,-0.350496 0.02932,-0.358352 0.119234,-0.358352 h 0.09192 l -0.02494,0.431861 c -0.03599,0.623161 -0.04705,0.670763 -0.155861,0.670763 -0.07803,0 -0.113539,-0.04869 -0.261314,-0.358354 z m -0.816332,-0.229712 v -0.551312 h 0.08677 c 0.07722,0 0.08931,0.02122 0.109945,0.192959 0.01275,0.106134 0.02332,0.354218 0.02349,0.551312 l 3.19e-4,0.358352 h -0.11026 -0.110263 z"
       id="path1815" /><text
       xml:space="preserve"
       style="font-size:8.46667px;font-family:Arial;-inkscape-font-specification:'Arial, Normal';text-align:center;text-anchor:middle;fill:#008000;fill-opacity:1;stroke:#000000;stroke-width:0.264583;stroke-opacity:1"
       x="45.717377"
       y="37.764107"
       id="text1819"><tspan
         sodipodi:role="line"
         id="tspan1817"
         style="font-size:8.46667px;fill:#000000;fill-opacity:1;stroke-width:0.264583"
         x="45.717377"
         y="37.764107">Weapons </tspan><tspan
         sodipodi:role="line"
         style="font-size:8.46667px;fill:#000000;fill-opacity:1;stroke-width:0.264583"
         x="45.717377"
         y="48.347446"
         id="tspan1823">&amp; Tactics</tspan></text></g><g
     inkscape:label="F.Mask"
     inkscape:groupmode="layer"
     id="g1436"><path
       style="fill:#000000;stroke-width:0.0367541"
       d="M 14.134033,50.905142 C 11.126542,50.638069 8.5085978,49.072038 6.8587924,46.553153 6.0606637,45.334589 5.5831414,44.0317 5.376547,42.508946 5.29647,41.918748 5.29664,40.714565 5.3768771,40.11993 c 0.2963872,-2.19657 1.209288,-4.062706 2.7381116,-5.597195 2.6853943,-2.695346 6.7056353,-3.555043 10.2468073,-2.191199 2.925119,1.126578 5.152403,3.652796 5.885312,6.675208 0.803593,3.313908 -0.161013,6.749218 -2.564863,9.134398 -1.992912,1.977432 -4.805968,3.007516 -7.548208,2.764 z m 1.705859,-0.403514 c 3.72421,-0.372673 6.886425,-3.001298 7.933153,-6.594519 0.550429,-1.889526 0.474997,-3.990948 -0.209168,-5.827031 -0.816741,-2.191875 -2.469758,-4.013701 -4.586804,-5.055217 -3.016018,-1.48378 -6.646695,-1.193181 -9.3930513,0.751821 -2.1550895,1.526258 -3.5254113,3.85721 -3.8378648,6.528304 -0.4962557,4.242357 2.0823071,8.318907 6.1597401,9.738168 0.623919,0.217172 1.508539,0.411113 2.146127,0.470509 0.331825,0.03091 1.432744,0.0235 1.787868,-0.01203 z m -1.484647,-0.64981 -0.101074,-0.01531 5.61e-4,-0.466174 c 2.95e-4,-0.256395 0.01485,-0.488725 0.03232,-0.516291 0.04189,-0.06612 0.531015,-0.02163 0.67308,0.06121 0.125762,0.07335 0.195346,0.236182 0.191585,0.448326 -0.0074,0.411646 -0.263858,0.568916 -0.796469,0.488233 z m 0.4747,-0.21178 c 0.0903,-0.06324 0.126793,-0.272631 0.07844,-0.450007 -0.02662,-0.09766 -0.05848,-0.125477 -0.181707,-0.158659 -0.237747,-0.06401 -0.251982,-0.04532 -0.251982,0.33106 v 0.33194 h 0.138838 c 0.07637,0 0.173746,-0.02445 0.21641,-0.05434 z m -1.017732,0.107075 c -0.01972,-0.05185 -0.03585,-0.107971 -0.03585,-0.124708 0,-0.04061 -0.06699,-0.06406 -0.269914,-0.09448 -0.157648,-0.02364 -0.171998,-0.01889 -0.212746,0.07056 -0.0347,0.07618 -0.06957,0.0959 -0.169499,0.0959 -0.06919,0 -0.12029,-0.01495 -0.113551,-0.03321 0.0068,-0.01828 0.136297,-0.232787 0.287907,-0.476705 0.277324,-0.446172 0.337379,-0.498593 0.472856,-0.412765 0.04497,0.02849 0.256866,0.845716 0.260686,1.005385 0.0026,0.108073 -0.176702,0.08365 -0.219895,-0.02996 z m -0.09745,-0.466222 c -0.04973,-0.258202 -0.0651,-0.27127 -0.152563,-0.129748 -0.106894,0.172959 -0.101165,0.205144 0.03958,0.22261 0.06569,0.0082 0.123172,0.01747 0.12772,0.0207 0.0045,0.0033 -0.002,-0.04787 -0.01474,-0.113569 z m 1.736573,0.474618 c -0.08545,-0.08545 -0.15824,-0.388263 -0.17814,-0.741086 -0.0076,-0.134039 2.56e-4,-0.148009 0.0887,-0.158252 0.09543,-0.011 0.09773,-0.006 0.1426,0.31241 0.06545,0.464399 0.07827,0.489039 0.25439,0.489039 0.203979,0 0.232576,-0.06633 0.185117,-0.429395 -0.02066,-0.15802 -0.0453,-0.322668 -0.05477,-0.365884 -0.01404,-0.06412 0.0028,-0.08151 0.09124,-0.09449 0.124388,-0.01825 0.123405,-0.02082 0.183209,0.476706 0.05514,0.458709 -0.0465,0.596835 -0.439192,0.596835 -0.147256,0 -0.205618,-0.01835 -0.273148,-0.08588 z m 0.984378,-0.05051 c 0.01044,-0.03616 0.04805,-0.285272 0.08367,-0.553569 l 0.06475,-0.487814 0.112225,-0.02938 c 0.109923,-0.02878 0.118959,-0.02041 0.440203,0.408194 0.259619,0.346377 0.317072,0.444481 0.275655,0.470693 -0.09181,0.0581 -0.172827,0.03699 -0.246578,-0.06425 l -0.07175,-0.09849 -0.196298,0.05255 c -0.177342,0.04747 -0.198692,0.06426 -0.221092,0.173866 -0.02929,0.143302 -0.02374,0.137286 -0.155697,0.168982 -0.08829,0.0212 -0.101154,0.01505 -0.08508,-0.04077 z m 0.530814,-0.50549 c 0.009,-0.009 -0.03318,-0.08357 -0.09364,-0.165792 l -0.109934,-0.149494 -0.02312,0.115637 c -0.04693,0.234664 -0.03505,0.265037 0.09364,0.239299 0.06422,-0.01284 0.124104,-0.03069 0.133067,-0.03966 z m -4.19074,0.415718 c -0.07729,-0.02826 -0.118343,-0.08663 -0.180174,-0.25621 -0.06902,-0.189267 -0.176048,-0.326216 -0.254969,-0.326216 -0.01249,0 -0.04452,0.09097 -0.07119,0.202147 -0.04907,0.204564 -0.09893,0.243089 -0.217489,0.168048 -0.04363,-0.02762 -0.03039,-0.108936 0.08145,-0.500495 0.07345,-0.257136 0.141279,-0.475256 0.150735,-0.484713 0.03124,-0.03124 0.577573,0.148312 0.668228,0.219621 0.06598,0.0519 0.08891,0.105714 0.08891,0.208592 0,0.162647 -0.08755,0.260308 -0.233353,0.260308 h -0.09893 l 0.07014,0.137828 c 0.08194,0.161006 0.15694,0.414779 0.12135,0.410582 -0.01353,-0.0016 -0.06965,-0.01938 -0.1247,-0.0395 z m 0.03782,-0.771236 c 0.01,-0.08605 -0.0084,-0.103592 -0.163352,-0.156407 -0.189511,-0.06457 -0.216094,-0.05458 -0.253065,0.09517 -0.0219,0.08872 -0.01158,0.102912 0.09848,0.135296 0.20505,0.06034 0.305073,0.03705 0.317944,-0.07405 z m 4.803557,0.185232 c -0.08086,-0.20376 -0.159517,-0.378312 -0.174796,-0.387895 -0.01528,-0.0095 -0.08648,0.0039 -0.158213,0.02974 -0.110637,0.04 -0.135621,0.03896 -0.164616,-0.0069 -0.01881,-0.02972 -0.03444,-0.06464 -0.03475,-0.07757 -2.95e-4,-0.01294 0.174729,-0.09397 0.388976,-0.18008 0.319195,-0.128286 0.395421,-0.147269 0.42211,-0.105113 0.05344,0.0844 0.03994,0.10771 -0.09495,0.164073 -0.07075,0.02956 -0.12864,0.06604 -0.12864,0.08108 0,0.0216 0.199111,0.539163 0.279983,0.727788 0.01267,0.02956 -0.128731,0.127935 -0.180639,0.125674 -0.0042,-1.84e-4 -0.07362,-0.167037 -0.154476,-0.370794 z m -6.162095,0.11477 c -0.284568,-0.08597 -0.435265,-0.263853 -0.435265,-0.513795 0,-0.29545 0.224526,-0.553004 0.482087,-0.553004 0.146943,0 0.388292,0.09945 0.464664,0.191478 0.0698,0.0841 0.114204,0.234809 0.08372,0.284138 -0.0458,0.0741 -0.186981,0.0078 -0.226826,-0.106474 -0.0645,-0.185043 -0.300121,-0.238977 -0.448536,-0.102674 -0.193145,0.177384 -0.194427,0.486308 -0.0024,0.57381 0.229992,0.104795 0.453634,-0.01066 0.237327,-0.122547 -0.07841,-0.04055 -0.100734,-0.07387 -0.08634,-0.128929 0.01066,-0.04084 0.03458,-0.07425 0.0531,-0.07425 0.04614,0 0.398787,0.180389 0.398787,0.203989 0,0.01044 -0.04162,0.101131 -0.09251,0.201528 -0.08305,0.163903 -0.104636,0.182226 -0.211335,0.179389 -0.06535,-0.0017 -0.162783,-0.01644 -0.216501,-0.03266 z m 6.771594,-0.457554 c -0.12297,-0.230929 -0.223581,-0.436319 -0.223581,-0.45642 0,-0.05242 0.628695,-0.379727 0.686655,-0.357486 0.103536,0.03974 0.03892,0.129768 -0.178884,0.249285 -0.251418,0.137963 -0.271031,0.16386 -0.197586,0.260877 0.04801,0.06341 0.0611,0.06121 0.273363,-0.04594 0.12262,-0.0619 0.231105,-0.112543 0.241078,-0.112543 0.01,0 0.03561,0.03266 0.05698,0.07258 0.03476,0.06494 0.01458,0.08474 -0.191667,0.188126 -0.126778,0.06355 -0.235861,0.120322 -0.242407,0.126155 -0.01601,0.01426 0.100712,0.23796 0.124155,0.23796 0.01021,0 0.12138,-0.05363 0.247146,-0.119186 0.125765,-0.06556 0.23995,-0.124446 0.253741,-0.130874 0.01379,-0.0065 0.04272,0.02128 0.06427,0.06156 0.0356,0.06651 0.0075,0.09039 -0.305282,0.259513 -0.189467,0.102446 -0.353468,0.186258 -0.364446,0.186258 -0.011,0 -0.120571,-0.188942 -0.243541,-0.419871 z m -3.954122,-0.540153 c -0.923392,-0.0872 -1.854518,-0.375964 -2.672994,-0.82897 -0.960453,-0.531586 -1.8758473,-1.39152 -2.4668103,-2.317355 -0.78406,-1.228352 -1.166425,-2.748463 -1.0518548,-4.1817 0.076764,-0.960248 0.2947105,-1.742892 0.7209728,-2.588963 0.148285,-0.294324 0.380784,-0.69226 0.516666,-0.884298 0.303409,-0.428806 1.1665173,-1.298822 1.5775773,-1.590203 0.880281,-0.623987 1.820338,-1.018968 2.880262,-1.210192 0.603256,-0.108833 1.682379,-0.10914 2.278755,-6.38e-4 1.457624,0.265182 2.707479,0.918026 3.720251,1.94322 0.592483,0.599751 0.95697,1.114798 1.314865,1.858004 1.114013,2.313354 0.852462,4.989408 -0.692542,7.08571 -0.268819,0.364742 -0.870921,0.98191 -1.236853,1.267802 -1.406331,1.09873 -3.141408,1.612543 -4.888295,1.447583 z m 1.321658,-0.40145 c 2.230903,-0.255562 4.111549,-1.566717 5.11067,-3.563073 1.08148,-2.160917 0.838823,-4.798494 -0.62053,-6.744879 -1.663612,-2.218813 -4.55453,-3.127292 -7.193741,-2.260653 -2.146871,0.704969 -3.7801363,2.505986 -4.2754943,4.714629 -0.5886284,2.624502 0.491376,5.308751 2.7444633,6.821102 1.201311,0.806363 2.80256,1.196925 4.234632,1.032874 z m -0.93574,-0.86215 v -0.49618 l -0.137828,-1.1e-4 C 14.069995,46.386013 13.226811,46.149761 12.655361,45.863771 12.11712,45.594398 11.786352,45.353574 11.329982,44.898791 10.479431,44.05118 9.9635217,42.968172 9.8545117,41.801428 l -0.02146,-0.229713 h -0.490867 -0.490867 v -0.25728 -0.257278 h 0.491431 0.491433 l 0.02592,-0.266467 c 0.07906,-0.81287 0.3943113,-1.670815 0.8702283,-2.368294 0.107779,-0.157953 0.378262,-0.470116 0.601076,-0.693695 0.610101,-0.612196 1.246972,-1.004759 2.04231,-1.258868 0.372258,-0.118937 0.918181,-0.22715 1.146926,-0.227345 l 0.137827,-1.17e-4 V 35.74619 35.250011 h 0.257279 0.257279 v 0.496179 0.496181 l 0.137828,1.1e-4 c 0.194735,1.84e-4 0.742551,0.10011 1.012362,0.184704 0.125449,0.03933 0.246546,0.07173 0.269106,0.07198 0.02256,2.58e-4 0.07815,-0.1029 0.123515,-0.229239 0.04537,-0.126342 0.09626,-0.244485 0.113099,-0.262541 0.0332,-0.03561 0.475827,0.114683 0.475827,0.161572 0,0.01535 -0.04135,0.13775 -0.09189,0.272015 -0.05054,0.134263 -0.09188,0.250794 -0.09188,0.258956 0,0.0082 0.0951,0.06853 0.211336,0.134145 0.116234,0.06561 0.280474,0.166067 0.364975,0.223222 0.0845,0.05715 0.162447,0.103922 0.173212,0.103922 0.01078,0 0.08696,-0.09924 0.169329,-0.220524 0.08237,-0.121289 0.163197,-0.220524 0.179625,-0.220524 0.02725,0 0.308775,0.189349 0.385572,0.259327 0.01775,0.01618 -0.04551,0.140663 -0.140743,0.276885 l -0.173007,0.247488 0.238652,0.238652 0.238653,0.238653 0.247459,-0.196908 0.247457,-0.196908 0.159246,0.182036 c 0.08759,0.100121 0.159586,0.194163 0.160003,0.208982 4.15e-4,0.01481 -0.106746,0.111432 -0.238145,0.214691 -0.131397,0.103263 -0.238793,0.198641 -0.238661,0.211956 1.48e-4,0.01332 0.03408,0.07384 0.07543,0.134473 0.04135,0.06065 0.124175,0.205364 0.184058,0.321598 0.05988,0.116236 0.123121,0.211336 0.140529,0.211336 0.01741,0 0.125147,-0.04135 0.23942,-0.09189 0.258487,-0.114316 0.263888,-0.114155 0.308764,0.0092 0.02023,0.0556 0.06267,0.161332 0.09434,0.234983 l 0.05757,0.133907 -0.256347,0.104999 c -0.190262,0.07793 -0.250837,0.119207 -0.234973,0.160124 0.07479,0.192907 0.204103,0.764426 0.242413,1.071398 l 0.04518,0.362012 h 0.488926 0.488928 v 0.257278 0.257279 h -0.496188 -0.496181 v 0.123824 c 0,0.213783 -0.107642,0.762163 -0.223276,1.137445 -0.144629,0.469392 -0.486695,1.138479 -0.784648,1.534781 -0.457933,0.609087 -1.170494,1.199104 -1.832978,1.517745 -0.551186,0.26511 -1.422036,0.500308 -1.854434,0.500844 l -0.119451,1.54e-4 v 0.496181 0.496181 h -0.257277 -0.257279 z m 0,-1.501874 v -0.491139 l -0.284844,-0.0459 c -0.86713,-0.139706 -1.656418,-0.589011 -2.213861,-1.26025 -0.393977,-0.474399 -0.70485,-1.197049 -0.79035,-1.837229 l -0.02331,-0.174584 h -0.493934 c -0.37072,0 -0.493893,0.01146 -0.493781,0.04594 7.3e-5,0.02527 0.0254,0.203067 0.05627,0.395106 0.275074,1.71175 1.477451,3.116526 3.116316,3.640902 0.327853,0.104897 0.821509,0.208293 1.026432,0.214981 l 0.101075,0.0033 z m 1.188541,0.395148 c 1.457598,-0.297957 2.704004,-1.336954 3.288457,-2.741243 0.127685,-0.306791 0.281244,-0.914251 0.316407,-1.251662 l 0.02203,-0.211335 H 18.979649 18.4854 l -0.02331,0.174581 c -0.07124,0.533409 -0.294185,1.126721 -0.591952,1.575325 -0.527624,0.794901 -1.429133,1.363759 -2.41226,1.522154 l -0.284844,0.0459 v 0.493782 0.493782 l 0.211336,-0.02496 c 0.116235,-0.01373 0.324426,-0.04806 0.462647,-0.07632 z M 14.65846,44.002771 v -0.36226 l -0.24809,-0.06018 c -0.936082,-0.227069 -1.59322,-0.926913 -1.79114,-1.907538 l -0.02041,-0.101075 h -0.361274 -0.361278 l 0.0327,0.211336 c 0.05089,0.328841 0.09837,0.481087 0.254486,0.815874 0.411988,0.883532 1.179269,1.494841 2.12745,1.694985 0.171825,0.03628 0.324815,0.06711 0.339976,0.06853 0.01516,0.0015 0.02757,-0.160432 0.02757,-0.359674 z m 1.063362,0.246911 c 1.12754,-0.296646 2.023347,-1.300492 2.201156,-2.466627 l 0.03223,-0.211335 h -0.36128 -0.361278 l -0.02229,0.101075 c -0.126327,0.572947 -0.310631,0.927585 -0.667562,1.284515 -0.213109,0.213109 -0.334248,0.298578 -0.606692,0.42805 -0.187231,0.08897 -0.435518,0.181594 -0.551754,0.205818 l -0.211336,0.04405 v 0.362595 0.362594 l 0.137829,-0.01943 c 0.0758,-0.01066 0.260744,-0.05177 0.410975,-0.09129 z m -1.06435,-1.78668 -10e-4,-0.615632 -0.128174,-0.137828 -0.128139,-0.137827 H 13.771024 13.14189 l 0.02227,0.137827 c 0.03668,0.227077 0.26648,0.64564 0.465444,0.847767 0.208562,0.211877 0.442628,0.360703 0.715938,0.455211 0.332303,0.114907 0.313024,0.148875 0.311896,-0.549518 z m 1.053649,0.451142 c 0.34877,-0.172204 0.631007,-0.453309 0.801187,-0.79797 0.073,-0.147842 0.142743,-0.330826 0.154989,-0.406632 l 0.02227,-0.137827 h -0.625955 -0.625953 l -0.132314,0.132314 -0.132316,0.132315 v 0.625953 0.625953 l 0.137829,-0.02227 c 0.0758,-0.01224 0.255926,-0.08058 0.400269,-0.151844 z m -4.324715,-2.141831 c 0.186962,-1.160439 0.890155,-2.125671 1.93075,-2.650233 0.32394,-0.163297 0.804549,-0.314198 1.130347,-0.354902 l 0.210963,-0.02636 v -0.491945 c 0,-0.567852 0.05029,-0.520671 -0.465734,-0.436979 -0.927127,0.15037 -1.78393,0.585197 -2.453997,1.245402 -0.387431,0.38173 -0.63204,0.710294 -0.861801,1.157591 -0.273344,0.532143 -0.42959,1.042783 -0.499034,1.630933 l -0.02496,0.211336 h 0.493783 0.493782 z m 1.23283,0.18377 c 0.202708,-1.004346 0.893133,-1.723416 1.846271,-1.922868 l 0.192959,-0.04037 v -0.366974 c 0,-0.331761 -0.0062,-0.365267 -0.06432,-0.349208 -0.03537,0.0098 -0.143512,0.02853 -0.240305,0.0417 -0.363957,0.04949 -0.859366,0.267698 -1.267887,0.558461 -0.585036,0.416394 -1.062438,1.214743 -1.177448,1.96901 l -0.03222,0.211336 h 0.361276 0.361276 z m 1.909101,-0.03675 0.12814,-0.137828 10e-4,-0.620441 10e-4,-0.620439 -0.137829,0.02227 c -0.241967,0.03909 -0.675275,0.280003 -0.879676,0.489097 -0.203851,0.208529 -0.439639,0.637482 -0.476768,0.867347 l -0.02227,0.137829 h 0.629133 0.629134 l 0.12814,-0.137829 z m 2.151605,0.04594 c 0,-0.113542 -0.01611,-0.113672 -0.261754,-0.0022 l -0.197672,0.08976 0.229713,0.0022 c 0.221088,0.002 0.229713,-0.0014 0.229713,-0.08976 z m 1.261416,-0.0092 c -0.03991,-0.272874 -0.09891,-0.527823 -0.126008,-0.544575 -0.01662,-0.01032 -0.167247,0.03841 -0.334726,0.108198 -0.293001,0.122082 -0.304291,0.131214 -0.298918,0.241791 0.01448,0.297944 0.01134,0.295662 0.412691,0.295662 h 0.361744 z m 1.510992,-0.09189 C 19.4171,40.574008 19.329636,40.141579 19.26668,39.946299 l -0.05597,-0.173613 -0.116818,0.05107 c -0.06425,0.02809 -0.270414,0.113383 -0.458141,0.189539 -0.26841,0.10889 -0.336172,0.15077 -0.317209,0.196052 0.01326,0.03167 0.05906,0.23538 0.101766,0.452689 l 0.07765,0.395106 h 0.488916 0.488916 z m -4.054754,-1.283806 c -0.03255,-0.01374 -0.0964,-0.02615 -0.141879,-0.02757 -0.08089,-0.0025 -0.08266,0.006 -0.08092,0.392524 l 0.0017,0.395106 0.140102,-0.36754 c 0.122441,-0.32121 0.132642,-0.370691 0.08092,-0.392524 z m 3.086143,-0.07071 c 0.190472,-0.08296 0.384514,-0.165616 0.431206,-0.183696 l 0.0849,-0.03288 -0.113929,-0.211411 c -0.06266,-0.116276 -0.137002,-0.242046 -0.165201,-0.279488 -0.05933,-0.07877 -0.02219,-0.09944 -0.509722,0.283615 -0.303848,0.23873 -0.318375,0.256512 -0.270224,0.330787 0.02799,0.04318 0.07058,0.115709 0.09465,0.161191 0.02407,0.04549 0.05688,0.0827 0.07288,0.0827 0.01602,0 0.184964,-0.06787 0.375436,-0.150823 z m -2.803891,-0.501564 c 0.01992,-0.0556 0.07813,-0.211249 0.129362,-0.345908 l 0.09314,-0.244836 -0.245217,-0.05598 c -0.13487,-0.03079 -0.298971,-0.06492 -0.364669,-0.07585 l -0.119451,-0.01986 v 0.362388 0.362388 l 0.211336,0.05438 c 0.116236,0.0299 0.222123,0.05663 0.235306,0.05936 0.01318,0.0028 0.04026,-0.0405 0.06018,-0.09609 z m 2.46107,-0.532804 c 0.106122,-0.08073 0.192959,-0.157829 0.192959,-0.171321 0,-0.01349 -0.07857,-0.101732 -0.174582,-0.196079 l -0.174582,-0.171548 -0.282745,0.414953 -0.282744,0.414951 0.0777,0.07769 0.07769,0.07769 0.186671,-0.149779 c 0.102674,-0.08238 0.273503,-0.215835 0.37963,-0.29657 z m -0.841617,-0.459116 0.270193,-0.392509 -0.0841,-0.06811 c -0.108482,-0.08785 -0.505759,-0.320853 -0.547048,-0.320853 -0.03742,0 -0.385025,0.877987 -0.358217,0.904796 0.02685,0.02685 0.409021,0.263392 0.430603,0.266518 0.0101,0.0015 0.139965,-0.173969 0.288573,-0.389849 z m -1.060408,-0.512721 c 0.09097,-0.236266 0.170873,-0.4429 0.177568,-0.459187 0.02491,-0.06059 -0.56439,-0.213633 -1.032101,-0.268045 l -0.211336,-0.02458 v 0.49459 0.49459 l 0.200533,0.02506 c 0.110297,0.01378 0.30463,0.05516 0.43186,0.09195 0.127231,0.0368 0.239598,0.06877 0.249705,0.07105 0.0101,0.0023 0.09281,-0.189157 0.183771,-0.425425 z m -9.2764772,6.987201 c -0.040974,-0.106781 -0.024027,-0.118998 0.3274626,-0.236097 0.4478274,-0.149194 0.5207688,-0.219663 0.420771,-0.406509 -0.052046,-0.09725 -0.144323,-0.08987 -0.5450062,0.04362 -0.2822288,0.09403 -0.3500915,0.105623 -0.3762585,0.06432 -0.017549,-0.02772 -0.032171,-0.06971 -0.032489,-0.0933 -6.171e-4,-0.04713 0.7389373,-0.30626 0.8740876,-0.30626 0.2035837,0 0.3911565,0.379116 0.2871146,0.580309 -0.059578,0.115213 -0.125618,0.151157 -0.5615683,0.305643 -0.3487416,0.123582 -0.3644767,0.125509 -0.3941161,0.04827 z m 15.7496342,0.02491 c -0.04221,-0.02674 -0.03758,-0.07093 0.02762,-0.264013 0.08272,-0.244938 0.07448,-0.282471 -0.06553,-0.29895 -0.07597,-0.009 -0.09614,0.01665 -0.158486,0.201091 -0.05267,0.155799 -0.08938,0.211336 -0.139712,0.211336 -0.107313,0 -0.113641,-0.04958 -0.03537,-0.277097 0.04016,-0.116718 0.07301,-0.216102 0.07301,-0.220852 0,-0.0048 -0.03982,-0.01863 -0.08847,-0.03085 -0.04865,-0.01221 -0.112895,-0.03158 -0.14274,-0.04304 -0.04094,-0.01571 -0.07378,0.0434 -0.133704,0.240697 -0.07256,0.238885 -0.08645,0.259369 -0.160482,0.236628 -0.04457,-0.01369 -0.08558,-0.02876 -0.09113,-0.03348 -0.0056,-0.0047 0.04096,-0.167143 0.103366,-0.360941 0.07064,-0.219378 0.129926,-0.346791 0.157101,-0.3376 0.024,0.0082 0.254525,0.0825 0.512263,0.165301 0.257739,0.0828 0.468824,0.162072 0.46908,0.176165 2.57e-4,0.0141 -0.0437,0.170342 -0.09768,0.347222 -0.09612,0.314971 -0.12659,0.353315 -0.229138,0.288363 z m 0.149214,-1.078577 c 0.0065,-0.04549 0.04965,-0.09924 0.09597,-0.11945 0.08896,-0.03882 0.140169,-0.164656 0.104659,-0.257196 -0.03553,-0.0926 -0.133675,-0.0618 -0.199786,0.0627 -0.111431,0.209855 -0.24662,0.32314 -0.385613,0.32314 -0.15047,0 -0.302609,-0.108697 -0.335487,-0.239698 -0.06031,-0.240314 0.132192,-0.532139 0.351037,-0.532139 0.08782,0 0.105305,0.01526 0.105305,0.09189 0,0.06625 -0.01977,0.09189 -0.07088,0.09189 -0.17151,0 -0.261578,0.287964 -0.11466,0.366592 0.08016,0.0429 0.08398,0.0398 0.260927,-0.211765 0.134258,-0.190872 0.262367,-0.249594 0.410581,-0.188201 0.132374,0.05483 0.175608,0.135538 0.175608,0.327817 0,0.119282 -0.02327,0.17553 -0.107438,0.259695 -0.135618,0.135618 -0.308062,0.150316 -0.290228,0.02474 z M 6.7106987,43.410328 C 6.5904758,43.315758 6.519844,43.088666 6.5697936,42.95729 c 0.031842,-0.08374 0.1681861,-0.209438 0.2271892,-0.209438 0.05014,0 0.057809,0.18457 0.0093,0.224791 -0.067451,0.05598 -0.063378,0.232896 0.00669,0.291059 0.087189,0.07236 0.13665,-0.0048 0.1667465,-0.260033 0.030073,-0.255029 0.1003483,-0.354542 0.273325,-0.38699 0.2397129,-0.04498 0.4220914,0.142168 0.4220914,0.433106 0,0.14635 -0.05546,0.238156 -0.1840302,0.304643 -0.1053737,0.05448 -0.1089924,0.05342 -0.1321612,-0.03888 -0.018105,-0.07212 -0.0051,-0.108028 0.054303,-0.149615 0.1383494,-0.0969 0.075199,-0.344581 -0.08787,-0.344581 -0.09614,0 -0.1083004,0.02812 -0.141369,0.326991 -0.031026,0.280308 -0.2769959,0.416439 -0.4733637,0.261976 z M 22.30332,42.419092 c 0,-0.09531 0.02743,-0.122744 0.229713,-0.229713 0.352149,-0.186226 0.32903,-0.321726 -0.05513,-0.323124 -0.12238,-4.45e-4 -0.137828,-0.01078 -0.137828,-0.09239 0,-0.08637 0.01159,-0.09188 0.19296,-0.09169 0.106134,1.09e-4 0.356464,0.011 0.556306,0.02424 l 0.363347,0.02406 -0.02263,0.293482 c -0.01244,0.161416 -0.04721,0.331 -0.07726,0.376853 -0.108198,0.165138 -0.414404,0.141936 -0.513152,-0.03889 -0.02209,-0.04043 -0.04419,-0.08029 -0.04911,-0.0886 -0.0049,-0.0083 -0.038,0.01044 -0.07351,0.04165 -0.06287,0.05528 -0.354201,0.21233 -0.393868,0.21233 -0.01089,0 -0.01984,-0.0487 -0.01984,-0.108232 z m 0.926184,-0.292052 c 0.03405,-0.200875 0.0195,-0.224532 -0.13814,-0.224532 h -0.12647 v 0.177643 c 0,0.205746 0.01867,0.233992 0.144816,0.21915 0.078,-0.0092 0.09671,-0.03607 0.119794,-0.172261 z M 7.0687457,42.343813 c -0.2021475,-0.05729 -0.4378333,-0.122764 -0.5237454,-0.145508 -0.1371026,-0.0363 -0.1562058,-0.05404 -0.1562058,-0.145079 0,-0.09784 0.027316,-0.115629 0.481647,-0.313621 0.2649055,-0.115442 0.5047262,-0.218752 0.5329351,-0.229577 0.036822,-0.01412 0.051286,0.01123 0.051286,0.09006 0,0.08728 -0.022563,0.119083 -0.1102629,0.155407 -0.1162593,0.04816 -0.1314999,0.105147 -0.087257,0.326341 0.017957,0.08981 0.048155,0.121474 0.1378286,0.144546 0.088006,0.02264 0.1175434,0.05266 0.1264563,0.128492 0.014237,0.121152 0.013817,0.121141 -0.4526791,-0.011 z m -0.018377,-0.331044 c 0,-0.126925 -0.031638,-0.132013 -0.2389007,-0.03842 l -0.1470172,0.06639 0.1102629,0.02599 c 0.060645,0.01429 0.1268012,0.03151 0.147016,0.03824 0.098375,0.03282 0.128639,0.01112 0.128639,-0.0922 z M 22.488969,41.372253 c -0.109413,-0.0606 -0.142926,-0.138605 -0.146312,-0.340606 -0.0018,-0.110898 0.02137,-0.182008 0.0828,-0.253418 0.07953,-0.09246 0.114051,-0.101494 0.503612,-0.13177 0.230025,-0.01788 0.439693,-0.02426 0.465928,-0.0142 0.02624,0.0101 0.0477,0.06018 0.0477,0.111341 v 0.09304 l -0.358352,5.4e-4 c -0.213701,3.3e-4 -0.395443,0.0192 -0.450238,0.04679 -0.113189,0.05698 -0.139455,0.212254 -0.05089,0.300817 0.05566,0.05566 0.111727,0.0602 0.461422,0.03737 l 0.398061,-0.026 v 0.11428 0.114278 l -0.431861,-0.0012 c -0.292594,-8.74e-4 -0.460885,-0.01738 -0.521867,-0.05115 z m -15.7418212,-0.0117 -0.3583521,-0.01202 v -0.329457 c 0,-0.326917 7.09e-4,-0.329456 0.091886,-0.329456 0.088585,0 0.091886,0.0086 0.091886,0.238902 v 0.238901 h 0.12864 0.1286401 v -0.202147 c 0,-0.191122 0.00499,-0.202147 0.091886,-0.202147 0.086872,0 0.091886,0.011 0.091886,0.202147 v 0.202147 h 0.214399 c 0.11792,0 0.2230577,0.0086 0.2336405,0.01924 0.01055,0.01055 0.011412,0.0602 0.00182,0.110263 -0.015802,0.0827 -0.032965,0.09032 -0.1876976,0.08333 -0.093667,-0.0042 -0.3315556,-0.0131 -0.5286494,-0.01972 z M 6.4023811,40.349648 c 0.012183,-0.04548 0.022393,-0.09451 0.022665,-0.108935 2.949e-4,-0.01443 0.1577043,-0.03097 0.3498397,-0.03675 L 7.124223,40.193413 6.8392058,40.067898 c -0.1567605,-0.06904 -0.299096,-0.13769 -0.3163025,-0.152572 -0.017209,-0.01488 -0.020147,-0.07775 -0.00647,-0.139696 l 0.024741,-0.112634 0.374085,-0.01044 0.3740851,-0.01044 -0.3307865,-0.133769 C 6.6711583,39.392125 6.62625,39.361998 6.616146,39.278637 c -0.00635,-0.05277 0.00601,-0.09595 0.027611,-0.09595 0.039034,0 0.9023737,0.363937 0.9806399,0.413384 0.022563,0.01426 0.033306,0.06624 0.02389,0.115519 -0.016358,0.08553 -0.033249,0.09068 -0.3718004,0.113257 -0.1950689,0.013 -0.3788971,0.02694 -0.4085059,0.03097 -0.029608,0.0041 0.1068371,0.07992 0.3032207,0.168649 0.3241197,0.146439 0.3570567,0.170513 0.3570567,0.260977 0,0.09501 -0.01055,0.100757 -0.2259153,0.123271 -0.1242545,0.01299 -0.3825431,0.02362 -0.5739751,0.02362 -0.3430141,0 -0.3477388,-0.0012 -0.3258984,-0.0827 z m 16.1000869,0.04709 c -0.04208,-0.01703 -0.12064,-0.0834 -0.174583,-0.147507 -0.115455,-0.137211 -0.135647,-0.408462 -0.04052,-0.54428 0.09751,-0.139215 0.319587,-0.228211 0.569472,-0.228211 0.207632,0 0.23565,0.01 0.350628,0.124964 0.11007,0.11007 0.124964,0.147738 0.124964,0.316086 0,0.167176 -0.01519,0.206303 -0.121175,0.312296 -0.17298,0.17298 -0.50195,0.250327 -0.70879,0.166652 z m 0.480672,-0.237624 c 0.200369,-0.08372 0.225371,-0.303826 0.04943,-0.435064 -0.202115,-0.150753 -0.618981,0.01572 -0.618981,0.2472 0,0.215871 0.280836,0.308501 0.56956,0.187864 z M 22.118602,39.22417 c -0.19533,-0.195328 -0.188679,-0.417361 0.01836,-0.612618 0.144089,-0.135893 0.40599,-0.219127 0.593667,-0.188671 0.33219,0.05391 0.48673,0.466409 0.255955,0.683211 l -0.08476,0.07963 -0.05898,-0.09003 c -0.05257,-0.08022 -0.05293,-0.09505 -0.0033,-0.136205 0.09076,-0.07532 0.05145,-0.263905 -0.06677,-0.320284 -0.211402,-0.100814 -0.640568,0.130799 -0.591319,0.319126 0.02417,0.09243 0.146114,0.187616 0.240357,0.187616 0.04518,0 0.06533,0.02834 0.06533,0.09189 0,0.08088 -0.01574,0.09188 -0.131466,0.09188 -0.09577,0 -0.160132,-0.02867 -0.23702,-0.105555 z M 7.4179082,39.127576 c 0,-0.06738 0.019602,-0.09189 0.073509,-0.09189 0.1810115,0 0.2965811,-0.287496 0.1476173,-0.367218 -0.060463,-0.03237 -0.087133,-0.02183 -0.1562058,0.06165 -0.2086442,0.252171 -0.2793837,0.305562 -0.4048498,0.305562 -0.1745318,0 -0.28489,-0.124403 -0.28489,-0.321148 0,-0.208646 0.1410525,-0.37718 0.3156774,-0.37718 0.06896,0 0.1253719,0.01519 0.1253719,0.03375 0,0.07396 -0.047236,0.150023 -0.09319,0.150023 -0.077002,0 -0.1640864,0.107518 -0.1640864,0.202604 0,0.162895 0.079975,0.14296 0.2753362,-0.06862 0.1563782,-0.169369 0.2132725,-0.207486 0.3096981,-0.207486 0.3162867,0 0.4404504,0.288224 0.2652164,0.615654 -0.055642,0.103967 -0.1547788,0.156182 -0.2965222,0.156182 -0.095686,0 -0.1126791,-0.01386 -0.1126791,-0.09189 z M 21.642955,38.119763 c -0.04104,-0.09909 -0.03446,-0.12874 0.06857,-0.308834 0.114722,-0.200513 0.143131,-0.333312 0.07969,-0.37252 -0.01886,-0.01165 -0.112645,0.02255 -0.208409,0.07602 -0.166196,0.09278 -0.176342,0.09417 -0.222988,0.03038 -0.02687,-0.03675 -0.04887,-0.08009 -0.04887,-0.0963 0,-0.0162 0.213513,-0.136459 0.474472,-0.267225 0.354707,-0.177744 0.483231,-0.226516 0.509176,-0.193222 0.08284,0.106304 0.229238,0.471936 0.229238,0.572526 0,0.205415 -0.353339,0.357063 -0.479042,0.205599 -0.04061,-0.04894 -0.0602,-0.03245 -0.144292,0.121299 -0.05352,0.09785 -0.123139,0.214819 -0.154724,0.25991 l -0.05742,0.08198 z m 0.643835,-0.532668 c 0.06988,-0.05109 0.0697,-0.05469 -0.01134,-0.221476 l -0.08237,-0.169537 -0.110274,0.05703 c -0.131106,0.06779 -0.133378,0.08529 -0.03314,0.255186 0.08424,0.142773 0.129201,0.157715 0.237121,0.07881 z M 7.7349084,37.740109 C 7.5406902,37.512693 7.382168,37.310086 7.3826377,37.289871 c 4.707e-4,-0.02022 0.022143,-0.06476 0.048166,-0.099 0.044207,-0.05816 0.083287,-0.0559 0.5960855,0.03449 0.3018277,0.0532 0.5556935,0.101914 0.5641455,0.108244 0.0085,0.0064 -0.0058,0.05103 -0.0316,0.0993 -0.040373,0.07544 -0.06685,0.08513 -0.1881931,0.06886 -0.1374906,-0.01843 -0.1433759,-0.01449 -0.2234866,0.150414 l -0.082278,0.169353 0.083673,0.08906 c 0.069277,0.07374 0.076583,0.1023 0.042472,0.166038 -0.022654,0.04233 -0.055222,0.07698 -0.072386,0.07698 -0.017152,0 -0.1900912,-0.186068 -0.3843094,-0.413484 z M 8.0014497,37.5424 c 0.024208,-0.05316 0.039273,-0.100836 0.033465,-0.105975 -0.026556,-0.02347 -0.3597282,-0.08011 -0.3597282,-0.06115 0,0.02964 0.2295284,0.263761 0.2585892,0.263761 0.013012,0 0.043459,-0.04348 0.067678,-0.09664 z M 8.2327953,36.938768 C 8.0080359,36.775983 7.8151008,36.628162 7.8040462,36.610277 c -0.028076,-0.04543 0.2781869,-0.413595 0.3884816,-0.466981 0.1251314,-0.06057 0.3406398,-0.0068 0.5045869,0.125893 0.322752,0.261227 0.353319,0.439652 0.130336,0.76083 -0.07784,0.112112 -0.151535,0.204046 -0.163766,0.204285 -0.01223,2.57e-4 -0.2061323,-0.132751 -0.4308894,-0.295536 z m 0.5450144,-0.223051 c 0,-0.122551 -0.06639,-0.208786 -0.2382725,-0.309519 -0.1985368,-0.11635 -0.2957337,-0.106905 -0.4083789,0.03968 l -0.085771,0.111624 0.2835152,0.208117 0.2835152,0.208116 0.0827,-0.09207 c 0.04549,-0.05064 0.0827,-0.125316 0.0827,-0.165948 z m 12.1980353,0.266068 c -0.304182,-0.304182 -0.117686,-0.746021 0.374463,-0.887167 0.322323,-0.09244 0.640396,0.232382 0.546872,0.558478 -0.0677,0.236053 -0.389311,0.471381 -0.644214,0.471381 -0.107144,0 -0.163385,-0.02895 -0.277121,-0.142692 z m 0.596714,-0.220525 c 0.161991,-0.161991 0.184265,-0.293539 0.06919,-0.408619 -0.09451,-0.09451 -0.234761,-0.09342 -0.390796,0.0031 -0.2266,0.140046 -0.28942,0.305835 -0.176809,0.46661 0.04315,0.06161 0.09389,0.08169 0.206472,0.08169 0.124373,0 0.173045,-0.02379 0.291948,-0.142693 z M 8.9103677,36.015464 8.3997279,35.758781 l 0.073565,-0.07356 0.073565,-0.07357 0.3779818,0.189681 0.377982,0.189679 -0.09243,-0.159162 c -0.05083,-0.08754 -0.146493,-0.255604 -0.212563,-0.373477 l -0.120127,-0.214315 0.07457,-0.07457 0.07457,-0.07458 0.174825,0.32564 c 0.09615,0.179101 0.221772,0.409853 0.279154,0.512782 l 0.10433,0.187144 -0.08206,0.07583 -0.08206,0.07583 z m 11.4064443,0.169635 c -0.04082,-0.04919 -0.0025,-0.102572 0.271209,-0.377511 l 0.318749,-0.320231 -0.100054,-0.100053 c -0.09477,-0.09477 -0.0967,-0.103411 -0.03662,-0.163497 0.06009,-0.06009 0.07795,-0.04902 0.33796,0.209243 0.259309,0.257579 0.271162,0.276394 0.213943,0.33962 -0.05824,0.06435 -0.06455,0.06313 -0.163819,-0.03198 -0.102436,-0.09814 -0.103899,-0.09836 -0.186575,-0.02889 -0.04583,0.03851 -0.184167,0.173648 -0.307412,0.300302 -0.123245,0.126654 -0.24113,0.230279 -0.261967,0.230279 -0.02084,0 -0.05927,-0.02578 -0.08542,-0.05728 z M 9.5546617,35.40489 c -0.104546,-0.277219 -0.189794,-0.522147 -0.189437,-0.544281 3.68e-4,-0.02213 0.02998,-0.06679 0.06584,-0.09925 0.06063,-0.05487 0.09839,-0.03978 0.54011,0.215878 0.2612043,0.151182 0.4826133,0.282573 0.4920193,0.291979 0.0094,0.0094 -0.0128,0.05013 -0.04932,0.0905 -0.06578,0.07269 -0.06754,0.07271 -0.180998,0.0026 l -0.114573,-0.0708 -0.1533533,0.127382 c -0.15266,0.126809 -0.153119,0.127942 -0.101584,0.25127 0.05251,0.12566 0.04504,0.146275 -0.07833,0.216009 -0.02518,0.01424 -0.1115,-0.166083 -0.230363,-0.481269 z m 0.28576,-0.133029 0.08306,-0.08841 -0.140322,-0.09536 c -0.07717,-0.05244 -0.152105,-0.09535 -0.166507,-0.09535 -0.0144,0 0.0082,0.0827 0.05019,0.18377 0.04201,0.101075 0.07955,0.183771 0.08345,0.183771 0.0039,0 0.04445,-0.03978 0.09014,-0.08842 z m 9.8362563,0.305137 c -0.112135,-0.09845 -0.129919,-0.136436 -0.129919,-0.277481 0,-0.193924 0.05949,-0.319156 0.228962,-0.481973 0.153253,-0.147238 0.314841,-0.198641 0.480579,-0.152879 0.190163,0.0525 0.301197,0.193735 0.301197,0.383104 0,0.190224 -0.02363,0.221698 -0.125491,0.16718 -0.05059,-0.02708 -0.07665,-0.07718 -0.07665,-0.147369 0,-0.134509 -0.08601,-0.221856 -0.218469,-0.221856 -0.07486,0 -0.144357,0.04491 -0.254653,0.164571 -0.172662,0.187317 -0.19784,0.333588 -0.07634,0.443538 0.06529,0.05909 0.09104,0.06226 0.192959,0.02369 0.101142,-0.03827 0.12404,-0.03576 0.163552,0.01804 0.06637,0.09037 0.05758,0.119399 -0.04834,0.159668 -0.170626,0.06488 -0.300945,0.04157 -0.437377,-0.07823 z m -9.350134,-0.780812 c -0.321256,-0.51464 -0.322181,-0.516994 -0.220873,-0.562199 0.0669,-0.02985 0.136996,-0.005 0.396624,0.140639 0.173451,0.0973 0.327496,0.176935 0.342321,0.176981 0.01483,3.7e-5 -0.04944,-0.123703 -0.142805,-0.274997 -0.141124,-0.228677 -0.161962,-0.284477 -0.123528,-0.330787 0.02543,-0.03064 0.05892,-0.05571 0.07442,-0.05571 0.02717,0 0.528333,0.780572 0.568701,0.885769 0.01089,0.02839 -0.01422,0.07286 -0.05585,0.09885 -0.06684,0.04175 -0.113909,0.02568 -0.404093,-0.137903 -0.180643,-0.101835 -0.3389,-0.185149 -0.351683,-0.185149 -0.01278,0 0.0067,0.04548 0.04316,0.101074 0.255417,0.388738 0.28338,0.448372 0.236645,0.504685 -0.02548,0.0307 -0.05901,0.05581 -0.07451,0.05581 -0.01551,0 -0.145344,-0.187685 -0.288539,-0.417079 z m 8.468035,0.155992 c -0.156394,-0.137316 -0.172919,-0.300809 -0.05118,-0.506412 0.296017,-0.499952 0.368755,-0.591543 0.43965,-0.553601 0.03832,0.02051 0.06967,0.05343 0.06967,0.07316 0,0.01973 -0.08033,0.164027 -0.178494,0.320672 -0.232439,0.370887 -0.248865,0.426404 -0.154173,0.521097 0.141905,0.141903 0.20869,0.101142 0.448581,-0.273777 0.221267,-0.345814 0.278657,-0.394321 0.35611,-0.300995 0.03019,0.03637 -0.0047,0.120503 -0.142271,0.343533 -0.260213,0.421723 -0.3317,0.490397 -0.51049,0.490397 -0.112565,0 -0.178257,-0.02701 -0.27741,-0.11407 z m -0.509307,-0.299413 c -0.05032,-0.0369 -0.133664,-0.353874 -0.134956,-0.513265 -1.1e-4,-0.01445 -0.03382,-0.04425 -0.07488,-0.06624 -0.06752,-0.03613 -0.08362,-0.02042 -0.168088,0.1641 -0.09997,0.218362 -0.114042,0.229004 -0.2091,0.158117 -0.05619,-0.0419 -0.04363,-0.08636 0.142787,-0.505368 0.112419,-0.252685 0.216687,-0.472149 0.231711,-0.487699 0.03242,-0.03356 0.484228,0.164739 0.569403,0.249914 0.147413,0.147413 0.0078,0.495064 -0.19877,0.495064 -0.09849,0 -0.103524,0.0069 -0.07393,0.101074 0.01746,0.05559 0.04109,0.179635 0.05251,0.275656 0.02214,0.186153 -0.01307,0.219291 -0.136693,0.128639 z m 0.143169,-0.680514 c 0.05526,-0.03784 0.08702,-0.136769 0.05824,-0.181412 -0.02752,-0.04268 -0.24189,-0.158001 -0.29371,-0.158001 -0.01887,0 -0.04261,0.02895 -0.05278,0.06432 -0.01021,0.03537 -0.0296,0.09111 -0.04314,0.12387 -0.01846,0.0446 0.01044,0.07411 0.115282,0.117557 0.164962,0.06838 0.165333,0.06844 0.216118,0.03367 z m -7.012282,0.559069 c -0.159235,-0.08642 -0.300506,-0.362719 -0.302645,-0.59191 -0.0016,-0.169908 0.01268,-0.209266 0.111874,-0.308519 0.161695,-0.161798 0.368239,-0.185708 0.513672,-0.05947 0.105498,0.09158 0.106213,0.09462 0.03488,0.147507 -0.06174,0.04578 -0.0873,0.04652 -0.167943,0.0048 -0.07623,-0.03942 -0.112838,-0.04022 -0.184447,-0.0041 -0.07729,0.03903 -0.08915,0.0703 -0.08802,0.231817 0.0017,0.239644 0.147033,0.45316 0.308458,0.45316 0.124291,0 0.175614,-0.05394 0.192336,-0.202146 0.0101,-0.0892 0.03175,-0.112486 0.113516,-0.121893 0.09051,-0.01044 0.101074,-3.5e-5 0.101074,0.09934 0,0.329406 -0.332756,0.514168 -0.632765,0.35134 z m 0.907795,-0.246429 c -0.24978,-0.692932 -0.339741,-0.983938 -0.309878,-1.002395 0.0198,-0.01224 0.17562,-0.06945 0.346264,-0.127126 0.30523,-0.103173 0.310648,-0.103672 0.333862,-0.03053 0.03019,0.0951 0.0031,0.117829 -0.231362,0.193879 -0.225929,0.07329 -0.244792,0.09474 -0.189697,0.215663 l 0.04138,0.09082 0.220444,-0.07445 c 0.183912,-0.06211 0.225767,-0.06604 0.252555,-0.02375 0.06237,0.09846 0.03095,0.131632 -0.18729,0.197711 -0.121288,0.03672 -0.220525,0.07823 -0.220525,0.09223 0,0.05513 0.0821,0.256966 0.104671,0.257316 0.01318,2.2e-4 0.127117,-0.03586 0.253187,-0.08013 0.245724,-0.0863 0.253364,-0.08569 0.272658,0.02173 0.01055,0.05898 -0.04352,0.09071 -0.328575,0.192626 -0.248424,0.08882 -0.345727,0.109605 -0.357696,0.0764 z m 4.785148,-0.09007 c -0.03686,-0.0094 -0.05996,-0.03632 -0.05134,-0.05983 0.124271,-0.338669 0.249667,-0.772969 0.234553,-0.812356 -0.01066,-0.02773 -0.07073,-0.06169 -0.133537,-0.07549 -0.09612,-0.02111 -0.110331,-0.03766 -0.0898,-0.104534 0.01341,-0.0437 0.02956,-0.08531 0.03588,-0.09245 0.0091,-0.01032 0.710517,0.208463 0.740569,0.230944 0.0042,0.0032 -0.0022,0.0435 -0.01419,0.0896 -0.01823,0.0697 -0.03812,0.07953 -0.117994,0.05839 -0.191382,-0.05067 -0.19421,-0.04756 -0.333319,0.366856 -0.07421,0.221103 -0.150435,0.405149 -0.169373,0.408991 -0.01894,0.0039 -0.06459,-7.09e-4 -0.101448,-0.0101 z m -3.895783,-0.185259 c -0.0088,-0.01517 -0.05425,-0.247964 -0.100904,-0.517341 -0.09788,-0.565098 -0.108709,-0.539968 0.249227,-0.5783 0.34657,-0.03712 0.499709,0.08989 0.558753,0.463405 0.0576,0.364394 -0.05994,0.549112 -0.393921,0.619028 -0.229132,0.04796 -0.291348,0.05059 -0.31315,0.0132 z m 0.480232,-0.291029 c 0.06304,-0.08621 0.0578,-0.275418 -0.0125,-0.451112 -0.06477,-0.161891 -0.143689,-0.203825 -0.313416,-0.166547 -0.111318,0.02445 -0.112668,0.02746 -0.08806,0.195698 0.01375,0.09397 0.04196,0.251305 0.06269,0.349619 l 0.0377,0.178751 0.133767,-0.02171 c 0.07357,-0.01193 0.154495,-0.05005 0.17983,-0.0847 z m 2.532204,0.282139 c -0.152378,-0.0476 -0.239452,-0.14007 -0.266211,-0.282713 -0.02846,-0.151689 -0.01453,-0.169222 0.109616,-0.138062 0.05843,0.01467 0.09622,0.04969 0.09622,0.08918 0,0.09765 0.09085,0.153949 0.227311,0.140852 0.101744,-0.0098 0.121851,-0.0266 0.121851,-0.102027 0,-0.07037 -0.04223,-0.114435 -0.191188,-0.199449 -0.208635,-0.119082 -0.287127,-0.246984 -0.247779,-0.403759 0.03412,-0.135959 0.150645,-0.20694 0.339711,-0.20694 0.127884,0 0.181631,0.02159 0.267477,0.107438 0.05999,0.06 0.107439,0.147007 0.107439,0.197051 0,0.07654 -0.01385,0.08696 -0.0949,0.07148 -0.05219,-0.01 -0.104738,-0.0449 -0.116769,-0.0776 -0.03026,-0.08229 -0.08421,-0.113371 -0.197877,-0.114026 -0.199765,-0.0011 -0.14713,0.143333 0.09723,0.266898 0.174399,0.08819 0.253733,0.198036 0.249551,0.345536 -0.0067,0.236722 -0.249544,0.384916 -0.501677,0.306154 z m -0.861218,-0.468914 c -0.148178,-0.310512 -0.172378,-0.343632 -0.181279,-0.248089 -0.0057,0.06065 -0.01985,0.213633 -0.03156,0.339975 -0.01995,0.21543 -0.02704,0.229713 -0.113974,0.229713 -0.09202,0 -0.09253,-0.0018 -0.0715,-0.24809 0.01165,-0.136449 0.03159,-0.38454 0.04431,-0.551311 0.02222,-0.291438 0.02664,-0.303222 0.113626,-0.303222 0.07878,0 0.113393,0.04878 0.267265,0.37673 l 0.176763,0.37673 0.02732,-0.358354 c 0.02671,-0.350496 0.02932,-0.358352 0.119234,-0.358352 h 0.09192 l -0.02494,0.431861 c -0.03599,0.623161 -0.04705,0.670763 -0.155861,0.670763 -0.07803,0 -0.113539,-0.04869 -0.261314,-0.358354 z m -0.816332,-0.229712 v -0.551312 h 0.08677 c 0.07722,0 0.08931,0.02122 0.109945,0.192959 0.01275,0.106134 0.02332,0.354218 0.02349,0.551312 l 3.19e-4,0.358352 h -0.11026 -0.110263 z"
       id="path1837" /><text
       xml:space="preserve"
       style="font-size:8.46667px;font-family:Arial;-inkscape-font-specification:'Arial, Normal';text-align:center;text-anchor:middle;fill:#008000;fill-opacity:1;stroke:#000000;stroke-width:0.264583;stroke-opacity:1"
       x="45.717377"
       y="37.764107"
       id="text1843"><tspan
         sodipodi:role="line"
         id="tspan1839"
         style="font-size:8.46667px;fill:#000000;fill-opacity:1;stroke-width:0.264583"
         x="45.717377"
         y="37.764107">Weapons </tspan><tspan
         sodipodi:role="line"
         style="font-size:8.46667px;fill:#000000;fill-opacity:1;stroke-width:0.264583"
         x="45.717377"
         y="48.347446"
         id="tspan1841">&amp; Tactics</tspan></text></g><g
     inkscape:label="F.SilkS"
     inkscape:groupmode="layer"
     id="g1438" /><g
     inkscape:label="Dwgs.User"
     inkscape:groupmode="layer"
     id="g1440" /><g
     inkscape:label="Drill"
     inkscape:groupmode="layer"
     id="g1442" /></svg>
