%TF.GenerationSoftware,KiCad,Pcbnew,(7.0.0)*%
%TF.CreationDate,2024-07-03T12:20:39-05:00*%
%TF.ProjectId,DC32H4X0R,44433332-4834-4583-9052-2e6b69636164,rev?*%
%TF.SameCoordinates,Original*%
%TF.FileFunction,Copper,L2,Bot*%
%TF.FilePolarity,Positive*%
%FSLAX46Y46*%
G04 Gerber Fmt 4.6, Leading zero omitted, Abs format (unit mm)*
G04 Created by KiCad (PCBNEW (7.0.0)) date 2024-07-03 12:20:39*
%MOMM*%
%LPD*%
G01*
G04 APERTURE LIST*
%ADD10C,0.300000*%
%TA.AperFunction,NonConductor*%
%ADD11C,0.300000*%
%TD*%
%TA.AperFunction,ComponentPad*%
%ADD12C,1.727200*%
%TD*%
%TA.AperFunction,ComponentPad*%
%ADD13O,1.727200X1.727200*%
%TD*%
%TA.AperFunction,ComponentPad*%
%ADD14R,1.727200X1.727200*%
%TD*%
%TA.AperFunction,ComponentPad*%
%ADD15C,2.000000*%
%TD*%
G04 APERTURE END LIST*
D10*
D11*
X96672857Y-47533571D02*
X96672857Y-46033571D01*
X96672857Y-46033571D02*
X96315714Y-46033571D01*
X96315714Y-46033571D02*
X96101428Y-46105000D01*
X96101428Y-46105000D02*
X95958571Y-46247857D01*
X95958571Y-46247857D02*
X95887142Y-46390714D01*
X95887142Y-46390714D02*
X95815714Y-46676428D01*
X95815714Y-46676428D02*
X95815714Y-46890714D01*
X95815714Y-46890714D02*
X95887142Y-47176428D01*
X95887142Y-47176428D02*
X95958571Y-47319285D01*
X95958571Y-47319285D02*
X96101428Y-47462142D01*
X96101428Y-47462142D02*
X96315714Y-47533571D01*
X96315714Y-47533571D02*
X96672857Y-47533571D01*
X95172857Y-46747857D02*
X94672857Y-46747857D01*
X94458571Y-47533571D02*
X95172857Y-47533571D01*
X95172857Y-47533571D02*
X95172857Y-46033571D01*
X95172857Y-46033571D02*
X94458571Y-46033571D01*
X93315714Y-46747857D02*
X93815714Y-46747857D01*
X93815714Y-47533571D02*
X93815714Y-46033571D01*
X93815714Y-46033571D02*
X93101428Y-46033571D01*
X91672857Y-47390714D02*
X91744285Y-47462142D01*
X91744285Y-47462142D02*
X91958571Y-47533571D01*
X91958571Y-47533571D02*
X92101428Y-47533571D01*
X92101428Y-47533571D02*
X92315714Y-47462142D01*
X92315714Y-47462142D02*
X92458571Y-47319285D01*
X92458571Y-47319285D02*
X92530000Y-47176428D01*
X92530000Y-47176428D02*
X92601428Y-46890714D01*
X92601428Y-46890714D02*
X92601428Y-46676428D01*
X92601428Y-46676428D02*
X92530000Y-46390714D01*
X92530000Y-46390714D02*
X92458571Y-46247857D01*
X92458571Y-46247857D02*
X92315714Y-46105000D01*
X92315714Y-46105000D02*
X92101428Y-46033571D01*
X92101428Y-46033571D02*
X91958571Y-46033571D01*
X91958571Y-46033571D02*
X91744285Y-46105000D01*
X91744285Y-46105000D02*
X91672857Y-46176428D01*
X90744285Y-46033571D02*
X90458571Y-46033571D01*
X90458571Y-46033571D02*
X90315714Y-46105000D01*
X90315714Y-46105000D02*
X90172857Y-46247857D01*
X90172857Y-46247857D02*
X90101428Y-46533571D01*
X90101428Y-46533571D02*
X90101428Y-47033571D01*
X90101428Y-47033571D02*
X90172857Y-47319285D01*
X90172857Y-47319285D02*
X90315714Y-47462142D01*
X90315714Y-47462142D02*
X90458571Y-47533571D01*
X90458571Y-47533571D02*
X90744285Y-47533571D01*
X90744285Y-47533571D02*
X90887143Y-47462142D01*
X90887143Y-47462142D02*
X91030000Y-47319285D01*
X91030000Y-47319285D02*
X91101428Y-47033571D01*
X91101428Y-47033571D02*
X91101428Y-46533571D01*
X91101428Y-46533571D02*
X91030000Y-46247857D01*
X91030000Y-46247857D02*
X90887143Y-46105000D01*
X90887143Y-46105000D02*
X90744285Y-46033571D01*
X89458571Y-47533571D02*
X89458571Y-46033571D01*
X89458571Y-46033571D02*
X88601428Y-47533571D01*
X88601428Y-47533571D02*
X88601428Y-46033571D01*
X87129999Y-46033571D02*
X86201427Y-46033571D01*
X86201427Y-46033571D02*
X86701427Y-46605000D01*
X86701427Y-46605000D02*
X86487142Y-46605000D01*
X86487142Y-46605000D02*
X86344285Y-46676428D01*
X86344285Y-46676428D02*
X86272856Y-46747857D01*
X86272856Y-46747857D02*
X86201427Y-46890714D01*
X86201427Y-46890714D02*
X86201427Y-47247857D01*
X86201427Y-47247857D02*
X86272856Y-47390714D01*
X86272856Y-47390714D02*
X86344285Y-47462142D01*
X86344285Y-47462142D02*
X86487142Y-47533571D01*
X86487142Y-47533571D02*
X86915713Y-47533571D01*
X86915713Y-47533571D02*
X87058570Y-47462142D01*
X87058570Y-47462142D02*
X87129999Y-47390714D01*
X85629999Y-46176428D02*
X85558571Y-46105000D01*
X85558571Y-46105000D02*
X85415714Y-46033571D01*
X85415714Y-46033571D02*
X85058571Y-46033571D01*
X85058571Y-46033571D02*
X84915714Y-46105000D01*
X84915714Y-46105000D02*
X84844285Y-46176428D01*
X84844285Y-46176428D02*
X84772856Y-46319285D01*
X84772856Y-46319285D02*
X84772856Y-46462142D01*
X84772856Y-46462142D02*
X84844285Y-46676428D01*
X84844285Y-46676428D02*
X85701428Y-47533571D01*
X85701428Y-47533571D02*
X84772856Y-47533571D01*
X83230000Y-46962142D02*
X82087143Y-46962142D01*
X80544285Y-46533571D02*
X79472857Y-46533571D01*
X80115714Y-45890714D02*
X80544285Y-47819285D01*
X79615714Y-47176428D02*
X80687142Y-47176428D01*
X80044285Y-47819285D02*
X79615714Y-45890714D01*
X78472857Y-46747857D02*
X78258571Y-46819285D01*
X78258571Y-46819285D02*
X78187142Y-46890714D01*
X78187142Y-46890714D02*
X78115714Y-47033571D01*
X78115714Y-47033571D02*
X78115714Y-47247857D01*
X78115714Y-47247857D02*
X78187142Y-47390714D01*
X78187142Y-47390714D02*
X78258571Y-47462142D01*
X78258571Y-47462142D02*
X78401428Y-47533571D01*
X78401428Y-47533571D02*
X78972857Y-47533571D01*
X78972857Y-47533571D02*
X78972857Y-46033571D01*
X78972857Y-46033571D02*
X78472857Y-46033571D01*
X78472857Y-46033571D02*
X78330000Y-46105000D01*
X78330000Y-46105000D02*
X78258571Y-46176428D01*
X78258571Y-46176428D02*
X78187142Y-46319285D01*
X78187142Y-46319285D02*
X78187142Y-46462142D01*
X78187142Y-46462142D02*
X78258571Y-46605000D01*
X78258571Y-46605000D02*
X78330000Y-46676428D01*
X78330000Y-46676428D02*
X78472857Y-46747857D01*
X78472857Y-46747857D02*
X78972857Y-46747857D01*
X77544285Y-47105000D02*
X76830000Y-47105000D01*
X77687142Y-47533571D02*
X77187142Y-46033571D01*
X77187142Y-46033571D02*
X76687142Y-47533571D01*
X76187143Y-47533571D02*
X76187143Y-46033571D01*
X76187143Y-46033571D02*
X75830000Y-46033571D01*
X75830000Y-46033571D02*
X75615714Y-46105000D01*
X75615714Y-46105000D02*
X75472857Y-46247857D01*
X75472857Y-46247857D02*
X75401428Y-46390714D01*
X75401428Y-46390714D02*
X75330000Y-46676428D01*
X75330000Y-46676428D02*
X75330000Y-46890714D01*
X75330000Y-46890714D02*
X75401428Y-47176428D01*
X75401428Y-47176428D02*
X75472857Y-47319285D01*
X75472857Y-47319285D02*
X75615714Y-47462142D01*
X75615714Y-47462142D02*
X75830000Y-47533571D01*
X75830000Y-47533571D02*
X76187143Y-47533571D01*
X73901428Y-46105000D02*
X74044286Y-46033571D01*
X74044286Y-46033571D02*
X74258571Y-46033571D01*
X74258571Y-46033571D02*
X74472857Y-46105000D01*
X74472857Y-46105000D02*
X74615714Y-46247857D01*
X74615714Y-46247857D02*
X74687143Y-46390714D01*
X74687143Y-46390714D02*
X74758571Y-46676428D01*
X74758571Y-46676428D02*
X74758571Y-46890714D01*
X74758571Y-46890714D02*
X74687143Y-47176428D01*
X74687143Y-47176428D02*
X74615714Y-47319285D01*
X74615714Y-47319285D02*
X74472857Y-47462142D01*
X74472857Y-47462142D02*
X74258571Y-47533571D01*
X74258571Y-47533571D02*
X74115714Y-47533571D01*
X74115714Y-47533571D02*
X73901428Y-47462142D01*
X73901428Y-47462142D02*
X73830000Y-47390714D01*
X73830000Y-47390714D02*
X73830000Y-46890714D01*
X73830000Y-46890714D02*
X74115714Y-46890714D01*
X73187143Y-46747857D02*
X72687143Y-46747857D01*
X72472857Y-47533571D02*
X73187143Y-47533571D01*
X73187143Y-47533571D02*
X73187143Y-46033571D01*
X73187143Y-46033571D02*
X72472857Y-46033571D01*
X71115714Y-47533571D02*
X71830000Y-47533571D01*
X71830000Y-47533571D02*
X71830000Y-46033571D01*
X70615714Y-47533571D02*
X70615714Y-46033571D01*
X69401428Y-46747857D02*
X69901428Y-46747857D01*
X69901428Y-47533571D02*
X69901428Y-46033571D01*
X69901428Y-46033571D02*
X69187142Y-46033571D01*
X68615714Y-46747857D02*
X68115714Y-46747857D01*
X67901428Y-47533571D02*
X68615714Y-47533571D01*
X68615714Y-47533571D02*
X68615714Y-46033571D01*
X68615714Y-46033571D02*
X67901428Y-46033571D01*
X66358571Y-46962142D02*
X65215714Y-46962142D01*
X63101428Y-46747857D02*
X62887142Y-46819285D01*
X62887142Y-46819285D02*
X62815713Y-46890714D01*
X62815713Y-46890714D02*
X62744285Y-47033571D01*
X62744285Y-47033571D02*
X62744285Y-47247857D01*
X62744285Y-47247857D02*
X62815713Y-47390714D01*
X62815713Y-47390714D02*
X62887142Y-47462142D01*
X62887142Y-47462142D02*
X63029999Y-47533571D01*
X63029999Y-47533571D02*
X63601428Y-47533571D01*
X63601428Y-47533571D02*
X63601428Y-46033571D01*
X63601428Y-46033571D02*
X63101428Y-46033571D01*
X63101428Y-46033571D02*
X62958571Y-46105000D01*
X62958571Y-46105000D02*
X62887142Y-46176428D01*
X62887142Y-46176428D02*
X62815713Y-46319285D01*
X62815713Y-46319285D02*
X62815713Y-46462142D01*
X62815713Y-46462142D02*
X62887142Y-46605000D01*
X62887142Y-46605000D02*
X62958571Y-46676428D01*
X62958571Y-46676428D02*
X63101428Y-46747857D01*
X63101428Y-46747857D02*
X63601428Y-46747857D01*
X62172856Y-47105000D02*
X61458571Y-47105000D01*
X62315713Y-47533571D02*
X61815713Y-46033571D01*
X61815713Y-46033571D02*
X61315713Y-47533571D01*
X60815714Y-47533571D02*
X60815714Y-46033571D01*
X60815714Y-46033571D02*
X60458571Y-46033571D01*
X60458571Y-46033571D02*
X60244285Y-46105000D01*
X60244285Y-46105000D02*
X60101428Y-46247857D01*
X60101428Y-46247857D02*
X60029999Y-46390714D01*
X60029999Y-46390714D02*
X59958571Y-46676428D01*
X59958571Y-46676428D02*
X59958571Y-46890714D01*
X59958571Y-46890714D02*
X60029999Y-47176428D01*
X60029999Y-47176428D02*
X60101428Y-47319285D01*
X60101428Y-47319285D02*
X60244285Y-47462142D01*
X60244285Y-47462142D02*
X60458571Y-47533571D01*
X60458571Y-47533571D02*
X60815714Y-47533571D01*
X58529999Y-46105000D02*
X58672857Y-46033571D01*
X58672857Y-46033571D02*
X58887142Y-46033571D01*
X58887142Y-46033571D02*
X59101428Y-46105000D01*
X59101428Y-46105000D02*
X59244285Y-46247857D01*
X59244285Y-46247857D02*
X59315714Y-46390714D01*
X59315714Y-46390714D02*
X59387142Y-46676428D01*
X59387142Y-46676428D02*
X59387142Y-46890714D01*
X59387142Y-46890714D02*
X59315714Y-47176428D01*
X59315714Y-47176428D02*
X59244285Y-47319285D01*
X59244285Y-47319285D02*
X59101428Y-47462142D01*
X59101428Y-47462142D02*
X58887142Y-47533571D01*
X58887142Y-47533571D02*
X58744285Y-47533571D01*
X58744285Y-47533571D02*
X58529999Y-47462142D01*
X58529999Y-47462142D02*
X58458571Y-47390714D01*
X58458571Y-47390714D02*
X58458571Y-46890714D01*
X58458571Y-46890714D02*
X58744285Y-46890714D01*
X57815714Y-46747857D02*
X57315714Y-46747857D01*
X57101428Y-47533571D02*
X57815714Y-47533571D01*
X57815714Y-47533571D02*
X57815714Y-46033571D01*
X57815714Y-46033571D02*
X57101428Y-46033571D01*
X54701428Y-47390714D02*
X54772856Y-47462142D01*
X54772856Y-47462142D02*
X54987142Y-47533571D01*
X54987142Y-47533571D02*
X55129999Y-47533571D01*
X55129999Y-47533571D02*
X55344285Y-47462142D01*
X55344285Y-47462142D02*
X55487142Y-47319285D01*
X55487142Y-47319285D02*
X55558571Y-47176428D01*
X55558571Y-47176428D02*
X55629999Y-46890714D01*
X55629999Y-46890714D02*
X55629999Y-46676428D01*
X55629999Y-46676428D02*
X55558571Y-46390714D01*
X55558571Y-46390714D02*
X55487142Y-46247857D01*
X55487142Y-46247857D02*
X55344285Y-46105000D01*
X55344285Y-46105000D02*
X55129999Y-46033571D01*
X55129999Y-46033571D02*
X54987142Y-46033571D01*
X54987142Y-46033571D02*
X54772856Y-46105000D01*
X54772856Y-46105000D02*
X54701428Y-46176428D01*
X54272856Y-46033571D02*
X53415714Y-46033571D01*
X53844285Y-47533571D02*
X53844285Y-46033571D01*
X52415714Y-46747857D02*
X52915714Y-46747857D01*
X52915714Y-47533571D02*
X52915714Y-46033571D01*
X52915714Y-46033571D02*
X52201428Y-46033571D01*
X50944285Y-46033571D02*
X50087143Y-46033571D01*
X50515714Y-47533571D02*
X50515714Y-46033571D01*
X49301428Y-46033571D02*
X49015714Y-46033571D01*
X49015714Y-46033571D02*
X48872857Y-46105000D01*
X48872857Y-46105000D02*
X48730000Y-46247857D01*
X48730000Y-46247857D02*
X48658571Y-46533571D01*
X48658571Y-46533571D02*
X48658571Y-47033571D01*
X48658571Y-47033571D02*
X48730000Y-47319285D01*
X48730000Y-47319285D02*
X48872857Y-47462142D01*
X48872857Y-47462142D02*
X49015714Y-47533571D01*
X49015714Y-47533571D02*
X49301428Y-47533571D01*
X49301428Y-47533571D02*
X49444286Y-47462142D01*
X49444286Y-47462142D02*
X49587143Y-47319285D01*
X49587143Y-47319285D02*
X49658571Y-47033571D01*
X49658571Y-47033571D02*
X49658571Y-46533571D01*
X49658571Y-46533571D02*
X49587143Y-46247857D01*
X49587143Y-46247857D02*
X49444286Y-46105000D01*
X49444286Y-46105000D02*
X49301428Y-46033571D01*
X47729999Y-46033571D02*
X47444285Y-46033571D01*
X47444285Y-46033571D02*
X47301428Y-46105000D01*
X47301428Y-46105000D02*
X47158571Y-46247857D01*
X47158571Y-46247857D02*
X47087142Y-46533571D01*
X47087142Y-46533571D02*
X47087142Y-47033571D01*
X47087142Y-47033571D02*
X47158571Y-47319285D01*
X47158571Y-47319285D02*
X47301428Y-47462142D01*
X47301428Y-47462142D02*
X47444285Y-47533571D01*
X47444285Y-47533571D02*
X47729999Y-47533571D01*
X47729999Y-47533571D02*
X47872857Y-47462142D01*
X47872857Y-47462142D02*
X48015714Y-47319285D01*
X48015714Y-47319285D02*
X48087142Y-47033571D01*
X48087142Y-47033571D02*
X48087142Y-46533571D01*
X48087142Y-46533571D02*
X48015714Y-46247857D01*
X48015714Y-46247857D02*
X47872857Y-46105000D01*
X47872857Y-46105000D02*
X47729999Y-46033571D01*
X45729999Y-47533571D02*
X46444285Y-47533571D01*
X46444285Y-47533571D02*
X46444285Y-46033571D01*
D12*
%TO.P,X1,5,GPIO1*%
%TO.N,Net-(X1-GPIO1)*%
X72780000Y-73840000D03*
%TO.P,X1,6,GPIO2*%
%TO.N,Net-(X1-GPIO2)*%
X72780000Y-76380000D03*
D13*
%TO.P,X1,3,SDA*%
%TO.N,unconnected-(X1-SDA-Pad3)*%
X70239999Y-73839999D03*
%TO.P,X1,4,SCL*%
%TO.N,unconnected-(X1-SCL-Pad4)*%
X70239999Y-76379999D03*
%TO.P,X1,1,VCC*%
%TO.N,Net-(X1-VCC)*%
X67699999Y-73839999D03*
D14*
%TO.P,X1,2,GND*%
%TO.N,GND*%
X67699999Y-76379999D03*
%TD*%
D15*
%TO.P,SW2,1,1*%
%TO.N,Net-(X1-GPIO2)*%
X97080000Y-65150000D03*
X97080000Y-71650000D03*
%TO.P,SW2,2,2*%
%TO.N,GND*%
X101580000Y-65150000D03*
X101580000Y-71650000D03*
%TD*%
%TO.P,SW1,1,1*%
%TO.N,Net-(X1-GPIO1)*%
X97420000Y-51010000D03*
X97420000Y-57510000D03*
%TO.P,SW1,2,2*%
%TO.N,GND*%
X101920000Y-51010000D03*
X101920000Y-57510000D03*
%TD*%
%TA.AperFunction,Conductor*%
%TO.N,GND*%
G36*
X101753186Y-42716855D02*
G01*
X102179040Y-42749532D01*
X102197554Y-42752372D01*
X102604938Y-42846827D01*
X102622084Y-42852137D01*
X103016544Y-43006404D01*
X103031749Y-43013574D01*
X103411587Y-43225303D01*
X103424583Y-43233649D01*
X103787967Y-43500404D01*
X103798857Y-43509395D01*
X104143395Y-43828561D01*
X104152395Y-43837815D01*
X104424177Y-44148028D01*
X104475411Y-44206506D01*
X104482770Y-44215761D01*
X104781824Y-44631083D01*
X104781831Y-44631092D01*
X104787789Y-44640181D01*
X105060434Y-45098776D01*
X105065245Y-45107677D01*
X105309044Y-45606297D01*
X105312920Y-45615067D01*
X105525297Y-46150800D01*
X105528319Y-46159319D01*
X105707170Y-46728391D01*
X105709487Y-46736783D01*
X105852478Y-47335910D01*
X105854163Y-47344218D01*
X105959012Y-47970376D01*
X105960107Y-47978589D01*
X106024657Y-48628015D01*
X106025199Y-48636223D01*
X106047218Y-49308795D01*
X106047284Y-49312852D01*
X106047284Y-73806434D01*
X106047218Y-73810491D01*
X106025199Y-74483061D01*
X106024657Y-74491269D01*
X105960107Y-75140695D01*
X105959012Y-75148909D01*
X105854164Y-75775057D01*
X105852481Y-75783359D01*
X105709485Y-76382609D01*
X105707166Y-76391006D01*
X105528320Y-76960064D01*
X105525295Y-76968590D01*
X105312921Y-77504216D01*
X105309048Y-77512979D01*
X105065245Y-78011609D01*
X105060440Y-78020500D01*
X104787789Y-78479201D01*
X104781825Y-78488300D01*
X104482781Y-78903607D01*
X104475411Y-78912875D01*
X104152393Y-79281475D01*
X104143403Y-79290717D01*
X103798847Y-79609898D01*
X103787974Y-79618877D01*
X103424598Y-79885722D01*
X103411556Y-79894097D01*
X103031734Y-80105721D01*
X103016569Y-80112873D01*
X102622100Y-80267239D01*
X102604919Y-80272562D01*
X102197557Y-80367011D01*
X102179037Y-80369852D01*
X101753187Y-80402530D01*
X101743700Y-80402893D01*
X40764559Y-80402893D01*
X40755073Y-80402530D01*
X40329170Y-80369852D01*
X40310647Y-80367010D01*
X39903308Y-80272560D01*
X39886151Y-80267247D01*
X39491710Y-80112976D01*
X39476514Y-80105810D01*
X39242627Y-79975470D01*
X39096606Y-79894096D01*
X39083575Y-79885727D01*
X38720192Y-79618877D01*
X38709309Y-79609888D01*
X38364843Y-79290716D01*
X38355864Y-79281485D01*
X38090661Y-78978862D01*
X38032834Y-78912875D01*
X38025472Y-78903617D01*
X37763116Y-78539298D01*
X37726392Y-78488300D01*
X37720429Y-78479203D01*
X37478854Y-78072801D01*
X37447775Y-78020517D01*
X37442966Y-78011618D01*
X37442962Y-78011609D01*
X37199206Y-77512939D01*
X37195364Y-77504247D01*
X37109630Y-77288118D01*
X66336400Y-77288118D01*
X66336753Y-77294714D01*
X66341973Y-77343267D01*
X66345511Y-77358241D01*
X66389947Y-77477377D01*
X66398362Y-77492789D01*
X66473898Y-77593692D01*
X66486307Y-77606101D01*
X66587210Y-77681637D01*
X66602622Y-77690052D01*
X66721758Y-77734488D01*
X66736732Y-77738026D01*
X66785285Y-77743246D01*
X66791882Y-77743600D01*
X67433674Y-77743600D01*
X67446549Y-77740149D01*
X67450000Y-77727274D01*
X67450000Y-76646326D01*
X67446549Y-76633450D01*
X67433674Y-76630000D01*
X66352726Y-76630000D01*
X66339850Y-76633450D01*
X66336400Y-76646326D01*
X66336400Y-77288118D01*
X37109630Y-77288118D01*
X36982875Y-76968577D01*
X36979854Y-76960064D01*
X36800983Y-76390985D01*
X36798671Y-76382609D01*
X36655690Y-75783356D01*
X36654009Y-75775064D01*
X36654008Y-75775057D01*
X36549165Y-75148906D01*
X36548073Y-75140715D01*
X36483560Y-74491233D01*
X36483021Y-74483047D01*
X36461911Y-73840000D01*
X66323198Y-73840000D01*
X66323622Y-73845117D01*
X66341551Y-74061494D01*
X66341552Y-74061502D01*
X66341976Y-74066614D01*
X66343233Y-74071581D01*
X66343235Y-74071588D01*
X66396538Y-74282076D01*
X66397797Y-74287047D01*
X66399857Y-74291743D01*
X66487079Y-74490590D01*
X66487082Y-74490595D01*
X66489139Y-74495285D01*
X66494676Y-74503760D01*
X66610708Y-74681361D01*
X66610711Y-74681365D01*
X66613510Y-74685649D01*
X66616980Y-74689418D01*
X66749150Y-74832994D01*
X66777923Y-74885747D01*
X66778516Y-74945833D01*
X66750789Y-74999143D01*
X66701254Y-75033159D01*
X66602620Y-75069948D01*
X66587210Y-75078362D01*
X66486307Y-75153898D01*
X66473898Y-75166307D01*
X66398362Y-75267210D01*
X66389947Y-75282622D01*
X66345511Y-75401758D01*
X66341973Y-75416732D01*
X66336753Y-75465285D01*
X66336400Y-75471882D01*
X66336400Y-76113674D01*
X66339850Y-76126549D01*
X66352726Y-76130000D01*
X67826000Y-76130000D01*
X67888000Y-76146613D01*
X67933387Y-76192000D01*
X67950000Y-76254000D01*
X67950000Y-77727274D01*
X67953450Y-77740149D01*
X67966326Y-77743600D01*
X68608118Y-77743600D01*
X68614714Y-77743246D01*
X68663267Y-77738026D01*
X68678241Y-77734488D01*
X68797377Y-77690052D01*
X68812789Y-77681637D01*
X68913692Y-77606101D01*
X68926101Y-77593692D01*
X69001637Y-77492789D01*
X69010052Y-77477378D01*
X69047639Y-77376603D01*
X69083590Y-77325389D01*
X69139972Y-77298251D01*
X69202427Y-77302099D01*
X69255052Y-77335953D01*
X69307517Y-77392946D01*
X69486961Y-77532612D01*
X69686945Y-77640839D01*
X69691791Y-77642502D01*
X69691792Y-77642503D01*
X69830299Y-77690052D01*
X69902015Y-77714672D01*
X70126305Y-77752100D01*
X70348562Y-77752100D01*
X70353695Y-77752100D01*
X70577985Y-77714672D01*
X70793055Y-77640839D01*
X70993039Y-77532612D01*
X71172483Y-77392946D01*
X71326490Y-77225649D01*
X71406190Y-77103658D01*
X71450982Y-77062424D01*
X71510000Y-77047479D01*
X71569018Y-77062424D01*
X71613809Y-77103658D01*
X71690704Y-77221356D01*
X71690711Y-77221365D01*
X71693510Y-77225649D01*
X71847517Y-77392946D01*
X72026961Y-77532612D01*
X72226945Y-77640839D01*
X72231791Y-77642502D01*
X72231792Y-77642503D01*
X72370299Y-77690052D01*
X72442015Y-77714672D01*
X72666305Y-77752100D01*
X72888562Y-77752100D01*
X72893695Y-77752100D01*
X73117985Y-77714672D01*
X73333055Y-77640839D01*
X73533039Y-77532612D01*
X73712483Y-77392946D01*
X73866490Y-77225649D01*
X73990861Y-77035285D01*
X74082203Y-76827047D01*
X74138024Y-76606614D01*
X74156802Y-76380000D01*
X74138024Y-76153386D01*
X74082203Y-75932953D01*
X73990861Y-75724715D01*
X73866490Y-75534351D01*
X73712483Y-75367054D01*
X73533039Y-75227388D01*
X73517640Y-75219054D01*
X73470136Y-75173474D01*
X73452659Y-75110000D01*
X73470136Y-75046526D01*
X73517641Y-75000945D01*
X73533039Y-74992612D01*
X73712483Y-74852946D01*
X73866490Y-74685649D01*
X73990861Y-74495285D01*
X74082203Y-74287047D01*
X74138024Y-74066614D01*
X74156802Y-73840000D01*
X74138024Y-73613386D01*
X74082203Y-73392953D01*
X73990861Y-73184715D01*
X73866490Y-72994351D01*
X73712483Y-72827054D01*
X73578959Y-72723129D01*
X73537085Y-72690537D01*
X73537084Y-72690536D01*
X73533039Y-72687388D01*
X73469304Y-72652896D01*
X73337557Y-72581597D01*
X73337553Y-72581595D01*
X73333055Y-72579161D01*
X73328214Y-72577499D01*
X73328207Y-72577496D01*
X73122834Y-72506992D01*
X73122826Y-72506990D01*
X73117985Y-72505328D01*
X73112938Y-72504485D01*
X73112931Y-72504484D01*
X72898756Y-72468744D01*
X72898749Y-72468743D01*
X72893695Y-72467900D01*
X72666305Y-72467900D01*
X72661251Y-72468743D01*
X72661243Y-72468744D01*
X72447068Y-72504484D01*
X72447058Y-72504486D01*
X72442015Y-72505328D01*
X72437176Y-72506989D01*
X72437165Y-72506992D01*
X72231792Y-72577496D01*
X72231781Y-72577500D01*
X72226945Y-72579161D01*
X72222451Y-72581593D01*
X72222442Y-72581597D01*
X72031469Y-72684948D01*
X72031465Y-72684950D01*
X72026961Y-72687388D01*
X72022921Y-72690532D01*
X72022914Y-72690537D01*
X71851564Y-72823903D01*
X71851556Y-72823910D01*
X71847517Y-72827054D01*
X71844047Y-72830822D01*
X71844043Y-72830827D01*
X71696980Y-72990581D01*
X71696977Y-72990584D01*
X71693510Y-72994351D01*
X71690714Y-72998630D01*
X71690702Y-72998646D01*
X71613807Y-73116342D01*
X71569016Y-73157575D01*
X71509998Y-73172520D01*
X71450981Y-73157574D01*
X71406190Y-73116341D01*
X71329295Y-72998643D01*
X71329289Y-72998635D01*
X71326490Y-72994351D01*
X71172483Y-72827054D01*
X71038959Y-72723129D01*
X70997085Y-72690537D01*
X70997084Y-72690536D01*
X70993039Y-72687388D01*
X70929304Y-72652896D01*
X70797557Y-72581597D01*
X70797553Y-72581595D01*
X70793055Y-72579161D01*
X70788214Y-72577499D01*
X70788207Y-72577496D01*
X70582834Y-72506992D01*
X70582826Y-72506990D01*
X70577985Y-72505328D01*
X70572938Y-72504485D01*
X70572931Y-72504484D01*
X70358756Y-72468744D01*
X70358749Y-72468743D01*
X70353695Y-72467900D01*
X70126305Y-72467900D01*
X70121251Y-72468743D01*
X70121243Y-72468744D01*
X69907068Y-72504484D01*
X69907058Y-72504486D01*
X69902015Y-72505328D01*
X69897176Y-72506989D01*
X69897165Y-72506992D01*
X69691792Y-72577496D01*
X69691781Y-72577500D01*
X69686945Y-72579161D01*
X69682451Y-72581593D01*
X69682442Y-72581597D01*
X69491469Y-72684948D01*
X69491465Y-72684950D01*
X69486961Y-72687388D01*
X69482921Y-72690532D01*
X69482914Y-72690537D01*
X69311564Y-72823903D01*
X69311556Y-72823910D01*
X69307517Y-72827054D01*
X69304047Y-72830822D01*
X69304043Y-72830827D01*
X69156980Y-72990581D01*
X69156977Y-72990584D01*
X69153510Y-72994351D01*
X69150714Y-72998630D01*
X69150702Y-72998646D01*
X69073807Y-73116342D01*
X69029016Y-73157575D01*
X68969998Y-73172520D01*
X68910981Y-73157574D01*
X68866190Y-73116341D01*
X68789295Y-72998643D01*
X68789289Y-72998635D01*
X68786490Y-72994351D01*
X68632483Y-72827054D01*
X68498959Y-72723129D01*
X68457085Y-72690537D01*
X68457084Y-72690536D01*
X68453039Y-72687388D01*
X68389304Y-72652896D01*
X68257557Y-72581597D01*
X68257553Y-72581595D01*
X68253055Y-72579161D01*
X68248214Y-72577499D01*
X68248207Y-72577496D01*
X68042834Y-72506992D01*
X68042826Y-72506990D01*
X68037985Y-72505328D01*
X68032938Y-72504485D01*
X68032931Y-72504484D01*
X67818756Y-72468744D01*
X67818749Y-72468743D01*
X67813695Y-72467900D01*
X67586305Y-72467900D01*
X67581251Y-72468743D01*
X67581243Y-72468744D01*
X67367068Y-72504484D01*
X67367058Y-72504486D01*
X67362015Y-72505328D01*
X67357176Y-72506989D01*
X67357165Y-72506992D01*
X67151792Y-72577496D01*
X67151781Y-72577500D01*
X67146945Y-72579161D01*
X67142451Y-72581593D01*
X67142442Y-72581597D01*
X66951469Y-72684948D01*
X66951465Y-72684950D01*
X66946961Y-72687388D01*
X66942921Y-72690532D01*
X66942914Y-72690537D01*
X66771564Y-72823903D01*
X66771556Y-72823910D01*
X66767517Y-72827054D01*
X66764047Y-72830822D01*
X66764043Y-72830827D01*
X66616980Y-72990581D01*
X66616977Y-72990584D01*
X66613510Y-72994351D01*
X66610715Y-72998628D01*
X66610708Y-72998638D01*
X66511819Y-73150000D01*
X66489139Y-73184715D01*
X66487084Y-73189399D01*
X66487079Y-73189409D01*
X66430000Y-73319537D01*
X66397797Y-73392953D01*
X66396539Y-73397918D01*
X66396538Y-73397923D01*
X66343235Y-73608411D01*
X66343233Y-73608420D01*
X66341976Y-73613386D01*
X66341552Y-73618495D01*
X66341551Y-73618505D01*
X66325810Y-73808475D01*
X66323198Y-73840000D01*
X36461911Y-73840000D01*
X36460943Y-73810512D01*
X36460876Y-73806444D01*
X36460876Y-71650000D01*
X95566835Y-71650000D01*
X95585465Y-71886711D01*
X95640895Y-72117594D01*
X95642756Y-72122087D01*
X95642758Y-72122093D01*
X95729894Y-72332460D01*
X95729898Y-72332468D01*
X95731760Y-72336963D01*
X95752407Y-72370656D01*
X95853277Y-72535261D01*
X95853282Y-72535268D01*
X95855824Y-72539416D01*
X95858984Y-72543115D01*
X95858987Y-72543120D01*
X95888347Y-72577496D01*
X96010031Y-72719969D01*
X96190584Y-72874176D01*
X96194734Y-72876719D01*
X96194738Y-72876722D01*
X96243989Y-72906903D01*
X96393037Y-72998240D01*
X96397536Y-73000103D01*
X96397539Y-73000105D01*
X96469790Y-73030032D01*
X96612406Y-73089105D01*
X96843289Y-73144535D01*
X97080000Y-73163165D01*
X97316711Y-73144535D01*
X97547594Y-73089105D01*
X97766963Y-72998240D01*
X97969416Y-72874176D01*
X97970503Y-72873248D01*
X100715749Y-72873248D01*
X100723855Y-72884439D01*
X100752717Y-72906903D01*
X100761279Y-72912496D01*
X100970885Y-73025929D01*
X100980239Y-73030032D01*
X101205656Y-73107417D01*
X101215568Y-73109928D01*
X101450643Y-73149155D01*
X101460839Y-73150000D01*
X101699161Y-73150000D01*
X101709356Y-73149155D01*
X101944431Y-73109928D01*
X101954343Y-73107417D01*
X102179760Y-73030032D01*
X102189114Y-73025929D01*
X102398723Y-72912495D01*
X102407281Y-72906903D01*
X102436146Y-72884437D01*
X102444250Y-72873250D01*
X102437589Y-72861142D01*
X101591542Y-72015095D01*
X101580000Y-72008431D01*
X101568457Y-72015095D01*
X100722408Y-72861143D01*
X100715749Y-72873248D01*
X97970503Y-72873248D01*
X98149969Y-72719969D01*
X98304176Y-72539416D01*
X98428240Y-72336963D01*
X98519105Y-72117594D01*
X98574535Y-71886711D01*
X98592762Y-71655117D01*
X100075283Y-71655117D01*
X100094962Y-71892618D01*
X100096646Y-71902712D01*
X100155153Y-72133747D01*
X100158472Y-72143414D01*
X100254208Y-72361673D01*
X100259070Y-72370656D01*
X100348999Y-72508304D01*
X100356963Y-72516024D01*
X100366345Y-72510100D01*
X101214904Y-71661542D01*
X101221568Y-71650000D01*
X101938431Y-71650000D01*
X101945095Y-71661542D01*
X102793653Y-72510100D01*
X102803034Y-72516024D01*
X102811002Y-72508299D01*
X102900924Y-72370664D01*
X102905792Y-72361669D01*
X103001527Y-72143414D01*
X103004846Y-72133747D01*
X103063353Y-71902712D01*
X103065037Y-71892618D01*
X103084717Y-71655117D01*
X103084717Y-71644883D01*
X103065037Y-71407381D01*
X103063353Y-71397287D01*
X103004846Y-71166252D01*
X103001527Y-71156585D01*
X102905792Y-70938330D01*
X102900924Y-70929335D01*
X102811002Y-70791699D01*
X102803034Y-70783974D01*
X102793653Y-70789898D01*
X101945095Y-71638457D01*
X101938431Y-71650000D01*
X101221568Y-71650000D01*
X101214904Y-71638457D01*
X100366345Y-70789898D01*
X100356964Y-70783974D01*
X100348997Y-70791699D01*
X100259072Y-70929338D01*
X100254207Y-70938328D01*
X100158472Y-71156585D01*
X100155153Y-71166252D01*
X100096646Y-71397287D01*
X100094962Y-71407381D01*
X100075283Y-71644883D01*
X100075283Y-71655117D01*
X98592762Y-71655117D01*
X98593165Y-71650000D01*
X98574535Y-71413289D01*
X98519105Y-71182406D01*
X98428240Y-70963037D01*
X98347202Y-70830796D01*
X98306722Y-70764738D01*
X98306719Y-70764734D01*
X98304176Y-70760584D01*
X98149969Y-70580031D01*
X98146268Y-70576870D01*
X97973120Y-70428987D01*
X97973115Y-70428984D01*
X97970499Y-70426749D01*
X100715748Y-70426749D01*
X100722408Y-70438855D01*
X101568457Y-71284904D01*
X101580000Y-71291568D01*
X101591542Y-71284904D01*
X102437590Y-70438855D01*
X102444250Y-70426749D01*
X102436143Y-70415559D01*
X102407286Y-70393099D01*
X102398719Y-70387503D01*
X102189114Y-70274070D01*
X102179760Y-70269967D01*
X101954343Y-70192582D01*
X101944431Y-70190071D01*
X101709356Y-70150844D01*
X101699161Y-70150000D01*
X101460839Y-70150000D01*
X101450643Y-70150844D01*
X101215568Y-70190071D01*
X101205656Y-70192582D01*
X100980239Y-70269967D01*
X100970885Y-70274070D01*
X100761276Y-70387504D01*
X100752717Y-70393096D01*
X100723854Y-70415560D01*
X100715748Y-70426749D01*
X97970499Y-70426749D01*
X97969416Y-70425824D01*
X97965268Y-70423282D01*
X97965261Y-70423277D01*
X97837175Y-70344786D01*
X97766963Y-70301760D01*
X97762468Y-70299898D01*
X97762460Y-70299894D01*
X97552093Y-70212758D01*
X97552087Y-70212756D01*
X97547594Y-70210895D01*
X97542865Y-70209759D01*
X97542860Y-70209758D01*
X97321444Y-70156601D01*
X97321440Y-70156600D01*
X97316711Y-70155465D01*
X97311858Y-70155083D01*
X97084854Y-70137217D01*
X97080000Y-70136835D01*
X97075146Y-70137217D01*
X96848141Y-70155083D01*
X96848139Y-70155083D01*
X96843289Y-70155465D01*
X96838561Y-70156599D01*
X96838555Y-70156601D01*
X96617139Y-70209758D01*
X96617130Y-70209760D01*
X96612406Y-70210895D01*
X96607916Y-70212754D01*
X96607906Y-70212758D01*
X96397539Y-70299894D01*
X96397526Y-70299900D01*
X96393037Y-70301760D01*
X96388883Y-70304305D01*
X96388882Y-70304306D01*
X96194738Y-70423277D01*
X96194725Y-70423286D01*
X96190584Y-70425824D01*
X96186889Y-70428979D01*
X96186879Y-70428987D01*
X96013731Y-70576870D01*
X96013724Y-70576876D01*
X96010031Y-70580031D01*
X96006876Y-70583724D01*
X96006870Y-70583731D01*
X95858987Y-70756879D01*
X95858979Y-70756889D01*
X95855824Y-70760584D01*
X95853286Y-70764725D01*
X95853277Y-70764738D01*
X95734306Y-70958882D01*
X95731760Y-70963037D01*
X95729900Y-70967526D01*
X95729894Y-70967539D01*
X95642758Y-71177906D01*
X95642754Y-71177916D01*
X95640895Y-71182406D01*
X95639760Y-71187130D01*
X95639758Y-71187139D01*
X95586601Y-71408555D01*
X95586599Y-71408561D01*
X95585465Y-71413289D01*
X95566835Y-71650000D01*
X36460876Y-71650000D01*
X36460876Y-65150000D01*
X95566835Y-65150000D01*
X95585465Y-65386711D01*
X95640895Y-65617594D01*
X95642756Y-65622087D01*
X95642758Y-65622093D01*
X95729894Y-65832460D01*
X95729898Y-65832468D01*
X95731760Y-65836963D01*
X95752407Y-65870656D01*
X95853277Y-66035261D01*
X95853282Y-66035268D01*
X95855824Y-66039416D01*
X95858984Y-66043115D01*
X95858987Y-66043120D01*
X96006870Y-66216268D01*
X96010031Y-66219969D01*
X96190584Y-66374176D01*
X96194734Y-66376719D01*
X96194738Y-66376722D01*
X96243989Y-66406903D01*
X96393037Y-66498240D01*
X96397536Y-66500103D01*
X96397539Y-66500105D01*
X96469790Y-66530032D01*
X96612406Y-66589105D01*
X96843289Y-66644535D01*
X97080000Y-66663165D01*
X97316711Y-66644535D01*
X97547594Y-66589105D01*
X97766963Y-66498240D01*
X97969416Y-66374176D01*
X97970503Y-66373248D01*
X100715749Y-66373248D01*
X100723855Y-66384439D01*
X100752717Y-66406903D01*
X100761279Y-66412496D01*
X100970885Y-66525929D01*
X100980239Y-66530032D01*
X101205656Y-66607417D01*
X101215568Y-66609928D01*
X101450643Y-66649155D01*
X101460839Y-66650000D01*
X101699161Y-66650000D01*
X101709356Y-66649155D01*
X101944431Y-66609928D01*
X101954343Y-66607417D01*
X102179760Y-66530032D01*
X102189114Y-66525929D01*
X102398723Y-66412495D01*
X102407281Y-66406903D01*
X102436146Y-66384437D01*
X102444250Y-66373250D01*
X102437589Y-66361142D01*
X101591542Y-65515095D01*
X101580000Y-65508431D01*
X101568457Y-65515095D01*
X100722408Y-66361143D01*
X100715749Y-66373248D01*
X97970503Y-66373248D01*
X98149969Y-66219969D01*
X98304176Y-66039416D01*
X98428240Y-65836963D01*
X98519105Y-65617594D01*
X98574535Y-65386711D01*
X98592762Y-65155117D01*
X100075283Y-65155117D01*
X100094962Y-65392618D01*
X100096646Y-65402712D01*
X100155153Y-65633747D01*
X100158472Y-65643414D01*
X100254208Y-65861673D01*
X100259070Y-65870656D01*
X100348999Y-66008304D01*
X100356963Y-66016024D01*
X100366345Y-66010100D01*
X101214904Y-65161542D01*
X101221567Y-65150000D01*
X101938431Y-65150000D01*
X101945095Y-65161542D01*
X102793653Y-66010100D01*
X102803034Y-66016024D01*
X102811002Y-66008299D01*
X102900924Y-65870664D01*
X102905792Y-65861669D01*
X103001527Y-65643414D01*
X103004846Y-65633747D01*
X103063353Y-65402712D01*
X103065037Y-65392618D01*
X103084717Y-65155117D01*
X103084717Y-65144883D01*
X103065037Y-64907381D01*
X103063353Y-64897287D01*
X103004846Y-64666252D01*
X103001527Y-64656585D01*
X102905792Y-64438330D01*
X102900924Y-64429335D01*
X102811002Y-64291699D01*
X102803034Y-64283974D01*
X102793653Y-64289898D01*
X101945095Y-65138457D01*
X101938431Y-65150000D01*
X101221567Y-65150000D01*
X101221568Y-65149999D01*
X101214904Y-65138457D01*
X100366345Y-64289898D01*
X100356964Y-64283974D01*
X100348997Y-64291699D01*
X100259072Y-64429338D01*
X100254207Y-64438328D01*
X100158472Y-64656585D01*
X100155153Y-64666252D01*
X100096646Y-64897287D01*
X100094962Y-64907381D01*
X100075283Y-65144883D01*
X100075283Y-65155117D01*
X98592762Y-65155117D01*
X98593165Y-65150000D01*
X98574535Y-64913289D01*
X98519105Y-64682406D01*
X98428240Y-64463037D01*
X98347202Y-64330796D01*
X98306722Y-64264738D01*
X98306719Y-64264734D01*
X98304176Y-64260584D01*
X98149969Y-64080031D01*
X98146268Y-64076870D01*
X97973120Y-63928987D01*
X97973115Y-63928984D01*
X97970499Y-63926749D01*
X100715748Y-63926749D01*
X100722408Y-63938855D01*
X101568457Y-64784904D01*
X101579999Y-64791568D01*
X101591542Y-64784904D01*
X102437590Y-63938855D01*
X102444250Y-63926749D01*
X102436143Y-63915559D01*
X102407286Y-63893099D01*
X102398719Y-63887503D01*
X102189114Y-63774070D01*
X102179760Y-63769967D01*
X101954343Y-63692582D01*
X101944431Y-63690071D01*
X101709356Y-63650844D01*
X101699161Y-63650000D01*
X101460839Y-63650000D01*
X101450643Y-63650844D01*
X101215568Y-63690071D01*
X101205656Y-63692582D01*
X100980239Y-63769967D01*
X100970885Y-63774070D01*
X100761276Y-63887504D01*
X100752717Y-63893096D01*
X100723854Y-63915560D01*
X100715748Y-63926749D01*
X97970499Y-63926749D01*
X97969416Y-63925824D01*
X97965268Y-63923282D01*
X97965261Y-63923277D01*
X97837175Y-63844786D01*
X97766963Y-63801760D01*
X97762468Y-63799898D01*
X97762460Y-63799894D01*
X97552093Y-63712758D01*
X97552087Y-63712756D01*
X97547594Y-63710895D01*
X97542865Y-63709759D01*
X97542860Y-63709758D01*
X97321444Y-63656601D01*
X97321440Y-63656600D01*
X97316711Y-63655465D01*
X97311858Y-63655083D01*
X97084854Y-63637217D01*
X97080000Y-63636835D01*
X97075146Y-63637217D01*
X96848141Y-63655083D01*
X96848139Y-63655083D01*
X96843289Y-63655465D01*
X96838561Y-63656599D01*
X96838555Y-63656601D01*
X96617139Y-63709758D01*
X96617130Y-63709760D01*
X96612406Y-63710895D01*
X96607916Y-63712754D01*
X96607906Y-63712758D01*
X96397539Y-63799894D01*
X96397526Y-63799900D01*
X96393037Y-63801760D01*
X96388883Y-63804305D01*
X96388882Y-63804306D01*
X96194738Y-63923277D01*
X96194725Y-63923286D01*
X96190584Y-63925824D01*
X96186889Y-63928979D01*
X96186879Y-63928987D01*
X96013731Y-64076870D01*
X96013724Y-64076876D01*
X96010031Y-64080031D01*
X96006876Y-64083724D01*
X96006870Y-64083731D01*
X95858987Y-64256879D01*
X95858979Y-64256889D01*
X95855824Y-64260584D01*
X95853286Y-64264725D01*
X95853277Y-64264738D01*
X95734306Y-64458882D01*
X95731760Y-64463037D01*
X95729900Y-64467526D01*
X95729894Y-64467539D01*
X95642758Y-64677906D01*
X95642754Y-64677916D01*
X95640895Y-64682406D01*
X95639760Y-64687130D01*
X95639758Y-64687139D01*
X95586601Y-64908555D01*
X95586599Y-64908561D01*
X95585465Y-64913289D01*
X95566835Y-65150000D01*
X36460876Y-65150000D01*
X36460876Y-57510000D01*
X95906835Y-57510000D01*
X95925465Y-57746711D01*
X95980895Y-57977594D01*
X95982756Y-57982087D01*
X95982758Y-57982093D01*
X96069894Y-58192460D01*
X96069898Y-58192468D01*
X96071760Y-58196963D01*
X96092407Y-58230656D01*
X96193277Y-58395261D01*
X96193282Y-58395268D01*
X96195824Y-58399416D01*
X96198984Y-58403115D01*
X96198987Y-58403120D01*
X96346870Y-58576268D01*
X96350031Y-58579969D01*
X96530584Y-58734176D01*
X96534734Y-58736719D01*
X96534738Y-58736722D01*
X96583989Y-58766903D01*
X96733037Y-58858240D01*
X96737536Y-58860103D01*
X96737539Y-58860105D01*
X96809790Y-58890032D01*
X96952406Y-58949105D01*
X97183289Y-59004535D01*
X97420000Y-59023165D01*
X97656711Y-59004535D01*
X97887594Y-58949105D01*
X98106963Y-58858240D01*
X98309416Y-58734176D01*
X98310503Y-58733248D01*
X101055749Y-58733248D01*
X101063855Y-58744439D01*
X101092717Y-58766903D01*
X101101279Y-58772496D01*
X101310885Y-58885929D01*
X101320239Y-58890032D01*
X101545656Y-58967417D01*
X101555568Y-58969928D01*
X101790643Y-59009155D01*
X101800839Y-59010000D01*
X102039161Y-59010000D01*
X102049356Y-59009155D01*
X102284431Y-58969928D01*
X102294343Y-58967417D01*
X102519760Y-58890032D01*
X102529114Y-58885929D01*
X102738723Y-58772495D01*
X102747281Y-58766903D01*
X102776146Y-58744437D01*
X102784250Y-58733250D01*
X102777589Y-58721142D01*
X101931542Y-57875095D01*
X101920000Y-57868431D01*
X101908457Y-57875095D01*
X101062408Y-58721143D01*
X101055749Y-58733248D01*
X98310503Y-58733248D01*
X98489969Y-58579969D01*
X98644176Y-58399416D01*
X98768240Y-58196963D01*
X98859105Y-57977594D01*
X98914535Y-57746711D01*
X98932762Y-57515117D01*
X100415283Y-57515117D01*
X100434962Y-57752618D01*
X100436646Y-57762712D01*
X100495153Y-57993747D01*
X100498472Y-58003414D01*
X100594208Y-58221673D01*
X100599070Y-58230656D01*
X100688999Y-58368304D01*
X100696963Y-58376024D01*
X100706345Y-58370100D01*
X101554904Y-57521542D01*
X101561568Y-57510000D01*
X101561567Y-57509999D01*
X102278431Y-57509999D01*
X102285095Y-57521542D01*
X103133653Y-58370100D01*
X103143034Y-58376024D01*
X103151002Y-58368299D01*
X103240924Y-58230664D01*
X103245792Y-58221669D01*
X103341527Y-58003414D01*
X103344846Y-57993747D01*
X103403353Y-57762712D01*
X103405037Y-57752618D01*
X103424717Y-57515117D01*
X103424717Y-57504883D01*
X103405037Y-57267381D01*
X103403353Y-57257287D01*
X103344846Y-57026252D01*
X103341527Y-57016585D01*
X103245792Y-56798330D01*
X103240924Y-56789335D01*
X103151002Y-56651699D01*
X103143034Y-56643974D01*
X103133653Y-56649898D01*
X102285095Y-57498457D01*
X102278431Y-57509999D01*
X101561567Y-57509999D01*
X101554904Y-57498457D01*
X100706345Y-56649898D01*
X100696964Y-56643974D01*
X100688997Y-56651699D01*
X100599072Y-56789338D01*
X100594207Y-56798328D01*
X100498472Y-57016585D01*
X100495153Y-57026252D01*
X100436646Y-57257287D01*
X100434962Y-57267381D01*
X100415283Y-57504883D01*
X100415283Y-57515117D01*
X98932762Y-57515117D01*
X98933165Y-57510000D01*
X98914535Y-57273289D01*
X98859105Y-57042406D01*
X98768240Y-56823037D01*
X98687202Y-56690796D01*
X98646722Y-56624738D01*
X98646719Y-56624734D01*
X98644176Y-56620584D01*
X98489969Y-56440031D01*
X98486268Y-56436870D01*
X98313120Y-56288987D01*
X98313115Y-56288984D01*
X98310499Y-56286749D01*
X101055748Y-56286749D01*
X101062408Y-56298855D01*
X101908457Y-57144904D01*
X101920000Y-57151568D01*
X101931542Y-57144904D01*
X102777590Y-56298855D01*
X102784250Y-56286749D01*
X102776143Y-56275559D01*
X102747286Y-56253099D01*
X102738719Y-56247503D01*
X102529114Y-56134070D01*
X102519760Y-56129967D01*
X102294343Y-56052582D01*
X102284431Y-56050071D01*
X102049356Y-56010844D01*
X102039161Y-56010000D01*
X101800839Y-56010000D01*
X101790643Y-56010844D01*
X101555568Y-56050071D01*
X101545656Y-56052582D01*
X101320239Y-56129967D01*
X101310885Y-56134070D01*
X101101276Y-56247504D01*
X101092717Y-56253096D01*
X101063854Y-56275560D01*
X101055748Y-56286749D01*
X98310499Y-56286749D01*
X98309416Y-56285824D01*
X98305268Y-56283282D01*
X98305261Y-56283277D01*
X98177175Y-56204786D01*
X98106963Y-56161760D01*
X98102468Y-56159898D01*
X98102460Y-56159894D01*
X97892093Y-56072758D01*
X97892087Y-56072756D01*
X97887594Y-56070895D01*
X97882865Y-56069759D01*
X97882860Y-56069758D01*
X97661444Y-56016601D01*
X97661440Y-56016600D01*
X97656711Y-56015465D01*
X97651858Y-56015083D01*
X97424854Y-55997217D01*
X97420000Y-55996835D01*
X97415146Y-55997217D01*
X97188141Y-56015083D01*
X97188139Y-56015083D01*
X97183289Y-56015465D01*
X97178561Y-56016599D01*
X97178555Y-56016601D01*
X96957139Y-56069758D01*
X96957130Y-56069760D01*
X96952406Y-56070895D01*
X96947916Y-56072754D01*
X96947906Y-56072758D01*
X96737539Y-56159894D01*
X96737526Y-56159900D01*
X96733037Y-56161760D01*
X96728883Y-56164305D01*
X96728882Y-56164306D01*
X96534738Y-56283277D01*
X96534725Y-56283286D01*
X96530584Y-56285824D01*
X96526889Y-56288979D01*
X96526879Y-56288987D01*
X96353731Y-56436870D01*
X96353724Y-56436876D01*
X96350031Y-56440031D01*
X96346876Y-56443724D01*
X96346870Y-56443731D01*
X96198987Y-56616879D01*
X96198979Y-56616889D01*
X96195824Y-56620584D01*
X96193286Y-56624725D01*
X96193277Y-56624738D01*
X96074306Y-56818882D01*
X96071760Y-56823037D01*
X96069900Y-56827526D01*
X96069894Y-56827539D01*
X95982758Y-57037906D01*
X95982754Y-57037916D01*
X95980895Y-57042406D01*
X95979760Y-57047130D01*
X95979758Y-57047139D01*
X95926601Y-57268555D01*
X95926599Y-57268561D01*
X95925465Y-57273289D01*
X95906835Y-57510000D01*
X36460876Y-57510000D01*
X36460876Y-51010000D01*
X95906835Y-51010000D01*
X95925465Y-51246711D01*
X95980895Y-51477594D01*
X95982756Y-51482087D01*
X95982758Y-51482093D01*
X96069894Y-51692460D01*
X96069898Y-51692468D01*
X96071760Y-51696963D01*
X96092407Y-51730656D01*
X96193277Y-51895261D01*
X96193282Y-51895268D01*
X96195824Y-51899416D01*
X96198984Y-51903115D01*
X96198987Y-51903120D01*
X96346870Y-52076268D01*
X96350031Y-52079969D01*
X96530584Y-52234176D01*
X96534734Y-52236719D01*
X96534738Y-52236722D01*
X96583989Y-52266903D01*
X96733037Y-52358240D01*
X96737536Y-52360103D01*
X96737539Y-52360105D01*
X96809790Y-52390032D01*
X96952406Y-52449105D01*
X97183289Y-52504535D01*
X97420000Y-52523165D01*
X97656711Y-52504535D01*
X97887594Y-52449105D01*
X98106963Y-52358240D01*
X98309416Y-52234176D01*
X98310503Y-52233248D01*
X101055749Y-52233248D01*
X101063855Y-52244439D01*
X101092717Y-52266903D01*
X101101279Y-52272496D01*
X101310885Y-52385929D01*
X101320239Y-52390032D01*
X101545656Y-52467417D01*
X101555568Y-52469928D01*
X101790643Y-52509155D01*
X101800839Y-52510000D01*
X102039161Y-52510000D01*
X102049356Y-52509155D01*
X102284431Y-52469928D01*
X102294343Y-52467417D01*
X102519760Y-52390032D01*
X102529114Y-52385929D01*
X102738723Y-52272495D01*
X102747281Y-52266903D01*
X102776146Y-52244437D01*
X102784250Y-52233250D01*
X102777589Y-52221142D01*
X101931542Y-51375095D01*
X101920000Y-51368431D01*
X101908457Y-51375095D01*
X101062408Y-52221143D01*
X101055749Y-52233248D01*
X98310503Y-52233248D01*
X98489969Y-52079969D01*
X98644176Y-51899416D01*
X98768240Y-51696963D01*
X98859105Y-51477594D01*
X98914535Y-51246711D01*
X98932762Y-51015117D01*
X100415283Y-51015117D01*
X100434962Y-51252618D01*
X100436646Y-51262712D01*
X100495153Y-51493747D01*
X100498472Y-51503414D01*
X100594208Y-51721673D01*
X100599070Y-51730656D01*
X100688999Y-51868304D01*
X100696963Y-51876024D01*
X100706345Y-51870100D01*
X101554904Y-51021542D01*
X101561568Y-51010000D01*
X102278431Y-51010000D01*
X102285095Y-51021542D01*
X103133653Y-51870100D01*
X103143034Y-51876024D01*
X103151002Y-51868299D01*
X103240924Y-51730664D01*
X103245792Y-51721669D01*
X103341527Y-51503414D01*
X103344846Y-51493747D01*
X103403353Y-51262712D01*
X103405037Y-51252618D01*
X103424717Y-51015117D01*
X103424717Y-51004883D01*
X103405037Y-50767381D01*
X103403353Y-50757287D01*
X103344846Y-50526252D01*
X103341527Y-50516585D01*
X103245792Y-50298330D01*
X103240924Y-50289335D01*
X103151002Y-50151699D01*
X103143034Y-50143974D01*
X103133653Y-50149898D01*
X102285095Y-50998457D01*
X102278431Y-51010000D01*
X101561568Y-51010000D01*
X101554904Y-50998457D01*
X100706345Y-50149898D01*
X100696964Y-50143974D01*
X100688997Y-50151699D01*
X100599072Y-50289338D01*
X100594207Y-50298328D01*
X100498472Y-50516585D01*
X100495153Y-50526252D01*
X100436646Y-50757287D01*
X100434962Y-50767381D01*
X100415283Y-51004883D01*
X100415283Y-51015117D01*
X98932762Y-51015117D01*
X98933165Y-51010000D01*
X98914535Y-50773289D01*
X98859105Y-50542406D01*
X98768240Y-50323037D01*
X98687202Y-50190796D01*
X98646722Y-50124738D01*
X98646719Y-50124734D01*
X98644176Y-50120584D01*
X98489969Y-49940031D01*
X98486268Y-49936870D01*
X98313120Y-49788987D01*
X98313115Y-49788984D01*
X98310499Y-49786749D01*
X101055748Y-49786749D01*
X101062408Y-49798855D01*
X101908457Y-50644904D01*
X101919999Y-50651568D01*
X101931542Y-50644904D01*
X102777590Y-49798855D01*
X102784250Y-49786749D01*
X102776143Y-49775559D01*
X102747286Y-49753099D01*
X102738719Y-49747503D01*
X102529114Y-49634070D01*
X102519760Y-49629967D01*
X102294343Y-49552582D01*
X102284431Y-49550071D01*
X102049356Y-49510844D01*
X102039161Y-49510000D01*
X101800839Y-49510000D01*
X101790643Y-49510844D01*
X101555568Y-49550071D01*
X101545656Y-49552582D01*
X101320239Y-49629967D01*
X101310885Y-49634070D01*
X101101276Y-49747504D01*
X101092717Y-49753096D01*
X101063854Y-49775560D01*
X101055748Y-49786749D01*
X98310499Y-49786749D01*
X98309416Y-49785824D01*
X98305268Y-49783282D01*
X98305261Y-49783277D01*
X98177175Y-49704786D01*
X98106963Y-49661760D01*
X98102468Y-49659898D01*
X98102460Y-49659894D01*
X97892093Y-49572758D01*
X97892087Y-49572756D01*
X97887594Y-49570895D01*
X97882865Y-49569759D01*
X97882860Y-49569758D01*
X97661444Y-49516601D01*
X97661440Y-49516600D01*
X97656711Y-49515465D01*
X97651858Y-49515083D01*
X97424854Y-49497217D01*
X97420000Y-49496835D01*
X97415146Y-49497217D01*
X97188141Y-49515083D01*
X97188139Y-49515083D01*
X97183289Y-49515465D01*
X97178561Y-49516599D01*
X97178555Y-49516601D01*
X96957139Y-49569758D01*
X96957130Y-49569760D01*
X96952406Y-49570895D01*
X96947916Y-49572754D01*
X96947906Y-49572758D01*
X96737539Y-49659894D01*
X96737526Y-49659900D01*
X96733037Y-49661760D01*
X96728883Y-49664305D01*
X96728882Y-49664306D01*
X96534738Y-49783277D01*
X96534725Y-49783286D01*
X96530584Y-49785824D01*
X96526889Y-49788979D01*
X96526879Y-49788987D01*
X96353731Y-49936870D01*
X96353724Y-49936876D01*
X96350031Y-49940031D01*
X96346876Y-49943724D01*
X96346870Y-49943731D01*
X96198987Y-50116879D01*
X96198979Y-50116889D01*
X96195824Y-50120584D01*
X96193286Y-50124725D01*
X96193277Y-50124738D01*
X96074306Y-50318882D01*
X96071760Y-50323037D01*
X96069900Y-50327526D01*
X96069894Y-50327539D01*
X95982758Y-50537906D01*
X95982754Y-50537916D01*
X95980895Y-50542406D01*
X95979760Y-50547130D01*
X95979758Y-50547139D01*
X95926601Y-50768555D01*
X95926599Y-50768561D01*
X95925465Y-50773289D01*
X95906835Y-51010000D01*
X36460876Y-51010000D01*
X36460876Y-49312845D01*
X36460943Y-49308776D01*
X36483021Y-48636332D01*
X36483561Y-48628147D01*
X36483574Y-48628015D01*
X36548071Y-47978583D01*
X36549162Y-47970394D01*
X36654012Y-47344207D01*
X36655689Y-47335937D01*
X36798676Y-46736751D01*
X36800978Y-46728416D01*
X36979855Y-46159319D01*
X36982876Y-46150805D01*
X37195364Y-45615037D01*
X37199210Y-45606335D01*
X37442966Y-45107667D01*
X37447763Y-45098791D01*
X37573555Y-44887214D01*
X44414356Y-44887214D01*
X44414356Y-48582786D01*
X97736460Y-48582786D01*
X97752786Y-48582786D01*
X97752786Y-44887214D01*
X44414356Y-44887214D01*
X37573555Y-44887214D01*
X37720442Y-44640157D01*
X37726380Y-44631100D01*
X38025485Y-44215751D01*
X38032827Y-44206517D01*
X38355877Y-43837786D01*
X38364834Y-43828575D01*
X38709312Y-43509395D01*
X38720194Y-43500408D01*
X39083582Y-43233648D01*
X39096579Y-43225303D01*
X39476525Y-43013568D01*
X39491699Y-43006412D01*
X39886159Y-42852134D01*
X39903300Y-42846826D01*
X40310655Y-42752372D01*
X40329161Y-42749533D01*
X40755072Y-42716856D01*
X40764559Y-42716493D01*
X40767909Y-42716493D01*
X101743700Y-42716493D01*
X101753186Y-42716855D01*
G37*
%TD.AperFunction*%
%TD*%
M02*
