%TF.GenerationSoftware,KiCad,Pcbnew,(7.0.0)*%
%TF.CreationDate,2024-07-03T12:20:39-05:00*%
%TF.ProjectId,DC32H4X0R,44433332-4834-4583-9052-2e6b69636164,rev?*%
%TF.SameCoordinates,Original*%
%TF.FileFunction,Soldermask,Top*%
%TF.FilePolarity,Negative*%
%FSLAX46Y46*%
G04 Gerber Fmt 4.6, Leading zero omitted, Abs format (unit mm)*
G04 Created by KiCad (PCBNEW (7.0.0)) date 2024-07-03 12:20:39*
%MOMM*%
%LPD*%
G01*
G04 APERTURE LIST*
G04 Aperture macros list*
%AMRoundRect*
0 Rectangle with rounded corners*
0 $1 Rounding radius*
0 $2 $3 $4 $5 $6 $7 $8 $9 X,Y pos of 4 corners*
0 Add a 4 corners polygon primitive as box body*
4,1,4,$2,$3,$4,$5,$6,$7,$8,$9,$2,$3,0*
0 Add four circle primitives for the rounded corners*
1,1,$1+$1,$2,$3*
1,1,$1+$1,$4,$5*
1,1,$1+$1,$6,$7*
1,1,$1+$1,$8,$9*
0 Add four rect primitives between the rounded corners*
20,1,$1+$1,$2,$3,$4,$5,0*
20,1,$1+$1,$4,$5,$6,$7,0*
20,1,$1+$1,$6,$7,$8,$9,0*
20,1,$1+$1,$8,$9,$2,$3,0*%
G04 Aperture macros list end*
%ADD10C,0.010000*%
%ADD11C,2.127200*%
%ADD12O,2.127200X2.127200*%
%ADD13RoundRect,0.200000X-0.863600X0.863600X-0.863600X-0.863600X0.863600X-0.863600X0.863600X0.863600X0*%
%ADD14C,2.400000*%
%ADD15RoundRect,0.437500X0.287500X0.237500X-0.287500X0.237500X-0.287500X-0.237500X0.287500X-0.237500X0*%
%ADD16RoundRect,0.450000X0.325000X0.450000X-0.325000X0.450000X-0.325000X-0.450000X0.325000X-0.450000X0*%
%ADD17RoundRect,0.450000X-0.350000X-0.450000X0.350000X-0.450000X0.350000X0.450000X-0.350000X0.450000X0*%
G04 APERTURE END LIST*
%TO.C,G\u002A\u002A\u002A*%
G36*
X78298313Y-61314854D02*
G01*
X80525900Y-61314854D01*
X80527361Y-61838029D01*
X80527990Y-61871993D01*
X80535800Y-62176776D01*
X80547121Y-62446060D01*
X80562683Y-62686587D01*
X80583215Y-62905100D01*
X80609448Y-63108341D01*
X80642111Y-63303053D01*
X80681934Y-63495979D01*
X80721901Y-63663366D01*
X80809117Y-63958224D01*
X80912541Y-64214203D01*
X81032414Y-64431633D01*
X81168978Y-64610841D01*
X81322476Y-64752156D01*
X81493148Y-64855908D01*
X81640807Y-64911680D01*
X81722694Y-64925891D01*
X81830697Y-64932038D01*
X81949438Y-64930453D01*
X82063541Y-64921467D01*
X82157628Y-64905411D01*
X82176812Y-64900150D01*
X82234279Y-64875962D01*
X82309770Y-64835549D01*
X82387081Y-64787596D01*
X82388106Y-64786907D01*
X82532898Y-64668696D01*
X82663245Y-64517927D01*
X82779460Y-64333645D01*
X82881855Y-64114892D01*
X82970743Y-63860714D01*
X83046436Y-63570154D01*
X83109247Y-63242254D01*
X83159487Y-62876060D01*
X83197469Y-62470614D01*
X83211132Y-62266934D01*
X83219618Y-62076574D01*
X83224676Y-61856636D01*
X83226455Y-61616241D01*
X83225105Y-61364510D01*
X83220774Y-61110564D01*
X83213612Y-60863524D01*
X83203767Y-60632510D01*
X83191388Y-60426645D01*
X83178556Y-60273909D01*
X83130794Y-59883168D01*
X83069352Y-59532045D01*
X82994065Y-59220042D01*
X82904769Y-58946659D01*
X82801300Y-58711397D01*
X82683493Y-58513758D01*
X82551185Y-58353243D01*
X82544226Y-58346222D01*
X82417037Y-58234180D01*
X82290656Y-58157408D01*
X82153501Y-58110696D01*
X81993989Y-58088834D01*
X81968933Y-58087447D01*
X81775147Y-58091987D01*
X81605580Y-58127194D01*
X81452456Y-58196018D01*
X81307997Y-58301406D01*
X81242351Y-58362939D01*
X81097844Y-58535024D01*
X80969571Y-58746038D01*
X80857529Y-58996002D01*
X80761714Y-59284936D01*
X80682122Y-59612859D01*
X80618749Y-59979793D01*
X80571590Y-60385756D01*
X80540642Y-60830770D01*
X80525900Y-61314854D01*
X78298313Y-61314854D01*
X78300323Y-61184871D01*
X78323310Y-60733584D01*
X78362441Y-60312137D01*
X78418386Y-59915620D01*
X78491814Y-59539122D01*
X78583397Y-59177734D01*
X78672408Y-58889538D01*
X78816985Y-58510450D01*
X78987986Y-58157733D01*
X79183885Y-57833258D01*
X79403159Y-57538899D01*
X79644282Y-57276527D01*
X79905729Y-57048015D01*
X80185975Y-56855235D01*
X80439347Y-56720155D01*
X80753982Y-56594018D01*
X81087717Y-56498310D01*
X81434712Y-56433025D01*
X81789123Y-56398157D01*
X82145111Y-56393701D01*
X82496832Y-56419651D01*
X82838446Y-56476001D01*
X83164111Y-56562745D01*
X83467985Y-56679877D01*
X83558667Y-56723272D01*
X83794818Y-56860573D01*
X84028115Y-57031122D01*
X84248325Y-57226481D01*
X84445215Y-57438213D01*
X84485269Y-57487263D01*
X84659125Y-57732846D01*
X84819749Y-58014420D01*
X84965180Y-58327169D01*
X85093462Y-58666279D01*
X85202635Y-59026936D01*
X85290740Y-59404326D01*
X85313205Y-59522493D01*
X85379763Y-59957440D01*
X85427898Y-60415011D01*
X85457653Y-60887109D01*
X85469070Y-61365640D01*
X85462193Y-61842510D01*
X85437063Y-62309625D01*
X85393723Y-62758889D01*
X85332215Y-63182208D01*
X85292877Y-63390311D01*
X85185803Y-63834177D01*
X85053701Y-64248553D01*
X84897190Y-64632475D01*
X84716890Y-64984977D01*
X84513422Y-65305094D01*
X84287406Y-65591862D01*
X84039462Y-65844314D01*
X83770210Y-66061485D01*
X83480271Y-66242411D01*
X83449771Y-66258679D01*
X83143150Y-66397009D01*
X82811605Y-66503938D01*
X82459388Y-66578735D01*
X82090756Y-66620669D01*
X81709964Y-66629008D01*
X81399667Y-66611022D01*
X81027898Y-66559114D01*
X80682541Y-66474748D01*
X80361999Y-66357212D01*
X80064674Y-66205792D01*
X79788969Y-66019773D01*
X79533288Y-65798442D01*
X79493486Y-65759055D01*
X79284482Y-65527966D01*
X79100547Y-65279648D01*
X78938431Y-65008528D01*
X78794882Y-64709032D01*
X78666653Y-64375590D01*
X78639255Y-64294331D01*
X78540041Y-63960496D01*
X78458466Y-63613397D01*
X78393909Y-63248349D01*
X78345754Y-62860665D01*
X78313380Y-62445659D01*
X78296168Y-61998646D01*
X78292810Y-61670909D01*
X78298313Y-61314854D01*
G37*
D10*
X78298313Y-61314854D02*
X80525900Y-61314854D01*
X80527361Y-61838029D01*
X80527990Y-61871993D01*
X80535800Y-62176776D01*
X80547121Y-62446060D01*
X80562683Y-62686587D01*
X80583215Y-62905100D01*
X80609448Y-63108341D01*
X80642111Y-63303053D01*
X80681934Y-63495979D01*
X80721901Y-63663366D01*
X80809117Y-63958224D01*
X80912541Y-64214203D01*
X81032414Y-64431633D01*
X81168978Y-64610841D01*
X81322476Y-64752156D01*
X81493148Y-64855908D01*
X81640807Y-64911680D01*
X81722694Y-64925891D01*
X81830697Y-64932038D01*
X81949438Y-64930453D01*
X82063541Y-64921467D01*
X82157628Y-64905411D01*
X82176812Y-64900150D01*
X82234279Y-64875962D01*
X82309770Y-64835549D01*
X82387081Y-64787596D01*
X82388106Y-64786907D01*
X82532898Y-64668696D01*
X82663245Y-64517927D01*
X82779460Y-64333645D01*
X82881855Y-64114892D01*
X82970743Y-63860714D01*
X83046436Y-63570154D01*
X83109247Y-63242254D01*
X83159487Y-62876060D01*
X83197469Y-62470614D01*
X83211132Y-62266934D01*
X83219618Y-62076574D01*
X83224676Y-61856636D01*
X83226455Y-61616241D01*
X83225105Y-61364510D01*
X83220774Y-61110564D01*
X83213612Y-60863524D01*
X83203767Y-60632510D01*
X83191388Y-60426645D01*
X83178556Y-60273909D01*
X83130794Y-59883168D01*
X83069352Y-59532045D01*
X82994065Y-59220042D01*
X82904769Y-58946659D01*
X82801300Y-58711397D01*
X82683493Y-58513758D01*
X82551185Y-58353243D01*
X82544226Y-58346222D01*
X82417037Y-58234180D01*
X82290656Y-58157408D01*
X82153501Y-58110696D01*
X81993989Y-58088834D01*
X81968933Y-58087447D01*
X81775147Y-58091987D01*
X81605580Y-58127194D01*
X81452456Y-58196018D01*
X81307997Y-58301406D01*
X81242351Y-58362939D01*
X81097844Y-58535024D01*
X80969571Y-58746038D01*
X80857529Y-58996002D01*
X80761714Y-59284936D01*
X80682122Y-59612859D01*
X80618749Y-59979793D01*
X80571590Y-60385756D01*
X80540642Y-60830770D01*
X80525900Y-61314854D01*
X78298313Y-61314854D01*
X78300323Y-61184871D01*
X78323310Y-60733584D01*
X78362441Y-60312137D01*
X78418386Y-59915620D01*
X78491814Y-59539122D01*
X78583397Y-59177734D01*
X78672408Y-58889538D01*
X78816985Y-58510450D01*
X78987986Y-58157733D01*
X79183885Y-57833258D01*
X79403159Y-57538899D01*
X79644282Y-57276527D01*
X79905729Y-57048015D01*
X80185975Y-56855235D01*
X80439347Y-56720155D01*
X80753982Y-56594018D01*
X81087717Y-56498310D01*
X81434712Y-56433025D01*
X81789123Y-56398157D01*
X82145111Y-56393701D01*
X82496832Y-56419651D01*
X82838446Y-56476001D01*
X83164111Y-56562745D01*
X83467985Y-56679877D01*
X83558667Y-56723272D01*
X83794818Y-56860573D01*
X84028115Y-57031122D01*
X84248325Y-57226481D01*
X84445215Y-57438213D01*
X84485269Y-57487263D01*
X84659125Y-57732846D01*
X84819749Y-58014420D01*
X84965180Y-58327169D01*
X85093462Y-58666279D01*
X85202635Y-59026936D01*
X85290740Y-59404326D01*
X85313205Y-59522493D01*
X85379763Y-59957440D01*
X85427898Y-60415011D01*
X85457653Y-60887109D01*
X85469070Y-61365640D01*
X85462193Y-61842510D01*
X85437063Y-62309625D01*
X85393723Y-62758889D01*
X85332215Y-63182208D01*
X85292877Y-63390311D01*
X85185803Y-63834177D01*
X85053701Y-64248553D01*
X84897190Y-64632475D01*
X84716890Y-64984977D01*
X84513422Y-65305094D01*
X84287406Y-65591862D01*
X84039462Y-65844314D01*
X83770210Y-66061485D01*
X83480271Y-66242411D01*
X83449771Y-66258679D01*
X83143150Y-66397009D01*
X82811605Y-66503938D01*
X82459388Y-66578735D01*
X82090756Y-66620669D01*
X81709964Y-66629008D01*
X81399667Y-66611022D01*
X81027898Y-66559114D01*
X80682541Y-66474748D01*
X80361999Y-66357212D01*
X80064674Y-66205792D01*
X79788969Y-66019773D01*
X79533288Y-65798442D01*
X79493486Y-65759055D01*
X79284482Y-65527966D01*
X79100547Y-65279648D01*
X78938431Y-65008528D01*
X78794882Y-64709032D01*
X78666653Y-64375590D01*
X78639255Y-64294331D01*
X78540041Y-63960496D01*
X78458466Y-63613397D01*
X78393909Y-63248349D01*
X78345754Y-62860665D01*
X78313380Y-62445659D01*
X78296168Y-61998646D01*
X78292810Y-61670909D01*
X78298313Y-61314854D01*
G36*
X53004584Y-60496159D02*
G01*
X57068584Y-60496159D01*
X57068584Y-56559159D01*
X59333417Y-56559159D01*
X59333417Y-66465530D01*
X57079167Y-66454576D01*
X57073768Y-64449034D01*
X57068369Y-62443493D01*
X53004584Y-62443493D01*
X53004584Y-66465159D01*
X50760917Y-66465159D01*
X50760917Y-56559159D01*
X53004584Y-56559159D01*
X53004584Y-60496159D01*
G37*
X53004584Y-60496159D02*
X57068584Y-60496159D01*
X57068584Y-56559159D01*
X59333417Y-56559159D01*
X59333417Y-66465530D01*
X57079167Y-66454576D01*
X57073768Y-64449034D01*
X57068369Y-62443493D01*
X53004584Y-62443493D01*
X53004584Y-66465159D01*
X50760917Y-66465159D01*
X50760917Y-56559159D01*
X53004584Y-56559159D01*
X53004584Y-60496159D01*
G36*
X64851716Y-56569743D02*
G01*
X65934316Y-56564259D01*
X67016917Y-56558775D01*
X67016917Y-62782159D01*
X68202250Y-62782159D01*
X68202250Y-64348493D01*
X67016917Y-64348493D01*
X67016917Y-66465159D01*
X66025611Y-66465159D01*
X65824699Y-66464867D01*
X65636840Y-66464029D01*
X65466253Y-66462705D01*
X65317157Y-66460955D01*
X65193774Y-66458837D01*
X65100323Y-66456410D01*
X65041023Y-66453734D01*
X65020195Y-66451048D01*
X65017410Y-66427709D01*
X65014808Y-66366144D01*
X65012443Y-66270461D01*
X65010370Y-66144768D01*
X65008643Y-65993172D01*
X65007317Y-65819781D01*
X65006448Y-65628702D01*
X65006090Y-65424043D01*
X65006084Y-65392715D01*
X65006084Y-64348493D01*
X60709250Y-64348493D01*
X60709250Y-62955635D01*
X60821782Y-62782159D01*
X62545881Y-62782159D01*
X65001105Y-62782159D01*
X65013157Y-60840118D01*
X65015069Y-60555561D01*
X65017189Y-60282074D01*
X65019478Y-60022757D01*
X65021896Y-59780710D01*
X65024401Y-59559033D01*
X65026955Y-59360825D01*
X65029516Y-59189186D01*
X65032045Y-59047215D01*
X65034502Y-58938013D01*
X65036846Y-58864680D01*
X65039037Y-58830314D01*
X65039216Y-58829284D01*
X65045593Y-58777360D01*
X65037454Y-58762084D01*
X65017234Y-58781312D01*
X64987368Y-58832900D01*
X64955040Y-58903368D01*
X64919936Y-58983340D01*
X64880305Y-59067341D01*
X64834633Y-59157890D01*
X64781400Y-59257506D01*
X64719092Y-59368709D01*
X64646191Y-59494017D01*
X64561180Y-59635951D01*
X64462543Y-59797030D01*
X64348762Y-59979772D01*
X64218322Y-60186699D01*
X64069706Y-60420328D01*
X63901396Y-60683179D01*
X63711877Y-60977773D01*
X63626609Y-61109993D01*
X63475956Y-61343448D01*
X63331288Y-61567599D01*
X63194332Y-61779772D01*
X63066817Y-61977291D01*
X62950469Y-62157483D01*
X62847015Y-62317672D01*
X62758183Y-62455184D01*
X62685700Y-62567344D01*
X62631294Y-62651478D01*
X62596692Y-62704910D01*
X62584299Y-62723951D01*
X62545881Y-62782159D01*
X60821782Y-62782159D01*
X64851716Y-56569743D01*
G37*
X64851716Y-56569743D02*
X65934316Y-56564259D01*
X67016917Y-56558775D01*
X67016917Y-62782159D01*
X68202250Y-62782159D01*
X68202250Y-64348493D01*
X67016917Y-64348493D01*
X67016917Y-66465159D01*
X66025611Y-66465159D01*
X65824699Y-66464867D01*
X65636840Y-66464029D01*
X65466253Y-66462705D01*
X65317157Y-66460955D01*
X65193774Y-66458837D01*
X65100323Y-66456410D01*
X65041023Y-66453734D01*
X65020195Y-66451048D01*
X65017410Y-66427709D01*
X65014808Y-66366144D01*
X65012443Y-66270461D01*
X65010370Y-66144768D01*
X65008643Y-65993172D01*
X65007317Y-65819781D01*
X65006448Y-65628702D01*
X65006090Y-65424043D01*
X65006084Y-65392715D01*
X65006084Y-64348493D01*
X60709250Y-64348493D01*
X60709250Y-62955635D01*
X60821782Y-62782159D01*
X62545881Y-62782159D01*
X65001105Y-62782159D01*
X65013157Y-60840118D01*
X65015069Y-60555561D01*
X65017189Y-60282074D01*
X65019478Y-60022757D01*
X65021896Y-59780710D01*
X65024401Y-59559033D01*
X65026955Y-59360825D01*
X65029516Y-59189186D01*
X65032045Y-59047215D01*
X65034502Y-58938013D01*
X65036846Y-58864680D01*
X65039037Y-58830314D01*
X65039216Y-58829284D01*
X65045593Y-58777360D01*
X65037454Y-58762084D01*
X65017234Y-58781312D01*
X64987368Y-58832900D01*
X64955040Y-58903368D01*
X64919936Y-58983340D01*
X64880305Y-59067341D01*
X64834633Y-59157890D01*
X64781400Y-59257506D01*
X64719092Y-59368709D01*
X64646191Y-59494017D01*
X64561180Y-59635951D01*
X64462543Y-59797030D01*
X64348762Y-59979772D01*
X64218322Y-60186699D01*
X64069706Y-60420328D01*
X63901396Y-60683179D01*
X63711877Y-60977773D01*
X63626609Y-61109993D01*
X63475956Y-61343448D01*
X63331288Y-61567599D01*
X63194332Y-61779772D01*
X63066817Y-61977291D01*
X62950469Y-62157483D01*
X62847015Y-62317672D01*
X62758183Y-62455184D01*
X62685700Y-62567344D01*
X62631294Y-62651478D01*
X62596692Y-62704910D01*
X62584299Y-62723951D01*
X62545881Y-62782159D01*
X60821782Y-62782159D01*
X64851716Y-56569743D01*
G36*
X76708161Y-56559299D02*
G01*
X76935808Y-56559760D01*
X77126817Y-56560608D01*
X77284034Y-56561907D01*
X77410307Y-56563722D01*
X77508484Y-56566118D01*
X77581410Y-56569160D01*
X77631933Y-56572911D01*
X77662900Y-56577437D01*
X77677159Y-56582802D01*
X77678657Y-56587275D01*
X77666582Y-56608485D01*
X77633864Y-56663780D01*
X77581788Y-56751029D01*
X77511636Y-56868103D01*
X77424690Y-57012872D01*
X77322233Y-57183208D01*
X77205547Y-57376979D01*
X77075916Y-57592057D01*
X76934621Y-57826313D01*
X76782947Y-58077616D01*
X76622174Y-58343837D01*
X76453586Y-58622846D01*
X76278466Y-58912514D01*
X76204265Y-59035206D01*
X76006655Y-59362295D01*
X75819892Y-59672176D01*
X75644929Y-59963245D01*
X75482715Y-60233896D01*
X75334201Y-60482524D01*
X75200338Y-60707524D01*
X75082076Y-60907291D01*
X74980367Y-61080220D01*
X74896161Y-61224706D01*
X74830409Y-61339143D01*
X74784062Y-61421928D01*
X74758070Y-61471454D01*
X74752554Y-61486012D01*
X74764846Y-61507504D01*
X74797951Y-61562988D01*
X74850583Y-61650347D01*
X74921456Y-61767469D01*
X75009281Y-61912237D01*
X75112772Y-62082537D01*
X75230642Y-62276255D01*
X75361603Y-62491274D01*
X75504368Y-62725482D01*
X75657651Y-62976762D01*
X75820164Y-63242999D01*
X75990620Y-63522080D01*
X76167731Y-63811889D01*
X76255782Y-63955905D01*
X76435706Y-64250246D01*
X76609620Y-64534943D01*
X76776236Y-64807876D01*
X76934263Y-65066925D01*
X77082413Y-65309972D01*
X77219396Y-65534896D01*
X77343923Y-65739577D01*
X77454705Y-65921897D01*
X77550453Y-66079734D01*
X77629877Y-66210971D01*
X77691689Y-66313486D01*
X77734598Y-66385161D01*
X77757316Y-66423876D01*
X77760676Y-66430143D01*
X77761163Y-66437329D01*
X77754667Y-66443444D01*
X77738169Y-66448558D01*
X77708652Y-66452737D01*
X77663095Y-66456052D01*
X77598480Y-66458571D01*
X77511787Y-66460362D01*
X77399999Y-66461494D01*
X77260095Y-66462036D01*
X77089058Y-66462055D01*
X76883868Y-66461622D01*
X76641505Y-66460804D01*
X76445371Y-66460027D01*
X75116506Y-66454576D01*
X74242995Y-64803576D01*
X74089021Y-64512364D01*
X73953680Y-64255893D01*
X73835671Y-64031560D01*
X73733689Y-63836761D01*
X73646434Y-63668891D01*
X73572602Y-63525348D01*
X73510891Y-63403527D01*
X73459999Y-63300824D01*
X73418623Y-63214636D01*
X73385461Y-63142358D01*
X73359210Y-63081386D01*
X73338568Y-63029118D01*
X73322233Y-62982948D01*
X73308901Y-62940273D01*
X73306022Y-62930326D01*
X73278217Y-62830913D01*
X73253561Y-62739068D01*
X73235288Y-62667038D01*
X73228027Y-62634970D01*
X73220325Y-62601561D01*
X73212605Y-62591715D01*
X73201879Y-62609929D01*
X73185161Y-62660698D01*
X73164758Y-62730220D01*
X73142825Y-62803616D01*
X73119556Y-62875584D01*
X73093571Y-62948949D01*
X73063490Y-63026540D01*
X73027933Y-63111182D01*
X72985521Y-63205705D01*
X72934872Y-63312934D01*
X72874608Y-63435697D01*
X72803348Y-63576821D01*
X72719712Y-63739133D01*
X72622320Y-63925460D01*
X72509791Y-64138630D01*
X72380747Y-64381470D01*
X72233807Y-64656806D01*
X72125388Y-64859505D01*
X71266016Y-66465159D01*
X69932952Y-66465159D01*
X69660424Y-66465072D01*
X69427277Y-66464763D01*
X69230556Y-66464160D01*
X69067308Y-66463193D01*
X68934580Y-66461789D01*
X68829419Y-66459877D01*
X68748871Y-66457386D01*
X68689983Y-66454243D01*
X68649802Y-66450378D01*
X68625375Y-66445719D01*
X68613748Y-66440194D01*
X68611968Y-66433732D01*
X68612162Y-66433174D01*
X68624835Y-66411757D01*
X68658955Y-66356755D01*
X68713191Y-66270265D01*
X68786214Y-66154384D01*
X68876693Y-66011211D01*
X68983297Y-65842843D01*
X69104697Y-65651377D01*
X69239561Y-65438912D01*
X69386559Y-65207546D01*
X69544361Y-64959375D01*
X69711637Y-64696497D01*
X69887055Y-64421011D01*
X70069286Y-64135013D01*
X70152614Y-64004299D01*
X70337785Y-63713822D01*
X70516975Y-63432646D01*
X70688833Y-63162893D01*
X70852009Y-62906687D01*
X71005153Y-62666149D01*
X71146915Y-62443402D01*
X71275945Y-62240568D01*
X71390893Y-62059771D01*
X71490408Y-61903133D01*
X71573140Y-61772776D01*
X71637741Y-61670823D01*
X71682858Y-61599396D01*
X71707143Y-61560618D01*
X71710855Y-61554493D01*
X71714549Y-61545958D01*
X71715940Y-61534954D01*
X71713989Y-61519622D01*
X71707656Y-61498103D01*
X71695903Y-61468536D01*
X71677692Y-61429063D01*
X71651982Y-61377825D01*
X71617735Y-61312963D01*
X71573911Y-61232616D01*
X71519473Y-61134927D01*
X71453381Y-61018036D01*
X71374595Y-60880083D01*
X71282077Y-60719210D01*
X71174788Y-60533557D01*
X71051689Y-60321265D01*
X70911741Y-60080474D01*
X70753905Y-59809327D01*
X70577142Y-59505962D01*
X70380412Y-59168522D01*
X70310251Y-59048202D01*
X70137326Y-58751531D01*
X69970381Y-58464862D01*
X69810650Y-58190326D01*
X69659368Y-57930056D01*
X69517769Y-57686185D01*
X69387088Y-57460845D01*
X69268559Y-57256171D01*
X69163418Y-57074293D01*
X69072898Y-56917345D01*
X68998235Y-56787461D01*
X68940663Y-56686771D01*
X68901417Y-56617410D01*
X68881732Y-56581509D01*
X68879584Y-56576838D01*
X68900160Y-56573802D01*
X68959533Y-56571094D01*
X69054166Y-56568744D01*
X69180522Y-56566787D01*
X69335066Y-56565255D01*
X69514261Y-56564179D01*
X69714571Y-56563594D01*
X69932460Y-56563531D01*
X70164391Y-56564024D01*
X70238785Y-56564295D01*
X71597987Y-56569743D01*
X72047738Y-57511659D01*
X72208373Y-57848165D01*
X72351820Y-58148915D01*
X72479186Y-58416326D01*
X72591579Y-58652816D01*
X72690107Y-58860806D01*
X72775878Y-59042712D01*
X72850000Y-59200954D01*
X72913580Y-59337949D01*
X72967726Y-59456117D01*
X73013546Y-59557876D01*
X73052147Y-59645644D01*
X73084638Y-59721840D01*
X73112127Y-59788882D01*
X73135720Y-59849189D01*
X73156527Y-59905179D01*
X73175654Y-59959270D01*
X73194209Y-60013882D01*
X73195082Y-60016491D01*
X73231552Y-60124533D01*
X73263624Y-60217625D01*
X73288817Y-60288712D01*
X73304648Y-60330743D01*
X73308561Y-60339026D01*
X73318636Y-60325256D01*
X73336362Y-60280951D01*
X73354615Y-60226027D01*
X73385731Y-60127467D01*
X73416857Y-60033915D01*
X73449508Y-59942208D01*
X73485196Y-59849183D01*
X73525437Y-59751678D01*
X73571745Y-59646529D01*
X73625632Y-59530574D01*
X73688613Y-59400650D01*
X73762203Y-59253595D01*
X73847915Y-59086245D01*
X73947262Y-58895437D01*
X74061760Y-58678010D01*
X74192922Y-58430799D01*
X74342262Y-58150643D01*
X74398091Y-58046118D01*
X75192610Y-56559159D01*
X76441028Y-56559159D01*
X76708161Y-56559299D01*
G37*
X76708161Y-56559299D02*
X76935808Y-56559760D01*
X77126817Y-56560608D01*
X77284034Y-56561907D01*
X77410307Y-56563722D01*
X77508484Y-56566118D01*
X77581410Y-56569160D01*
X77631933Y-56572911D01*
X77662900Y-56577437D01*
X77677159Y-56582802D01*
X77678657Y-56587275D01*
X77666582Y-56608485D01*
X77633864Y-56663780D01*
X77581788Y-56751029D01*
X77511636Y-56868103D01*
X77424690Y-57012872D01*
X77322233Y-57183208D01*
X77205547Y-57376979D01*
X77075916Y-57592057D01*
X76934621Y-57826313D01*
X76782947Y-58077616D01*
X76622174Y-58343837D01*
X76453586Y-58622846D01*
X76278466Y-58912514D01*
X76204265Y-59035206D01*
X76006655Y-59362295D01*
X75819892Y-59672176D01*
X75644929Y-59963245D01*
X75482715Y-60233896D01*
X75334201Y-60482524D01*
X75200338Y-60707524D01*
X75082076Y-60907291D01*
X74980367Y-61080220D01*
X74896161Y-61224706D01*
X74830409Y-61339143D01*
X74784062Y-61421928D01*
X74758070Y-61471454D01*
X74752554Y-61486012D01*
X74764846Y-61507504D01*
X74797951Y-61562988D01*
X74850583Y-61650347D01*
X74921456Y-61767469D01*
X75009281Y-61912237D01*
X75112772Y-62082537D01*
X75230642Y-62276255D01*
X75361603Y-62491274D01*
X75504368Y-62725482D01*
X75657651Y-62976762D01*
X75820164Y-63242999D01*
X75990620Y-63522080D01*
X76167731Y-63811889D01*
X76255782Y-63955905D01*
X76435706Y-64250246D01*
X76609620Y-64534943D01*
X76776236Y-64807876D01*
X76934263Y-65066925D01*
X77082413Y-65309972D01*
X77219396Y-65534896D01*
X77343923Y-65739577D01*
X77454705Y-65921897D01*
X77550453Y-66079734D01*
X77629877Y-66210971D01*
X77691689Y-66313486D01*
X77734598Y-66385161D01*
X77757316Y-66423876D01*
X77760676Y-66430143D01*
X77761163Y-66437329D01*
X77754667Y-66443444D01*
X77738169Y-66448558D01*
X77708652Y-66452737D01*
X77663095Y-66456052D01*
X77598480Y-66458571D01*
X77511787Y-66460362D01*
X77399999Y-66461494D01*
X77260095Y-66462036D01*
X77089058Y-66462055D01*
X76883868Y-66461622D01*
X76641505Y-66460804D01*
X76445371Y-66460027D01*
X75116506Y-66454576D01*
X74242995Y-64803576D01*
X74089021Y-64512364D01*
X73953680Y-64255893D01*
X73835671Y-64031560D01*
X73733689Y-63836761D01*
X73646434Y-63668891D01*
X73572602Y-63525348D01*
X73510891Y-63403527D01*
X73459999Y-63300824D01*
X73418623Y-63214636D01*
X73385461Y-63142358D01*
X73359210Y-63081386D01*
X73338568Y-63029118D01*
X73322233Y-62982948D01*
X73308901Y-62940273D01*
X73306022Y-62930326D01*
X73278217Y-62830913D01*
X73253561Y-62739068D01*
X73235288Y-62667038D01*
X73228027Y-62634970D01*
X73220325Y-62601561D01*
X73212605Y-62591715D01*
X73201879Y-62609929D01*
X73185161Y-62660698D01*
X73164758Y-62730220D01*
X73142825Y-62803616D01*
X73119556Y-62875584D01*
X73093571Y-62948949D01*
X73063490Y-63026540D01*
X73027933Y-63111182D01*
X72985521Y-63205705D01*
X72934872Y-63312934D01*
X72874608Y-63435697D01*
X72803348Y-63576821D01*
X72719712Y-63739133D01*
X72622320Y-63925460D01*
X72509791Y-64138630D01*
X72380747Y-64381470D01*
X72233807Y-64656806D01*
X72125388Y-64859505D01*
X71266016Y-66465159D01*
X69932952Y-66465159D01*
X69660424Y-66465072D01*
X69427277Y-66464763D01*
X69230556Y-66464160D01*
X69067308Y-66463193D01*
X68934580Y-66461789D01*
X68829419Y-66459877D01*
X68748871Y-66457386D01*
X68689983Y-66454243D01*
X68649802Y-66450378D01*
X68625375Y-66445719D01*
X68613748Y-66440194D01*
X68611968Y-66433732D01*
X68612162Y-66433174D01*
X68624835Y-66411757D01*
X68658955Y-66356755D01*
X68713191Y-66270265D01*
X68786214Y-66154384D01*
X68876693Y-66011211D01*
X68983297Y-65842843D01*
X69104697Y-65651377D01*
X69239561Y-65438912D01*
X69386559Y-65207546D01*
X69544361Y-64959375D01*
X69711637Y-64696497D01*
X69887055Y-64421011D01*
X70069286Y-64135013D01*
X70152614Y-64004299D01*
X70337785Y-63713822D01*
X70516975Y-63432646D01*
X70688833Y-63162893D01*
X70852009Y-62906687D01*
X71005153Y-62666149D01*
X71146915Y-62443402D01*
X71275945Y-62240568D01*
X71390893Y-62059771D01*
X71490408Y-61903133D01*
X71573140Y-61772776D01*
X71637741Y-61670823D01*
X71682858Y-61599396D01*
X71707143Y-61560618D01*
X71710855Y-61554493D01*
X71714549Y-61545958D01*
X71715940Y-61534954D01*
X71713989Y-61519622D01*
X71707656Y-61498103D01*
X71695903Y-61468536D01*
X71677692Y-61429063D01*
X71651982Y-61377825D01*
X71617735Y-61312963D01*
X71573911Y-61232616D01*
X71519473Y-61134927D01*
X71453381Y-61018036D01*
X71374595Y-60880083D01*
X71282077Y-60719210D01*
X71174788Y-60533557D01*
X71051689Y-60321265D01*
X70911741Y-60080474D01*
X70753905Y-59809327D01*
X70577142Y-59505962D01*
X70380412Y-59168522D01*
X70310251Y-59048202D01*
X70137326Y-58751531D01*
X69970381Y-58464862D01*
X69810650Y-58190326D01*
X69659368Y-57930056D01*
X69517769Y-57686185D01*
X69387088Y-57460845D01*
X69268559Y-57256171D01*
X69163418Y-57074293D01*
X69072898Y-56917345D01*
X68998235Y-56787461D01*
X68940663Y-56686771D01*
X68901417Y-56617410D01*
X68881732Y-56581509D01*
X68879584Y-56576838D01*
X68900160Y-56573802D01*
X68959533Y-56571094D01*
X69054166Y-56568744D01*
X69180522Y-56566787D01*
X69335066Y-56565255D01*
X69514261Y-56564179D01*
X69714571Y-56563594D01*
X69932460Y-56563531D01*
X70164391Y-56564024D01*
X70238785Y-56564295D01*
X71597987Y-56569743D01*
X72047738Y-57511659D01*
X72208373Y-57848165D01*
X72351820Y-58148915D01*
X72479186Y-58416326D01*
X72591579Y-58652816D01*
X72690107Y-58860806D01*
X72775878Y-59042712D01*
X72850000Y-59200954D01*
X72913580Y-59337949D01*
X72967726Y-59456117D01*
X73013546Y-59557876D01*
X73052147Y-59645644D01*
X73084638Y-59721840D01*
X73112127Y-59788882D01*
X73135720Y-59849189D01*
X73156527Y-59905179D01*
X73175654Y-59959270D01*
X73194209Y-60013882D01*
X73195082Y-60016491D01*
X73231552Y-60124533D01*
X73263624Y-60217625D01*
X73288817Y-60288712D01*
X73304648Y-60330743D01*
X73308561Y-60339026D01*
X73318636Y-60325256D01*
X73336362Y-60280951D01*
X73354615Y-60226027D01*
X73385731Y-60127467D01*
X73416857Y-60033915D01*
X73449508Y-59942208D01*
X73485196Y-59849183D01*
X73525437Y-59751678D01*
X73571745Y-59646529D01*
X73625632Y-59530574D01*
X73688613Y-59400650D01*
X73762203Y-59253595D01*
X73847915Y-59086245D01*
X73947262Y-58895437D01*
X74061760Y-58678010D01*
X74192922Y-58430799D01*
X74342262Y-58150643D01*
X74398091Y-58046118D01*
X75192610Y-56559159D01*
X76441028Y-56559159D01*
X76708161Y-56559299D01*
G36*
X87040584Y-60988318D02*
G01*
X87040584Y-58249066D01*
X89305417Y-58249066D01*
X89305417Y-60988318D01*
X89924542Y-60977515D01*
X90109698Y-60973974D01*
X90258461Y-60970240D01*
X90376767Y-60965895D01*
X90470556Y-60960522D01*
X90545766Y-60953701D01*
X90608335Y-60945017D01*
X90664202Y-60934051D01*
X90713000Y-60922059D01*
X90959377Y-60837376D01*
X91179678Y-60720881D01*
X91372106Y-60574155D01*
X91534864Y-60398780D01*
X91666155Y-60196340D01*
X91749947Y-60008881D01*
X91789683Y-59863834D01*
X91814694Y-59693389D01*
X91824207Y-59512118D01*
X91817451Y-59334590D01*
X91794003Y-59176937D01*
X91727827Y-58964643D01*
X91629950Y-58780388D01*
X91500266Y-58624036D01*
X91338668Y-58495451D01*
X91206505Y-58421891D01*
X91124180Y-58383764D01*
X91048785Y-58352473D01*
X90974914Y-58327273D01*
X90897162Y-58307421D01*
X90810121Y-58292172D01*
X90708385Y-58280783D01*
X90586548Y-58272509D01*
X90439203Y-58266606D01*
X90260944Y-58262331D01*
X90046365Y-58258940D01*
X90019792Y-58258582D01*
X89305417Y-58249066D01*
X87040584Y-58249066D01*
X87040584Y-56556754D01*
X89162542Y-56565129D01*
X89521207Y-56566572D01*
X89840453Y-56567982D01*
X90123193Y-56569478D01*
X90372341Y-56571175D01*
X90590812Y-56573192D01*
X90781519Y-56575644D01*
X90947375Y-56578650D01*
X91091295Y-56582327D01*
X91216193Y-56586790D01*
X91324981Y-56592158D01*
X91420575Y-56598547D01*
X91505887Y-56606074D01*
X91583832Y-56614857D01*
X91657324Y-56625012D01*
X91729275Y-56636656D01*
X91802601Y-56649907D01*
X91880214Y-56664882D01*
X91939777Y-56676675D01*
X92311674Y-56766279D01*
X92649290Y-56880559D01*
X92952954Y-57019811D01*
X93222993Y-57184329D01*
X93459733Y-57374409D01*
X93663502Y-57590345D01*
X93834628Y-57832433D01*
X93973437Y-58100968D01*
X94080257Y-58396244D01*
X94145521Y-58665243D01*
X94166803Y-58814514D01*
X94179930Y-58992798D01*
X94185018Y-59187818D01*
X94182181Y-59387302D01*
X94171536Y-59578975D01*
X94153200Y-59750563D01*
X94134241Y-59859754D01*
X94042842Y-60187590D01*
X93914536Y-60495086D01*
X93750087Y-60781218D01*
X93550260Y-61044961D01*
X93315818Y-61285291D01*
X93047525Y-61501183D01*
X92785151Y-61669495D01*
X92637621Y-61748585D01*
X92472479Y-61827474D01*
X92305769Y-61899002D01*
X92153537Y-61956005D01*
X92115292Y-61968513D01*
X92051057Y-61990505D01*
X92006982Y-62009087D01*
X91993663Y-62018733D01*
X92011497Y-62032905D01*
X92057000Y-62055958D01*
X92092481Y-62071356D01*
X92255047Y-62155181D01*
X92428949Y-62276594D01*
X92611804Y-62433136D01*
X92801228Y-62622347D01*
X92994838Y-62841768D01*
X93190250Y-63088938D01*
X93385080Y-63361399D01*
X93478594Y-63501826D01*
X93533408Y-63586417D01*
X93604484Y-63696681D01*
X93689797Y-63829442D01*
X93787326Y-63981525D01*
X93895045Y-64149754D01*
X94010933Y-64330952D01*
X94132965Y-64521945D01*
X94259119Y-64719557D01*
X94387371Y-64920612D01*
X94515699Y-65121934D01*
X94642078Y-65320348D01*
X94764485Y-65512678D01*
X94880898Y-65695748D01*
X94989292Y-65866382D01*
X95087645Y-66021405D01*
X95173934Y-66157642D01*
X95246134Y-66271916D01*
X95302224Y-66361051D01*
X95340179Y-66421873D01*
X95357976Y-66451205D01*
X95359084Y-66453412D01*
X95338523Y-66455501D01*
X95279265Y-66457465D01*
X95184945Y-66459272D01*
X95059199Y-66460889D01*
X94905663Y-66462283D01*
X94727973Y-66463422D01*
X94529764Y-66464273D01*
X94314672Y-66464803D01*
X94086334Y-66464979D01*
X94073209Y-66464978D01*
X92787334Y-66464797D01*
X91993584Y-65148864D01*
X91812023Y-64848107D01*
X91650555Y-64581282D01*
X91507602Y-64345951D01*
X91381583Y-64139680D01*
X91270920Y-63960036D01*
X91174033Y-63804581D01*
X91089343Y-63670883D01*
X91015270Y-63556505D01*
X90950236Y-63459013D01*
X90892660Y-63375972D01*
X90840964Y-63304948D01*
X90793569Y-63243505D01*
X90748895Y-63189208D01*
X90705362Y-63139623D01*
X90661393Y-63092315D01*
X90656045Y-63086710D01*
X90525602Y-62958359D01*
X90407285Y-62860750D01*
X90292399Y-62787770D01*
X90172249Y-62733302D01*
X90134475Y-62719858D01*
X90078230Y-62702943D01*
X90020287Y-62690956D01*
X89951904Y-62683103D01*
X89864334Y-62678589D01*
X89748834Y-62676619D01*
X89655448Y-62676326D01*
X89305644Y-62676326D01*
X89294834Y-66454576D01*
X87040584Y-66465530D01*
X87040584Y-60988318D01*
G37*
X87040584Y-60988318D02*
X87040584Y-58249066D01*
X89305417Y-58249066D01*
X89305417Y-60988318D01*
X89924542Y-60977515D01*
X90109698Y-60973974D01*
X90258461Y-60970240D01*
X90376767Y-60965895D01*
X90470556Y-60960522D01*
X90545766Y-60953701D01*
X90608335Y-60945017D01*
X90664202Y-60934051D01*
X90713000Y-60922059D01*
X90959377Y-60837376D01*
X91179678Y-60720881D01*
X91372106Y-60574155D01*
X91534864Y-60398780D01*
X91666155Y-60196340D01*
X91749947Y-60008881D01*
X91789683Y-59863834D01*
X91814694Y-59693389D01*
X91824207Y-59512118D01*
X91817451Y-59334590D01*
X91794003Y-59176937D01*
X91727827Y-58964643D01*
X91629950Y-58780388D01*
X91500266Y-58624036D01*
X91338668Y-58495451D01*
X91206505Y-58421891D01*
X91124180Y-58383764D01*
X91048785Y-58352473D01*
X90974914Y-58327273D01*
X90897162Y-58307421D01*
X90810121Y-58292172D01*
X90708385Y-58280783D01*
X90586548Y-58272509D01*
X90439203Y-58266606D01*
X90260944Y-58262331D01*
X90046365Y-58258940D01*
X90019792Y-58258582D01*
X89305417Y-58249066D01*
X87040584Y-58249066D01*
X87040584Y-56556754D01*
X89162542Y-56565129D01*
X89521207Y-56566572D01*
X89840453Y-56567982D01*
X90123193Y-56569478D01*
X90372341Y-56571175D01*
X90590812Y-56573192D01*
X90781519Y-56575644D01*
X90947375Y-56578650D01*
X91091295Y-56582327D01*
X91216193Y-56586790D01*
X91324981Y-56592158D01*
X91420575Y-56598547D01*
X91505887Y-56606074D01*
X91583832Y-56614857D01*
X91657324Y-56625012D01*
X91729275Y-56636656D01*
X91802601Y-56649907D01*
X91880214Y-56664882D01*
X91939777Y-56676675D01*
X92311674Y-56766279D01*
X92649290Y-56880559D01*
X92952954Y-57019811D01*
X93222993Y-57184329D01*
X93459733Y-57374409D01*
X93663502Y-57590345D01*
X93834628Y-57832433D01*
X93973437Y-58100968D01*
X94080257Y-58396244D01*
X94145521Y-58665243D01*
X94166803Y-58814514D01*
X94179930Y-58992798D01*
X94185018Y-59187818D01*
X94182181Y-59387302D01*
X94171536Y-59578975D01*
X94153200Y-59750563D01*
X94134241Y-59859754D01*
X94042842Y-60187590D01*
X93914536Y-60495086D01*
X93750087Y-60781218D01*
X93550260Y-61044961D01*
X93315818Y-61285291D01*
X93047525Y-61501183D01*
X92785151Y-61669495D01*
X92637621Y-61748585D01*
X92472479Y-61827474D01*
X92305769Y-61899002D01*
X92153537Y-61956005D01*
X92115292Y-61968513D01*
X92051057Y-61990505D01*
X92006982Y-62009087D01*
X91993663Y-62018733D01*
X92011497Y-62032905D01*
X92057000Y-62055958D01*
X92092481Y-62071356D01*
X92255047Y-62155181D01*
X92428949Y-62276594D01*
X92611804Y-62433136D01*
X92801228Y-62622347D01*
X92994838Y-62841768D01*
X93190250Y-63088938D01*
X93385080Y-63361399D01*
X93478594Y-63501826D01*
X93533408Y-63586417D01*
X93604484Y-63696681D01*
X93689797Y-63829442D01*
X93787326Y-63981525D01*
X93895045Y-64149754D01*
X94010933Y-64330952D01*
X94132965Y-64521945D01*
X94259119Y-64719557D01*
X94387371Y-64920612D01*
X94515699Y-65121934D01*
X94642078Y-65320348D01*
X94764485Y-65512678D01*
X94880898Y-65695748D01*
X94989292Y-65866382D01*
X95087645Y-66021405D01*
X95173934Y-66157642D01*
X95246134Y-66271916D01*
X95302224Y-66361051D01*
X95340179Y-66421873D01*
X95357976Y-66451205D01*
X95359084Y-66453412D01*
X95338523Y-66455501D01*
X95279265Y-66457465D01*
X95184945Y-66459272D01*
X95059199Y-66460889D01*
X94905663Y-66462283D01*
X94727973Y-66463422D01*
X94529764Y-66464273D01*
X94314672Y-66464803D01*
X94086334Y-66464979D01*
X94073209Y-66464978D01*
X92787334Y-66464797D01*
X91993584Y-65148864D01*
X91812023Y-64848107D01*
X91650555Y-64581282D01*
X91507602Y-64345951D01*
X91381583Y-64139680D01*
X91270920Y-63960036D01*
X91174033Y-63804581D01*
X91089343Y-63670883D01*
X91015270Y-63556505D01*
X90950236Y-63459013D01*
X90892660Y-63375972D01*
X90840964Y-63304948D01*
X90793569Y-63243505D01*
X90748895Y-63189208D01*
X90705362Y-63139623D01*
X90661393Y-63092315D01*
X90656045Y-63086710D01*
X90525602Y-62958359D01*
X90407285Y-62860750D01*
X90292399Y-62787770D01*
X90172249Y-62733302D01*
X90134475Y-62719858D01*
X90078230Y-62702943D01*
X90020287Y-62690956D01*
X89951904Y-62683103D01*
X89864334Y-62678589D01*
X89748834Y-62676619D01*
X89655448Y-62676326D01*
X89305644Y-62676326D01*
X89294834Y-66454576D01*
X87040584Y-66465530D01*
X87040584Y-60988318D01*
%TD*%
D11*
%TO.C,X1*%
X72780000Y-73840000D03*
X72780000Y-76380000D03*
D12*
X70239999Y-73839999D03*
X70239999Y-76379999D03*
X67699999Y-73839999D03*
D13*
X67700000Y-76380000D03*
%TD*%
D14*
%TO.C,SW2*%
X97080000Y-65150000D03*
X97080000Y-71650000D03*
X101580000Y-65150000D03*
X101580000Y-71650000D03*
%TD*%
%TO.C,SW1*%
X97420000Y-51010000D03*
X97420000Y-57510000D03*
X101920000Y-51010000D03*
X101920000Y-57510000D03*
%TD*%
D15*
%TO.C,D1*%
X58352500Y-45610000D03*
X56602500Y-45610000D03*
%TD*%
D16*
%TO.C,D2*%
X81532500Y-45610000D03*
X79482500Y-45610000D03*
%TD*%
D17*
%TO.C,R1*%
X49820000Y-74210000D03*
X51820000Y-74210000D03*
%TD*%
M02*
