%TF.GenerationSoftware,KiCad,Pcbnew,(7.0.0)*%
%TF.CreationDate,2024-07-03T12:20:39-05:00*%
%TF.ProjectId,DC32H4X0R,44433332-4834-4583-9052-2e6b69636164,rev?*%
%TF.SameCoordinates,Original*%
%TF.FileFunction,Legend,Top*%
%TF.FilePolarity,Positive*%
%FSLAX46Y46*%
G04 Gerber Fmt 4.6, Leading zero omitted, Abs format (unit mm)*
G04 Created by KiCad (PCBNEW (7.0.0)) date 2024-07-03 12:20:39*
%MOMM*%
%LPD*%
G01*
G04 APERTURE LIST*
%ADD10C,0.150000*%
%ADD11C,0.120000*%
%ADD12C,0.010000*%
G04 APERTURE END LIST*
D10*
%TO.C,SW2*%
X95399761Y-69733332D02*
X95447380Y-69590475D01*
X95447380Y-69590475D02*
X95447380Y-69352380D01*
X95447380Y-69352380D02*
X95399761Y-69257142D01*
X95399761Y-69257142D02*
X95352142Y-69209523D01*
X95352142Y-69209523D02*
X95256904Y-69161904D01*
X95256904Y-69161904D02*
X95161666Y-69161904D01*
X95161666Y-69161904D02*
X95066428Y-69209523D01*
X95066428Y-69209523D02*
X95018809Y-69257142D01*
X95018809Y-69257142D02*
X94971190Y-69352380D01*
X94971190Y-69352380D02*
X94923571Y-69542856D01*
X94923571Y-69542856D02*
X94875952Y-69638094D01*
X94875952Y-69638094D02*
X94828333Y-69685713D01*
X94828333Y-69685713D02*
X94733095Y-69733332D01*
X94733095Y-69733332D02*
X94637857Y-69733332D01*
X94637857Y-69733332D02*
X94542619Y-69685713D01*
X94542619Y-69685713D02*
X94495000Y-69638094D01*
X94495000Y-69638094D02*
X94447380Y-69542856D01*
X94447380Y-69542856D02*
X94447380Y-69304761D01*
X94447380Y-69304761D02*
X94495000Y-69161904D01*
X94447380Y-68828570D02*
X95447380Y-68590475D01*
X95447380Y-68590475D02*
X94733095Y-68399999D01*
X94733095Y-68399999D02*
X95447380Y-68209523D01*
X95447380Y-68209523D02*
X94447380Y-67971428D01*
X94542619Y-67638094D02*
X94495000Y-67590475D01*
X94495000Y-67590475D02*
X94447380Y-67495237D01*
X94447380Y-67495237D02*
X94447380Y-67257142D01*
X94447380Y-67257142D02*
X94495000Y-67161904D01*
X94495000Y-67161904D02*
X94542619Y-67114285D01*
X94542619Y-67114285D02*
X94637857Y-67066666D01*
X94637857Y-67066666D02*
X94733095Y-67066666D01*
X94733095Y-67066666D02*
X94875952Y-67114285D01*
X94875952Y-67114285D02*
X95447380Y-67685713D01*
X95447380Y-67685713D02*
X95447380Y-67066666D01*
%TO.C,SW1*%
X95739761Y-55593332D02*
X95787380Y-55450475D01*
X95787380Y-55450475D02*
X95787380Y-55212380D01*
X95787380Y-55212380D02*
X95739761Y-55117142D01*
X95739761Y-55117142D02*
X95692142Y-55069523D01*
X95692142Y-55069523D02*
X95596904Y-55021904D01*
X95596904Y-55021904D02*
X95501666Y-55021904D01*
X95501666Y-55021904D02*
X95406428Y-55069523D01*
X95406428Y-55069523D02*
X95358809Y-55117142D01*
X95358809Y-55117142D02*
X95311190Y-55212380D01*
X95311190Y-55212380D02*
X95263571Y-55402856D01*
X95263571Y-55402856D02*
X95215952Y-55498094D01*
X95215952Y-55498094D02*
X95168333Y-55545713D01*
X95168333Y-55545713D02*
X95073095Y-55593332D01*
X95073095Y-55593332D02*
X94977857Y-55593332D01*
X94977857Y-55593332D02*
X94882619Y-55545713D01*
X94882619Y-55545713D02*
X94835000Y-55498094D01*
X94835000Y-55498094D02*
X94787380Y-55402856D01*
X94787380Y-55402856D02*
X94787380Y-55164761D01*
X94787380Y-55164761D02*
X94835000Y-55021904D01*
X94787380Y-54688570D02*
X95787380Y-54450475D01*
X95787380Y-54450475D02*
X95073095Y-54259999D01*
X95073095Y-54259999D02*
X95787380Y-54069523D01*
X95787380Y-54069523D02*
X94787380Y-53831428D01*
X95787380Y-52926666D02*
X95787380Y-53498094D01*
X95787380Y-53212380D02*
X94787380Y-53212380D01*
X94787380Y-53212380D02*
X94930238Y-53307618D01*
X94930238Y-53307618D02*
X95025476Y-53402856D01*
X95025476Y-53402856D02*
X95073095Y-53498094D01*
%TO.C,D1*%
X56739405Y-47407380D02*
X56739405Y-46407380D01*
X56739405Y-46407380D02*
X56977500Y-46407380D01*
X56977500Y-46407380D02*
X57120357Y-46455000D01*
X57120357Y-46455000D02*
X57215595Y-46550238D01*
X57215595Y-46550238D02*
X57263214Y-46645476D01*
X57263214Y-46645476D02*
X57310833Y-46835952D01*
X57310833Y-46835952D02*
X57310833Y-46978809D01*
X57310833Y-46978809D02*
X57263214Y-47169285D01*
X57263214Y-47169285D02*
X57215595Y-47264523D01*
X57215595Y-47264523D02*
X57120357Y-47359761D01*
X57120357Y-47359761D02*
X56977500Y-47407380D01*
X56977500Y-47407380D02*
X56739405Y-47407380D01*
X58263214Y-47407380D02*
X57691786Y-47407380D01*
X57977500Y-47407380D02*
X57977500Y-46407380D01*
X57977500Y-46407380D02*
X57882262Y-46550238D01*
X57882262Y-46550238D02*
X57787024Y-46645476D01*
X57787024Y-46645476D02*
X57691786Y-46693095D01*
%TO.C,D2*%
X79769405Y-47627380D02*
X79769405Y-46627380D01*
X79769405Y-46627380D02*
X80007500Y-46627380D01*
X80007500Y-46627380D02*
X80150357Y-46675000D01*
X80150357Y-46675000D02*
X80245595Y-46770238D01*
X80245595Y-46770238D02*
X80293214Y-46865476D01*
X80293214Y-46865476D02*
X80340833Y-47055952D01*
X80340833Y-47055952D02*
X80340833Y-47198809D01*
X80340833Y-47198809D02*
X80293214Y-47389285D01*
X80293214Y-47389285D02*
X80245595Y-47484523D01*
X80245595Y-47484523D02*
X80150357Y-47579761D01*
X80150357Y-47579761D02*
X80007500Y-47627380D01*
X80007500Y-47627380D02*
X79769405Y-47627380D01*
X80721786Y-46722619D02*
X80769405Y-46675000D01*
X80769405Y-46675000D02*
X80864643Y-46627380D01*
X80864643Y-46627380D02*
X81102738Y-46627380D01*
X81102738Y-46627380D02*
X81197976Y-46675000D01*
X81197976Y-46675000D02*
X81245595Y-46722619D01*
X81245595Y-46722619D02*
X81293214Y-46817857D01*
X81293214Y-46817857D02*
X81293214Y-46913095D01*
X81293214Y-46913095D02*
X81245595Y-47055952D01*
X81245595Y-47055952D02*
X80674167Y-47627380D01*
X80674167Y-47627380D02*
X81293214Y-47627380D01*
%TO.C,R1*%
X50653333Y-72927380D02*
X50320000Y-72451190D01*
X50081905Y-72927380D02*
X50081905Y-71927380D01*
X50081905Y-71927380D02*
X50462857Y-71927380D01*
X50462857Y-71927380D02*
X50558095Y-71975000D01*
X50558095Y-71975000D02*
X50605714Y-72022619D01*
X50605714Y-72022619D02*
X50653333Y-72117857D01*
X50653333Y-72117857D02*
X50653333Y-72260714D01*
X50653333Y-72260714D02*
X50605714Y-72355952D01*
X50605714Y-72355952D02*
X50558095Y-72403571D01*
X50558095Y-72403571D02*
X50462857Y-72451190D01*
X50462857Y-72451190D02*
X50081905Y-72451190D01*
X51605714Y-72927380D02*
X51034286Y-72927380D01*
X51320000Y-72927380D02*
X51320000Y-71927380D01*
X51320000Y-71927380D02*
X51224762Y-72070238D01*
X51224762Y-72070238D02*
X51129524Y-72165476D01*
X51129524Y-72165476D02*
X51034286Y-72213095D01*
D11*
%TO.C,SW2*%
X100080000Y-64900000D02*
X98580000Y-64900000D01*
X96080000Y-66150000D02*
X96080000Y-70650000D01*
X98580000Y-71900000D02*
X100080000Y-71900000D01*
X102580000Y-70650000D02*
X102580000Y-66150000D01*
%TO.C,SW1*%
X100420000Y-50760000D02*
X98920000Y-50760000D01*
X96420000Y-52010000D02*
X96420000Y-56510000D01*
X98920000Y-57760000D02*
X100420000Y-57760000D01*
X102920000Y-56510000D02*
X102920000Y-52010000D01*
%TO.C,D1*%
X56677500Y-46345000D02*
X59137500Y-46345000D01*
X59137500Y-44875000D02*
X56677500Y-44875000D01*
X59137500Y-46345000D02*
X59137500Y-44875000D01*
%TO.C,D2*%
X82367500Y-44650000D02*
X79507500Y-44650000D01*
X79507500Y-46570000D02*
X82367500Y-46570000D01*
X82367500Y-46570000D02*
X82367500Y-44650000D01*
%TO.C,R1*%
X50592936Y-73475000D02*
X51047064Y-73475000D01*
X50592936Y-74945000D02*
X51047064Y-74945000D01*
%TO.C,G\u002A\u002A\u002A*%
G36*
X93993834Y-77080243D02*
G01*
X94057334Y-77207243D01*
X94137275Y-77326334D01*
X94239635Y-77409637D01*
X94363442Y-77456649D01*
X94507727Y-77466867D01*
X94551282Y-77463111D01*
X94689007Y-77430083D01*
X94799572Y-77365217D01*
X94886104Y-77266219D01*
X94929336Y-77186076D01*
X94938553Y-77162594D01*
X94946235Y-77134047D01*
X94952554Y-77096440D01*
X94957686Y-77045781D01*
X94961803Y-76978074D01*
X94965081Y-76889326D01*
X94967692Y-76775542D01*
X94969811Y-76632729D01*
X94971612Y-76456892D01*
X94973268Y-76244037D01*
X94973814Y-76164784D01*
X94980128Y-75228159D01*
X95613084Y-75228159D01*
X95613084Y-76093220D01*
X95612735Y-76327213D01*
X95611602Y-76523195D01*
X95609551Y-76685486D01*
X95606452Y-76818402D01*
X95602172Y-76926262D01*
X95596579Y-77013383D01*
X95589541Y-77084085D01*
X95581026Y-77142113D01*
X95526279Y-77358709D01*
X95442893Y-77544180D01*
X95330654Y-77698772D01*
X95189347Y-77822733D01*
X95018758Y-77916310D01*
X94861667Y-77969302D01*
X94750961Y-77990485D01*
X94615022Y-78005147D01*
X94470262Y-78012475D01*
X94333094Y-78011660D01*
X94219930Y-78001891D01*
X94215509Y-78001203D01*
X94005190Y-77950599D01*
X93825096Y-77870561D01*
X93674647Y-77760693D01*
X93553267Y-77620600D01*
X93483865Y-77501448D01*
X93456484Y-77444670D01*
X93433538Y-77393052D01*
X93414597Y-77342311D01*
X93399236Y-77288159D01*
X93387027Y-77226313D01*
X93377543Y-77152488D01*
X93370356Y-77062397D01*
X93365040Y-76951756D01*
X93361166Y-76816280D01*
X93358308Y-76651684D01*
X93356038Y-76453683D01*
X93353929Y-76217991D01*
X93353747Y-76196534D01*
X93345557Y-75228159D01*
X93981186Y-75228159D01*
X93993834Y-77080243D01*
G37*
D12*
X93993834Y-77080243D02*
X94057334Y-77207243D01*
X94137275Y-77326334D01*
X94239635Y-77409637D01*
X94363442Y-77456649D01*
X94507727Y-77466867D01*
X94551282Y-77463111D01*
X94689007Y-77430083D01*
X94799572Y-77365217D01*
X94886104Y-77266219D01*
X94929336Y-77186076D01*
X94938553Y-77162594D01*
X94946235Y-77134047D01*
X94952554Y-77096440D01*
X94957686Y-77045781D01*
X94961803Y-76978074D01*
X94965081Y-76889326D01*
X94967692Y-76775542D01*
X94969811Y-76632729D01*
X94971612Y-76456892D01*
X94973268Y-76244037D01*
X94973814Y-76164784D01*
X94980128Y-75228159D01*
X95613084Y-75228159D01*
X95613084Y-76093220D01*
X95612735Y-76327213D01*
X95611602Y-76523195D01*
X95609551Y-76685486D01*
X95606452Y-76818402D01*
X95602172Y-76926262D01*
X95596579Y-77013383D01*
X95589541Y-77084085D01*
X95581026Y-77142113D01*
X95526279Y-77358709D01*
X95442893Y-77544180D01*
X95330654Y-77698772D01*
X95189347Y-77822733D01*
X95018758Y-77916310D01*
X94861667Y-77969302D01*
X94750961Y-77990485D01*
X94615022Y-78005147D01*
X94470262Y-78012475D01*
X94333094Y-78011660D01*
X94219930Y-78001891D01*
X94215509Y-78001203D01*
X94005190Y-77950599D01*
X93825096Y-77870561D01*
X93674647Y-77760693D01*
X93553267Y-77620600D01*
X93483865Y-77501448D01*
X93456484Y-77444670D01*
X93433538Y-77393052D01*
X93414597Y-77342311D01*
X93399236Y-77288159D01*
X93387027Y-77226313D01*
X93377543Y-77152488D01*
X93370356Y-77062397D01*
X93365040Y-76951756D01*
X93361166Y-76816280D01*
X93358308Y-76651684D01*
X93356038Y-76453683D01*
X93353929Y-76217991D01*
X93353747Y-76196534D01*
X93345557Y-75228159D01*
X93981186Y-75228159D01*
X93993834Y-77080243D01*
G36*
X96920423Y-75974623D02*
G01*
X97054097Y-75981833D01*
X97176635Y-75994175D01*
X97274812Y-76011191D01*
X97279959Y-76012429D01*
X97391084Y-76039763D01*
X97391084Y-76281809D01*
X97390590Y-76385818D01*
X97388390Y-76454108D01*
X97383401Y-76493288D01*
X97374543Y-76509969D01*
X97360735Y-76510759D01*
X97354042Y-76508300D01*
X97247932Y-76464725D01*
X97168015Y-76435604D01*
X97101906Y-76417969D01*
X97037217Y-76408850D01*
X96961560Y-76405278D01*
X96921830Y-76404701D01*
X96827070Y-76405390D01*
X96763063Y-76411022D01*
X96718327Y-76423608D01*
X96681382Y-76445159D01*
X96678413Y-76447336D01*
X96623459Y-76503889D01*
X96610640Y-76560532D01*
X96639757Y-76617002D01*
X96710614Y-76673035D01*
X96823013Y-76728368D01*
X96914834Y-76762672D01*
X97097872Y-76832199D01*
X97242056Y-76904289D01*
X97350856Y-76982518D01*
X97427737Y-77070459D01*
X97476170Y-77171686D01*
X97499620Y-77289773D01*
X97503142Y-77368988D01*
X97483958Y-77526919D01*
X97427112Y-77666482D01*
X97333665Y-77785499D01*
X97276464Y-77834430D01*
X97139491Y-77914311D01*
X96972389Y-77972320D01*
X96781957Y-78007288D01*
X96574994Y-78018044D01*
X96358297Y-78003417D01*
X96322923Y-77998606D01*
X96231941Y-77981904D01*
X96139080Y-77959574D01*
X96095381Y-77946569D01*
X95994084Y-77912924D01*
X95994084Y-77410550D01*
X96128366Y-77473388D01*
X96265142Y-77527603D01*
X96401812Y-77564148D01*
X96532745Y-77583329D01*
X96652309Y-77585450D01*
X96754872Y-77570818D01*
X96834802Y-77539736D01*
X96886467Y-77492511D01*
X96904250Y-77431340D01*
X96886786Y-77369124D01*
X96832772Y-77314213D01*
X96739781Y-77264455D01*
X96696653Y-77247521D01*
X96549979Y-77193121D01*
X96437111Y-77149347D01*
X96351739Y-77113308D01*
X96287551Y-77082113D01*
X96238237Y-77052872D01*
X96197484Y-77022694D01*
X96187516Y-77014342D01*
X96087815Y-76902729D01*
X96024439Y-76772188D01*
X95998770Y-76627683D01*
X96012186Y-76474181D01*
X96024172Y-76426660D01*
X96084003Y-76294862D01*
X96179873Y-76181432D01*
X96308567Y-76088882D01*
X96466872Y-76019725D01*
X96584812Y-75988364D01*
X96672557Y-75977431D01*
X96788835Y-75973003D01*
X96920423Y-75974623D01*
G37*
X96920423Y-75974623D02*
X97054097Y-75981833D01*
X97176635Y-75994175D01*
X97274812Y-76011191D01*
X97279959Y-76012429D01*
X97391084Y-76039763D01*
X97391084Y-76281809D01*
X97390590Y-76385818D01*
X97388390Y-76454108D01*
X97383401Y-76493288D01*
X97374543Y-76509969D01*
X97360735Y-76510759D01*
X97354042Y-76508300D01*
X97247932Y-76464725D01*
X97168015Y-76435604D01*
X97101906Y-76417969D01*
X97037217Y-76408850D01*
X96961560Y-76405278D01*
X96921830Y-76404701D01*
X96827070Y-76405390D01*
X96763063Y-76411022D01*
X96718327Y-76423608D01*
X96681382Y-76445159D01*
X96678413Y-76447336D01*
X96623459Y-76503889D01*
X96610640Y-76560532D01*
X96639757Y-76617002D01*
X96710614Y-76673035D01*
X96823013Y-76728368D01*
X96914834Y-76762672D01*
X97097872Y-76832199D01*
X97242056Y-76904289D01*
X97350856Y-76982518D01*
X97427737Y-77070459D01*
X97476170Y-77171686D01*
X97499620Y-77289773D01*
X97503142Y-77368988D01*
X97483958Y-77526919D01*
X97427112Y-77666482D01*
X97333665Y-77785499D01*
X97276464Y-77834430D01*
X97139491Y-77914311D01*
X96972389Y-77972320D01*
X96781957Y-78007288D01*
X96574994Y-78018044D01*
X96358297Y-78003417D01*
X96322923Y-77998606D01*
X96231941Y-77981904D01*
X96139080Y-77959574D01*
X96095381Y-77946569D01*
X95994084Y-77912924D01*
X95994084Y-77410550D01*
X96128366Y-77473388D01*
X96265142Y-77527603D01*
X96401812Y-77564148D01*
X96532745Y-77583329D01*
X96652309Y-77585450D01*
X96754872Y-77570818D01*
X96834802Y-77539736D01*
X96886467Y-77492511D01*
X96904250Y-77431340D01*
X96886786Y-77369124D01*
X96832772Y-77314213D01*
X96739781Y-77264455D01*
X96696653Y-77247521D01*
X96549979Y-77193121D01*
X96437111Y-77149347D01*
X96351739Y-77113308D01*
X96287551Y-77082113D01*
X96238237Y-77052872D01*
X96197484Y-77022694D01*
X96187516Y-77014342D01*
X96087815Y-76902729D01*
X96024439Y-76772188D01*
X95998770Y-76627683D01*
X96012186Y-76474181D01*
X96024172Y-76426660D01*
X96084003Y-76294862D01*
X96179873Y-76181432D01*
X96308567Y-76088882D01*
X96466872Y-76019725D01*
X96584812Y-75988364D01*
X96672557Y-75977431D01*
X96788835Y-75973003D01*
X96920423Y-75974623D01*
G36*
X97749605Y-76727693D02*
G01*
X97761112Y-76679660D01*
X97832790Y-76489618D01*
X97938842Y-76323537D01*
X98077156Y-76183964D01*
X98245619Y-76073445D01*
X98277402Y-76057586D01*
X98355957Y-76022056D01*
X98421987Y-75999077D01*
X98490508Y-75985250D01*
X98576539Y-75977173D01*
X98649313Y-75973381D01*
X98856881Y-75978654D01*
X99037153Y-76014911D01*
X99192743Y-76083179D01*
X99326263Y-76184482D01*
X99402920Y-76269119D01*
X99470187Y-76364431D01*
X99519312Y-76461226D01*
X99553126Y-76569092D01*
X99574458Y-76697614D01*
X99586138Y-76856380D01*
X99587649Y-76895034D01*
X99597320Y-77175493D01*
X98970452Y-77175493D01*
X98791325Y-77175570D01*
X98650042Y-77176007D01*
X98542115Y-77177112D01*
X98463054Y-77179193D01*
X98408369Y-77182558D01*
X98373573Y-77187515D01*
X98354176Y-77194372D01*
X98345689Y-77203437D01*
X98343623Y-77215018D01*
X98343584Y-77218506D01*
X98358319Y-77292092D01*
X98396077Y-77372462D01*
X98447180Y-77439510D01*
X98452269Y-77444357D01*
X98552542Y-77510008D01*
X98680020Y-77552268D01*
X98826390Y-77570771D01*
X98983335Y-77565156D01*
X99142540Y-77535056D01*
X99293350Y-77481176D01*
X99355358Y-77453554D01*
X99399850Y-77434801D01*
X99415058Y-77429493D01*
X99418345Y-77449205D01*
X99420981Y-77502525D01*
X99422652Y-77580730D01*
X99423084Y-77652823D01*
X99423084Y-77876153D01*
X99349096Y-77907067D01*
X99209662Y-77952619D01*
X99043401Y-77986964D01*
X98864696Y-78008589D01*
X98687928Y-78015983D01*
X98527480Y-78007631D01*
X98470584Y-77999453D01*
X98304530Y-77952915D01*
X98148074Y-77876982D01*
X98010458Y-77777660D01*
X97900924Y-77660953D01*
X97863707Y-77605130D01*
X97796989Y-77457568D01*
X97750906Y-77284191D01*
X97726771Y-77096851D01*
X97725900Y-76907401D01*
X97743585Y-76773326D01*
X98338292Y-76773326D01*
X99026327Y-76773326D01*
X99012433Y-76686437D01*
X98977747Y-76563919D01*
X98917605Y-76474174D01*
X98866431Y-76433802D01*
X98774975Y-76399949D01*
X98670729Y-76394589D01*
X98572209Y-76417716D01*
X98540222Y-76433912D01*
X98466925Y-76496822D01*
X98402409Y-76583892D01*
X98359188Y-76677113D01*
X98351981Y-76704881D01*
X98338292Y-76773326D01*
X97743585Y-76773326D01*
X97749605Y-76727693D01*
G37*
X97749605Y-76727693D02*
X97761112Y-76679660D01*
X97832790Y-76489618D01*
X97938842Y-76323537D01*
X98077156Y-76183964D01*
X98245619Y-76073445D01*
X98277402Y-76057586D01*
X98355957Y-76022056D01*
X98421987Y-75999077D01*
X98490508Y-75985250D01*
X98576539Y-75977173D01*
X98649313Y-75973381D01*
X98856881Y-75978654D01*
X99037153Y-76014911D01*
X99192743Y-76083179D01*
X99326263Y-76184482D01*
X99402920Y-76269119D01*
X99470187Y-76364431D01*
X99519312Y-76461226D01*
X99553126Y-76569092D01*
X99574458Y-76697614D01*
X99586138Y-76856380D01*
X99587649Y-76895034D01*
X99597320Y-77175493D01*
X98970452Y-77175493D01*
X98791325Y-77175570D01*
X98650042Y-77176007D01*
X98542115Y-77177112D01*
X98463054Y-77179193D01*
X98408369Y-77182558D01*
X98373573Y-77187515D01*
X98354176Y-77194372D01*
X98345689Y-77203437D01*
X98343623Y-77215018D01*
X98343584Y-77218506D01*
X98358319Y-77292092D01*
X98396077Y-77372462D01*
X98447180Y-77439510D01*
X98452269Y-77444357D01*
X98552542Y-77510008D01*
X98680020Y-77552268D01*
X98826390Y-77570771D01*
X98983335Y-77565156D01*
X99142540Y-77535056D01*
X99293350Y-77481176D01*
X99355358Y-77453554D01*
X99399850Y-77434801D01*
X99415058Y-77429493D01*
X99418345Y-77449205D01*
X99420981Y-77502525D01*
X99422652Y-77580730D01*
X99423084Y-77652823D01*
X99423084Y-77876153D01*
X99349096Y-77907067D01*
X99209662Y-77952619D01*
X99043401Y-77986964D01*
X98864696Y-78008589D01*
X98687928Y-78015983D01*
X98527480Y-78007631D01*
X98470584Y-77999453D01*
X98304530Y-77952915D01*
X98148074Y-77876982D01*
X98010458Y-77777660D01*
X97900924Y-77660953D01*
X97863707Y-77605130D01*
X97796989Y-77457568D01*
X97750906Y-77284191D01*
X97726771Y-77096851D01*
X97725900Y-76907401D01*
X97743585Y-76773326D01*
X98338292Y-76773326D01*
X99026327Y-76773326D01*
X99012433Y-76686437D01*
X98977747Y-76563919D01*
X98917605Y-76474174D01*
X98866431Y-76433802D01*
X98774975Y-76399949D01*
X98670729Y-76394589D01*
X98572209Y-76417716D01*
X98540222Y-76433912D01*
X98466925Y-76496822D01*
X98402409Y-76583892D01*
X98359188Y-76677113D01*
X98351981Y-76704881D01*
X98338292Y-76773326D01*
X97743585Y-76773326D01*
X97749605Y-76727693D01*
G36*
X101139867Y-75982396D02*
G01*
X101222250Y-75995570D01*
X101222250Y-76566248D01*
X101164042Y-76548079D01*
X101113211Y-76538806D01*
X101036986Y-76532259D01*
X100955970Y-76529909D01*
X100871299Y-76532124D01*
X100813757Y-76541321D01*
X100768258Y-76561331D01*
X100731407Y-76586923D01*
X100680739Y-76631506D01*
X100639848Y-76683126D01*
X100607757Y-76746541D01*
X100583489Y-76826510D01*
X100566070Y-76927792D01*
X100554521Y-77055146D01*
X100547868Y-77213331D01*
X100545132Y-77407104D01*
X100544917Y-77495882D01*
X100544917Y-77979826D01*
X99931084Y-77979826D01*
X99931084Y-76011326D01*
X100544917Y-76011326D01*
X100545764Y-76175368D01*
X100546531Y-76256952D01*
X100548992Y-76301551D01*
X100554970Y-76314512D01*
X100566289Y-76301181D01*
X100580029Y-76275909D01*
X100665792Y-76154048D01*
X100776253Y-76061077D01*
X100904440Y-76000650D01*
X101043385Y-75976423D01*
X101139867Y-75982396D01*
G37*
X101139867Y-75982396D02*
X101222250Y-75995570D01*
X101222250Y-76566248D01*
X101164042Y-76548079D01*
X101113211Y-76538806D01*
X101036986Y-76532259D01*
X100955970Y-76529909D01*
X100871299Y-76532124D01*
X100813757Y-76541321D01*
X100768258Y-76561331D01*
X100731407Y-76586923D01*
X100680739Y-76631506D01*
X100639848Y-76683126D01*
X100607757Y-76746541D01*
X100583489Y-76826510D01*
X100566070Y-76927792D01*
X100554521Y-77055146D01*
X100547868Y-77213331D01*
X100545132Y-77407104D01*
X100544917Y-77495882D01*
X100544917Y-77979826D01*
X99931084Y-77979826D01*
X99931084Y-76011326D01*
X100544917Y-76011326D01*
X100545764Y-76175368D01*
X100546531Y-76256952D01*
X100548992Y-76301551D01*
X100554970Y-76314512D01*
X100566289Y-76301181D01*
X100580029Y-76275909D01*
X100665792Y-76154048D01*
X100776253Y-76061077D01*
X100904440Y-76000650D01*
X101043385Y-75976423D01*
X101139867Y-75982396D01*
G36*
X103619126Y-75199033D02*
G01*
X103651163Y-75203761D01*
X103831289Y-75251672D01*
X103991814Y-75330163D01*
X104127344Y-75435453D01*
X104232485Y-75563760D01*
X104274555Y-75640909D01*
X104297595Y-75697887D01*
X104312141Y-75755532D01*
X104319993Y-75826055D01*
X104322951Y-75921663D01*
X104323167Y-75970613D01*
X104322524Y-76071762D01*
X104318572Y-76144340D01*
X104308280Y-76202107D01*
X104288615Y-76258825D01*
X104256543Y-76328254D01*
X104234538Y-76372780D01*
X104177554Y-76478375D01*
X104112814Y-76578843D01*
X104035685Y-76679526D01*
X103941534Y-76785764D01*
X103825727Y-76902899D01*
X103683632Y-77036271D01*
X103570970Y-77137770D01*
X103231331Y-77440076D01*
X103771957Y-77445725D01*
X104312584Y-77451374D01*
X104312584Y-77979826D01*
X103416528Y-77979826D01*
X103225739Y-77979503D01*
X103048168Y-77978580D01*
X102888263Y-77977126D01*
X102750471Y-77975209D01*
X102639240Y-77972900D01*
X102559017Y-77970266D01*
X102514249Y-77967377D01*
X102506361Y-77965715D01*
X102500540Y-77939913D01*
X102495886Y-77881263D01*
X102492965Y-77799248D01*
X102492250Y-77728622D01*
X102492250Y-77505641D01*
X103040182Y-76964858D01*
X103196715Y-76809898D01*
X103325588Y-76680585D01*
X103429557Y-76573123D01*
X103511381Y-76483720D01*
X103573817Y-76408580D01*
X103619625Y-76343910D01*
X103651562Y-76285914D01*
X103672385Y-76230798D01*
X103684854Y-76174768D01*
X103691725Y-76114029D01*
X103694807Y-76064243D01*
X103696923Y-75979934D01*
X103690870Y-75922503D01*
X103673770Y-75876826D01*
X103652509Y-75841993D01*
X103583621Y-75766153D01*
X103494855Y-75718607D01*
X103379403Y-75696393D01*
X103311791Y-75693859D01*
X103141430Y-75712136D01*
X102969451Y-75763510D01*
X102809657Y-75842680D01*
X102687398Y-75933569D01*
X102639128Y-75977582D01*
X102651000Y-75409350D01*
X102735667Y-75361046D01*
X102886829Y-75292119D01*
X103064424Y-75239106D01*
X103254784Y-75204355D01*
X103444241Y-75190215D01*
X103619126Y-75199033D01*
G37*
X103619126Y-75199033D02*
X103651163Y-75203761D01*
X103831289Y-75251672D01*
X103991814Y-75330163D01*
X104127344Y-75435453D01*
X104232485Y-75563760D01*
X104274555Y-75640909D01*
X104297595Y-75697887D01*
X104312141Y-75755532D01*
X104319993Y-75826055D01*
X104322951Y-75921663D01*
X104323167Y-75970613D01*
X104322524Y-76071762D01*
X104318572Y-76144340D01*
X104308280Y-76202107D01*
X104288615Y-76258825D01*
X104256543Y-76328254D01*
X104234538Y-76372780D01*
X104177554Y-76478375D01*
X104112814Y-76578843D01*
X104035685Y-76679526D01*
X103941534Y-76785764D01*
X103825727Y-76902899D01*
X103683632Y-77036271D01*
X103570970Y-77137770D01*
X103231331Y-77440076D01*
X103771957Y-77445725D01*
X104312584Y-77451374D01*
X104312584Y-77979826D01*
X103416528Y-77979826D01*
X103225739Y-77979503D01*
X103048168Y-77978580D01*
X102888263Y-77977126D01*
X102750471Y-77975209D01*
X102639240Y-77972900D01*
X102559017Y-77970266D01*
X102514249Y-77967377D01*
X102506361Y-77965715D01*
X102500540Y-77939913D01*
X102495886Y-77881263D01*
X102492965Y-77799248D01*
X102492250Y-77728622D01*
X102492250Y-77505641D01*
X103040182Y-76964858D01*
X103196715Y-76809898D01*
X103325588Y-76680585D01*
X103429557Y-76573123D01*
X103511381Y-76483720D01*
X103573817Y-76408580D01*
X103619625Y-76343910D01*
X103651562Y-76285914D01*
X103672385Y-76230798D01*
X103684854Y-76174768D01*
X103691725Y-76114029D01*
X103694807Y-76064243D01*
X103696923Y-75979934D01*
X103690870Y-75922503D01*
X103673770Y-75876826D01*
X103652509Y-75841993D01*
X103583621Y-75766153D01*
X103494855Y-75718607D01*
X103379403Y-75696393D01*
X103311791Y-75693859D01*
X103141430Y-75712136D01*
X102969451Y-75763510D01*
X102809657Y-75842680D01*
X102687398Y-75933569D01*
X102639128Y-75977582D01*
X102651000Y-75409350D01*
X102735667Y-75361046D01*
X102886829Y-75292119D01*
X103064424Y-75239106D01*
X103254784Y-75204355D01*
X103444241Y-75190215D01*
X103619126Y-75199033D01*
G36*
X61713564Y-50669015D02*
G01*
X62615552Y-50669015D01*
X62622264Y-50794290D01*
X62635777Y-50899370D01*
X62646235Y-50944180D01*
X62710005Y-51094849D01*
X62800606Y-51215604D01*
X62913831Y-51304077D01*
X63045469Y-51357900D01*
X63191313Y-51374706D01*
X63347154Y-51352125D01*
X63363211Y-51347585D01*
X63452296Y-51303880D01*
X63543571Y-51229538D01*
X63627401Y-51134570D01*
X63694153Y-51028988D01*
X63715892Y-50981086D01*
X63736046Y-50925408D01*
X63750026Y-50871727D01*
X63758967Y-50810377D01*
X63764005Y-50731691D01*
X63766275Y-50626003D01*
X63766772Y-50547826D01*
X63766542Y-50423319D01*
X63764197Y-50332244D01*
X63758748Y-50265712D01*
X63749210Y-50214837D01*
X63734596Y-50170731D01*
X63721555Y-50140720D01*
X63636665Y-49994300D01*
X63534646Y-49886348D01*
X63414633Y-49816250D01*
X63275760Y-49783390D01*
X63215397Y-49780534D01*
X63062894Y-49799740D01*
X62928856Y-49856005D01*
X62815493Y-49947300D01*
X62725013Y-50071598D01*
X62659625Y-50226870D01*
X62638025Y-50310743D01*
X62623253Y-50413369D01*
X62615822Y-50537417D01*
X62615552Y-50669015D01*
X61713564Y-50669015D01*
X61713672Y-50582927D01*
X61720266Y-50420799D01*
X61733129Y-50271361D01*
X61752138Y-50145505D01*
X61764142Y-50093971D01*
X61835987Y-49880603D01*
X61928221Y-49696858D01*
X62046461Y-49532683D01*
X62127033Y-49444630D01*
X62278684Y-49309066D01*
X62433573Y-49209988D01*
X62600994Y-49143233D01*
X62790242Y-49104639D01*
X62910584Y-49093694D01*
X63118300Y-49095812D01*
X63300123Y-49129051D01*
X63460333Y-49194844D01*
X63603210Y-49294620D01*
X63654353Y-49342246D01*
X63757250Y-49445143D01*
X63757250Y-49150826D01*
X64648142Y-49150826D01*
X64640759Y-50616618D01*
X64639325Y-50910509D01*
X64637987Y-51165450D01*
X64636445Y-51384823D01*
X64634397Y-51572007D01*
X64631540Y-51730386D01*
X64627572Y-51863339D01*
X64622192Y-51974249D01*
X64615098Y-52066496D01*
X64605987Y-52143462D01*
X64594557Y-52208529D01*
X64580508Y-52265076D01*
X64563536Y-52316486D01*
X64543340Y-52366141D01*
X64519617Y-52417420D01*
X64492067Y-52473706D01*
X64471109Y-52516326D01*
X64352705Y-52711129D01*
X64200468Y-52882094D01*
X64016664Y-53027494D01*
X63803561Y-53145602D01*
X63563424Y-53234693D01*
X63507988Y-53250019D01*
X63418829Y-53271508D01*
X63334789Y-53287072D01*
X63245082Y-53297884D01*
X63138921Y-53305116D01*
X63005520Y-53309938D01*
X62942334Y-53311450D01*
X62734868Y-53312669D01*
X62562126Y-53306723D01*
X62427363Y-53293738D01*
X62409040Y-53290934D01*
X62303674Y-53270192D01*
X62192420Y-53242723D01*
X62098909Y-53214376D01*
X62096832Y-53213646D01*
X61958084Y-53164664D01*
X61958084Y-52787578D01*
X61958490Y-52666530D01*
X61959620Y-52561603D01*
X61961337Y-52479511D01*
X61963504Y-52426968D01*
X61965737Y-52410493D01*
X61986982Y-52418857D01*
X62037610Y-52441293D01*
X62108713Y-52473810D01*
X62150945Y-52493437D01*
X62375751Y-52582285D01*
X62595376Y-52637898D01*
X62806412Y-52660967D01*
X63005450Y-52652183D01*
X63189081Y-52612239D01*
X63353895Y-52541824D01*
X63496485Y-52441631D01*
X63613441Y-52312351D01*
X63689573Y-52181366D01*
X63717274Y-52113735D01*
X63735372Y-52046097D01*
X63746449Y-51964809D01*
X63753092Y-51856230D01*
X63753614Y-51843300D01*
X63762124Y-51625358D01*
X63639262Y-51754167D01*
X63486407Y-51884692D01*
X63311936Y-51980722D01*
X63120015Y-52041342D01*
X62914809Y-52065634D01*
X62700483Y-52052684D01*
X62495015Y-52005916D01*
X62314695Y-51928468D01*
X62152396Y-51814386D01*
X62010407Y-51666340D01*
X61891020Y-51487000D01*
X61796524Y-51279035D01*
X61752418Y-51140493D01*
X61732719Y-51036527D01*
X61719776Y-50901683D01*
X61713468Y-50746852D01*
X61713564Y-50669015D01*
G37*
X61713564Y-50669015D02*
X62615552Y-50669015D01*
X62622264Y-50794290D01*
X62635777Y-50899370D01*
X62646235Y-50944180D01*
X62710005Y-51094849D01*
X62800606Y-51215604D01*
X62913831Y-51304077D01*
X63045469Y-51357900D01*
X63191313Y-51374706D01*
X63347154Y-51352125D01*
X63363211Y-51347585D01*
X63452296Y-51303880D01*
X63543571Y-51229538D01*
X63627401Y-51134570D01*
X63694153Y-51028988D01*
X63715892Y-50981086D01*
X63736046Y-50925408D01*
X63750026Y-50871727D01*
X63758967Y-50810377D01*
X63764005Y-50731691D01*
X63766275Y-50626003D01*
X63766772Y-50547826D01*
X63766542Y-50423319D01*
X63764197Y-50332244D01*
X63758748Y-50265712D01*
X63749210Y-50214837D01*
X63734596Y-50170731D01*
X63721555Y-50140720D01*
X63636665Y-49994300D01*
X63534646Y-49886348D01*
X63414633Y-49816250D01*
X63275760Y-49783390D01*
X63215397Y-49780534D01*
X63062894Y-49799740D01*
X62928856Y-49856005D01*
X62815493Y-49947300D01*
X62725013Y-50071598D01*
X62659625Y-50226870D01*
X62638025Y-50310743D01*
X62623253Y-50413369D01*
X62615822Y-50537417D01*
X62615552Y-50669015D01*
X61713564Y-50669015D01*
X61713672Y-50582927D01*
X61720266Y-50420799D01*
X61733129Y-50271361D01*
X61752138Y-50145505D01*
X61764142Y-50093971D01*
X61835987Y-49880603D01*
X61928221Y-49696858D01*
X62046461Y-49532683D01*
X62127033Y-49444630D01*
X62278684Y-49309066D01*
X62433573Y-49209988D01*
X62600994Y-49143233D01*
X62790242Y-49104639D01*
X62910584Y-49093694D01*
X63118300Y-49095812D01*
X63300123Y-49129051D01*
X63460333Y-49194844D01*
X63603210Y-49294620D01*
X63654353Y-49342246D01*
X63757250Y-49445143D01*
X63757250Y-49150826D01*
X64648142Y-49150826D01*
X64640759Y-50616618D01*
X64639325Y-50910509D01*
X64637987Y-51165450D01*
X64636445Y-51384823D01*
X64634397Y-51572007D01*
X64631540Y-51730386D01*
X64627572Y-51863339D01*
X64622192Y-51974249D01*
X64615098Y-52066496D01*
X64605987Y-52143462D01*
X64594557Y-52208529D01*
X64580508Y-52265076D01*
X64563536Y-52316486D01*
X64543340Y-52366141D01*
X64519617Y-52417420D01*
X64492067Y-52473706D01*
X64471109Y-52516326D01*
X64352705Y-52711129D01*
X64200468Y-52882094D01*
X64016664Y-53027494D01*
X63803561Y-53145602D01*
X63563424Y-53234693D01*
X63507988Y-53250019D01*
X63418829Y-53271508D01*
X63334789Y-53287072D01*
X63245082Y-53297884D01*
X63138921Y-53305116D01*
X63005520Y-53309938D01*
X62942334Y-53311450D01*
X62734868Y-53312669D01*
X62562126Y-53306723D01*
X62427363Y-53293738D01*
X62409040Y-53290934D01*
X62303674Y-53270192D01*
X62192420Y-53242723D01*
X62098909Y-53214376D01*
X62096832Y-53213646D01*
X61958084Y-53164664D01*
X61958084Y-52787578D01*
X61958490Y-52666530D01*
X61959620Y-52561603D01*
X61961337Y-52479511D01*
X61963504Y-52426968D01*
X61965737Y-52410493D01*
X61986982Y-52418857D01*
X62037610Y-52441293D01*
X62108713Y-52473810D01*
X62150945Y-52493437D01*
X62375751Y-52582285D01*
X62595376Y-52637898D01*
X62806412Y-52660967D01*
X63005450Y-52652183D01*
X63189081Y-52612239D01*
X63353895Y-52541824D01*
X63496485Y-52441631D01*
X63613441Y-52312351D01*
X63689573Y-52181366D01*
X63717274Y-52113735D01*
X63735372Y-52046097D01*
X63746449Y-51964809D01*
X63753092Y-51856230D01*
X63753614Y-51843300D01*
X63762124Y-51625358D01*
X63639262Y-51754167D01*
X63486407Y-51884692D01*
X63311936Y-51980722D01*
X63120015Y-52041342D01*
X62914809Y-52065634D01*
X62700483Y-52052684D01*
X62495015Y-52005916D01*
X62314695Y-51928468D01*
X62152396Y-51814386D01*
X62010407Y-51666340D01*
X61891020Y-51487000D01*
X61796524Y-51279035D01*
X61752418Y-51140493D01*
X61732719Y-51036527D01*
X61719776Y-50901683D01*
X61713468Y-50746852D01*
X61713564Y-50669015D01*
G36*
X55131342Y-51126546D02*
G01*
X55950347Y-51126546D01*
X55975242Y-51224964D01*
X56029602Y-51311535D01*
X56111487Y-51378437D01*
X56215254Y-51417113D01*
X56334440Y-51425856D01*
X56458312Y-51409383D01*
X56560087Y-51373165D01*
X56681867Y-51287926D01*
X56772532Y-51174916D01*
X56830860Y-51036334D01*
X56855631Y-50874384D01*
X56856452Y-50838868D01*
X56857135Y-50771526D01*
X56854683Y-50724047D01*
X56843010Y-50693996D01*
X56816028Y-50678942D01*
X56767651Y-50676448D01*
X56691791Y-50684083D01*
X56582361Y-50699411D01*
X56527226Y-50707236D01*
X56388666Y-50727812D01*
X56284610Y-50746617D01*
X56207415Y-50765853D01*
X56149437Y-50787720D01*
X56103035Y-50814421D01*
X56071834Y-50838436D01*
X55996704Y-50925459D01*
X55956854Y-51024103D01*
X55950347Y-51126546D01*
X55131342Y-51126546D01*
X55131294Y-51117378D01*
X55139901Y-51043992D01*
X55183886Y-50854887D01*
X55256516Y-50694636D01*
X55359997Y-50560708D01*
X55496531Y-50450577D01*
X55668325Y-50361714D01*
X55766791Y-50324917D01*
X55825698Y-50309146D01*
X55918136Y-50289173D01*
X56035677Y-50266397D01*
X56169890Y-50242218D01*
X56312347Y-50218036D01*
X56454618Y-50195249D01*
X56588274Y-50175258D01*
X56704885Y-50159463D01*
X56796022Y-50149262D01*
X56843795Y-50146094D01*
X56855850Y-50127785D01*
X56855414Y-50081666D01*
X56844726Y-50019616D01*
X56826022Y-49953515D01*
X56801540Y-49895241D01*
X56794079Y-49882147D01*
X56744322Y-49823185D01*
X56678416Y-49770232D01*
X56658992Y-49758710D01*
X56613431Y-49737323D01*
X56565816Y-49723610D01*
X56505372Y-49716032D01*
X56421325Y-49713049D01*
X56338334Y-49712890D01*
X56175790Y-49719029D01*
X56033893Y-49738040D01*
X55898353Y-49773442D01*
X55754880Y-49828755D01*
X55629250Y-49887501D01*
X55544950Y-49929007D01*
X55474836Y-49963422D01*
X55427555Y-49986507D01*
X55412292Y-49993831D01*
X55406938Y-49976363D01*
X55402356Y-49923455D01*
X55398874Y-49842000D01*
X55396825Y-49738887D01*
X55396417Y-49663048D01*
X55396417Y-49325076D01*
X55507542Y-49280660D01*
X55720153Y-49208514D01*
X55953458Y-49151581D01*
X56193377Y-49112211D01*
X56425831Y-49092757D01*
X56621918Y-49094531D01*
X56859654Y-49124425D01*
X57065775Y-49181794D01*
X57241775Y-49267732D01*
X57389148Y-49383333D01*
X57509388Y-49529694D01*
X57603990Y-49707909D01*
X57655726Y-49852098D01*
X57663867Y-49884303D01*
X57670767Y-49925093D01*
X57676569Y-49978264D01*
X57681414Y-50047612D01*
X57685443Y-50136933D01*
X57688800Y-50250023D01*
X57691624Y-50390678D01*
X57694058Y-50562694D01*
X57696244Y-50769867D01*
X57698097Y-50987034D01*
X57706161Y-52008326D01*
X56858505Y-52008326D01*
X56852419Y-51815884D01*
X56846334Y-51623441D01*
X56772295Y-51722386D01*
X56684095Y-51816618D01*
X56569520Y-51905549D01*
X56444177Y-51978416D01*
X56341493Y-52019486D01*
X56223989Y-52044628D01*
X56084818Y-52059229D01*
X55943583Y-52062173D01*
X55819887Y-52052348D01*
X55805353Y-52049939D01*
X55625006Y-51998030D01*
X55468939Y-51913366D01*
X55339394Y-51799337D01*
X55238615Y-51659334D01*
X55168843Y-51496746D01*
X55132322Y-51314964D01*
X55131342Y-51126546D01*
G37*
X55131342Y-51126546D02*
X55950347Y-51126546D01*
X55975242Y-51224964D01*
X56029602Y-51311535D01*
X56111487Y-51378437D01*
X56215254Y-51417113D01*
X56334440Y-51425856D01*
X56458312Y-51409383D01*
X56560087Y-51373165D01*
X56681867Y-51287926D01*
X56772532Y-51174916D01*
X56830860Y-51036334D01*
X56855631Y-50874384D01*
X56856452Y-50838868D01*
X56857135Y-50771526D01*
X56854683Y-50724047D01*
X56843010Y-50693996D01*
X56816028Y-50678942D01*
X56767651Y-50676448D01*
X56691791Y-50684083D01*
X56582361Y-50699411D01*
X56527226Y-50707236D01*
X56388666Y-50727812D01*
X56284610Y-50746617D01*
X56207415Y-50765853D01*
X56149437Y-50787720D01*
X56103035Y-50814421D01*
X56071834Y-50838436D01*
X55996704Y-50925459D01*
X55956854Y-51024103D01*
X55950347Y-51126546D01*
X55131342Y-51126546D01*
X55131294Y-51117378D01*
X55139901Y-51043992D01*
X55183886Y-50854887D01*
X55256516Y-50694636D01*
X55359997Y-50560708D01*
X55496531Y-50450577D01*
X55668325Y-50361714D01*
X55766791Y-50324917D01*
X55825698Y-50309146D01*
X55918136Y-50289173D01*
X56035677Y-50266397D01*
X56169890Y-50242218D01*
X56312347Y-50218036D01*
X56454618Y-50195249D01*
X56588274Y-50175258D01*
X56704885Y-50159463D01*
X56796022Y-50149262D01*
X56843795Y-50146094D01*
X56855850Y-50127785D01*
X56855414Y-50081666D01*
X56844726Y-50019616D01*
X56826022Y-49953515D01*
X56801540Y-49895241D01*
X56794079Y-49882147D01*
X56744322Y-49823185D01*
X56678416Y-49770232D01*
X56658992Y-49758710D01*
X56613431Y-49737323D01*
X56565816Y-49723610D01*
X56505372Y-49716032D01*
X56421325Y-49713049D01*
X56338334Y-49712890D01*
X56175790Y-49719029D01*
X56033893Y-49738040D01*
X55898353Y-49773442D01*
X55754880Y-49828755D01*
X55629250Y-49887501D01*
X55544950Y-49929007D01*
X55474836Y-49963422D01*
X55427555Y-49986507D01*
X55412292Y-49993831D01*
X55406938Y-49976363D01*
X55402356Y-49923455D01*
X55398874Y-49842000D01*
X55396825Y-49738887D01*
X55396417Y-49663048D01*
X55396417Y-49325076D01*
X55507542Y-49280660D01*
X55720153Y-49208514D01*
X55953458Y-49151581D01*
X56193377Y-49112211D01*
X56425831Y-49092757D01*
X56621918Y-49094531D01*
X56859654Y-49124425D01*
X57065775Y-49181794D01*
X57241775Y-49267732D01*
X57389148Y-49383333D01*
X57509388Y-49529694D01*
X57603990Y-49707909D01*
X57655726Y-49852098D01*
X57663867Y-49884303D01*
X57670767Y-49925093D01*
X57676569Y-49978264D01*
X57681414Y-50047612D01*
X57685443Y-50136933D01*
X57688800Y-50250023D01*
X57691624Y-50390678D01*
X57694058Y-50562694D01*
X57696244Y-50769867D01*
X57698097Y-50987034D01*
X57706161Y-52008326D01*
X56858505Y-52008326D01*
X56852419Y-51815884D01*
X56846334Y-51623441D01*
X56772295Y-51722386D01*
X56684095Y-51816618D01*
X56569520Y-51905549D01*
X56444177Y-51978416D01*
X56341493Y-52019486D01*
X56223989Y-52044628D01*
X56084818Y-52059229D01*
X55943583Y-52062173D01*
X55819887Y-52052348D01*
X55805353Y-52049939D01*
X55625006Y-51998030D01*
X55468939Y-51913366D01*
X55339394Y-51799337D01*
X55238615Y-51659334D01*
X55168843Y-51496746D01*
X55132322Y-51314964D01*
X55131342Y-51126546D01*
G36*
X58212039Y-50655124D02*
G01*
X59115013Y-50655124D01*
X59135917Y-50850811D01*
X59185775Y-51024786D01*
X59263521Y-51171916D01*
X59280543Y-51195347D01*
X59368314Y-51277440D01*
X59482922Y-51335495D01*
X59614778Y-51367039D01*
X59754292Y-51369602D01*
X59870711Y-51347453D01*
X59953478Y-51306613D01*
X60040691Y-51236806D01*
X60121546Y-51148558D01*
X60185238Y-51052392D01*
X60196294Y-51030321D01*
X60236509Y-50913655D01*
X60264532Y-50769316D01*
X60279794Y-50610171D01*
X60281724Y-50449088D01*
X60269750Y-50298933D01*
X60243302Y-50172575D01*
X60235407Y-50149039D01*
X60164237Y-50010467D01*
X60065145Y-49902295D01*
X59941864Y-49827151D01*
X59798123Y-49787664D01*
X59714417Y-49782091D01*
X59561586Y-49800663D01*
X59429374Y-49855609D01*
X59318813Y-49945771D01*
X59230939Y-50069991D01*
X59166786Y-50227111D01*
X59127387Y-50415973D01*
X59124131Y-50442858D01*
X59115013Y-50655124D01*
X58212039Y-50655124D01*
X58212021Y-50653659D01*
X58223294Y-50383698D01*
X58258484Y-50145042D01*
X58319235Y-49933001D01*
X58407189Y-49742882D01*
X58523987Y-49569993D01*
X58634912Y-49445354D01*
X58804991Y-49298707D01*
X58987222Y-49191701D01*
X59184460Y-49123267D01*
X59399558Y-49092336D01*
X59575034Y-49093150D01*
X59743146Y-49111735D01*
X59881133Y-49147641D01*
X59999073Y-49204926D01*
X60107044Y-49287652D01*
X60142886Y-49321908D01*
X60264750Y-49443773D01*
X60264750Y-47796159D01*
X61153750Y-47796159D01*
X61153750Y-52008326D01*
X60264750Y-52008326D01*
X60264750Y-51625853D01*
X60195959Y-51705515D01*
X60068961Y-51834511D01*
X59943255Y-51928833D01*
X59826180Y-51983778D01*
X59681149Y-52025980D01*
X59521165Y-52053396D01*
X59359231Y-52063986D01*
X59208349Y-52055708D01*
X59171422Y-52050014D01*
X58959956Y-51992517D01*
X58772868Y-51901106D01*
X58611060Y-51777090D01*
X58475431Y-51621783D01*
X58366885Y-51436496D01*
X58286322Y-51222541D01*
X58234643Y-50981231D01*
X58212751Y-50713877D01*
X58212039Y-50655124D01*
G37*
X58212039Y-50655124D02*
X59115013Y-50655124D01*
X59135917Y-50850811D01*
X59185775Y-51024786D01*
X59263521Y-51171916D01*
X59280543Y-51195347D01*
X59368314Y-51277440D01*
X59482922Y-51335495D01*
X59614778Y-51367039D01*
X59754292Y-51369602D01*
X59870711Y-51347453D01*
X59953478Y-51306613D01*
X60040691Y-51236806D01*
X60121546Y-51148558D01*
X60185238Y-51052392D01*
X60196294Y-51030321D01*
X60236509Y-50913655D01*
X60264532Y-50769316D01*
X60279794Y-50610171D01*
X60281724Y-50449088D01*
X60269750Y-50298933D01*
X60243302Y-50172575D01*
X60235407Y-50149039D01*
X60164237Y-50010467D01*
X60065145Y-49902295D01*
X59941864Y-49827151D01*
X59798123Y-49787664D01*
X59714417Y-49782091D01*
X59561586Y-49800663D01*
X59429374Y-49855609D01*
X59318813Y-49945771D01*
X59230939Y-50069991D01*
X59166786Y-50227111D01*
X59127387Y-50415973D01*
X59124131Y-50442858D01*
X59115013Y-50655124D01*
X58212039Y-50655124D01*
X58212021Y-50653659D01*
X58223294Y-50383698D01*
X58258484Y-50145042D01*
X58319235Y-49933001D01*
X58407189Y-49742882D01*
X58523987Y-49569993D01*
X58634912Y-49445354D01*
X58804991Y-49298707D01*
X58987222Y-49191701D01*
X59184460Y-49123267D01*
X59399558Y-49092336D01*
X59575034Y-49093150D01*
X59743146Y-49111735D01*
X59881133Y-49147641D01*
X59999073Y-49204926D01*
X60107044Y-49287652D01*
X60142886Y-49321908D01*
X60264750Y-49443773D01*
X60264750Y-47796159D01*
X61153750Y-47796159D01*
X61153750Y-52008326D01*
X60264750Y-52008326D01*
X60264750Y-51625853D01*
X60195959Y-51705515D01*
X60068961Y-51834511D01*
X59943255Y-51928833D01*
X59826180Y-51983778D01*
X59681149Y-52025980D01*
X59521165Y-52053396D01*
X59359231Y-52063986D01*
X59208349Y-52055708D01*
X59171422Y-52050014D01*
X58959956Y-51992517D01*
X58772868Y-51901106D01*
X58611060Y-51777090D01*
X58475431Y-51621783D01*
X58366885Y-51436496D01*
X58286322Y-51222541D01*
X58234643Y-50981231D01*
X58212751Y-50713877D01*
X58212039Y-50655124D01*
G36*
X65249296Y-50143518D02*
G01*
X65259919Y-50103326D01*
X65345513Y-49875172D01*
X65464213Y-49671090D01*
X65612728Y-49493539D01*
X65787763Y-49344981D01*
X65986023Y-49227875D01*
X66204216Y-49144681D01*
X66439047Y-49097861D01*
X66619149Y-49088064D01*
X66869390Y-49106234D01*
X67095328Y-49157903D01*
X67296072Y-49242575D01*
X67470732Y-49359752D01*
X67618417Y-49508937D01*
X67738237Y-49689632D01*
X67755340Y-49722587D01*
X67812582Y-49849602D01*
X67854844Y-49975943D01*
X67884065Y-50111426D01*
X67902186Y-50265869D01*
X67911148Y-50449087D01*
X67912422Y-50517274D01*
X67916500Y-50833576D01*
X66998373Y-50839094D01*
X66080246Y-50844613D01*
X66094059Y-50930995D01*
X66136280Y-51072199D01*
X66212397Y-51191545D01*
X66319388Y-51287892D01*
X66454230Y-51360101D01*
X66613903Y-51407030D01*
X66795384Y-51427540D01*
X66995652Y-51420489D01*
X67211684Y-51384737D01*
X67263371Y-51372313D01*
X67363654Y-51341832D01*
X67470157Y-51301812D01*
X67543830Y-51268630D01*
X67673084Y-51203383D01*
X67673084Y-51854626D01*
X67551375Y-51907307D01*
X67356683Y-51975490D01*
X67134575Y-52025776D01*
X66896614Y-52056784D01*
X66654366Y-52067131D01*
X66419393Y-52055435D01*
X66364832Y-52049126D01*
X66122486Y-51998995D01*
X65904282Y-51915269D01*
X65711737Y-51799055D01*
X65546366Y-51651457D01*
X65409684Y-51473582D01*
X65307982Y-51278018D01*
X65257107Y-51120915D01*
X65222046Y-50935785D01*
X65203267Y-50734053D01*
X65201238Y-50527148D01*
X65216425Y-50326494D01*
X65226096Y-50272659D01*
X66080045Y-50272659D01*
X67086296Y-50272659D01*
X67074808Y-50145962D01*
X67045516Y-49993784D01*
X66988386Y-49872982D01*
X66903924Y-49784104D01*
X66792635Y-49727695D01*
X66667293Y-49704964D01*
X66580555Y-49704644D01*
X66498201Y-49712842D01*
X66454812Y-49722718D01*
X66363189Y-49771726D01*
X66273604Y-49852550D01*
X66193801Y-49955059D01*
X66131526Y-50069125D01*
X66094522Y-50184614D01*
X66092348Y-50196844D01*
X66080045Y-50272659D01*
X65226096Y-50272659D01*
X65249296Y-50143518D01*
G37*
X65249296Y-50143518D02*
X65259919Y-50103326D01*
X65345513Y-49875172D01*
X65464213Y-49671090D01*
X65612728Y-49493539D01*
X65787763Y-49344981D01*
X65986023Y-49227875D01*
X66204216Y-49144681D01*
X66439047Y-49097861D01*
X66619149Y-49088064D01*
X66869390Y-49106234D01*
X67095328Y-49157903D01*
X67296072Y-49242575D01*
X67470732Y-49359752D01*
X67618417Y-49508937D01*
X67738237Y-49689632D01*
X67755340Y-49722587D01*
X67812582Y-49849602D01*
X67854844Y-49975943D01*
X67884065Y-50111426D01*
X67902186Y-50265869D01*
X67911148Y-50449087D01*
X67912422Y-50517274D01*
X67916500Y-50833576D01*
X66998373Y-50839094D01*
X66080246Y-50844613D01*
X66094059Y-50930995D01*
X66136280Y-51072199D01*
X66212397Y-51191545D01*
X66319388Y-51287892D01*
X66454230Y-51360101D01*
X66613903Y-51407030D01*
X66795384Y-51427540D01*
X66995652Y-51420489D01*
X67211684Y-51384737D01*
X67263371Y-51372313D01*
X67363654Y-51341832D01*
X67470157Y-51301812D01*
X67543830Y-51268630D01*
X67673084Y-51203383D01*
X67673084Y-51854626D01*
X67551375Y-51907307D01*
X67356683Y-51975490D01*
X67134575Y-52025776D01*
X66896614Y-52056784D01*
X66654366Y-52067131D01*
X66419393Y-52055435D01*
X66364832Y-52049126D01*
X66122486Y-51998995D01*
X65904282Y-51915269D01*
X65711737Y-51799055D01*
X65546366Y-51651457D01*
X65409684Y-51473582D01*
X65307982Y-51278018D01*
X65257107Y-51120915D01*
X65222046Y-50935785D01*
X65203267Y-50734053D01*
X65201238Y-50527148D01*
X65216425Y-50326494D01*
X65226096Y-50272659D01*
X66080045Y-50272659D01*
X67086296Y-50272659D01*
X67074808Y-50145962D01*
X67045516Y-49993784D01*
X66988386Y-49872982D01*
X66903924Y-49784104D01*
X66792635Y-49727695D01*
X66667293Y-49704964D01*
X66580555Y-49704644D01*
X66498201Y-49712842D01*
X66454812Y-49722718D01*
X66363189Y-49771726D01*
X66273604Y-49852550D01*
X66193801Y-49955059D01*
X66131526Y-50069125D01*
X66094522Y-50184614D01*
X66092348Y-50196844D01*
X66080045Y-50272659D01*
X65226096Y-50272659D01*
X65249296Y-50143518D01*
G36*
X51798084Y-49621200D02*
G01*
X51798084Y-48706326D01*
X52708250Y-48706326D01*
X52708250Y-49621200D01*
X53009875Y-49612979D01*
X53130289Y-49609245D01*
X53217583Y-49604628D01*
X53280965Y-49597559D01*
X53329642Y-49586470D01*
X53372824Y-49569790D01*
X53419717Y-49545951D01*
X53427321Y-49541834D01*
X53499111Y-49495220D01*
X53561861Y-49441516D01*
X53591408Y-49406921D01*
X53651304Y-49285025D01*
X53674659Y-49158539D01*
X53662476Y-49035007D01*
X53615757Y-48921978D01*
X53535504Y-48826997D01*
X53511884Y-48808109D01*
X53423218Y-48762112D01*
X53299472Y-48730096D01*
X53138832Y-48711725D01*
X52967542Y-48706577D01*
X52708250Y-48706326D01*
X51798084Y-48706326D01*
X51798084Y-48028993D01*
X52645987Y-48028993D01*
X52906825Y-48029613D01*
X53129782Y-48031816D01*
X53319298Y-48036111D01*
X53479813Y-48043010D01*
X53615767Y-48053023D01*
X53731597Y-48066662D01*
X53831745Y-48084437D01*
X53920650Y-48106859D01*
X54002750Y-48134440D01*
X54082487Y-48167689D01*
X54155553Y-48202710D01*
X54320544Y-48307047D01*
X54452450Y-48435925D01*
X54549580Y-48585632D01*
X54610246Y-48752455D01*
X54632759Y-48932682D01*
X54615430Y-49122599D01*
X54601612Y-49183211D01*
X54536730Y-49349790D01*
X54434119Y-49502008D01*
X54296978Y-49636321D01*
X54128503Y-49749188D01*
X54058296Y-49785073D01*
X53894926Y-49862300D01*
X54018322Y-49887787D01*
X54200739Y-49945237D01*
X54369536Y-50036756D01*
X54517609Y-50156881D01*
X54637851Y-50300150D01*
X54703012Y-50414157D01*
X54737064Y-50492727D01*
X54758551Y-50562181D01*
X54771003Y-50638650D01*
X54777953Y-50738265D01*
X54778934Y-50760905D01*
X54779929Y-50866634D01*
X54775406Y-50972513D01*
X54766298Y-51060539D01*
X54762167Y-51083963D01*
X54701319Y-51275648D01*
X54603510Y-51451082D01*
X54472084Y-51606953D01*
X54310385Y-51739953D01*
X54121758Y-51846771D01*
X53914600Y-51922695D01*
X53826377Y-51943973D01*
X53724387Y-51961728D01*
X53604708Y-51976201D01*
X53463420Y-51987631D01*
X53296601Y-51996258D01*
X53100331Y-52002323D01*
X52870688Y-52006064D01*
X52603752Y-52007723D01*
X52523042Y-52007846D01*
X51798084Y-52008326D01*
X51798084Y-51336997D01*
X51798084Y-50288328D01*
X52708250Y-50288328D01*
X52708250Y-51336997D01*
X53041625Y-51325768D01*
X53181025Y-51320017D01*
X53286768Y-51312768D01*
X53367530Y-51302948D01*
X53431983Y-51289481D01*
X53488804Y-51271295D01*
X53492280Y-51269985D01*
X53623383Y-51200094D01*
X53725408Y-51103500D01*
X53794740Y-50985211D01*
X53827767Y-50850235D01*
X53830084Y-50801826D01*
X53810913Y-50660804D01*
X53754760Y-50539081D01*
X53663658Y-50439535D01*
X53539644Y-50365045D01*
X53513673Y-50354400D01*
X53459550Y-50336236D01*
X53400090Y-50322787D01*
X53326779Y-50313029D01*
X53231102Y-50305933D01*
X53104543Y-50300475D01*
X53052209Y-50298786D01*
X52708250Y-50288328D01*
X51798084Y-50288328D01*
X51798084Y-49621200D01*
G37*
X51798084Y-49621200D02*
X51798084Y-48706326D01*
X52708250Y-48706326D01*
X52708250Y-49621200D01*
X53009875Y-49612979D01*
X53130289Y-49609245D01*
X53217583Y-49604628D01*
X53280965Y-49597559D01*
X53329642Y-49586470D01*
X53372824Y-49569790D01*
X53419717Y-49545951D01*
X53427321Y-49541834D01*
X53499111Y-49495220D01*
X53561861Y-49441516D01*
X53591408Y-49406921D01*
X53651304Y-49285025D01*
X53674659Y-49158539D01*
X53662476Y-49035007D01*
X53615757Y-48921978D01*
X53535504Y-48826997D01*
X53511884Y-48808109D01*
X53423218Y-48762112D01*
X53299472Y-48730096D01*
X53138832Y-48711725D01*
X52967542Y-48706577D01*
X52708250Y-48706326D01*
X51798084Y-48706326D01*
X51798084Y-48028993D01*
X52645987Y-48028993D01*
X52906825Y-48029613D01*
X53129782Y-48031816D01*
X53319298Y-48036111D01*
X53479813Y-48043010D01*
X53615767Y-48053023D01*
X53731597Y-48066662D01*
X53831745Y-48084437D01*
X53920650Y-48106859D01*
X54002750Y-48134440D01*
X54082487Y-48167689D01*
X54155553Y-48202710D01*
X54320544Y-48307047D01*
X54452450Y-48435925D01*
X54549580Y-48585632D01*
X54610246Y-48752455D01*
X54632759Y-48932682D01*
X54615430Y-49122599D01*
X54601612Y-49183211D01*
X54536730Y-49349790D01*
X54434119Y-49502008D01*
X54296978Y-49636321D01*
X54128503Y-49749188D01*
X54058296Y-49785073D01*
X53894926Y-49862300D01*
X54018322Y-49887787D01*
X54200739Y-49945237D01*
X54369536Y-50036756D01*
X54517609Y-50156881D01*
X54637851Y-50300150D01*
X54703012Y-50414157D01*
X54737064Y-50492727D01*
X54758551Y-50562181D01*
X54771003Y-50638650D01*
X54777953Y-50738265D01*
X54778934Y-50760905D01*
X54779929Y-50866634D01*
X54775406Y-50972513D01*
X54766298Y-51060539D01*
X54762167Y-51083963D01*
X54701319Y-51275648D01*
X54603510Y-51451082D01*
X54472084Y-51606953D01*
X54310385Y-51739953D01*
X54121758Y-51846771D01*
X53914600Y-51922695D01*
X53826377Y-51943973D01*
X53724387Y-51961728D01*
X53604708Y-51976201D01*
X53463420Y-51987631D01*
X53296601Y-51996258D01*
X53100331Y-52002323D01*
X52870688Y-52006064D01*
X52603752Y-52007723D01*
X52523042Y-52007846D01*
X51798084Y-52008326D01*
X51798084Y-51336997D01*
X51798084Y-50288328D01*
X52708250Y-50288328D01*
X52708250Y-51336997D01*
X53041625Y-51325768D01*
X53181025Y-51320017D01*
X53286768Y-51312768D01*
X53367530Y-51302948D01*
X53431983Y-51289481D01*
X53488804Y-51271295D01*
X53492280Y-51269985D01*
X53623383Y-51200094D01*
X53725408Y-51103500D01*
X53794740Y-50985211D01*
X53827767Y-50850235D01*
X53830084Y-50801826D01*
X53810913Y-50660804D01*
X53754760Y-50539081D01*
X53663658Y-50439535D01*
X53539644Y-50365045D01*
X53513673Y-50354400D01*
X53459550Y-50336236D01*
X53400090Y-50322787D01*
X53326779Y-50313029D01*
X53231102Y-50305933D01*
X53104543Y-50300475D01*
X53052209Y-50298786D01*
X52708250Y-50288328D01*
X51798084Y-50288328D01*
X51798084Y-49621200D01*
G36*
X93987510Y-47452201D02*
G01*
X93989063Y-47674265D01*
X93990560Y-47858137D01*
X93992227Y-48007960D01*
X93994291Y-48127875D01*
X93996977Y-48222023D01*
X94000512Y-48294545D01*
X94005121Y-48349583D01*
X94011030Y-48391278D01*
X94018466Y-48423772D01*
X94027655Y-48451206D01*
X94038823Y-48477721D01*
X94044131Y-48489522D01*
X94116220Y-48610117D01*
X94209129Y-48695624D01*
X94326006Y-48747967D01*
X94470000Y-48769067D01*
X94502969Y-48769708D01*
X94616324Y-48753804D01*
X94726756Y-48710447D01*
X94820090Y-48646527D01*
X94868516Y-48591980D01*
X94893914Y-48552717D01*
X94915059Y-48513960D01*
X94932340Y-48471561D01*
X94946143Y-48421373D01*
X94956859Y-48359248D01*
X94964876Y-48281037D01*
X94970581Y-48182593D01*
X94974365Y-48059769D01*
X94976615Y-47908416D01*
X94977720Y-47724386D01*
X94978068Y-47503531D01*
X94978084Y-47422378D01*
X94978084Y-46526159D01*
X95616136Y-46526159D01*
X95607497Y-47483951D01*
X95605239Y-47715881D01*
X95602903Y-47909562D01*
X95600319Y-48069079D01*
X95597313Y-48198515D01*
X95593714Y-48301954D01*
X95589350Y-48383482D01*
X95584048Y-48447182D01*
X95577637Y-48497138D01*
X95569944Y-48537435D01*
X95561805Y-48568743D01*
X95489416Y-48755678D01*
X95389327Y-48921789D01*
X95266101Y-49061351D01*
X95124299Y-49168643D01*
X95054218Y-49205526D01*
X94900068Y-49259924D01*
X94719618Y-49297050D01*
X94525800Y-49315537D01*
X94331547Y-49314018D01*
X94184334Y-49297450D01*
X93981041Y-49245536D01*
X93806144Y-49162467D01*
X93658985Y-49047650D01*
X93538906Y-48900490D01*
X93445251Y-48720396D01*
X93399222Y-48588757D01*
X93390265Y-48554288D01*
X93382738Y-48514047D01*
X93376474Y-48463976D01*
X93371303Y-48400020D01*
X93367059Y-48318119D01*
X93363572Y-48214218D01*
X93360673Y-48084260D01*
X93358195Y-47924186D01*
X93355969Y-47729941D01*
X93353827Y-47497466D01*
X93353802Y-47494534D01*
X93345557Y-46526159D01*
X93981186Y-46526159D01*
X93987510Y-47452201D01*
G37*
X93987510Y-47452201D02*
X93989063Y-47674265D01*
X93990560Y-47858137D01*
X93992227Y-48007960D01*
X93994291Y-48127875D01*
X93996977Y-48222023D01*
X94000512Y-48294545D01*
X94005121Y-48349583D01*
X94011030Y-48391278D01*
X94018466Y-48423772D01*
X94027655Y-48451206D01*
X94038823Y-48477721D01*
X94044131Y-48489522D01*
X94116220Y-48610117D01*
X94209129Y-48695624D01*
X94326006Y-48747967D01*
X94470000Y-48769067D01*
X94502969Y-48769708D01*
X94616324Y-48753804D01*
X94726756Y-48710447D01*
X94820090Y-48646527D01*
X94868516Y-48591980D01*
X94893914Y-48552717D01*
X94915059Y-48513960D01*
X94932340Y-48471561D01*
X94946143Y-48421373D01*
X94956859Y-48359248D01*
X94964876Y-48281037D01*
X94970581Y-48182593D01*
X94974365Y-48059769D01*
X94976615Y-47908416D01*
X94977720Y-47724386D01*
X94978068Y-47503531D01*
X94978084Y-47422378D01*
X94978084Y-46526159D01*
X95616136Y-46526159D01*
X95607497Y-47483951D01*
X95605239Y-47715881D01*
X95602903Y-47909562D01*
X95600319Y-48069079D01*
X95597313Y-48198515D01*
X95593714Y-48301954D01*
X95589350Y-48383482D01*
X95584048Y-48447182D01*
X95577637Y-48497138D01*
X95569944Y-48537435D01*
X95561805Y-48568743D01*
X95489416Y-48755678D01*
X95389327Y-48921789D01*
X95266101Y-49061351D01*
X95124299Y-49168643D01*
X95054218Y-49205526D01*
X94900068Y-49259924D01*
X94719618Y-49297050D01*
X94525800Y-49315537D01*
X94331547Y-49314018D01*
X94184334Y-49297450D01*
X93981041Y-49245536D01*
X93806144Y-49162467D01*
X93658985Y-49047650D01*
X93538906Y-48900490D01*
X93445251Y-48720396D01*
X93399222Y-48588757D01*
X93390265Y-48554288D01*
X93382738Y-48514047D01*
X93376474Y-48463976D01*
X93371303Y-48400020D01*
X93367059Y-48318119D01*
X93363572Y-48214218D01*
X93360673Y-48084260D01*
X93358195Y-47924186D01*
X93355969Y-47729941D01*
X93353827Y-47497466D01*
X93353802Y-47494534D01*
X93345557Y-46526159D01*
X93981186Y-46526159D01*
X93987510Y-47452201D01*
G36*
X97076188Y-47285233D02*
G01*
X97191796Y-47296320D01*
X97274667Y-47312046D01*
X97380500Y-47341076D01*
X97386509Y-47581741D01*
X97388646Y-47685301D01*
X97388258Y-47753216D01*
X97384408Y-47792142D01*
X97376155Y-47808736D01*
X97362561Y-47809656D01*
X97354759Y-47806857D01*
X97233964Y-47759652D01*
X97136818Y-47728883D01*
X97049492Y-47711301D01*
X96958157Y-47703654D01*
X96911129Y-47702579D01*
X96818522Y-47703566D01*
X96756069Y-47710156D01*
X96711729Y-47724562D01*
X96678296Y-47745336D01*
X96622798Y-47801803D01*
X96608898Y-47858036D01*
X96636747Y-47914226D01*
X96706498Y-47970562D01*
X96818301Y-48027237D01*
X96939294Y-48073351D01*
X97120977Y-48144470D01*
X97263445Y-48220934D01*
X97369764Y-48306015D01*
X97443001Y-48402985D01*
X97486224Y-48515118D01*
X97502499Y-48645684D01*
X97502789Y-48674582D01*
X97484234Y-48834521D01*
X97430563Y-48971680D01*
X97341456Y-49086392D01*
X97216591Y-49178989D01*
X97055647Y-49249804D01*
X96909048Y-49289250D01*
X96784502Y-49307243D01*
X96636718Y-49315755D01*
X96483770Y-49314553D01*
X96343732Y-49303405D01*
X96301000Y-49297091D01*
X96213990Y-49279638D01*
X96124624Y-49257944D01*
X96099917Y-49251046D01*
X96004667Y-49223119D01*
X95998703Y-48975306D01*
X95997809Y-48871083D01*
X96000368Y-48790829D01*
X96006017Y-48741038D01*
X96012678Y-48727493D01*
X96040702Y-48735993D01*
X96094985Y-48758277D01*
X96163615Y-48789445D01*
X96294606Y-48840923D01*
X96426441Y-48874054D01*
X96553201Y-48889334D01*
X96668967Y-48887257D01*
X96767818Y-48868319D01*
X96843835Y-48833015D01*
X96891099Y-48781840D01*
X96904250Y-48727493D01*
X96897381Y-48684627D01*
X96873106Y-48647368D01*
X96825925Y-48611863D01*
X96750340Y-48574258D01*
X96640850Y-48530699D01*
X96604110Y-48517180D01*
X96465457Y-48465097D01*
X96359643Y-48420641D01*
X96278900Y-48379484D01*
X96215454Y-48337304D01*
X96161535Y-48289775D01*
X96124816Y-48250459D01*
X96045793Y-48131603D01*
X96005440Y-47997645D01*
X96003320Y-47846779D01*
X96012270Y-47785594D01*
X96059460Y-47642411D01*
X96143094Y-47518564D01*
X96260836Y-47416416D01*
X96410348Y-47338329D01*
X96478293Y-47314433D01*
X96561159Y-47297427D01*
X96674190Y-47285968D01*
X96805577Y-47280093D01*
X96943513Y-47279836D01*
X97076188Y-47285233D01*
G37*
X97076188Y-47285233D02*
X97191796Y-47296320D01*
X97274667Y-47312046D01*
X97380500Y-47341076D01*
X97386509Y-47581741D01*
X97388646Y-47685301D01*
X97388258Y-47753216D01*
X97384408Y-47792142D01*
X97376155Y-47808736D01*
X97362561Y-47809656D01*
X97354759Y-47806857D01*
X97233964Y-47759652D01*
X97136818Y-47728883D01*
X97049492Y-47711301D01*
X96958157Y-47703654D01*
X96911129Y-47702579D01*
X96818522Y-47703566D01*
X96756069Y-47710156D01*
X96711729Y-47724562D01*
X96678296Y-47745336D01*
X96622798Y-47801803D01*
X96608898Y-47858036D01*
X96636747Y-47914226D01*
X96706498Y-47970562D01*
X96818301Y-48027237D01*
X96939294Y-48073351D01*
X97120977Y-48144470D01*
X97263445Y-48220934D01*
X97369764Y-48306015D01*
X97443001Y-48402985D01*
X97486224Y-48515118D01*
X97502499Y-48645684D01*
X97502789Y-48674582D01*
X97484234Y-48834521D01*
X97430563Y-48971680D01*
X97341456Y-49086392D01*
X97216591Y-49178989D01*
X97055647Y-49249804D01*
X96909048Y-49289250D01*
X96784502Y-49307243D01*
X96636718Y-49315755D01*
X96483770Y-49314553D01*
X96343732Y-49303405D01*
X96301000Y-49297091D01*
X96213990Y-49279638D01*
X96124624Y-49257944D01*
X96099917Y-49251046D01*
X96004667Y-49223119D01*
X95998703Y-48975306D01*
X95997809Y-48871083D01*
X96000368Y-48790829D01*
X96006017Y-48741038D01*
X96012678Y-48727493D01*
X96040702Y-48735993D01*
X96094985Y-48758277D01*
X96163615Y-48789445D01*
X96294606Y-48840923D01*
X96426441Y-48874054D01*
X96553201Y-48889334D01*
X96668967Y-48887257D01*
X96767818Y-48868319D01*
X96843835Y-48833015D01*
X96891099Y-48781840D01*
X96904250Y-48727493D01*
X96897381Y-48684627D01*
X96873106Y-48647368D01*
X96825925Y-48611863D01*
X96750340Y-48574258D01*
X96640850Y-48530699D01*
X96604110Y-48517180D01*
X96465457Y-48465097D01*
X96359643Y-48420641D01*
X96278900Y-48379484D01*
X96215454Y-48337304D01*
X96161535Y-48289775D01*
X96124816Y-48250459D01*
X96045793Y-48131603D01*
X96005440Y-47997645D01*
X96003320Y-47846779D01*
X96012270Y-47785594D01*
X96059460Y-47642411D01*
X96143094Y-47518564D01*
X96260836Y-47416416D01*
X96410348Y-47338329D01*
X96478293Y-47314433D01*
X96561159Y-47297427D01*
X96674190Y-47285968D01*
X96805577Y-47280093D01*
X96943513Y-47279836D01*
X97076188Y-47285233D01*
G36*
X97769255Y-47948398D02*
G01*
X97824653Y-47801525D01*
X97907059Y-47667938D01*
X97997009Y-47562327D01*
X98149667Y-47431338D01*
X98321214Y-47338104D01*
X98510310Y-47283188D01*
X98696239Y-47266993D01*
X98901461Y-47284630D01*
X99083973Y-47336531D01*
X99241809Y-47421181D01*
X99373006Y-47537065D01*
X99475598Y-47682666D01*
X99547621Y-47856470D01*
X99568825Y-47940076D01*
X99579334Y-48012231D01*
X99587433Y-48110082D01*
X99591909Y-48217009D01*
X99592417Y-48262868D01*
X99592417Y-48473493D01*
X98968000Y-48473493D01*
X98789262Y-48473570D01*
X98648359Y-48474010D01*
X98540794Y-48475122D01*
X98462069Y-48477216D01*
X98407686Y-48480602D01*
X98373147Y-48485589D01*
X98353954Y-48492487D01*
X98345610Y-48501607D01*
X98343617Y-48513258D01*
X98343584Y-48516506D01*
X98363586Y-48613533D01*
X98418938Y-48703816D01*
X98502660Y-48780231D01*
X98607768Y-48835654D01*
X98675685Y-48855355D01*
X98815327Y-48874099D01*
X98954738Y-48870080D01*
X99102547Y-48841853D01*
X99267385Y-48787973D01*
X99396625Y-48734615D01*
X99408882Y-48739300D01*
X99416941Y-48769680D01*
X99421449Y-48830991D01*
X99423053Y-48928469D01*
X99423084Y-48948668D01*
X99423084Y-49174373D01*
X99324953Y-49217781D01*
X99206799Y-49257658D01*
X99060086Y-49288426D01*
X98897846Y-49308867D01*
X98733111Y-49317764D01*
X98578913Y-49313901D01*
X98460000Y-49298527D01*
X98271739Y-49241898D01*
X98106228Y-49153544D01*
X97967576Y-49036373D01*
X97859891Y-48893296D01*
X97841945Y-48860898D01*
X97788562Y-48744268D01*
X97753558Y-48628425D01*
X97734160Y-48500140D01*
X97727594Y-48346182D01*
X97727558Y-48315337D01*
X97737884Y-48116891D01*
X97742426Y-48092493D01*
X98324442Y-48092493D01*
X99026671Y-48092493D01*
X99013565Y-47996878D01*
X98983050Y-47872841D01*
X98928965Y-47782967D01*
X98849151Y-47724898D01*
X98741449Y-47696277D01*
X98737858Y-47695860D01*
X98625062Y-47702958D01*
X98523749Y-47748231D01*
X98438518Y-47828087D01*
X98373969Y-47938929D01*
X98353395Y-47996288D01*
X98324442Y-48092493D01*
X97742426Y-48092493D01*
X97769255Y-47948398D01*
G37*
X97769255Y-47948398D02*
X97824653Y-47801525D01*
X97907059Y-47667938D01*
X97997009Y-47562327D01*
X98149667Y-47431338D01*
X98321214Y-47338104D01*
X98510310Y-47283188D01*
X98696239Y-47266993D01*
X98901461Y-47284630D01*
X99083973Y-47336531D01*
X99241809Y-47421181D01*
X99373006Y-47537065D01*
X99475598Y-47682666D01*
X99547621Y-47856470D01*
X99568825Y-47940076D01*
X99579334Y-48012231D01*
X99587433Y-48110082D01*
X99591909Y-48217009D01*
X99592417Y-48262868D01*
X99592417Y-48473493D01*
X98968000Y-48473493D01*
X98789262Y-48473570D01*
X98648359Y-48474010D01*
X98540794Y-48475122D01*
X98462069Y-48477216D01*
X98407686Y-48480602D01*
X98373147Y-48485589D01*
X98353954Y-48492487D01*
X98345610Y-48501607D01*
X98343617Y-48513258D01*
X98343584Y-48516506D01*
X98363586Y-48613533D01*
X98418938Y-48703816D01*
X98502660Y-48780231D01*
X98607768Y-48835654D01*
X98675685Y-48855355D01*
X98815327Y-48874099D01*
X98954738Y-48870080D01*
X99102547Y-48841853D01*
X99267385Y-48787973D01*
X99396625Y-48734615D01*
X99408882Y-48739300D01*
X99416941Y-48769680D01*
X99421449Y-48830991D01*
X99423053Y-48928469D01*
X99423084Y-48948668D01*
X99423084Y-49174373D01*
X99324953Y-49217781D01*
X99206799Y-49257658D01*
X99060086Y-49288426D01*
X98897846Y-49308867D01*
X98733111Y-49317764D01*
X98578913Y-49313901D01*
X98460000Y-49298527D01*
X98271739Y-49241898D01*
X98106228Y-49153544D01*
X97967576Y-49036373D01*
X97859891Y-48893296D01*
X97841945Y-48860898D01*
X97788562Y-48744268D01*
X97753558Y-48628425D01*
X97734160Y-48500140D01*
X97727594Y-48346182D01*
X97727558Y-48315337D01*
X97737884Y-48116891D01*
X97742426Y-48092493D01*
X98324442Y-48092493D01*
X99026671Y-48092493D01*
X99013565Y-47996878D01*
X98983050Y-47872841D01*
X98928965Y-47782967D01*
X98849151Y-47724898D01*
X98741449Y-47696277D01*
X98737858Y-47695860D01*
X98625062Y-47702958D01*
X98523749Y-47748231D01*
X98438518Y-47828087D01*
X98373969Y-47938929D01*
X98353395Y-47996288D01*
X98324442Y-48092493D01*
X97742426Y-48092493D01*
X97769255Y-47948398D01*
G36*
X101211667Y-47298743D02*
G01*
X101217541Y-47587490D01*
X101223415Y-47876238D01*
X101143458Y-47847711D01*
X101004676Y-47816290D01*
X100878315Y-47824039D01*
X100767395Y-47869857D01*
X100674934Y-47952646D01*
X100619478Y-48038420D01*
X100555500Y-48163453D01*
X100548392Y-48720639D01*
X100541283Y-49277826D01*
X99931084Y-49277826D01*
X99931084Y-47309326D01*
X100544917Y-47309326D01*
X100545745Y-47483951D01*
X100546555Y-47568034D01*
X100548931Y-47614877D01*
X100554276Y-47629572D01*
X100563994Y-47617213D01*
X100575536Y-47592014D01*
X100628424Y-47504122D01*
X100704114Y-47419374D01*
X100789052Y-47351272D01*
X100848605Y-47320017D01*
X100958508Y-47295322D01*
X101074801Y-47292322D01*
X101211667Y-47298743D01*
G37*
X101211667Y-47298743D02*
X101217541Y-47587490D01*
X101223415Y-47876238D01*
X101143458Y-47847711D01*
X101004676Y-47816290D01*
X100878315Y-47824039D01*
X100767395Y-47869857D01*
X100674934Y-47952646D01*
X100619478Y-48038420D01*
X100555500Y-48163453D01*
X100548392Y-48720639D01*
X100541283Y-49277826D01*
X99931084Y-49277826D01*
X99931084Y-47309326D01*
X100544917Y-47309326D01*
X100545745Y-47483951D01*
X100546555Y-47568034D01*
X100548931Y-47614877D01*
X100554276Y-47629572D01*
X100563994Y-47617213D01*
X100575536Y-47592014D01*
X100628424Y-47504122D01*
X100704114Y-47419374D01*
X100789052Y-47351272D01*
X100848605Y-47320017D01*
X100958508Y-47295322D01*
X101074801Y-47292322D01*
X101211667Y-47298743D01*
G36*
X103784095Y-46494538D02*
G01*
X103789155Y-46518538D01*
X103793368Y-46563440D01*
X103796800Y-46632009D01*
X103799513Y-46727009D01*
X103801574Y-46851206D01*
X103803046Y-47007363D01*
X103803993Y-47198246D01*
X103804481Y-47426619D01*
X103804584Y-47624561D01*
X103804584Y-48769826D01*
X104354917Y-48769826D01*
X104354917Y-49277826D01*
X102619250Y-49277826D01*
X102619250Y-48769826D01*
X103190750Y-48769826D01*
X103190750Y-47944326D01*
X103190535Y-47730848D01*
X103189807Y-47556137D01*
X103188440Y-47416627D01*
X103186311Y-47308753D01*
X103183294Y-47228949D01*
X103179264Y-47173650D01*
X103174097Y-47139291D01*
X103167667Y-47122307D01*
X103161845Y-47118826D01*
X103130480Y-47123290D01*
X103067465Y-47135399D01*
X102982389Y-47153225D01*
X102898522Y-47171743D01*
X102801586Y-47192993D01*
X102717908Y-47210172D01*
X102657280Y-47221339D01*
X102631094Y-47224659D01*
X102616809Y-47218975D01*
X102607255Y-47197466D01*
X102601546Y-47153447D01*
X102598795Y-47080233D01*
X102598114Y-46975951D01*
X102598144Y-46727243D01*
X103174905Y-46612649D01*
X103326489Y-46582388D01*
X103465069Y-46554449D01*
X103585043Y-46529984D01*
X103680807Y-46510144D01*
X103746758Y-46496080D01*
X103777292Y-46488944D01*
X103778125Y-46488676D01*
X103784095Y-46494538D01*
G37*
X103784095Y-46494538D02*
X103789155Y-46518538D01*
X103793368Y-46563440D01*
X103796800Y-46632009D01*
X103799513Y-46727009D01*
X103801574Y-46851206D01*
X103803046Y-47007363D01*
X103803993Y-47198246D01*
X103804481Y-47426619D01*
X103804584Y-47624561D01*
X103804584Y-48769826D01*
X104354917Y-48769826D01*
X104354917Y-49277826D01*
X102619250Y-49277826D01*
X102619250Y-48769826D01*
X103190750Y-48769826D01*
X103190750Y-47944326D01*
X103190535Y-47730848D01*
X103189807Y-47556137D01*
X103188440Y-47416627D01*
X103186311Y-47308753D01*
X103183294Y-47228949D01*
X103179264Y-47173650D01*
X103174097Y-47139291D01*
X103167667Y-47122307D01*
X103161845Y-47118826D01*
X103130480Y-47123290D01*
X103067465Y-47135399D01*
X102982389Y-47153225D01*
X102898522Y-47171743D01*
X102801586Y-47192993D01*
X102717908Y-47210172D01*
X102657280Y-47221339D01*
X102631094Y-47224659D01*
X102616809Y-47218975D01*
X102607255Y-47197466D01*
X102601546Y-47153447D01*
X102598795Y-47080233D01*
X102598114Y-46975951D01*
X102598144Y-46727243D01*
X103174905Y-46612649D01*
X103326489Y-46582388D01*
X103465069Y-46554449D01*
X103585043Y-46529984D01*
X103680807Y-46510144D01*
X103746758Y-46496080D01*
X103777292Y-46488944D01*
X103778125Y-46488676D01*
X103784095Y-46494538D01*
%TD*%
M02*
