%TF.GenerationSoftware,KiCad,Pcbnew,(7.0.0)*%
%TF.CreationDate,2024-07-03T12:20:39-05:00*%
%TF.ProjectId,DC32H4X0R,44433332-4834-4583-9052-2e6b69636164,rev?*%
%TF.SameCoordinates,Original*%
%TF.FileFunction,Legend,Bot*%
%TF.FilePolarity,Positive*%
%FSLAX46Y46*%
G04 Gerber Fmt 4.6, Leading zero omitted, Abs format (unit mm)*
G04 Created by KiCad (PCBNEW (7.0.0)) date 2024-07-03 12:20:39*
%MOMM*%
%LPD*%
G01*
G04 APERTURE LIST*
%ADD10C,0.150000*%
%ADD11C,0.700000*%
%ADD12C,0.010000*%
G04 APERTURE END LIST*
D10*
%TO.C,X1*%
X68639999Y-71821535D02*
X68389999Y-72571535D01*
X68389999Y-72571535D02*
X68139999Y-71821535D01*
X67461428Y-72500107D02*
X67497142Y-72535821D01*
X67497142Y-72535821D02*
X67604285Y-72571535D01*
X67604285Y-72571535D02*
X67675713Y-72571535D01*
X67675713Y-72571535D02*
X67782856Y-72535821D01*
X67782856Y-72535821D02*
X67854285Y-72464392D01*
X67854285Y-72464392D02*
X67889999Y-72392964D01*
X67889999Y-72392964D02*
X67925713Y-72250107D01*
X67925713Y-72250107D02*
X67925713Y-72142964D01*
X67925713Y-72142964D02*
X67889999Y-72000107D01*
X67889999Y-72000107D02*
X67854285Y-71928678D01*
X67854285Y-71928678D02*
X67782856Y-71857250D01*
X67782856Y-71857250D02*
X67675713Y-71821535D01*
X67675713Y-71821535D02*
X67604285Y-71821535D01*
X67604285Y-71821535D02*
X67497142Y-71857250D01*
X67497142Y-71857250D02*
X67461428Y-71892964D01*
X66711428Y-72500107D02*
X66747142Y-72535821D01*
X66747142Y-72535821D02*
X66854285Y-72571535D01*
X66854285Y-72571535D02*
X66925713Y-72571535D01*
X66925713Y-72571535D02*
X67032856Y-72535821D01*
X67032856Y-72535821D02*
X67104285Y-72464392D01*
X67104285Y-72464392D02*
X67139999Y-72392964D01*
X67139999Y-72392964D02*
X67175713Y-72250107D01*
X67175713Y-72250107D02*
X67175713Y-72142964D01*
X67175713Y-72142964D02*
X67139999Y-72000107D01*
X67139999Y-72000107D02*
X67104285Y-71928678D01*
X67104285Y-71928678D02*
X67032856Y-71857250D01*
X67032856Y-71857250D02*
X66925713Y-71821535D01*
X66925713Y-71821535D02*
X66854285Y-71821535D01*
X66854285Y-71821535D02*
X66747142Y-71857250D01*
X66747142Y-71857250D02*
X66711428Y-71892964D01*
X71090713Y-72535821D02*
X70983571Y-72571535D01*
X70983571Y-72571535D02*
X70804999Y-72571535D01*
X70804999Y-72571535D02*
X70733571Y-72535821D01*
X70733571Y-72535821D02*
X70697856Y-72500107D01*
X70697856Y-72500107D02*
X70662142Y-72428678D01*
X70662142Y-72428678D02*
X70662142Y-72357250D01*
X70662142Y-72357250D02*
X70697856Y-72285821D01*
X70697856Y-72285821D02*
X70733571Y-72250107D01*
X70733571Y-72250107D02*
X70804999Y-72214392D01*
X70804999Y-72214392D02*
X70947856Y-72178678D01*
X70947856Y-72178678D02*
X71019285Y-72142964D01*
X71019285Y-72142964D02*
X71054999Y-72107250D01*
X71054999Y-72107250D02*
X71090713Y-72035821D01*
X71090713Y-72035821D02*
X71090713Y-71964392D01*
X71090713Y-71964392D02*
X71054999Y-71892964D01*
X71054999Y-71892964D02*
X71019285Y-71857250D01*
X71019285Y-71857250D02*
X70947856Y-71821535D01*
X70947856Y-71821535D02*
X70769285Y-71821535D01*
X70769285Y-71821535D02*
X70662142Y-71857250D01*
X70340713Y-72571535D02*
X70340713Y-71821535D01*
X70340713Y-71821535D02*
X70162142Y-71821535D01*
X70162142Y-71821535D02*
X70054999Y-71857250D01*
X70054999Y-71857250D02*
X69983570Y-71928678D01*
X69983570Y-71928678D02*
X69947856Y-72000107D01*
X69947856Y-72000107D02*
X69912142Y-72142964D01*
X69912142Y-72142964D02*
X69912142Y-72250107D01*
X69912142Y-72250107D02*
X69947856Y-72392964D01*
X69947856Y-72392964D02*
X69983570Y-72464392D01*
X69983570Y-72464392D02*
X70054999Y-72535821D01*
X70054999Y-72535821D02*
X70162142Y-72571535D01*
X70162142Y-72571535D02*
X70340713Y-72571535D01*
X69626427Y-72357250D02*
X69269285Y-72357250D01*
X69697856Y-72571535D02*
X69447856Y-71821535D01*
X69447856Y-71821535D02*
X69197856Y-72571535D01*
X75224142Y-71857250D02*
X75295571Y-71821535D01*
X75295571Y-71821535D02*
X75402713Y-71821535D01*
X75402713Y-71821535D02*
X75509856Y-71857250D01*
X75509856Y-71857250D02*
X75581285Y-71928678D01*
X75581285Y-71928678D02*
X75616999Y-72000107D01*
X75616999Y-72000107D02*
X75652713Y-72142964D01*
X75652713Y-72142964D02*
X75652713Y-72250107D01*
X75652713Y-72250107D02*
X75616999Y-72392964D01*
X75616999Y-72392964D02*
X75581285Y-72464392D01*
X75581285Y-72464392D02*
X75509856Y-72535821D01*
X75509856Y-72535821D02*
X75402713Y-72571535D01*
X75402713Y-72571535D02*
X75331285Y-72571535D01*
X75331285Y-72571535D02*
X75224142Y-72535821D01*
X75224142Y-72535821D02*
X75188428Y-72500107D01*
X75188428Y-72500107D02*
X75188428Y-72250107D01*
X75188428Y-72250107D02*
X75331285Y-72250107D01*
X74866999Y-72571535D02*
X74866999Y-71821535D01*
X74866999Y-71821535D02*
X74581285Y-71821535D01*
X74581285Y-71821535D02*
X74509856Y-71857250D01*
X74509856Y-71857250D02*
X74474142Y-71892964D01*
X74474142Y-71892964D02*
X74438428Y-71964392D01*
X74438428Y-71964392D02*
X74438428Y-72071535D01*
X74438428Y-72071535D02*
X74474142Y-72142964D01*
X74474142Y-72142964D02*
X74509856Y-72178678D01*
X74509856Y-72178678D02*
X74581285Y-72214392D01*
X74581285Y-72214392D02*
X74866999Y-72214392D01*
X74116999Y-72571535D02*
X74116999Y-71821535D01*
X73616999Y-71821535D02*
X73474142Y-71821535D01*
X73474142Y-71821535D02*
X73402713Y-71857250D01*
X73402713Y-71857250D02*
X73331285Y-71928678D01*
X73331285Y-71928678D02*
X73295570Y-72071535D01*
X73295570Y-72071535D02*
X73295570Y-72321535D01*
X73295570Y-72321535D02*
X73331285Y-72464392D01*
X73331285Y-72464392D02*
X73402713Y-72535821D01*
X73402713Y-72535821D02*
X73474142Y-72571535D01*
X73474142Y-72571535D02*
X73616999Y-72571535D01*
X73616999Y-72571535D02*
X73688428Y-72535821D01*
X73688428Y-72535821D02*
X73759856Y-72464392D01*
X73759856Y-72464392D02*
X73795570Y-72321535D01*
X73795570Y-72321535D02*
X73795570Y-72071535D01*
X73795570Y-72071535D02*
X73759856Y-71928678D01*
X73759856Y-71928678D02*
X73688428Y-71857250D01*
X73688428Y-71857250D02*
X73616999Y-71821535D01*
X72581285Y-72571535D02*
X73009856Y-72571535D01*
X72795571Y-72571535D02*
X72795571Y-71821535D01*
X72795571Y-71821535D02*
X72866999Y-71928678D01*
X72866999Y-71928678D02*
X72938428Y-72000107D01*
X72938428Y-72000107D02*
X73009856Y-72035821D01*
X68211428Y-77699250D02*
X68282857Y-77663535D01*
X68282857Y-77663535D02*
X68389999Y-77663535D01*
X68389999Y-77663535D02*
X68497142Y-77699250D01*
X68497142Y-77699250D02*
X68568571Y-77770678D01*
X68568571Y-77770678D02*
X68604285Y-77842107D01*
X68604285Y-77842107D02*
X68639999Y-77984964D01*
X68639999Y-77984964D02*
X68639999Y-78092107D01*
X68639999Y-78092107D02*
X68604285Y-78234964D01*
X68604285Y-78234964D02*
X68568571Y-78306392D01*
X68568571Y-78306392D02*
X68497142Y-78377821D01*
X68497142Y-78377821D02*
X68389999Y-78413535D01*
X68389999Y-78413535D02*
X68318571Y-78413535D01*
X68318571Y-78413535D02*
X68211428Y-78377821D01*
X68211428Y-78377821D02*
X68175714Y-78342107D01*
X68175714Y-78342107D02*
X68175714Y-78092107D01*
X68175714Y-78092107D02*
X68318571Y-78092107D01*
X67854285Y-78413535D02*
X67854285Y-77663535D01*
X67854285Y-77663535D02*
X67425714Y-78413535D01*
X67425714Y-78413535D02*
X67425714Y-77663535D01*
X67068571Y-78413535D02*
X67068571Y-77663535D01*
X67068571Y-77663535D02*
X66890000Y-77663535D01*
X66890000Y-77663535D02*
X66782857Y-77699250D01*
X66782857Y-77699250D02*
X66711428Y-77770678D01*
X66711428Y-77770678D02*
X66675714Y-77842107D01*
X66675714Y-77842107D02*
X66640000Y-77984964D01*
X66640000Y-77984964D02*
X66640000Y-78092107D01*
X66640000Y-78092107D02*
X66675714Y-78234964D01*
X66675714Y-78234964D02*
X66711428Y-78306392D01*
X66711428Y-78306392D02*
X66782857Y-78377821D01*
X66782857Y-78377821D02*
X66890000Y-78413535D01*
X66890000Y-78413535D02*
X67068571Y-78413535D01*
X71072856Y-78377821D02*
X70965714Y-78413535D01*
X70965714Y-78413535D02*
X70787142Y-78413535D01*
X70787142Y-78413535D02*
X70715714Y-78377821D01*
X70715714Y-78377821D02*
X70679999Y-78342107D01*
X70679999Y-78342107D02*
X70644285Y-78270678D01*
X70644285Y-78270678D02*
X70644285Y-78199250D01*
X70644285Y-78199250D02*
X70679999Y-78127821D01*
X70679999Y-78127821D02*
X70715714Y-78092107D01*
X70715714Y-78092107D02*
X70787142Y-78056392D01*
X70787142Y-78056392D02*
X70929999Y-78020678D01*
X70929999Y-78020678D02*
X71001428Y-77984964D01*
X71001428Y-77984964D02*
X71037142Y-77949250D01*
X71037142Y-77949250D02*
X71072856Y-77877821D01*
X71072856Y-77877821D02*
X71072856Y-77806392D01*
X71072856Y-77806392D02*
X71037142Y-77734964D01*
X71037142Y-77734964D02*
X71001428Y-77699250D01*
X71001428Y-77699250D02*
X70929999Y-77663535D01*
X70929999Y-77663535D02*
X70751428Y-77663535D01*
X70751428Y-77663535D02*
X70644285Y-77699250D01*
X69894285Y-78342107D02*
X69929999Y-78377821D01*
X69929999Y-78377821D02*
X70037142Y-78413535D01*
X70037142Y-78413535D02*
X70108570Y-78413535D01*
X70108570Y-78413535D02*
X70215713Y-78377821D01*
X70215713Y-78377821D02*
X70287142Y-78306392D01*
X70287142Y-78306392D02*
X70322856Y-78234964D01*
X70322856Y-78234964D02*
X70358570Y-78092107D01*
X70358570Y-78092107D02*
X70358570Y-77984964D01*
X70358570Y-77984964D02*
X70322856Y-77842107D01*
X70322856Y-77842107D02*
X70287142Y-77770678D01*
X70287142Y-77770678D02*
X70215713Y-77699250D01*
X70215713Y-77699250D02*
X70108570Y-77663535D01*
X70108570Y-77663535D02*
X70037142Y-77663535D01*
X70037142Y-77663535D02*
X69929999Y-77699250D01*
X69929999Y-77699250D02*
X69894285Y-77734964D01*
X69215713Y-78413535D02*
X69572856Y-78413535D01*
X69572856Y-78413535D02*
X69572856Y-77663535D01*
X75224142Y-77699250D02*
X75295571Y-77663535D01*
X75295571Y-77663535D02*
X75402713Y-77663535D01*
X75402713Y-77663535D02*
X75509856Y-77699250D01*
X75509856Y-77699250D02*
X75581285Y-77770678D01*
X75581285Y-77770678D02*
X75616999Y-77842107D01*
X75616999Y-77842107D02*
X75652713Y-77984964D01*
X75652713Y-77984964D02*
X75652713Y-78092107D01*
X75652713Y-78092107D02*
X75616999Y-78234964D01*
X75616999Y-78234964D02*
X75581285Y-78306392D01*
X75581285Y-78306392D02*
X75509856Y-78377821D01*
X75509856Y-78377821D02*
X75402713Y-78413535D01*
X75402713Y-78413535D02*
X75331285Y-78413535D01*
X75331285Y-78413535D02*
X75224142Y-78377821D01*
X75224142Y-78377821D02*
X75188428Y-78342107D01*
X75188428Y-78342107D02*
X75188428Y-78092107D01*
X75188428Y-78092107D02*
X75331285Y-78092107D01*
X74866999Y-78413535D02*
X74866999Y-77663535D01*
X74866999Y-77663535D02*
X74581285Y-77663535D01*
X74581285Y-77663535D02*
X74509856Y-77699250D01*
X74509856Y-77699250D02*
X74474142Y-77734964D01*
X74474142Y-77734964D02*
X74438428Y-77806392D01*
X74438428Y-77806392D02*
X74438428Y-77913535D01*
X74438428Y-77913535D02*
X74474142Y-77984964D01*
X74474142Y-77984964D02*
X74509856Y-78020678D01*
X74509856Y-78020678D02*
X74581285Y-78056392D01*
X74581285Y-78056392D02*
X74866999Y-78056392D01*
X74116999Y-78413535D02*
X74116999Y-77663535D01*
X73616999Y-77663535D02*
X73474142Y-77663535D01*
X73474142Y-77663535D02*
X73402713Y-77699250D01*
X73402713Y-77699250D02*
X73331285Y-77770678D01*
X73331285Y-77770678D02*
X73295570Y-77913535D01*
X73295570Y-77913535D02*
X73295570Y-78163535D01*
X73295570Y-78163535D02*
X73331285Y-78306392D01*
X73331285Y-78306392D02*
X73402713Y-78377821D01*
X73402713Y-78377821D02*
X73474142Y-78413535D01*
X73474142Y-78413535D02*
X73616999Y-78413535D01*
X73616999Y-78413535D02*
X73688428Y-78377821D01*
X73688428Y-78377821D02*
X73759856Y-78306392D01*
X73759856Y-78306392D02*
X73795570Y-78163535D01*
X73795570Y-78163535D02*
X73795570Y-77913535D01*
X73795570Y-77913535D02*
X73759856Y-77770678D01*
X73759856Y-77770678D02*
X73688428Y-77699250D01*
X73688428Y-77699250D02*
X73616999Y-77663535D01*
X73009856Y-77734964D02*
X72974142Y-77699250D01*
X72974142Y-77699250D02*
X72902714Y-77663535D01*
X72902714Y-77663535D02*
X72724142Y-77663535D01*
X72724142Y-77663535D02*
X72652714Y-77699250D01*
X72652714Y-77699250D02*
X72616999Y-77734964D01*
X72616999Y-77734964D02*
X72581285Y-77806392D01*
X72581285Y-77806392D02*
X72581285Y-77877821D01*
X72581285Y-77877821D02*
X72616999Y-77984964D01*
X72616999Y-77984964D02*
X73045571Y-78413535D01*
X73045571Y-78413535D02*
X72581285Y-78413535D01*
D11*
X67640000Y-71026000D02*
X62814000Y-71026000D01*
X77459640Y-70975200D02*
X72720000Y-70975200D01*
X62814000Y-71026000D02*
X62814000Y-79408000D01*
X62814000Y-79408000D02*
X77546000Y-79408000D01*
X77546000Y-79408000D02*
X77546000Y-71026000D01*
%TO.C,G\u002A\u002A\u002A*%
G36*
X66678471Y-68454826D02*
G01*
X66170030Y-68454826D01*
X66180834Y-64549576D01*
X66667667Y-64549576D01*
X66678471Y-68454826D01*
G37*
D12*
X66678471Y-68454826D02*
X66170030Y-68454826D01*
X66180834Y-64549576D01*
X66667667Y-64549576D01*
X66678471Y-68454826D01*
G36*
X60460974Y-64764848D02*
G01*
X60640291Y-64789404D01*
X60803290Y-64829875D01*
X60911422Y-64871858D01*
X60984417Y-64906666D01*
X60984417Y-65158510D01*
X60983177Y-65255174D01*
X60979801Y-65333292D01*
X60974800Y-65384994D01*
X60968686Y-65402410D01*
X60968542Y-65402348D01*
X60854504Y-65345100D01*
X60769254Y-65304121D01*
X60703746Y-65276691D01*
X60648932Y-65260091D01*
X60595764Y-65251601D01*
X60535195Y-65248502D01*
X60458178Y-65248076D01*
X60455250Y-65248076D01*
X60355121Y-65249522D01*
X60285597Y-65255198D01*
X60235006Y-65267111D01*
X60191679Y-65287269D01*
X60177282Y-65295888D01*
X60106296Y-65357146D01*
X60066537Y-65436632D01*
X60055160Y-65541243D01*
X60057477Y-65586521D01*
X60076773Y-65684486D01*
X60118960Y-65760509D01*
X60187778Y-65816861D01*
X60286965Y-65855817D01*
X60420260Y-65879650D01*
X60555792Y-65889428D01*
X60793917Y-65898986D01*
X60793917Y-66376034D01*
X60545209Y-66383555D01*
X60433117Y-66387964D01*
X60351893Y-66394631D01*
X60290071Y-66405626D01*
X60236184Y-66423023D01*
X60178767Y-66448894D01*
X60175887Y-66450305D01*
X60070331Y-66516941D01*
X60003297Y-66596096D01*
X59971797Y-66691988D01*
X59968417Y-66743154D01*
X59984441Y-66856657D01*
X60034410Y-66947708D01*
X60121172Y-67020774D01*
X60158850Y-67041951D01*
X60289695Y-67087269D01*
X60441793Y-67103340D01*
X60606490Y-67090883D01*
X60775134Y-67050612D01*
X60939071Y-66983246D01*
X60952667Y-66976212D01*
X61013416Y-66944419D01*
X61058627Y-66921118D01*
X61074375Y-66913308D01*
X61080286Y-66930374D01*
X61085199Y-66982155D01*
X61088658Y-67061035D01*
X61090209Y-67159400D01*
X61090250Y-67179148D01*
X61090250Y-67452164D01*
X60957959Y-67497941D01*
X60776481Y-67546228D01*
X60572602Y-67576019D01*
X60362695Y-67585813D01*
X60163131Y-67574107D01*
X60148334Y-67572227D01*
X59996831Y-67540197D01*
X59845224Y-67486874D01*
X59705183Y-67417700D01*
X59588380Y-67338115D01*
X59531681Y-67284752D01*
X59438255Y-67153083D01*
X59373588Y-67001835D01*
X59339730Y-66840934D01*
X59338731Y-66680307D01*
X59372641Y-66529877D01*
X59374650Y-66524483D01*
X59442354Y-66400489D01*
X59542103Y-66290053D01*
X59663829Y-66202435D01*
X59779747Y-66151979D01*
X59905971Y-66113231D01*
X59763508Y-66040487D01*
X59625673Y-65949417D01*
X59523089Y-65834945D01*
X59455729Y-65697021D01*
X59423566Y-65535593D01*
X59422688Y-65396501D01*
X59452142Y-65234360D01*
X59517454Y-65093616D01*
X59617240Y-64975535D01*
X59750118Y-64881383D01*
X59914706Y-64812422D01*
X60107092Y-64770270D01*
X60278765Y-64757905D01*
X60460974Y-64764848D01*
G37*
X60460974Y-64764848D02*
X60640291Y-64789404D01*
X60803290Y-64829875D01*
X60911422Y-64871858D01*
X60984417Y-64906666D01*
X60984417Y-65158510D01*
X60983177Y-65255174D01*
X60979801Y-65333292D01*
X60974800Y-65384994D01*
X60968686Y-65402410D01*
X60968542Y-65402348D01*
X60854504Y-65345100D01*
X60769254Y-65304121D01*
X60703746Y-65276691D01*
X60648932Y-65260091D01*
X60595764Y-65251601D01*
X60535195Y-65248502D01*
X60458178Y-65248076D01*
X60455250Y-65248076D01*
X60355121Y-65249522D01*
X60285597Y-65255198D01*
X60235006Y-65267111D01*
X60191679Y-65287269D01*
X60177282Y-65295888D01*
X60106296Y-65357146D01*
X60066537Y-65436632D01*
X60055160Y-65541243D01*
X60057477Y-65586521D01*
X60076773Y-65684486D01*
X60118960Y-65760509D01*
X60187778Y-65816861D01*
X60286965Y-65855817D01*
X60420260Y-65879650D01*
X60555792Y-65889428D01*
X60793917Y-65898986D01*
X60793917Y-66376034D01*
X60545209Y-66383555D01*
X60433117Y-66387964D01*
X60351893Y-66394631D01*
X60290071Y-66405626D01*
X60236184Y-66423023D01*
X60178767Y-66448894D01*
X60175887Y-66450305D01*
X60070331Y-66516941D01*
X60003297Y-66596096D01*
X59971797Y-66691988D01*
X59968417Y-66743154D01*
X59984441Y-66856657D01*
X60034410Y-66947708D01*
X60121172Y-67020774D01*
X60158850Y-67041951D01*
X60289695Y-67087269D01*
X60441793Y-67103340D01*
X60606490Y-67090883D01*
X60775134Y-67050612D01*
X60939071Y-66983246D01*
X60952667Y-66976212D01*
X61013416Y-66944419D01*
X61058627Y-66921118D01*
X61074375Y-66913308D01*
X61080286Y-66930374D01*
X61085199Y-66982155D01*
X61088658Y-67061035D01*
X61090209Y-67159400D01*
X61090250Y-67179148D01*
X61090250Y-67452164D01*
X60957959Y-67497941D01*
X60776481Y-67546228D01*
X60572602Y-67576019D01*
X60362695Y-67585813D01*
X60163131Y-67574107D01*
X60148334Y-67572227D01*
X59996831Y-67540197D01*
X59845224Y-67486874D01*
X59705183Y-67417700D01*
X59588380Y-67338115D01*
X59531681Y-67284752D01*
X59438255Y-67153083D01*
X59373588Y-67001835D01*
X59339730Y-66840934D01*
X59338731Y-66680307D01*
X59372641Y-66529877D01*
X59374650Y-66524483D01*
X59442354Y-66400489D01*
X59542103Y-66290053D01*
X59663829Y-66202435D01*
X59779747Y-66151979D01*
X59905971Y-66113231D01*
X59763508Y-66040487D01*
X59625673Y-65949417D01*
X59523089Y-65834945D01*
X59455729Y-65697021D01*
X59423566Y-65535593D01*
X59422688Y-65396501D01*
X59452142Y-65234360D01*
X59517454Y-65093616D01*
X59617240Y-64975535D01*
X59750118Y-64881383D01*
X59914706Y-64812422D01*
X60107092Y-64770270D01*
X60278765Y-64757905D01*
X60460974Y-64764848D01*
G36*
X63906879Y-66723757D02*
G01*
X63908294Y-66621162D01*
X64498084Y-66621162D01*
X64498084Y-66723757D01*
X64514550Y-66850902D01*
X64560277Y-66960892D01*
X64629750Y-67049078D01*
X64717458Y-67110810D01*
X64817889Y-67141437D01*
X64925530Y-67136311D01*
X64970923Y-67122623D01*
X65047694Y-67074207D01*
X65095143Y-67004908D01*
X65113298Y-66924354D01*
X65102184Y-66842169D01*
X65061829Y-66767981D01*
X64992259Y-66711416D01*
X64969759Y-66700934D01*
X64923261Y-66687673D01*
X64847457Y-66671990D01*
X64755091Y-66656375D01*
X64704459Y-66649071D01*
X64498084Y-66621162D01*
X63908294Y-66621162D01*
X63908568Y-66601280D01*
X63911938Y-66456426D01*
X63916285Y-66332299D01*
X63921408Y-66235809D01*
X63927101Y-66173866D01*
X63927854Y-66168826D01*
X63974111Y-65987761D01*
X64049810Y-65837065D01*
X64154996Y-65716703D01*
X64289712Y-65626642D01*
X64454003Y-65566848D01*
X64647912Y-65537287D01*
X64751263Y-65533826D01*
X64905307Y-65543291D01*
X65078896Y-65569595D01*
X65254253Y-65609601D01*
X65360324Y-65641320D01*
X65492917Y-65685444D01*
X65492917Y-66169188D01*
X65381792Y-66107826D01*
X65218975Y-66031057D01*
X65060759Y-65986318D01*
X64890306Y-65969134D01*
X64857917Y-65968626D01*
X64764528Y-65969783D01*
X64701109Y-65975935D01*
X64655382Y-65989447D01*
X64615065Y-66012685D01*
X64609740Y-66016431D01*
X64568086Y-66058546D01*
X64531629Y-66115946D01*
X64506228Y-66175727D01*
X64497740Y-66224983D01*
X64505272Y-66246570D01*
X64530294Y-66254308D01*
X64589280Y-66265878D01*
X64674185Y-66279882D01*
X64776961Y-66294927D01*
X64810288Y-66299463D01*
X64982283Y-66324492D01*
X65119200Y-66349565D01*
X65228247Y-66376662D01*
X65316635Y-66407764D01*
X65391574Y-66444851D01*
X65432515Y-66470420D01*
X65544447Y-66566507D01*
X65622281Y-66682901D01*
X65667319Y-66822578D01*
X65680859Y-66988516D01*
X65679402Y-67035897D01*
X65654914Y-67197588D01*
X65598867Y-67331369D01*
X65510626Y-67438244D01*
X65389556Y-67519212D01*
X65365917Y-67530360D01*
X65269085Y-67560035D01*
X65149561Y-67577115D01*
X65024908Y-67580640D01*
X64912692Y-67569648D01*
X64864779Y-67557776D01*
X64713979Y-67488933D01*
X64591186Y-67391240D01*
X64561824Y-67358342D01*
X64498084Y-67281014D01*
X64498084Y-67544659D01*
X63905417Y-67544659D01*
X63905577Y-66925534D01*
X63906380Y-66759952D01*
X63906879Y-66723757D01*
G37*
X63906879Y-66723757D02*
X63908294Y-66621162D01*
X64498084Y-66621162D01*
X64498084Y-66723757D01*
X64514550Y-66850902D01*
X64560277Y-66960892D01*
X64629750Y-67049078D01*
X64717458Y-67110810D01*
X64817889Y-67141437D01*
X64925530Y-67136311D01*
X64970923Y-67122623D01*
X65047694Y-67074207D01*
X65095143Y-67004908D01*
X65113298Y-66924354D01*
X65102184Y-66842169D01*
X65061829Y-66767981D01*
X64992259Y-66711416D01*
X64969759Y-66700934D01*
X64923261Y-66687673D01*
X64847457Y-66671990D01*
X64755091Y-66656375D01*
X64704459Y-66649071D01*
X64498084Y-66621162D01*
X63908294Y-66621162D01*
X63908568Y-66601280D01*
X63911938Y-66456426D01*
X63916285Y-66332299D01*
X63921408Y-66235809D01*
X63927101Y-66173866D01*
X63927854Y-66168826D01*
X63974111Y-65987761D01*
X64049810Y-65837065D01*
X64154996Y-65716703D01*
X64289712Y-65626642D01*
X64454003Y-65566848D01*
X64647912Y-65537287D01*
X64751263Y-65533826D01*
X64905307Y-65543291D01*
X65078896Y-65569595D01*
X65254253Y-65609601D01*
X65360324Y-65641320D01*
X65492917Y-65685444D01*
X65492917Y-66169188D01*
X65381792Y-66107826D01*
X65218975Y-66031057D01*
X65060759Y-65986318D01*
X64890306Y-65969134D01*
X64857917Y-65968626D01*
X64764528Y-65969783D01*
X64701109Y-65975935D01*
X64655382Y-65989447D01*
X64615065Y-66012685D01*
X64609740Y-66016431D01*
X64568086Y-66058546D01*
X64531629Y-66115946D01*
X64506228Y-66175727D01*
X64497740Y-66224983D01*
X64505272Y-66246570D01*
X64530294Y-66254308D01*
X64589280Y-66265878D01*
X64674185Y-66279882D01*
X64776961Y-66294927D01*
X64810288Y-66299463D01*
X64982283Y-66324492D01*
X65119200Y-66349565D01*
X65228247Y-66376662D01*
X65316635Y-66407764D01*
X65391574Y-66444851D01*
X65432515Y-66470420D01*
X65544447Y-66566507D01*
X65622281Y-66682901D01*
X65667319Y-66822578D01*
X65680859Y-66988516D01*
X65679402Y-67035897D01*
X65654914Y-67197588D01*
X65598867Y-67331369D01*
X65510626Y-67438244D01*
X65389556Y-67519212D01*
X65365917Y-67530360D01*
X65269085Y-67560035D01*
X65149561Y-67577115D01*
X65024908Y-67580640D01*
X64912692Y-67569648D01*
X64864779Y-67557776D01*
X64713979Y-67488933D01*
X64591186Y-67391240D01*
X64561824Y-67358342D01*
X64498084Y-67281014D01*
X64498084Y-67544659D01*
X63905417Y-67544659D01*
X63905577Y-66925534D01*
X63906380Y-66759952D01*
X63906879Y-66723757D01*
G36*
X74247468Y-64771325D02*
G01*
X74433776Y-64804564D01*
X74555474Y-64840643D01*
X74689834Y-64888498D01*
X74701708Y-65405352D01*
X74537021Y-65326714D01*
X74455815Y-65289384D01*
X74392453Y-65266198D01*
X74331349Y-65253814D01*
X74256923Y-65248891D01*
X74170319Y-65248076D01*
X74050738Y-65251720D01*
X73963651Y-65265154D01*
X73899650Y-65292130D01*
X73849327Y-65336399D01*
X73809228Y-65392101D01*
X73781112Y-65453768D01*
X73772929Y-65526603D01*
X73774777Y-65568918D01*
X73792974Y-65670961D01*
X73833247Y-65750469D01*
X73899352Y-65809768D01*
X73995046Y-65851183D01*
X74124085Y-65877042D01*
X74290226Y-65889669D01*
X74292959Y-65889768D01*
X74531084Y-65898228D01*
X74531084Y-66380493D01*
X74312675Y-66380493D01*
X74145592Y-66386789D01*
X74012425Y-66406920D01*
X73906481Y-66442746D01*
X73821073Y-66496127D01*
X73787297Y-66526632D01*
X73719366Y-66620999D01*
X73689666Y-66724644D01*
X73697973Y-66829742D01*
X73744065Y-66928469D01*
X73800516Y-66991208D01*
X73879425Y-67046071D01*
X73972246Y-67080369D01*
X74088934Y-67096930D01*
X74181834Y-67099524D01*
X74332100Y-67091654D01*
X74462723Y-67065745D01*
X74593631Y-67017001D01*
X74663375Y-66983600D01*
X74806250Y-66911372D01*
X74806250Y-67454241D01*
X74716292Y-67487469D01*
X74636852Y-67514880D01*
X74555655Y-67540105D01*
X74541667Y-67544064D01*
X74485828Y-67553851D01*
X74398820Y-67562723D01*
X74291804Y-67570191D01*
X74175944Y-67575765D01*
X74062402Y-67578959D01*
X73962338Y-67579283D01*
X73886916Y-67576248D01*
X73864334Y-67573710D01*
X73665863Y-67527087D01*
X73487837Y-67453760D01*
X73337332Y-67356993D01*
X73276424Y-67302657D01*
X73174633Y-67178421D01*
X73106540Y-67039460D01*
X73068618Y-66886459D01*
X73059174Y-66711810D01*
X73088173Y-66553148D01*
X73153824Y-66413294D01*
X73254336Y-66295071D01*
X73387919Y-66201299D01*
X73544134Y-66137341D01*
X73626102Y-66112830D01*
X73508096Y-66055095D01*
X73395296Y-65983652D01*
X73294990Y-65889836D01*
X73217096Y-65784538D01*
X73174189Y-65688403D01*
X73151217Y-65567532D01*
X73145693Y-65435003D01*
X73156968Y-65306285D01*
X73184396Y-65196847D01*
X73195880Y-65169666D01*
X73266368Y-65061621D01*
X73366599Y-64959843D01*
X73484303Y-64875796D01*
X73543126Y-64845244D01*
X73691125Y-64795833D01*
X73865166Y-64767010D01*
X74054272Y-64758824D01*
X74247468Y-64771325D01*
G37*
X74247468Y-64771325D02*
X74433776Y-64804564D01*
X74555474Y-64840643D01*
X74689834Y-64888498D01*
X74701708Y-65405352D01*
X74537021Y-65326714D01*
X74455815Y-65289384D01*
X74392453Y-65266198D01*
X74331349Y-65253814D01*
X74256923Y-65248891D01*
X74170319Y-65248076D01*
X74050738Y-65251720D01*
X73963651Y-65265154D01*
X73899650Y-65292130D01*
X73849327Y-65336399D01*
X73809228Y-65392101D01*
X73781112Y-65453768D01*
X73772929Y-65526603D01*
X73774777Y-65568918D01*
X73792974Y-65670961D01*
X73833247Y-65750469D01*
X73899352Y-65809768D01*
X73995046Y-65851183D01*
X74124085Y-65877042D01*
X74290226Y-65889669D01*
X74292959Y-65889768D01*
X74531084Y-65898228D01*
X74531084Y-66380493D01*
X74312675Y-66380493D01*
X74145592Y-66386789D01*
X74012425Y-66406920D01*
X73906481Y-66442746D01*
X73821073Y-66496127D01*
X73787297Y-66526632D01*
X73719366Y-66620999D01*
X73689666Y-66724644D01*
X73697973Y-66829742D01*
X73744065Y-66928469D01*
X73800516Y-66991208D01*
X73879425Y-67046071D01*
X73972246Y-67080369D01*
X74088934Y-67096930D01*
X74181834Y-67099524D01*
X74332100Y-67091654D01*
X74462723Y-67065745D01*
X74593631Y-67017001D01*
X74663375Y-66983600D01*
X74806250Y-66911372D01*
X74806250Y-67454241D01*
X74716292Y-67487469D01*
X74636852Y-67514880D01*
X74555655Y-67540105D01*
X74541667Y-67544064D01*
X74485828Y-67553851D01*
X74398820Y-67562723D01*
X74291804Y-67570191D01*
X74175944Y-67575765D01*
X74062402Y-67578959D01*
X73962338Y-67579283D01*
X73886916Y-67576248D01*
X73864334Y-67573710D01*
X73665863Y-67527087D01*
X73487837Y-67453760D01*
X73337332Y-67356993D01*
X73276424Y-67302657D01*
X73174633Y-67178421D01*
X73106540Y-67039460D01*
X73068618Y-66886459D01*
X73059174Y-66711810D01*
X73088173Y-66553148D01*
X73153824Y-66413294D01*
X73254336Y-66295071D01*
X73387919Y-66201299D01*
X73544134Y-66137341D01*
X73626102Y-66112830D01*
X73508096Y-66055095D01*
X73395296Y-65983652D01*
X73294990Y-65889836D01*
X73217096Y-65784538D01*
X73174189Y-65688403D01*
X73151217Y-65567532D01*
X73145693Y-65435003D01*
X73156968Y-65306285D01*
X73184396Y-65196847D01*
X73195880Y-65169666D01*
X73266368Y-65061621D01*
X73366599Y-64959843D01*
X73484303Y-64875796D01*
X73543126Y-64845244D01*
X73691125Y-64795833D01*
X73865166Y-64767010D01*
X74054272Y-64758824D01*
X74247468Y-64771325D01*
G36*
X81665794Y-65542423D02*
G01*
X81885699Y-65577868D01*
X82079897Y-65645806D01*
X82247573Y-65745765D01*
X82387915Y-65877270D01*
X82500110Y-66039849D01*
X82576333Y-66212301D01*
X82606434Y-66334029D01*
X82623293Y-66478842D01*
X82626854Y-66632522D01*
X82617063Y-66780849D01*
X82593865Y-66909603D01*
X82579200Y-66956926D01*
X82491569Y-67137477D01*
X82372671Y-67290354D01*
X82225002Y-67413420D01*
X82051055Y-67504540D01*
X81878691Y-67556507D01*
X81746260Y-67575651D01*
X81596208Y-67583282D01*
X81448221Y-67579133D01*
X81327175Y-67563979D01*
X81246834Y-67545197D01*
X81158413Y-67520291D01*
X81131383Y-67511680D01*
X81029250Y-67477757D01*
X81029250Y-67225458D01*
X81030136Y-67127755D01*
X81032548Y-67047666D01*
X81036120Y-66993400D01*
X81040484Y-66973162D01*
X81040537Y-66973159D01*
X81064024Y-66982029D01*
X81113232Y-67004998D01*
X81162245Y-67029381D01*
X81277140Y-67073445D01*
X81409856Y-67094459D01*
X81420834Y-67095227D01*
X81559767Y-67096123D01*
X81670626Y-67076197D01*
X81763932Y-67032022D01*
X81850206Y-66960169D01*
X81857209Y-66953030D01*
X81937347Y-66848160D01*
X81984570Y-66729622D01*
X82001157Y-66590053D01*
X81997846Y-66499121D01*
X81968297Y-66346356D01*
X81907166Y-66221398D01*
X81815681Y-66125297D01*
X81695067Y-66059108D01*
X81546552Y-66023880D01*
X81437071Y-66018071D01*
X81371605Y-66020610D01*
X81313553Y-66029311D01*
X81252567Y-66047476D01*
X81178301Y-66078405D01*
X81080409Y-66125402D01*
X81044478Y-66143332D01*
X81038730Y-66126731D01*
X81034787Y-66075432D01*
X81032956Y-65997043D01*
X81033547Y-65899175D01*
X81033895Y-65881861D01*
X81039834Y-65612104D01*
X81124500Y-65581860D01*
X81183068Y-65567437D01*
X81269547Y-65553964D01*
X81369529Y-65543480D01*
X81420994Y-65539944D01*
X81665794Y-65542423D01*
G37*
X81665794Y-65542423D02*
X81885699Y-65577868D01*
X82079897Y-65645806D01*
X82247573Y-65745765D01*
X82387915Y-65877270D01*
X82500110Y-66039849D01*
X82576333Y-66212301D01*
X82606434Y-66334029D01*
X82623293Y-66478842D01*
X82626854Y-66632522D01*
X82617063Y-66780849D01*
X82593865Y-66909603D01*
X82579200Y-66956926D01*
X82491569Y-67137477D01*
X82372671Y-67290354D01*
X82225002Y-67413420D01*
X82051055Y-67504540D01*
X81878691Y-67556507D01*
X81746260Y-67575651D01*
X81596208Y-67583282D01*
X81448221Y-67579133D01*
X81327175Y-67563979D01*
X81246834Y-67545197D01*
X81158413Y-67520291D01*
X81131383Y-67511680D01*
X81029250Y-67477757D01*
X81029250Y-67225458D01*
X81030136Y-67127755D01*
X81032548Y-67047666D01*
X81036120Y-66993400D01*
X81040484Y-66973162D01*
X81040537Y-66973159D01*
X81064024Y-66982029D01*
X81113232Y-67004998D01*
X81162245Y-67029381D01*
X81277140Y-67073445D01*
X81409856Y-67094459D01*
X81420834Y-67095227D01*
X81559767Y-67096123D01*
X81670626Y-67076197D01*
X81763932Y-67032022D01*
X81850206Y-66960169D01*
X81857209Y-66953030D01*
X81937347Y-66848160D01*
X81984570Y-66729622D01*
X82001157Y-66590053D01*
X81997846Y-66499121D01*
X81968297Y-66346356D01*
X81907166Y-66221398D01*
X81815681Y-66125297D01*
X81695067Y-66059108D01*
X81546552Y-66023880D01*
X81437071Y-66018071D01*
X81371605Y-66020610D01*
X81313553Y-66029311D01*
X81252567Y-66047476D01*
X81178301Y-66078405D01*
X81080409Y-66125402D01*
X81044478Y-66143332D01*
X81038730Y-66126731D01*
X81034787Y-66075432D01*
X81032956Y-65997043D01*
X81033547Y-65899175D01*
X81033895Y-65881861D01*
X81039834Y-65612104D01*
X81124500Y-65581860D01*
X81183068Y-65567437D01*
X81269547Y-65553964D01*
X81369529Y-65543480D01*
X81420994Y-65539944D01*
X81665794Y-65542423D01*
G36*
X58952417Y-65300372D02*
G01*
X57690619Y-65311576D01*
X58173219Y-66422826D01*
X58261724Y-66626706D01*
X58344989Y-66818678D01*
X58421519Y-66995285D01*
X58489819Y-67153071D01*
X58548395Y-67288578D01*
X58595753Y-67398350D01*
X58630397Y-67478930D01*
X58650834Y-67526862D01*
X58655951Y-67539368D01*
X58636030Y-67541180D01*
X58580965Y-67542724D01*
X58497942Y-67543886D01*
X58394152Y-67544549D01*
X58327476Y-67544659D01*
X57998869Y-67544659D01*
X57977142Y-67486451D01*
X57965586Y-67456511D01*
X57939980Y-67390852D01*
X57901769Y-67293154D01*
X57852393Y-67167094D01*
X57793295Y-67016353D01*
X57725918Y-66844609D01*
X57651703Y-66655540D01*
X57572092Y-66452825D01*
X57501416Y-66272939D01*
X57406245Y-66030670D01*
X57325401Y-65824405D01*
X57257713Y-65650754D01*
X57202015Y-65506324D01*
X57157136Y-65387725D01*
X57121910Y-65291565D01*
X57095167Y-65214452D01*
X57075738Y-65152996D01*
X57062456Y-65103806D01*
X57054152Y-65063489D01*
X57049656Y-65028654D01*
X57047802Y-64995911D01*
X57047419Y-64961867D01*
X57047417Y-64955314D01*
X57047417Y-64792993D01*
X58952417Y-64792993D01*
X58952417Y-65300372D01*
G37*
X58952417Y-65300372D02*
X57690619Y-65311576D01*
X58173219Y-66422826D01*
X58261724Y-66626706D01*
X58344989Y-66818678D01*
X58421519Y-66995285D01*
X58489819Y-67153071D01*
X58548395Y-67288578D01*
X58595753Y-67398350D01*
X58630397Y-67478930D01*
X58650834Y-67526862D01*
X58655951Y-67539368D01*
X58636030Y-67541180D01*
X58580965Y-67542724D01*
X58497942Y-67543886D01*
X58394152Y-67544549D01*
X58327476Y-67544659D01*
X57998869Y-67544659D01*
X57977142Y-67486451D01*
X57965586Y-67456511D01*
X57939980Y-67390852D01*
X57901769Y-67293154D01*
X57852393Y-67167094D01*
X57793295Y-67016353D01*
X57725918Y-66844609D01*
X57651703Y-66655540D01*
X57572092Y-66452825D01*
X57501416Y-66272939D01*
X57406245Y-66030670D01*
X57325401Y-65824405D01*
X57257713Y-65650754D01*
X57202015Y-65506324D01*
X57157136Y-65387725D01*
X57121910Y-65291565D01*
X57095167Y-65214452D01*
X57075738Y-65152996D01*
X57062456Y-65103806D01*
X57054152Y-65063489D01*
X57049656Y-65028654D01*
X57047802Y-64995911D01*
X57047419Y-64961867D01*
X57047417Y-64955314D01*
X57047417Y-64792993D01*
X58952417Y-64792993D01*
X58952417Y-65300372D01*
G36*
X62384203Y-65552316D02*
G01*
X62542411Y-65605734D01*
X62680103Y-65691002D01*
X62788875Y-65802636D01*
X62847084Y-65880034D01*
X62847084Y-65576159D01*
X63460917Y-65576159D01*
X63460917Y-67544659D01*
X62849913Y-67544659D01*
X62843207Y-66914951D01*
X62841037Y-66724696D01*
X62838386Y-66571732D01*
X62834313Y-66451021D01*
X62827877Y-66357522D01*
X62818138Y-66286196D01*
X62804153Y-66232004D01*
X62784983Y-66189906D01*
X62759686Y-66154863D01*
X62727322Y-66121835D01*
X62688678Y-66087301D01*
X62598722Y-66032980D01*
X62500082Y-66013513D01*
X62402338Y-66027051D01*
X62315070Y-66071741D01*
X62247860Y-66145734D01*
X62232052Y-66175521D01*
X62220533Y-66203963D01*
X62211426Y-66236214D01*
X62204446Y-66277361D01*
X62199309Y-66332494D01*
X62195732Y-66406701D01*
X62193431Y-66505073D01*
X62192120Y-66632696D01*
X62191518Y-66794661D01*
X62191382Y-66904368D01*
X62190917Y-67544659D01*
X61551411Y-67544659D01*
X61560931Y-66819701D01*
X61563653Y-66623355D01*
X61566349Y-66464253D01*
X61569351Y-66337306D01*
X61572993Y-66237428D01*
X61577605Y-66159529D01*
X61583521Y-66098522D01*
X61591073Y-66049318D01*
X61600592Y-66006831D01*
X61612412Y-65965970D01*
X61617782Y-65949179D01*
X61685402Y-65801139D01*
X61780993Y-65684537D01*
X61903052Y-65600422D01*
X62050073Y-65549847D01*
X62212084Y-65533826D01*
X62384203Y-65552316D01*
G37*
X62384203Y-65552316D02*
X62542411Y-65605734D01*
X62680103Y-65691002D01*
X62788875Y-65802636D01*
X62847084Y-65880034D01*
X62847084Y-65576159D01*
X63460917Y-65576159D01*
X63460917Y-67544659D01*
X62849913Y-67544659D01*
X62843207Y-66914951D01*
X62841037Y-66724696D01*
X62838386Y-66571732D01*
X62834313Y-66451021D01*
X62827877Y-66357522D01*
X62818138Y-66286196D01*
X62804153Y-66232004D01*
X62784983Y-66189906D01*
X62759686Y-66154863D01*
X62727322Y-66121835D01*
X62688678Y-66087301D01*
X62598722Y-66032980D01*
X62500082Y-66013513D01*
X62402338Y-66027051D01*
X62315070Y-66071741D01*
X62247860Y-66145734D01*
X62232052Y-66175521D01*
X62220533Y-66203963D01*
X62211426Y-66236214D01*
X62204446Y-66277361D01*
X62199309Y-66332494D01*
X62195732Y-66406701D01*
X62193431Y-66505073D01*
X62192120Y-66632696D01*
X62191518Y-66794661D01*
X62191382Y-66904368D01*
X62190917Y-67544659D01*
X61551411Y-67544659D01*
X61560931Y-66819701D01*
X61563653Y-66623355D01*
X61566349Y-66464253D01*
X61569351Y-66337306D01*
X61572993Y-66237428D01*
X61577605Y-66159529D01*
X61583521Y-66098522D01*
X61591073Y-66049318D01*
X61600592Y-66006831D01*
X61612412Y-65965970D01*
X61617782Y-65949179D01*
X61685402Y-65801139D01*
X61780993Y-65684537D01*
X61903052Y-65600422D01*
X62050073Y-65549847D01*
X62212084Y-65533826D01*
X62384203Y-65552316D01*
G36*
X67141791Y-65752605D02*
G01*
X67802885Y-65752605D01*
X67825782Y-65863559D01*
X67874296Y-65960861D01*
X67948520Y-66035112D01*
X67958943Y-66041894D01*
X68053917Y-66084948D01*
X68175954Y-66111774D01*
X68331158Y-66123637D01*
X68355709Y-66124173D01*
X68498584Y-66126493D01*
X68498584Y-65296309D01*
X68271042Y-65304156D01*
X68162845Y-65309223D01*
X68086453Y-65316908D01*
X68031342Y-65329144D01*
X67986989Y-65347862D01*
X67965627Y-65360213D01*
X67886976Y-65431802D01*
X67833574Y-65527328D01*
X67805513Y-65637395D01*
X67802885Y-65752605D01*
X67141791Y-65752605D01*
X67135896Y-65709573D01*
X67144462Y-65518940D01*
X67185792Y-65334977D01*
X67259728Y-65178000D01*
X67366296Y-65047977D01*
X67505525Y-64944881D01*
X67677440Y-64868682D01*
X67762375Y-64843936D01*
X67817816Y-64832888D01*
X67891516Y-64823699D01*
X67988062Y-64816095D01*
X68112042Y-64809802D01*
X68268044Y-64804547D01*
X68460655Y-64800055D01*
X68514459Y-64799030D01*
X69133584Y-64787667D01*
X69133584Y-67544659D01*
X68498584Y-67544659D01*
X68498584Y-66592159D01*
X68238447Y-66592159D01*
X68069621Y-66587837D01*
X67930186Y-66573214D01*
X67807928Y-66545802D01*
X67690633Y-66503115D01*
X67606150Y-66463426D01*
X67447679Y-66361098D01*
X67319789Y-66231218D01*
X67224110Y-66077117D01*
X67162270Y-65902124D01*
X67141791Y-65752605D01*
G37*
X67141791Y-65752605D02*
X67802885Y-65752605D01*
X67825782Y-65863559D01*
X67874296Y-65960861D01*
X67948520Y-66035112D01*
X67958943Y-66041894D01*
X68053917Y-66084948D01*
X68175954Y-66111774D01*
X68331158Y-66123637D01*
X68355709Y-66124173D01*
X68498584Y-66126493D01*
X68498584Y-65296309D01*
X68271042Y-65304156D01*
X68162845Y-65309223D01*
X68086453Y-65316908D01*
X68031342Y-65329144D01*
X67986989Y-65347862D01*
X67965627Y-65360213D01*
X67886976Y-65431802D01*
X67833574Y-65527328D01*
X67805513Y-65637395D01*
X67802885Y-65752605D01*
X67141791Y-65752605D01*
X67135896Y-65709573D01*
X67144462Y-65518940D01*
X67185792Y-65334977D01*
X67259728Y-65178000D01*
X67366296Y-65047977D01*
X67505525Y-64944881D01*
X67677440Y-64868682D01*
X67762375Y-64843936D01*
X67817816Y-64832888D01*
X67891516Y-64823699D01*
X67988062Y-64816095D01*
X68112042Y-64809802D01*
X68268044Y-64804547D01*
X68460655Y-64800055D01*
X68514459Y-64799030D01*
X69133584Y-64787667D01*
X69133584Y-67544659D01*
X68498584Y-67544659D01*
X68498584Y-66592159D01*
X68238447Y-66592159D01*
X68069621Y-66587837D01*
X67930186Y-66573214D01*
X67807928Y-66545802D01*
X67690633Y-66503115D01*
X67606150Y-66463426D01*
X67447679Y-66361098D01*
X67319789Y-66231218D01*
X67224110Y-66077117D01*
X67162270Y-65902124D01*
X67141791Y-65752605D01*
G36*
X72604917Y-67544659D02*
G01*
X71993913Y-67544659D01*
X71987207Y-66914951D01*
X71985217Y-66735171D01*
X71983230Y-66592585D01*
X71980826Y-66482057D01*
X71977587Y-66398448D01*
X71973093Y-66336623D01*
X71966924Y-66291444D01*
X71958663Y-66257774D01*
X71947888Y-66230476D01*
X71934182Y-66204413D01*
X71928390Y-66194238D01*
X71852660Y-66097400D01*
X71758560Y-66038010D01*
X71647827Y-66017151D01*
X71644133Y-66017131D01*
X71531089Y-66033718D01*
X71444232Y-66083533D01*
X71385396Y-66162602D01*
X71374002Y-66188830D01*
X71364873Y-66219968D01*
X71357693Y-66260976D01*
X71352146Y-66316815D01*
X71347917Y-66392445D01*
X71344688Y-66492825D01*
X71342145Y-66622917D01*
X71339971Y-66787679D01*
X71338830Y-66893784D01*
X71332160Y-67544659D01*
X70718180Y-67544659D01*
X70725852Y-66798534D01*
X70728366Y-66579490D01*
X70731537Y-66398181D01*
X70736191Y-66250007D01*
X70743158Y-66130371D01*
X70753263Y-66034674D01*
X70767336Y-65958318D01*
X70786203Y-65896704D01*
X70810692Y-65845233D01*
X70841631Y-65799307D01*
X70879848Y-65754328D01*
X70921714Y-65710273D01*
X70995047Y-65642055D01*
X71063340Y-65598188D01*
X71144482Y-65567439D01*
X71153320Y-65564846D01*
X71323244Y-65535599D01*
X71492053Y-65543430D01*
X71652256Y-65586432D01*
X71796363Y-65662698D01*
X71904120Y-65756036D01*
X71991084Y-65850380D01*
X71991084Y-64644826D01*
X72604917Y-64644826D01*
X72604917Y-67544659D01*
G37*
X72604917Y-67544659D02*
X71993913Y-67544659D01*
X71987207Y-66914951D01*
X71985217Y-66735171D01*
X71983230Y-66592585D01*
X71980826Y-66482057D01*
X71977587Y-66398448D01*
X71973093Y-66336623D01*
X71966924Y-66291444D01*
X71958663Y-66257774D01*
X71947888Y-66230476D01*
X71934182Y-66204413D01*
X71928390Y-66194238D01*
X71852660Y-66097400D01*
X71758560Y-66038010D01*
X71647827Y-66017151D01*
X71644133Y-66017131D01*
X71531089Y-66033718D01*
X71444232Y-66083533D01*
X71385396Y-66162602D01*
X71374002Y-66188830D01*
X71364873Y-66219968D01*
X71357693Y-66260976D01*
X71352146Y-66316815D01*
X71347917Y-66392445D01*
X71344688Y-66492825D01*
X71342145Y-66622917D01*
X71339971Y-66787679D01*
X71338830Y-66893784D01*
X71332160Y-67544659D01*
X70718180Y-67544659D01*
X70725852Y-66798534D01*
X70728366Y-66579490D01*
X70731537Y-66398181D01*
X70736191Y-66250007D01*
X70743158Y-66130371D01*
X70753263Y-66034674D01*
X70767336Y-65958318D01*
X70786203Y-65896704D01*
X70810692Y-65845233D01*
X70841631Y-65799307D01*
X70879848Y-65754328D01*
X70921714Y-65710273D01*
X70995047Y-65642055D01*
X71063340Y-65598188D01*
X71144482Y-65567439D01*
X71153320Y-65564846D01*
X71323244Y-65535599D01*
X71492053Y-65543430D01*
X71652256Y-65586432D01*
X71796363Y-65662698D01*
X71904120Y-65756036D01*
X71991084Y-65850380D01*
X71991084Y-64644826D01*
X72604917Y-64644826D01*
X72604917Y-67544659D01*
G36*
X77134584Y-65300993D02*
G01*
X76510167Y-65300993D01*
X76352481Y-65301419D01*
X76209419Y-65302624D01*
X76086200Y-65304499D01*
X75988040Y-65306934D01*
X75920157Y-65309820D01*
X75887768Y-65313047D01*
X75885750Y-65314102D01*
X75893938Y-65335407D01*
X75917500Y-65392025D01*
X75954932Y-65480446D01*
X76004730Y-65597161D01*
X76065390Y-65738658D01*
X76135408Y-65901429D01*
X76213281Y-66081963D01*
X76297503Y-66276750D01*
X76362000Y-66425625D01*
X76449882Y-66628491D01*
X76532512Y-66819576D01*
X76608387Y-66995384D01*
X76676005Y-67152414D01*
X76733862Y-67287168D01*
X76780457Y-67396148D01*
X76814285Y-67475855D01*
X76833845Y-67522790D01*
X76838250Y-67534349D01*
X76818290Y-67537899D01*
X76763232Y-67540921D01*
X76680311Y-67543185D01*
X76576761Y-67544462D01*
X76513516Y-67544659D01*
X76188781Y-67544659D01*
X75708931Y-66322284D01*
X75610827Y-66072260D01*
X75527093Y-65858367D01*
X75456591Y-65677345D01*
X75398186Y-65525933D01*
X75350740Y-65400872D01*
X75313117Y-65298901D01*
X75284181Y-65216759D01*
X75262795Y-65151186D01*
X75247823Y-65098923D01*
X75238128Y-65056708D01*
X75232573Y-65021282D01*
X75230023Y-64989384D01*
X75229340Y-64957754D01*
X75229332Y-64946451D01*
X75229584Y-64792993D01*
X77134584Y-64792993D01*
X77134584Y-65300993D01*
G37*
X77134584Y-65300993D02*
X76510167Y-65300993D01*
X76352481Y-65301419D01*
X76209419Y-65302624D01*
X76086200Y-65304499D01*
X75988040Y-65306934D01*
X75920157Y-65309820D01*
X75887768Y-65313047D01*
X75885750Y-65314102D01*
X75893938Y-65335407D01*
X75917500Y-65392025D01*
X75954932Y-65480446D01*
X76004730Y-65597161D01*
X76065390Y-65738658D01*
X76135408Y-65901429D01*
X76213281Y-66081963D01*
X76297503Y-66276750D01*
X76362000Y-66425625D01*
X76449882Y-66628491D01*
X76532512Y-66819576D01*
X76608387Y-66995384D01*
X76676005Y-67152414D01*
X76733862Y-67287168D01*
X76780457Y-67396148D01*
X76814285Y-67475855D01*
X76833845Y-67522790D01*
X76838250Y-67534349D01*
X76818290Y-67537899D01*
X76763232Y-67540921D01*
X76680311Y-67543185D01*
X76576761Y-67544462D01*
X76513516Y-67544659D01*
X76188781Y-67544659D01*
X75708931Y-66322284D01*
X75610827Y-66072260D01*
X75527093Y-65858367D01*
X75456591Y-65677345D01*
X75398186Y-65525933D01*
X75350740Y-65400872D01*
X75313117Y-65298901D01*
X75284181Y-65216759D01*
X75262795Y-65151186D01*
X75247823Y-65098923D01*
X75238128Y-65056708D01*
X75232573Y-65021282D01*
X75230023Y-64989384D01*
X75229340Y-64957754D01*
X75229332Y-64946451D01*
X75229584Y-64792993D01*
X77134584Y-64792993D01*
X77134584Y-65300993D01*
G36*
X80283125Y-64797718D02*
G01*
X80595334Y-64803576D01*
X80600780Y-66174118D01*
X80606226Y-67544659D01*
X79970917Y-67544659D01*
X79969931Y-66883201D01*
X79968946Y-66221743D01*
X79918723Y-66316993D01*
X79894536Y-66358000D01*
X79849895Y-66428884D01*
X79788150Y-66524516D01*
X79712650Y-66639764D01*
X79626744Y-66769498D01*
X79533782Y-66908589D01*
X79490341Y-66973159D01*
X79112183Y-67534076D01*
X78716050Y-67539835D01*
X78591823Y-67540969D01*
X78483550Y-67540676D01*
X78397779Y-67539079D01*
X78341057Y-67536301D01*
X78319932Y-67532466D01*
X78319917Y-67532349D01*
X78331938Y-67512884D01*
X78366244Y-67462903D01*
X78420198Y-67386112D01*
X78491165Y-67286216D01*
X78576509Y-67166921D01*
X78673594Y-67031930D01*
X78779783Y-66884951D01*
X78818954Y-66830890D01*
X78928120Y-66680043D01*
X79029457Y-66539441D01*
X79120269Y-66412867D01*
X79197861Y-66304103D01*
X79259539Y-66216931D01*
X79302606Y-66155134D01*
X79324369Y-66122493D01*
X79326436Y-66118710D01*
X79316250Y-66096768D01*
X79283559Y-66044737D01*
X79231076Y-65966532D01*
X79161513Y-65866067D01*
X79077582Y-65747255D01*
X78981997Y-65614011D01*
X78877469Y-65470249D01*
X78869777Y-65459743D01*
X78764518Y-65315622D01*
X78667596Y-65182125D01*
X78581773Y-65063115D01*
X78509811Y-64962457D01*
X78454469Y-64884013D01*
X78418510Y-64831648D01*
X78404695Y-64809225D01*
X78404629Y-64808868D01*
X78424645Y-64803707D01*
X78480191Y-64799248D01*
X78564462Y-64795783D01*
X78670657Y-64793608D01*
X78771734Y-64792993D01*
X79138884Y-64792993D01*
X79521199Y-65369784D01*
X79615111Y-65511887D01*
X79702684Y-65645194D01*
X79780837Y-65764957D01*
X79846494Y-65866428D01*
X79896575Y-65944860D01*
X79928003Y-65995506D01*
X79936368Y-66010076D01*
X79945663Y-66025457D01*
X79953041Y-66029063D01*
X79958727Y-66016986D01*
X79962951Y-65985322D01*
X79965941Y-65930165D01*
X79967924Y-65847609D01*
X79969129Y-65733747D01*
X79969783Y-65584674D01*
X79970069Y-65432718D01*
X79970917Y-64791861D01*
X80283125Y-64797718D01*
G37*
X80283125Y-64797718D02*
X80595334Y-64803576D01*
X80600780Y-66174118D01*
X80606226Y-67544659D01*
X79970917Y-67544659D01*
X79969931Y-66883201D01*
X79968946Y-66221743D01*
X79918723Y-66316993D01*
X79894536Y-66358000D01*
X79849895Y-66428884D01*
X79788150Y-66524516D01*
X79712650Y-66639764D01*
X79626744Y-66769498D01*
X79533782Y-66908589D01*
X79490341Y-66973159D01*
X79112183Y-67534076D01*
X78716050Y-67539835D01*
X78591823Y-67540969D01*
X78483550Y-67540676D01*
X78397779Y-67539079D01*
X78341057Y-67536301D01*
X78319932Y-67532466D01*
X78319917Y-67532349D01*
X78331938Y-67512884D01*
X78366244Y-67462903D01*
X78420198Y-67386112D01*
X78491165Y-67286216D01*
X78576509Y-67166921D01*
X78673594Y-67031930D01*
X78779783Y-66884951D01*
X78818954Y-66830890D01*
X78928120Y-66680043D01*
X79029457Y-66539441D01*
X79120269Y-66412867D01*
X79197861Y-66304103D01*
X79259539Y-66216931D01*
X79302606Y-66155134D01*
X79324369Y-66122493D01*
X79326436Y-66118710D01*
X79316250Y-66096768D01*
X79283559Y-66044737D01*
X79231076Y-65966532D01*
X79161513Y-65866067D01*
X79077582Y-65747255D01*
X78981997Y-65614011D01*
X78877469Y-65470249D01*
X78869777Y-65459743D01*
X78764518Y-65315622D01*
X78667596Y-65182125D01*
X78581773Y-65063115D01*
X78509811Y-64962457D01*
X78454469Y-64884013D01*
X78418510Y-64831648D01*
X78404695Y-64809225D01*
X78404629Y-64808868D01*
X78424645Y-64803707D01*
X78480191Y-64799248D01*
X78564462Y-64795783D01*
X78670657Y-64793608D01*
X78771734Y-64792993D01*
X79138884Y-64792993D01*
X79521199Y-65369784D01*
X79615111Y-65511887D01*
X79702684Y-65645194D01*
X79780837Y-65764957D01*
X79846494Y-65866428D01*
X79896575Y-65944860D01*
X79928003Y-65995506D01*
X79936368Y-66010076D01*
X79945663Y-66025457D01*
X79953041Y-66029063D01*
X79958727Y-66016986D01*
X79962951Y-65985322D01*
X79965941Y-65930165D01*
X79967924Y-65847609D01*
X79969129Y-65733747D01*
X79969783Y-65584674D01*
X79970069Y-65432718D01*
X79970917Y-64791861D01*
X80283125Y-64797718D01*
G36*
X83188250Y-66507493D02*
G01*
X83738584Y-66507493D01*
X84396051Y-66507493D01*
X84324804Y-66396368D01*
X84288877Y-66340449D01*
X84235689Y-66257817D01*
X84170943Y-66157324D01*
X84100341Y-66047822D01*
X84055506Y-65978326D01*
X83985122Y-65868407D01*
X83918241Y-65762425D01*
X83860248Y-65669025D01*
X83816528Y-65596851D01*
X83798403Y-65565576D01*
X83739350Y-65459743D01*
X83738584Y-66507493D01*
X83188250Y-66507493D01*
X83188250Y-64791830D01*
X83487724Y-64797703D01*
X83787197Y-64803576D01*
X84355557Y-65679711D01*
X84923917Y-66555847D01*
X84923917Y-66951993D01*
X83738584Y-66951993D01*
X83738584Y-67544659D01*
X83188250Y-67544659D01*
X83188250Y-66951993D01*
X82849584Y-66951993D01*
X82849584Y-66507493D01*
X83188250Y-66507493D01*
G37*
X83188250Y-66507493D02*
X83738584Y-66507493D01*
X84396051Y-66507493D01*
X84324804Y-66396368D01*
X84288877Y-66340449D01*
X84235689Y-66257817D01*
X84170943Y-66157324D01*
X84100341Y-66047822D01*
X84055506Y-65978326D01*
X83985122Y-65868407D01*
X83918241Y-65762425D01*
X83860248Y-65669025D01*
X83816528Y-65596851D01*
X83798403Y-65565576D01*
X83739350Y-65459743D01*
X83738584Y-66507493D01*
X83188250Y-66507493D01*
X83188250Y-64791830D01*
X83487724Y-64797703D01*
X83787197Y-64803576D01*
X84355557Y-65679711D01*
X84923917Y-66555847D01*
X84923917Y-66951993D01*
X83738584Y-66951993D01*
X83738584Y-67544659D01*
X83188250Y-67544659D01*
X83188250Y-66951993D01*
X82849584Y-66951993D01*
X82849584Y-66507493D01*
X83188250Y-66507493D01*
G36*
X87082917Y-67544659D02*
G01*
X86469084Y-67544659D01*
X86469084Y-66944568D01*
X86468114Y-66728359D01*
X86465216Y-66552763D01*
X86460404Y-66418197D01*
X86453693Y-66325074D01*
X86445099Y-66273810D01*
X86444679Y-66272526D01*
X86387891Y-66154853D01*
X86309416Y-66073448D01*
X86208779Y-66027942D01*
X86114301Y-66017131D01*
X86014654Y-66032606D01*
X85936027Y-66081521D01*
X85872744Y-66167614D01*
X85865834Y-66180775D01*
X85853709Y-66207303D01*
X85844028Y-66237278D01*
X85836445Y-66275752D01*
X85830614Y-66327778D01*
X85826189Y-66398407D01*
X85822826Y-66492692D01*
X85820179Y-66615683D01*
X85817902Y-66772433D01*
X85816349Y-66904368D01*
X85809199Y-67544659D01*
X85199084Y-67544659D01*
X85199243Y-66893784D01*
X85200006Y-66724481D01*
X85202087Y-66562392D01*
X85205297Y-66414152D01*
X85209448Y-66286398D01*
X85214354Y-66185768D01*
X85219826Y-66118898D01*
X85221501Y-66106714D01*
X85266377Y-65928552D01*
X85337671Y-65783395D01*
X85435096Y-65671475D01*
X85558364Y-65593026D01*
X85707189Y-65548282D01*
X85881283Y-65537476D01*
X85919430Y-65539430D01*
X86064484Y-65560252D01*
X86186368Y-65604817D01*
X86299109Y-65679436D01*
X86368542Y-65741593D01*
X86469084Y-65839151D01*
X86469084Y-64644826D01*
X87082917Y-64644826D01*
X87082917Y-67544659D01*
G37*
X87082917Y-67544659D02*
X86469084Y-67544659D01*
X86469084Y-66944568D01*
X86468114Y-66728359D01*
X86465216Y-66552763D01*
X86460404Y-66418197D01*
X86453693Y-66325074D01*
X86445099Y-66273810D01*
X86444679Y-66272526D01*
X86387891Y-66154853D01*
X86309416Y-66073448D01*
X86208779Y-66027942D01*
X86114301Y-66017131D01*
X86014654Y-66032606D01*
X85936027Y-66081521D01*
X85872744Y-66167614D01*
X85865834Y-66180775D01*
X85853709Y-66207303D01*
X85844028Y-66237278D01*
X85836445Y-66275752D01*
X85830614Y-66327778D01*
X85826189Y-66398407D01*
X85822826Y-66492692D01*
X85820179Y-66615683D01*
X85817902Y-66772433D01*
X85816349Y-66904368D01*
X85809199Y-67544659D01*
X85199084Y-67544659D01*
X85199243Y-66893784D01*
X85200006Y-66724481D01*
X85202087Y-66562392D01*
X85205297Y-66414152D01*
X85209448Y-66286398D01*
X85214354Y-66185768D01*
X85219826Y-66118898D01*
X85221501Y-66106714D01*
X85266377Y-65928552D01*
X85337671Y-65783395D01*
X85435096Y-65671475D01*
X85558364Y-65593026D01*
X85707189Y-65548282D01*
X85881283Y-65537476D01*
X85919430Y-65539430D01*
X86064484Y-65560252D01*
X86186368Y-65604817D01*
X86299109Y-65679436D01*
X86368542Y-65741593D01*
X86469084Y-65839151D01*
X86469084Y-64644826D01*
X87082917Y-64644826D01*
X87082917Y-67544659D01*
G36*
X60291209Y-60729317D02*
G01*
X60592834Y-60729641D01*
X60778577Y-61337858D01*
X60826833Y-61495869D01*
X60872408Y-61645097D01*
X60913462Y-61779510D01*
X60948150Y-61893078D01*
X60974633Y-61979770D01*
X60991066Y-62033554D01*
X60993442Y-62041326D01*
X61010887Y-62095581D01*
X61020103Y-62112321D01*
X61024369Y-62094770D01*
X61025723Y-62073076D01*
X61032598Y-62037526D01*
X61050566Y-61967065D01*
X61078071Y-61867181D01*
X61113553Y-61743360D01*
X61155455Y-61601090D01*
X61202220Y-61445858D01*
X61224024Y-61374576D01*
X61419167Y-60739576D01*
X61765179Y-60733748D01*
X61897624Y-60732164D01*
X61992614Y-60732762D01*
X62054985Y-60735848D01*
X62089574Y-60741726D01*
X62101217Y-60750701D01*
X62100660Y-60754915D01*
X62090778Y-60779401D01*
X62066520Y-60839166D01*
X62029481Y-60930286D01*
X61981259Y-61048836D01*
X61923449Y-61190892D01*
X61857651Y-61352528D01*
X61785459Y-61529820D01*
X61708470Y-61718844D01*
X61705130Y-61727043D01*
X61320131Y-62672178D01*
X61386942Y-62832664D01*
X61447128Y-62954544D01*
X61512471Y-63039072D01*
X61587766Y-63091226D01*
X61656439Y-63112628D01*
X61736077Y-63116220D01*
X61833491Y-63105005D01*
X61928028Y-63081945D01*
X61964069Y-63068518D01*
X61980021Y-63064439D01*
X61990423Y-63072946D01*
X61996164Y-63100576D01*
X61998133Y-63153868D01*
X61997218Y-63239357D01*
X61995819Y-63302016D01*
X61989834Y-63551768D01*
X61933527Y-63566791D01*
X61849809Y-63582034D01*
X61743041Y-63591916D01*
X61631379Y-63595605D01*
X61532981Y-63592268D01*
X61490733Y-63587074D01*
X61325195Y-63536524D01*
X61174193Y-63446311D01*
X61037919Y-63316601D01*
X60916566Y-63147559D01*
X60858392Y-63042130D01*
X60840765Y-63002393D01*
X60810739Y-62929140D01*
X60769963Y-62826722D01*
X60720088Y-62699490D01*
X60662762Y-62551796D01*
X60599634Y-62387991D01*
X60532355Y-62212426D01*
X60462573Y-62029453D01*
X60391938Y-61843421D01*
X60322099Y-61658684D01*
X60254705Y-61479591D01*
X60191406Y-61310494D01*
X60133851Y-61155745D01*
X60083690Y-61019693D01*
X60042572Y-60906692D01*
X60012146Y-60821091D01*
X59994061Y-60767242D01*
X59989584Y-60750104D01*
X60010072Y-60741390D01*
X60068912Y-60734839D01*
X60162162Y-60730723D01*
X60285883Y-60729313D01*
X60291209Y-60729317D01*
G37*
X60291209Y-60729317D02*
X60592834Y-60729641D01*
X60778577Y-61337858D01*
X60826833Y-61495869D01*
X60872408Y-61645097D01*
X60913462Y-61779510D01*
X60948150Y-61893078D01*
X60974633Y-61979770D01*
X60991066Y-62033554D01*
X60993442Y-62041326D01*
X61010887Y-62095581D01*
X61020103Y-62112321D01*
X61024369Y-62094770D01*
X61025723Y-62073076D01*
X61032598Y-62037526D01*
X61050566Y-61967065D01*
X61078071Y-61867181D01*
X61113553Y-61743360D01*
X61155455Y-61601090D01*
X61202220Y-61445858D01*
X61224024Y-61374576D01*
X61419167Y-60739576D01*
X61765179Y-60733748D01*
X61897624Y-60732164D01*
X61992614Y-60732762D01*
X62054985Y-60735848D01*
X62089574Y-60741726D01*
X62101217Y-60750701D01*
X62100660Y-60754915D01*
X62090778Y-60779401D01*
X62066520Y-60839166D01*
X62029481Y-60930286D01*
X61981259Y-61048836D01*
X61923449Y-61190892D01*
X61857651Y-61352528D01*
X61785459Y-61529820D01*
X61708470Y-61718844D01*
X61705130Y-61727043D01*
X61320131Y-62672178D01*
X61386942Y-62832664D01*
X61447128Y-62954544D01*
X61512471Y-63039072D01*
X61587766Y-63091226D01*
X61656439Y-63112628D01*
X61736077Y-63116220D01*
X61833491Y-63105005D01*
X61928028Y-63081945D01*
X61964069Y-63068518D01*
X61980021Y-63064439D01*
X61990423Y-63072946D01*
X61996164Y-63100576D01*
X61998133Y-63153868D01*
X61997218Y-63239357D01*
X61995819Y-63302016D01*
X61989834Y-63551768D01*
X61933527Y-63566791D01*
X61849809Y-63582034D01*
X61743041Y-63591916D01*
X61631379Y-63595605D01*
X61532981Y-63592268D01*
X61490733Y-63587074D01*
X61325195Y-63536524D01*
X61174193Y-63446311D01*
X61037919Y-63316601D01*
X60916566Y-63147559D01*
X60858392Y-63042130D01*
X60840765Y-63002393D01*
X60810739Y-62929140D01*
X60769963Y-62826722D01*
X60720088Y-62699490D01*
X60662762Y-62551796D01*
X60599634Y-62387991D01*
X60532355Y-62212426D01*
X60462573Y-62029453D01*
X60391938Y-61843421D01*
X60322099Y-61658684D01*
X60254705Y-61479591D01*
X60191406Y-61310494D01*
X60133851Y-61155745D01*
X60083690Y-61019693D01*
X60042572Y-60906692D01*
X60012146Y-60821091D01*
X59994061Y-60767242D01*
X59989584Y-60750104D01*
X60010072Y-60741390D01*
X60068912Y-60734839D01*
X60162162Y-60730723D01*
X60285883Y-60729313D01*
X60291209Y-60729317D01*
G36*
X56141398Y-61369284D02*
G01*
X56143381Y-61551823D01*
X56145483Y-61697012D01*
X56148054Y-61809835D01*
X56151441Y-61895273D01*
X56155992Y-61958311D01*
X56162056Y-62003931D01*
X56169981Y-62037117D01*
X56180115Y-62062850D01*
X56191311Y-62083587D01*
X56239485Y-62146172D01*
X56300019Y-62201696D01*
X56307728Y-62207169D01*
X56360005Y-62236686D01*
X56413752Y-62249391D01*
X56487501Y-62249191D01*
X56502397Y-62248222D01*
X56582664Y-62238161D01*
X56638430Y-62217342D01*
X56687321Y-62179160D01*
X56687739Y-62178760D01*
X56735195Y-62119325D01*
X56769126Y-62052496D01*
X56772266Y-62042529D01*
X56777689Y-62002124D01*
X56782587Y-61925427D01*
X56786777Y-61818476D01*
X56790076Y-61687310D01*
X56792302Y-61537968D01*
X56793272Y-61376489D01*
X56793299Y-61348118D01*
X56793417Y-60728993D01*
X57407250Y-60728993D01*
X57406999Y-61432784D01*
X57406573Y-61642348D01*
X57405123Y-61814608D01*
X57402144Y-61954593D01*
X57397131Y-62067329D01*
X57389580Y-62157845D01*
X57378985Y-62231165D01*
X57364843Y-62292320D01*
X57346648Y-62346334D01*
X57323895Y-62398236D01*
X57306584Y-62432909D01*
X57224416Y-62550751D01*
X57112674Y-62640053D01*
X57044139Y-62675291D01*
X56946435Y-62706271D01*
X56829184Y-62725459D01*
X56708695Y-62731655D01*
X56601282Y-62723662D01*
X56550000Y-62711592D01*
X56419644Y-62658939D01*
X56314996Y-62593064D01*
X56227209Y-62511984D01*
X56137250Y-62416448D01*
X56137250Y-62697493D01*
X55523417Y-62697493D01*
X55523417Y-60728993D01*
X56134962Y-60728993D01*
X56141398Y-61369284D01*
G37*
X56141398Y-61369284D02*
X56143381Y-61551823D01*
X56145483Y-61697012D01*
X56148054Y-61809835D01*
X56151441Y-61895273D01*
X56155992Y-61958311D01*
X56162056Y-62003931D01*
X56169981Y-62037117D01*
X56180115Y-62062850D01*
X56191311Y-62083587D01*
X56239485Y-62146172D01*
X56300019Y-62201696D01*
X56307728Y-62207169D01*
X56360005Y-62236686D01*
X56413752Y-62249391D01*
X56487501Y-62249191D01*
X56502397Y-62248222D01*
X56582664Y-62238161D01*
X56638430Y-62217342D01*
X56687321Y-62179160D01*
X56687739Y-62178760D01*
X56735195Y-62119325D01*
X56769126Y-62052496D01*
X56772266Y-62042529D01*
X56777689Y-62002124D01*
X56782587Y-61925427D01*
X56786777Y-61818476D01*
X56790076Y-61687310D01*
X56792302Y-61537968D01*
X56793272Y-61376489D01*
X56793299Y-61348118D01*
X56793417Y-60728993D01*
X57407250Y-60728993D01*
X57406999Y-61432784D01*
X57406573Y-61642348D01*
X57405123Y-61814608D01*
X57402144Y-61954593D01*
X57397131Y-62067329D01*
X57389580Y-62157845D01*
X57378985Y-62231165D01*
X57364843Y-62292320D01*
X57346648Y-62346334D01*
X57323895Y-62398236D01*
X57306584Y-62432909D01*
X57224416Y-62550751D01*
X57112674Y-62640053D01*
X57044139Y-62675291D01*
X56946435Y-62706271D01*
X56829184Y-62725459D01*
X56708695Y-62731655D01*
X56601282Y-62723662D01*
X56550000Y-62711592D01*
X56419644Y-62658939D01*
X56314996Y-62593064D01*
X56227209Y-62511984D01*
X56137250Y-62416448D01*
X56137250Y-62697493D01*
X55523417Y-62697493D01*
X55523417Y-60728993D01*
X56134962Y-60728993D01*
X56141398Y-61369284D01*
G36*
X57757871Y-61692076D02*
G01*
X58391500Y-61692076D01*
X58398676Y-61852802D01*
X58421974Y-61979418D01*
X58464054Y-62077950D01*
X58527576Y-62154421D01*
X58615196Y-62214858D01*
X58624334Y-62219706D01*
X58705357Y-62244395D01*
X58807481Y-62251323D01*
X58913527Y-62240807D01*
X59006315Y-62213163D01*
X59007428Y-62212661D01*
X59089994Y-62160706D01*
X59152211Y-62085711D01*
X59199297Y-61980258D01*
X59219444Y-61911272D01*
X59240545Y-61775464D01*
X59238326Y-61635748D01*
X59214967Y-61501554D01*
X59172646Y-61382316D01*
X59113543Y-61287467D01*
X59064760Y-61241628D01*
X58952025Y-61185083D01*
X58826050Y-61161198D01*
X58705206Y-61172240D01*
X58593125Y-61212989D01*
X58510794Y-61275052D01*
X58447689Y-61366703D01*
X58440942Y-61380015D01*
X58417031Y-61435251D01*
X58402168Y-61491159D01*
X58394365Y-61560297D01*
X58391630Y-61655223D01*
X58391500Y-61692076D01*
X57757871Y-61692076D01*
X57756074Y-61629791D01*
X57779843Y-61437604D01*
X57833278Y-61257727D01*
X57916586Y-61098925D01*
X58039491Y-60951208D01*
X58186513Y-60836671D01*
X58358808Y-60754778D01*
X58557536Y-60704990D01*
X58783854Y-60686770D01*
X58804250Y-60686659D01*
X59035739Y-60703077D01*
X59240864Y-60752216D01*
X59419317Y-60833903D01*
X59570790Y-60947965D01*
X59694975Y-61094228D01*
X59772490Y-61230121D01*
X59806394Y-61304169D01*
X59829119Y-61364699D01*
X59843341Y-61424419D01*
X59851735Y-61496036D01*
X59856978Y-61592260D01*
X59858768Y-61639807D01*
X59860351Y-61756017D01*
X59857300Y-61866052D01*
X59850187Y-61956248D01*
X59843793Y-61997133D01*
X59785992Y-62173581D01*
X59694110Y-62335281D01*
X59573721Y-62474959D01*
X59430398Y-62585340D01*
X59366190Y-62620493D01*
X59203306Y-62681307D01*
X59016871Y-62719916D01*
X58820350Y-62734652D01*
X58627210Y-62723847D01*
X58583715Y-62717413D01*
X58385379Y-62664520D01*
X58206099Y-62576850D01*
X58050885Y-62457337D01*
X57952647Y-62347737D01*
X57860259Y-62193262D01*
X57796533Y-62016315D01*
X57761721Y-61825593D01*
X57757871Y-61692076D01*
G37*
X57757871Y-61692076D02*
X58391500Y-61692076D01*
X58398676Y-61852802D01*
X58421974Y-61979418D01*
X58464054Y-62077950D01*
X58527576Y-62154421D01*
X58615196Y-62214858D01*
X58624334Y-62219706D01*
X58705357Y-62244395D01*
X58807481Y-62251323D01*
X58913527Y-62240807D01*
X59006315Y-62213163D01*
X59007428Y-62212661D01*
X59089994Y-62160706D01*
X59152211Y-62085711D01*
X59199297Y-61980258D01*
X59219444Y-61911272D01*
X59240545Y-61775464D01*
X59238326Y-61635748D01*
X59214967Y-61501554D01*
X59172646Y-61382316D01*
X59113543Y-61287467D01*
X59064760Y-61241628D01*
X58952025Y-61185083D01*
X58826050Y-61161198D01*
X58705206Y-61172240D01*
X58593125Y-61212989D01*
X58510794Y-61275052D01*
X58447689Y-61366703D01*
X58440942Y-61380015D01*
X58417031Y-61435251D01*
X58402168Y-61491159D01*
X58394365Y-61560297D01*
X58391630Y-61655223D01*
X58391500Y-61692076D01*
X57757871Y-61692076D01*
X57756074Y-61629791D01*
X57779843Y-61437604D01*
X57833278Y-61257727D01*
X57916586Y-61098925D01*
X58039491Y-60951208D01*
X58186513Y-60836671D01*
X58358808Y-60754778D01*
X58557536Y-60704990D01*
X58783854Y-60686770D01*
X58804250Y-60686659D01*
X59035739Y-60703077D01*
X59240864Y-60752216D01*
X59419317Y-60833903D01*
X59570790Y-60947965D01*
X59694975Y-61094228D01*
X59772490Y-61230121D01*
X59806394Y-61304169D01*
X59829119Y-61364699D01*
X59843341Y-61424419D01*
X59851735Y-61496036D01*
X59856978Y-61592260D01*
X59858768Y-61639807D01*
X59860351Y-61756017D01*
X59857300Y-61866052D01*
X59850187Y-61956248D01*
X59843793Y-61997133D01*
X59785992Y-62173581D01*
X59694110Y-62335281D01*
X59573721Y-62474959D01*
X59430398Y-62585340D01*
X59366190Y-62620493D01*
X59203306Y-62681307D01*
X59016871Y-62719916D01*
X58820350Y-62734652D01*
X58627210Y-62723847D01*
X58583715Y-62717413D01*
X58385379Y-62664520D01*
X58206099Y-62576850D01*
X58050885Y-62457337D01*
X57952647Y-62347737D01*
X57860259Y-62193262D01*
X57796533Y-62016315D01*
X57761721Y-61825593D01*
X57757871Y-61692076D01*
G36*
X64021688Y-60692323D02*
G01*
X64206544Y-60716089D01*
X64363658Y-60764455D01*
X64497100Y-60838484D01*
X64561416Y-60890109D01*
X64661769Y-61007601D01*
X64724918Y-61142881D01*
X64749673Y-61291485D01*
X64734845Y-61448951D01*
X64722903Y-61495870D01*
X64693409Y-61575486D01*
X64651197Y-61640130D01*
X64584522Y-61707623D01*
X64581709Y-61710158D01*
X64539950Y-61745879D01*
X64497615Y-61776625D01*
X64448118Y-61805551D01*
X64384873Y-61835814D01*
X64301294Y-61870570D01*
X64190794Y-61912975D01*
X64049514Y-61965187D01*
X63941619Y-62013901D01*
X63873795Y-62067092D01*
X63843856Y-62126686D01*
X63841917Y-62148207D01*
X63860743Y-62210460D01*
X63913349Y-62257324D01*
X63993921Y-62288397D01*
X64096648Y-62303281D01*
X64215719Y-62301575D01*
X64345320Y-62282880D01*
X64479641Y-62246795D01*
X64597441Y-62200197D01*
X64753369Y-62128153D01*
X64747435Y-62385453D01*
X64741500Y-62642753D01*
X64593334Y-62681019D01*
X64474784Y-62704187D01*
X64332711Y-62720640D01*
X64182633Y-62729523D01*
X64040069Y-62729988D01*
X63920539Y-62721181D01*
X63904371Y-62718820D01*
X63715532Y-62673603D01*
X63554564Y-62603570D01*
X63424541Y-62510565D01*
X63328535Y-62396431D01*
X63308363Y-62361314D01*
X63263351Y-62236152D01*
X63246186Y-62096097D01*
X63257297Y-61956664D01*
X63293965Y-61839904D01*
X63338072Y-61764314D01*
X63397318Y-61698552D01*
X63477398Y-61638830D01*
X63584006Y-61581361D01*
X63722836Y-61522359D01*
X63832929Y-61481435D01*
X63925400Y-61445597D01*
X64007344Y-61408810D01*
X64067372Y-61376436D01*
X64088400Y-61361112D01*
X64130145Y-61300650D01*
X64133392Y-61240020D01*
X64101515Y-61185276D01*
X64037889Y-61142476D01*
X63953326Y-61118718D01*
X63833268Y-61110618D01*
X63708172Y-61123634D01*
X63568951Y-61159504D01*
X63406514Y-61219966D01*
X63392125Y-61225967D01*
X63376176Y-61229441D01*
X63365584Y-61219510D01*
X63359268Y-61189564D01*
X63356146Y-61132993D01*
X63355137Y-61043189D01*
X63355084Y-60999476D01*
X63355084Y-60757430D01*
X63466209Y-60730201D01*
X63535776Y-60717500D01*
X63632397Y-60705508D01*
X63740807Y-60695944D01*
X63805022Y-60692091D01*
X64021688Y-60692323D01*
G37*
X64021688Y-60692323D02*
X64206544Y-60716089D01*
X64363658Y-60764455D01*
X64497100Y-60838484D01*
X64561416Y-60890109D01*
X64661769Y-61007601D01*
X64724918Y-61142881D01*
X64749673Y-61291485D01*
X64734845Y-61448951D01*
X64722903Y-61495870D01*
X64693409Y-61575486D01*
X64651197Y-61640130D01*
X64584522Y-61707623D01*
X64581709Y-61710158D01*
X64539950Y-61745879D01*
X64497615Y-61776625D01*
X64448118Y-61805551D01*
X64384873Y-61835814D01*
X64301294Y-61870570D01*
X64190794Y-61912975D01*
X64049514Y-61965187D01*
X63941619Y-62013901D01*
X63873795Y-62067092D01*
X63843856Y-62126686D01*
X63841917Y-62148207D01*
X63860743Y-62210460D01*
X63913349Y-62257324D01*
X63993921Y-62288397D01*
X64096648Y-62303281D01*
X64215719Y-62301575D01*
X64345320Y-62282880D01*
X64479641Y-62246795D01*
X64597441Y-62200197D01*
X64753369Y-62128153D01*
X64747435Y-62385453D01*
X64741500Y-62642753D01*
X64593334Y-62681019D01*
X64474784Y-62704187D01*
X64332711Y-62720640D01*
X64182633Y-62729523D01*
X64040069Y-62729988D01*
X63920539Y-62721181D01*
X63904371Y-62718820D01*
X63715532Y-62673603D01*
X63554564Y-62603570D01*
X63424541Y-62510565D01*
X63328535Y-62396431D01*
X63308363Y-62361314D01*
X63263351Y-62236152D01*
X63246186Y-62096097D01*
X63257297Y-61956664D01*
X63293965Y-61839904D01*
X63338072Y-61764314D01*
X63397318Y-61698552D01*
X63477398Y-61638830D01*
X63584006Y-61581361D01*
X63722836Y-61522359D01*
X63832929Y-61481435D01*
X63925400Y-61445597D01*
X64007344Y-61408810D01*
X64067372Y-61376436D01*
X64088400Y-61361112D01*
X64130145Y-61300650D01*
X64133392Y-61240020D01*
X64101515Y-61185276D01*
X64037889Y-61142476D01*
X63953326Y-61118718D01*
X63833268Y-61110618D01*
X63708172Y-61123634D01*
X63568951Y-61159504D01*
X63406514Y-61219966D01*
X63392125Y-61225967D01*
X63376176Y-61229441D01*
X63365584Y-61219510D01*
X63359268Y-61189564D01*
X63356146Y-61132993D01*
X63355137Y-61043189D01*
X63355084Y-60999476D01*
X63355084Y-60757430D01*
X63466209Y-60730201D01*
X63535776Y-60717500D01*
X63632397Y-60705508D01*
X63740807Y-60695944D01*
X63805022Y-60692091D01*
X64021688Y-60692323D01*
G36*
X65407966Y-60151512D02*
G01*
X65466192Y-60163715D01*
X65549808Y-60184401D01*
X65651228Y-60211755D01*
X65700215Y-60225629D01*
X66000917Y-60312030D01*
X66000917Y-60728993D01*
X66297250Y-60728993D01*
X66297250Y-61194659D01*
X66000917Y-61194659D01*
X66000757Y-61644451D01*
X65999130Y-61849387D01*
X65994058Y-62017135D01*
X65985010Y-62152739D01*
X65971457Y-62261243D01*
X65952870Y-62347692D01*
X65928720Y-62417129D01*
X65917074Y-62441877D01*
X65838937Y-62554135D01*
X65735458Y-62642009D01*
X65643331Y-62687609D01*
X65569838Y-62705741D01*
X65470694Y-62720206D01*
X65361390Y-62729778D01*
X65257420Y-62733233D01*
X65174275Y-62729345D01*
X65154250Y-62726282D01*
X65097408Y-62713765D01*
X65029122Y-62697113D01*
X65021959Y-62695269D01*
X64942584Y-62674694D01*
X64942584Y-62440208D01*
X64942849Y-62338221D01*
X64944638Y-62271705D01*
X64949443Y-62233797D01*
X64958753Y-62217635D01*
X64974061Y-62216355D01*
X64990209Y-62220981D01*
X65113770Y-62249162D01*
X65211170Y-62245455D01*
X65284503Y-62209490D01*
X65324161Y-62162466D01*
X65338088Y-62136407D01*
X65348532Y-62106066D01*
X65355987Y-62065286D01*
X65360948Y-62007911D01*
X65363911Y-61927785D01*
X65365372Y-61818750D01*
X65365825Y-61674652D01*
X65365838Y-61644451D01*
X65365917Y-61194659D01*
X64942584Y-61194659D01*
X64942584Y-60728993D01*
X65365917Y-60728993D01*
X65365917Y-60444492D01*
X65367100Y-60339161D01*
X65370340Y-60249865D01*
X65375177Y-60184713D01*
X65381147Y-60151815D01*
X65382715Y-60149609D01*
X65407966Y-60151512D01*
G37*
X65407966Y-60151512D02*
X65466192Y-60163715D01*
X65549808Y-60184401D01*
X65651228Y-60211755D01*
X65700215Y-60225629D01*
X66000917Y-60312030D01*
X66000917Y-60728993D01*
X66297250Y-60728993D01*
X66297250Y-61194659D01*
X66000917Y-61194659D01*
X66000757Y-61644451D01*
X65999130Y-61849387D01*
X65994058Y-62017135D01*
X65985010Y-62152739D01*
X65971457Y-62261243D01*
X65952870Y-62347692D01*
X65928720Y-62417129D01*
X65917074Y-62441877D01*
X65838937Y-62554135D01*
X65735458Y-62642009D01*
X65643331Y-62687609D01*
X65569838Y-62705741D01*
X65470694Y-62720206D01*
X65361390Y-62729778D01*
X65257420Y-62733233D01*
X65174275Y-62729345D01*
X65154250Y-62726282D01*
X65097408Y-62713765D01*
X65029122Y-62697113D01*
X65021959Y-62695269D01*
X64942584Y-62674694D01*
X64942584Y-62440208D01*
X64942849Y-62338221D01*
X64944638Y-62271705D01*
X64949443Y-62233797D01*
X64958753Y-62217635D01*
X64974061Y-62216355D01*
X64990209Y-62220981D01*
X65113770Y-62249162D01*
X65211170Y-62245455D01*
X65284503Y-62209490D01*
X65324161Y-62162466D01*
X65338088Y-62136407D01*
X65348532Y-62106066D01*
X65355987Y-62065286D01*
X65360948Y-62007911D01*
X65363911Y-61927785D01*
X65365372Y-61818750D01*
X65365825Y-61674652D01*
X65365838Y-61644451D01*
X65365917Y-61194659D01*
X64942584Y-61194659D01*
X64942584Y-60728993D01*
X65365917Y-60728993D01*
X65365917Y-60444492D01*
X65367100Y-60339161D01*
X65370340Y-60249865D01*
X65375177Y-60184713D01*
X65381147Y-60151815D01*
X65382715Y-60149609D01*
X65407966Y-60151512D01*
G36*
X68943234Y-61818888D02*
G01*
X69514339Y-61818888D01*
X69518547Y-61887567D01*
X69519690Y-61901981D01*
X69546791Y-62042006D01*
X69603175Y-62151474D01*
X69688864Y-62230421D01*
X69732942Y-62254189D01*
X69838755Y-62288859D01*
X69933841Y-62288359D01*
X70014825Y-62260817D01*
X70085023Y-62213444D01*
X70122916Y-62148616D01*
X70134190Y-62057370D01*
X70120744Y-61977024D01*
X70078412Y-61913131D01*
X70004198Y-61863834D01*
X69895107Y-61827276D01*
X69748144Y-61801599D01*
X69715667Y-61797795D01*
X69640172Y-61788403D01*
X69577290Y-61778641D01*
X69548534Y-61772601D01*
X69527441Y-61769889D01*
X69516673Y-61782490D01*
X69514339Y-61818888D01*
X68943234Y-61818888D01*
X68943243Y-61808815D01*
X68943904Y-61653518D01*
X68945344Y-61530109D01*
X68947836Y-61433366D01*
X68951658Y-61358065D01*
X68957085Y-61298985D01*
X68964392Y-61250902D01*
X68973855Y-61208596D01*
X68985750Y-61166842D01*
X68987404Y-61161458D01*
X69018300Y-61075525D01*
X69055989Y-61007373D01*
X69111110Y-60939941D01*
X69151655Y-60898034D01*
X69229705Y-60826294D01*
X69305364Y-60773473D01*
X69387176Y-60736888D01*
X69483689Y-60713855D01*
X69603448Y-60701692D01*
X69754998Y-60697714D01*
X69789750Y-60697665D01*
X70031366Y-60709044D01*
X70238420Y-60742625D01*
X70412585Y-60798722D01*
X70469056Y-60825262D01*
X70530584Y-60857080D01*
X70530584Y-61078786D01*
X70528733Y-61176172D01*
X70523620Y-61249784D01*
X70515896Y-61292558D01*
X70510050Y-61300493D01*
X70481785Y-61291488D01*
X70428087Y-61267966D01*
X70365536Y-61237490D01*
X70219747Y-61175605D01*
X70070663Y-61134176D01*
X69926395Y-61113923D01*
X69795057Y-61115568D01*
X69684759Y-61139829D01*
X69623108Y-61171576D01*
X69586297Y-61210088D01*
X69551928Y-61265479D01*
X69526020Y-61324494D01*
X69514593Y-61373875D01*
X69520325Y-61397956D01*
X69543215Y-61403734D01*
X69600424Y-61413873D01*
X69684308Y-61427134D01*
X69787224Y-61442275D01*
X69833924Y-61448846D01*
X70000313Y-61473516D01*
X70131892Y-61497171D01*
X70236074Y-61521879D01*
X70320270Y-61549707D01*
X70391892Y-61582723D01*
X70458351Y-61622995D01*
X70458507Y-61623100D01*
X70570693Y-61723292D01*
X70651286Y-61850629D01*
X70698483Y-62002181D01*
X70701181Y-62017834D01*
X70710704Y-62184738D01*
X70685175Y-62337561D01*
X70626744Y-62471713D01*
X70537560Y-62582606D01*
X70419774Y-62665651D01*
X70391204Y-62679301D01*
X70303701Y-62706070D01*
X70192661Y-62723695D01*
X70076191Y-62730652D01*
X69972396Y-62725415D01*
X69931937Y-62718007D01*
X69777505Y-62659979D01*
X69646909Y-62571255D01*
X69564218Y-62481377D01*
X69514584Y-62414101D01*
X69514584Y-62697493D01*
X68943084Y-62697493D01*
X68943084Y-62001222D01*
X68943234Y-61818888D01*
G37*
X68943234Y-61818888D02*
X69514339Y-61818888D01*
X69518547Y-61887567D01*
X69519690Y-61901981D01*
X69546791Y-62042006D01*
X69603175Y-62151474D01*
X69688864Y-62230421D01*
X69732942Y-62254189D01*
X69838755Y-62288859D01*
X69933841Y-62288359D01*
X70014825Y-62260817D01*
X70085023Y-62213444D01*
X70122916Y-62148616D01*
X70134190Y-62057370D01*
X70120744Y-61977024D01*
X70078412Y-61913131D01*
X70004198Y-61863834D01*
X69895107Y-61827276D01*
X69748144Y-61801599D01*
X69715667Y-61797795D01*
X69640172Y-61788403D01*
X69577290Y-61778641D01*
X69548534Y-61772601D01*
X69527441Y-61769889D01*
X69516673Y-61782490D01*
X69514339Y-61818888D01*
X68943234Y-61818888D01*
X68943243Y-61808815D01*
X68943904Y-61653518D01*
X68945344Y-61530109D01*
X68947836Y-61433366D01*
X68951658Y-61358065D01*
X68957085Y-61298985D01*
X68964392Y-61250902D01*
X68973855Y-61208596D01*
X68985750Y-61166842D01*
X68987404Y-61161458D01*
X69018300Y-61075525D01*
X69055989Y-61007373D01*
X69111110Y-60939941D01*
X69151655Y-60898034D01*
X69229705Y-60826294D01*
X69305364Y-60773473D01*
X69387176Y-60736888D01*
X69483689Y-60713855D01*
X69603448Y-60701692D01*
X69754998Y-60697714D01*
X69789750Y-60697665D01*
X70031366Y-60709044D01*
X70238420Y-60742625D01*
X70412585Y-60798722D01*
X70469056Y-60825262D01*
X70530584Y-60857080D01*
X70530584Y-61078786D01*
X70528733Y-61176172D01*
X70523620Y-61249784D01*
X70515896Y-61292558D01*
X70510050Y-61300493D01*
X70481785Y-61291488D01*
X70428087Y-61267966D01*
X70365536Y-61237490D01*
X70219747Y-61175605D01*
X70070663Y-61134176D01*
X69926395Y-61113923D01*
X69795057Y-61115568D01*
X69684759Y-61139829D01*
X69623108Y-61171576D01*
X69586297Y-61210088D01*
X69551928Y-61265479D01*
X69526020Y-61324494D01*
X69514593Y-61373875D01*
X69520325Y-61397956D01*
X69543215Y-61403734D01*
X69600424Y-61413873D01*
X69684308Y-61427134D01*
X69787224Y-61442275D01*
X69833924Y-61448846D01*
X70000313Y-61473516D01*
X70131892Y-61497171D01*
X70236074Y-61521879D01*
X70320270Y-61549707D01*
X70391892Y-61582723D01*
X70458351Y-61622995D01*
X70458507Y-61623100D01*
X70570693Y-61723292D01*
X70651286Y-61850629D01*
X70698483Y-62002181D01*
X70701181Y-62017834D01*
X70710704Y-62184738D01*
X70685175Y-62337561D01*
X70626744Y-62471713D01*
X70537560Y-62582606D01*
X70419774Y-62665651D01*
X70391204Y-62679301D01*
X70303701Y-62706070D01*
X70192661Y-62723695D01*
X70076191Y-62730652D01*
X69972396Y-62725415D01*
X69931937Y-62718007D01*
X69777505Y-62659979D01*
X69646909Y-62571255D01*
X69564218Y-62481377D01*
X69514584Y-62414101D01*
X69514584Y-62697493D01*
X68943084Y-62697493D01*
X68943084Y-62001222D01*
X68943234Y-61818888D01*
G36*
X75777260Y-60695553D02*
G01*
X75884999Y-60707836D01*
X75928776Y-60716903D01*
X76134625Y-60788265D01*
X76310957Y-60888770D01*
X76456513Y-61017166D01*
X76570036Y-61172203D01*
X76650268Y-61352629D01*
X76680150Y-61464115D01*
X76710006Y-61690254D01*
X76702191Y-61900292D01*
X76659039Y-62091984D01*
X76582879Y-62263084D01*
X76476045Y-62411348D01*
X76340866Y-62534532D01*
X76179674Y-62630390D01*
X75994802Y-62696679D01*
X75788580Y-62731153D01*
X75563340Y-62731567D01*
X75387272Y-62708897D01*
X75301123Y-62690012D01*
X75222100Y-62667203D01*
X75170314Y-62646763D01*
X75102584Y-62611739D01*
X75102584Y-62368866D01*
X75103237Y-62273145D01*
X75105013Y-62195197D01*
X75107634Y-62143387D01*
X75110609Y-62125993D01*
X75132505Y-62134117D01*
X75181701Y-62155312D01*
X75240909Y-62181971D01*
X75372588Y-62226159D01*
X75517290Y-62248247D01*
X75657662Y-62246488D01*
X75737546Y-62231952D01*
X75826744Y-62191217D01*
X75915509Y-62123070D01*
X75991723Y-62039322D01*
X76043272Y-61951781D01*
X76052575Y-61924909D01*
X76065705Y-61855230D01*
X76074264Y-61767175D01*
X76076132Y-61710612D01*
X76058630Y-61550423D01*
X76007429Y-61414672D01*
X75924961Y-61305771D01*
X75813654Y-61226135D01*
X75675937Y-61178176D01*
X75525917Y-61164122D01*
X75460927Y-61166694D01*
X75402947Y-61175283D01*
X75342064Y-61193095D01*
X75268370Y-61223336D01*
X75171953Y-61269214D01*
X75117811Y-61296166D01*
X75112063Y-61279564D01*
X75108120Y-61228265D01*
X75106290Y-61149877D01*
X75106880Y-61052008D01*
X75107228Y-61034694D01*
X75113167Y-60764937D01*
X75197834Y-60733660D01*
X75278536Y-60713700D01*
X75389013Y-60699630D01*
X75517083Y-60691729D01*
X75650560Y-60690277D01*
X75777260Y-60695553D01*
G37*
X75777260Y-60695553D02*
X75884999Y-60707836D01*
X75928776Y-60716903D01*
X76134625Y-60788265D01*
X76310957Y-60888770D01*
X76456513Y-61017166D01*
X76570036Y-61172203D01*
X76650268Y-61352629D01*
X76680150Y-61464115D01*
X76710006Y-61690254D01*
X76702191Y-61900292D01*
X76659039Y-62091984D01*
X76582879Y-62263084D01*
X76476045Y-62411348D01*
X76340866Y-62534532D01*
X76179674Y-62630390D01*
X75994802Y-62696679D01*
X75788580Y-62731153D01*
X75563340Y-62731567D01*
X75387272Y-62708897D01*
X75301123Y-62690012D01*
X75222100Y-62667203D01*
X75170314Y-62646763D01*
X75102584Y-62611739D01*
X75102584Y-62368866D01*
X75103237Y-62273145D01*
X75105013Y-62195197D01*
X75107634Y-62143387D01*
X75110609Y-62125993D01*
X75132505Y-62134117D01*
X75181701Y-62155312D01*
X75240909Y-62181971D01*
X75372588Y-62226159D01*
X75517290Y-62248247D01*
X75657662Y-62246488D01*
X75737546Y-62231952D01*
X75826744Y-62191217D01*
X75915509Y-62123070D01*
X75991723Y-62039322D01*
X76043272Y-61951781D01*
X76052575Y-61924909D01*
X76065705Y-61855230D01*
X76074264Y-61767175D01*
X76076132Y-61710612D01*
X76058630Y-61550423D01*
X76007429Y-61414672D01*
X75924961Y-61305771D01*
X75813654Y-61226135D01*
X75675937Y-61178176D01*
X75525917Y-61164122D01*
X75460927Y-61166694D01*
X75402947Y-61175283D01*
X75342064Y-61193095D01*
X75268370Y-61223336D01*
X75171953Y-61269214D01*
X75117811Y-61296166D01*
X75112063Y-61279564D01*
X75108120Y-61228265D01*
X75106290Y-61149877D01*
X75106880Y-61052008D01*
X75107228Y-61034694D01*
X75113167Y-60764937D01*
X75197834Y-60733660D01*
X75278536Y-60713700D01*
X75389013Y-60699630D01*
X75517083Y-60691729D01*
X75650560Y-60690277D01*
X75777260Y-60695553D01*
G36*
X76951723Y-61426813D02*
G01*
X76958073Y-61378621D01*
X76981557Y-61274446D01*
X77014035Y-61181944D01*
X77041821Y-61121541D01*
X77139341Y-60969922D01*
X77264316Y-60850320D01*
X77416092Y-60763097D01*
X77594014Y-60708615D01*
X77797427Y-60687239D01*
X77825906Y-60686910D01*
X78033890Y-60704597D01*
X78220612Y-60758646D01*
X78387349Y-60849586D01*
X78535379Y-60977944D01*
X78538980Y-60981775D01*
X78654386Y-61132467D01*
X78736730Y-61303714D01*
X78787064Y-61498560D01*
X78806447Y-61720048D01*
X78806750Y-61754018D01*
X78789704Y-61969881D01*
X78739499Y-62162980D01*
X78657532Y-62331289D01*
X78545200Y-62472779D01*
X78403902Y-62585424D01*
X78235034Y-62667195D01*
X78161167Y-62690509D01*
X78086435Y-62705054D01*
X77984242Y-62717358D01*
X77868742Y-62726516D01*
X77754092Y-62731625D01*
X77654446Y-62731781D01*
X77589667Y-62726994D01*
X77466195Y-62705330D01*
X77348777Y-62678493D01*
X77248321Y-62649389D01*
X77175736Y-62620921D01*
X77160837Y-62612825D01*
X77092250Y-62571115D01*
X77092250Y-62359137D01*
X77093977Y-62270217D01*
X77098634Y-62199655D01*
X77105434Y-62156403D01*
X77110859Y-62147159D01*
X77138893Y-62155348D01*
X77192275Y-62176546D01*
X77243151Y-62198843D01*
X77400971Y-62254309D01*
X77566976Y-62283904D01*
X77730391Y-62287191D01*
X77880443Y-62263736D01*
X77977355Y-62228515D01*
X78070020Y-62162450D01*
X78142604Y-62069437D01*
X78184102Y-61963653D01*
X78184519Y-61961604D01*
X78198209Y-61893159D01*
X76916449Y-61893159D01*
X76929631Y-61662758D01*
X76941468Y-61504661D01*
X76943269Y-61490993D01*
X77515584Y-61490993D01*
X78197506Y-61490993D01*
X78183180Y-61432784D01*
X78146729Y-61338926D01*
X78088863Y-61247120D01*
X78020786Y-61173731D01*
X77990744Y-61151653D01*
X77903612Y-61118316D01*
X77804351Y-61111411D01*
X77708549Y-61129919D01*
X77631796Y-61172824D01*
X77629109Y-61175247D01*
X77563071Y-61260235D01*
X77523335Y-61361910D01*
X77515584Y-61426813D01*
X77515584Y-61490993D01*
X76943269Y-61490993D01*
X76951723Y-61426813D01*
G37*
X76951723Y-61426813D02*
X76958073Y-61378621D01*
X76981557Y-61274446D01*
X77014035Y-61181944D01*
X77041821Y-61121541D01*
X77139341Y-60969922D01*
X77264316Y-60850320D01*
X77416092Y-60763097D01*
X77594014Y-60708615D01*
X77797427Y-60687239D01*
X77825906Y-60686910D01*
X78033890Y-60704597D01*
X78220612Y-60758646D01*
X78387349Y-60849586D01*
X78535379Y-60977944D01*
X78538980Y-60981775D01*
X78654386Y-61132467D01*
X78736730Y-61303714D01*
X78787064Y-61498560D01*
X78806447Y-61720048D01*
X78806750Y-61754018D01*
X78789704Y-61969881D01*
X78739499Y-62162980D01*
X78657532Y-62331289D01*
X78545200Y-62472779D01*
X78403902Y-62585424D01*
X78235034Y-62667195D01*
X78161167Y-62690509D01*
X78086435Y-62705054D01*
X77984242Y-62717358D01*
X77868742Y-62726516D01*
X77754092Y-62731625D01*
X77654446Y-62731781D01*
X77589667Y-62726994D01*
X77466195Y-62705330D01*
X77348777Y-62678493D01*
X77248321Y-62649389D01*
X77175736Y-62620921D01*
X77160837Y-62612825D01*
X77092250Y-62571115D01*
X77092250Y-62359137D01*
X77093977Y-62270217D01*
X77098634Y-62199655D01*
X77105434Y-62156403D01*
X77110859Y-62147159D01*
X77138893Y-62155348D01*
X77192275Y-62176546D01*
X77243151Y-62198843D01*
X77400971Y-62254309D01*
X77566976Y-62283904D01*
X77730391Y-62287191D01*
X77880443Y-62263736D01*
X77977355Y-62228515D01*
X78070020Y-62162450D01*
X78142604Y-62069437D01*
X78184102Y-61963653D01*
X78184519Y-61961604D01*
X78198209Y-61893159D01*
X76916449Y-61893159D01*
X76929631Y-61662758D01*
X76941468Y-61504661D01*
X76943269Y-61490993D01*
X77515584Y-61490993D01*
X78197506Y-61490993D01*
X78183180Y-61432784D01*
X78146729Y-61338926D01*
X78088863Y-61247120D01*
X78020786Y-61173731D01*
X77990744Y-61151653D01*
X77903612Y-61118316D01*
X77804351Y-61111411D01*
X77708549Y-61129919D01*
X77631796Y-61172824D01*
X77629109Y-61175247D01*
X77563071Y-61260235D01*
X77523335Y-61361910D01*
X77515584Y-61426813D01*
X77515584Y-61490993D01*
X76943269Y-61490993D01*
X76951723Y-61426813D01*
G36*
X79969551Y-59909480D02*
G01*
X80204395Y-59939270D01*
X80410178Y-59995900D01*
X80585558Y-60078643D01*
X80729194Y-60186772D01*
X80839744Y-60319558D01*
X80888261Y-60407774D01*
X80919247Y-60508391D01*
X80935299Y-60633929D01*
X80936514Y-60769737D01*
X80922986Y-60901159D01*
X80894810Y-61013543D01*
X80884151Y-61039953D01*
X80804478Y-61168767D01*
X80686693Y-61289914D01*
X80534813Y-61399868D01*
X80378701Y-61483389D01*
X80229866Y-61552707D01*
X80114115Y-61607572D01*
X80025954Y-61650967D01*
X79959891Y-61685875D01*
X79910434Y-61715279D01*
X79872091Y-61742162D01*
X79839367Y-61769507D01*
X79821708Y-61785888D01*
X79771519Y-61838380D01*
X79746576Y-61882750D01*
X79738486Y-61936581D01*
X79738084Y-61961079D01*
X79745231Y-62034651D01*
X79771519Y-62087666D01*
X79792360Y-62110997D01*
X79883419Y-62173881D01*
X80001766Y-62213021D01*
X80140130Y-62229122D01*
X80291238Y-62222886D01*
X80447817Y-62195016D01*
X80602595Y-62146215D01*
X80748300Y-62077188D01*
X80852671Y-62008465D01*
X80898216Y-61975789D01*
X80928488Y-61957843D01*
X80932588Y-61956659D01*
X80936780Y-61976600D01*
X80940334Y-62031523D01*
X80942968Y-62114078D01*
X80944403Y-62216915D01*
X80944584Y-62271284D01*
X80944584Y-62585908D01*
X80854625Y-62619889D01*
X80706947Y-62664317D01*
X80531678Y-62698996D01*
X80342740Y-62722477D01*
X80154053Y-62733314D01*
X79979538Y-62730058D01*
X79886250Y-62720572D01*
X79682477Y-62679846D01*
X79512461Y-62619856D01*
X79371189Y-62538340D01*
X79257120Y-62436825D01*
X79183392Y-62349279D01*
X79134345Y-62268049D01*
X79101055Y-62175448D01*
X79081045Y-62087813D01*
X79063756Y-61901549D01*
X79085953Y-61725380D01*
X79146544Y-61562985D01*
X79244435Y-61418043D01*
X79296205Y-61363454D01*
X79336158Y-61327304D01*
X79380169Y-61292914D01*
X79433207Y-61257522D01*
X79500240Y-61218366D01*
X79586239Y-61172686D01*
X79696172Y-61117718D01*
X79835009Y-61050701D01*
X79997673Y-60973609D01*
X80127559Y-60900424D01*
X80218331Y-60822367D01*
X80269155Y-60740702D01*
X80279196Y-60656695D01*
X80254679Y-60583730D01*
X80191181Y-60509900D01*
X80096716Y-60456312D01*
X79977670Y-60423279D01*
X79840425Y-60411112D01*
X79691365Y-60420125D01*
X79536873Y-60450630D01*
X79383333Y-60502941D01*
X79308885Y-60537386D01*
X79186603Y-60599517D01*
X79192468Y-60301439D01*
X79198334Y-60003361D01*
X79292441Y-59975602D01*
X79409061Y-59948833D01*
X79552277Y-59927435D01*
X79706524Y-59912929D01*
X79856239Y-59906833D01*
X79969551Y-59909480D01*
G37*
X79969551Y-59909480D02*
X80204395Y-59939270D01*
X80410178Y-59995900D01*
X80585558Y-60078643D01*
X80729194Y-60186772D01*
X80839744Y-60319558D01*
X80888261Y-60407774D01*
X80919247Y-60508391D01*
X80935299Y-60633929D01*
X80936514Y-60769737D01*
X80922986Y-60901159D01*
X80894810Y-61013543D01*
X80884151Y-61039953D01*
X80804478Y-61168767D01*
X80686693Y-61289914D01*
X80534813Y-61399868D01*
X80378701Y-61483389D01*
X80229866Y-61552707D01*
X80114115Y-61607572D01*
X80025954Y-61650967D01*
X79959891Y-61685875D01*
X79910434Y-61715279D01*
X79872091Y-61742162D01*
X79839367Y-61769507D01*
X79821708Y-61785888D01*
X79771519Y-61838380D01*
X79746576Y-61882750D01*
X79738486Y-61936581D01*
X79738084Y-61961079D01*
X79745231Y-62034651D01*
X79771519Y-62087666D01*
X79792360Y-62110997D01*
X79883419Y-62173881D01*
X80001766Y-62213021D01*
X80140130Y-62229122D01*
X80291238Y-62222886D01*
X80447817Y-62195016D01*
X80602595Y-62146215D01*
X80748300Y-62077188D01*
X80852671Y-62008465D01*
X80898216Y-61975789D01*
X80928488Y-61957843D01*
X80932588Y-61956659D01*
X80936780Y-61976600D01*
X80940334Y-62031523D01*
X80942968Y-62114078D01*
X80944403Y-62216915D01*
X80944584Y-62271284D01*
X80944584Y-62585908D01*
X80854625Y-62619889D01*
X80706947Y-62664317D01*
X80531678Y-62698996D01*
X80342740Y-62722477D01*
X80154053Y-62733314D01*
X79979538Y-62730058D01*
X79886250Y-62720572D01*
X79682477Y-62679846D01*
X79512461Y-62619856D01*
X79371189Y-62538340D01*
X79257120Y-62436825D01*
X79183392Y-62349279D01*
X79134345Y-62268049D01*
X79101055Y-62175448D01*
X79081045Y-62087813D01*
X79063756Y-61901549D01*
X79085953Y-61725380D01*
X79146544Y-61562985D01*
X79244435Y-61418043D01*
X79296205Y-61363454D01*
X79336158Y-61327304D01*
X79380169Y-61292914D01*
X79433207Y-61257522D01*
X79500240Y-61218366D01*
X79586239Y-61172686D01*
X79696172Y-61117718D01*
X79835009Y-61050701D01*
X79997673Y-60973609D01*
X80127559Y-60900424D01*
X80218331Y-60822367D01*
X80269155Y-60740702D01*
X80279196Y-60656695D01*
X80254679Y-60583730D01*
X80191181Y-60509900D01*
X80096716Y-60456312D01*
X79977670Y-60423279D01*
X79840425Y-60411112D01*
X79691365Y-60420125D01*
X79536873Y-60450630D01*
X79383333Y-60502941D01*
X79308885Y-60537386D01*
X79186603Y-60599517D01*
X79192468Y-60301439D01*
X79198334Y-60003361D01*
X79292441Y-59975602D01*
X79409061Y-59948833D01*
X79552277Y-59927435D01*
X79706524Y-59912929D01*
X79856239Y-59906833D01*
X79969551Y-59909480D01*
G36*
X84692277Y-61694877D02*
G01*
X85330116Y-61694877D01*
X85339243Y-61817881D01*
X85358432Y-61927571D01*
X85377784Y-61988784D01*
X85437860Y-62093136D01*
X85518558Y-62177760D01*
X85590667Y-62222992D01*
X85683349Y-62247662D01*
X85785556Y-62249220D01*
X85878410Y-62228289D01*
X85911007Y-62212382D01*
X85966248Y-62169208D01*
X86023134Y-62110835D01*
X86038007Y-62092482D01*
X86064302Y-62055594D01*
X86082009Y-62020333D01*
X86093174Y-61976938D01*
X86099842Y-61915646D01*
X86104058Y-61826695D01*
X86105896Y-61768464D01*
X86107246Y-61626779D01*
X86100314Y-61518363D01*
X86082918Y-61434596D01*
X86052878Y-61366854D01*
X86008013Y-61306516D01*
X85982154Y-61279229D01*
X85880799Y-61203434D01*
X85771974Y-61165547D01*
X85662263Y-61163546D01*
X85558252Y-61195406D01*
X85466525Y-61259105D01*
X85393669Y-61352620D01*
X85346267Y-61473928D01*
X85346092Y-61474654D01*
X85332061Y-61574991D01*
X85330116Y-61694877D01*
X84692277Y-61694877D01*
X84691819Y-61660326D01*
X84706638Y-61433706D01*
X84750490Y-61232920D01*
X84822470Y-61059772D01*
X84921670Y-60916063D01*
X85047185Y-60803597D01*
X85153032Y-60743120D01*
X85211121Y-60720431D01*
X85273636Y-60706477D01*
X85353121Y-60699410D01*
X85462124Y-60697383D01*
X85463667Y-60697382D01*
X85614752Y-60703503D01*
X85736061Y-60724661D01*
X85838647Y-60764718D01*
X85933565Y-60827532D01*
X85998064Y-60883978D01*
X86109250Y-60989133D01*
X86109250Y-59797659D01*
X86723084Y-59797659D01*
X86723084Y-62697493D01*
X86109250Y-62697493D01*
X86109040Y-62475243D01*
X86061520Y-62530599D01*
X85961071Y-62620401D01*
X85833825Y-62684243D01*
X85758149Y-62707669D01*
X85608033Y-62734381D01*
X85465325Y-62730690D01*
X85357834Y-62710002D01*
X85215483Y-62661979D01*
X85093937Y-62590227D01*
X84978537Y-62486032D01*
X84975408Y-62482730D01*
X84855769Y-62327063D01*
X84769096Y-62147820D01*
X84714854Y-61943447D01*
X84692509Y-61712394D01*
X84692277Y-61694877D01*
G37*
X84692277Y-61694877D02*
X85330116Y-61694877D01*
X85339243Y-61817881D01*
X85358432Y-61927571D01*
X85377784Y-61988784D01*
X85437860Y-62093136D01*
X85518558Y-62177760D01*
X85590667Y-62222992D01*
X85683349Y-62247662D01*
X85785556Y-62249220D01*
X85878410Y-62228289D01*
X85911007Y-62212382D01*
X85966248Y-62169208D01*
X86023134Y-62110835D01*
X86038007Y-62092482D01*
X86064302Y-62055594D01*
X86082009Y-62020333D01*
X86093174Y-61976938D01*
X86099842Y-61915646D01*
X86104058Y-61826695D01*
X86105896Y-61768464D01*
X86107246Y-61626779D01*
X86100314Y-61518363D01*
X86082918Y-61434596D01*
X86052878Y-61366854D01*
X86008013Y-61306516D01*
X85982154Y-61279229D01*
X85880799Y-61203434D01*
X85771974Y-61165547D01*
X85662263Y-61163546D01*
X85558252Y-61195406D01*
X85466525Y-61259105D01*
X85393669Y-61352620D01*
X85346267Y-61473928D01*
X85346092Y-61474654D01*
X85332061Y-61574991D01*
X85330116Y-61694877D01*
X84692277Y-61694877D01*
X84691819Y-61660326D01*
X84706638Y-61433706D01*
X84750490Y-61232920D01*
X84822470Y-61059772D01*
X84921670Y-60916063D01*
X85047185Y-60803597D01*
X85153032Y-60743120D01*
X85211121Y-60720431D01*
X85273636Y-60706477D01*
X85353121Y-60699410D01*
X85462124Y-60697383D01*
X85463667Y-60697382D01*
X85614752Y-60703503D01*
X85736061Y-60724661D01*
X85838647Y-60764718D01*
X85933565Y-60827532D01*
X85998064Y-60883978D01*
X86109250Y-60989133D01*
X86109250Y-59797659D01*
X86723084Y-59797659D01*
X86723084Y-62697493D01*
X86109250Y-62697493D01*
X86109040Y-62475243D01*
X86061520Y-62530599D01*
X85961071Y-62620401D01*
X85833825Y-62684243D01*
X85758149Y-62707669D01*
X85608033Y-62734381D01*
X85465325Y-62730690D01*
X85357834Y-62710002D01*
X85215483Y-62661979D01*
X85093937Y-62590227D01*
X84978537Y-62486032D01*
X84975408Y-62482730D01*
X84855769Y-62327063D01*
X84769096Y-62147820D01*
X84714854Y-61943447D01*
X84692509Y-61712394D01*
X84692277Y-61694877D01*
G36*
X53173917Y-59911953D02*
G01*
X53343933Y-59930643D01*
X53493529Y-59964086D01*
X53643561Y-60017624D01*
X53722957Y-60052536D01*
X53872417Y-60121426D01*
X53872417Y-60694038D01*
X53824792Y-60650631D01*
X53709263Y-60564266D01*
X53575133Y-60494771D01*
X53431444Y-60444322D01*
X53287238Y-60415095D01*
X53151557Y-60409263D01*
X53033442Y-60429004D01*
X52984921Y-60448567D01*
X52909148Y-60497477D01*
X52860308Y-60557800D01*
X52833739Y-60638814D01*
X52824781Y-60749797D01*
X52824667Y-60767586D01*
X52825670Y-60834484D01*
X52830460Y-60893539D01*
X52841707Y-60948509D01*
X52862081Y-61003151D01*
X52894253Y-61061222D01*
X52940894Y-61126479D01*
X53004673Y-61202681D01*
X53088261Y-61293583D01*
X53194329Y-61402945D01*
X53325546Y-61534522D01*
X53474936Y-61682538D01*
X54022102Y-62223334D01*
X54016051Y-62455122D01*
X54010000Y-62686909D01*
X52200250Y-62697947D01*
X52200250Y-62169041D01*
X53284370Y-62157743D01*
X52941146Y-61852829D01*
X52776909Y-61704077D01*
X52642478Y-61575438D01*
X52533492Y-61462025D01*
X52445591Y-61358955D01*
X52374415Y-61261344D01*
X52315603Y-61164306D01*
X52299347Y-61133861D01*
X52228547Y-60972494D01*
X52190596Y-60819269D01*
X52182388Y-60659982D01*
X52185073Y-60611334D01*
X52210046Y-60453532D01*
X52262254Y-60319487D01*
X52347080Y-60196699D01*
X52379002Y-60160928D01*
X52509322Y-60052250D01*
X52667874Y-59973319D01*
X52851955Y-59924980D01*
X53058864Y-59908082D01*
X53173917Y-59911953D01*
G37*
X53173917Y-59911953D02*
X53343933Y-59930643D01*
X53493529Y-59964086D01*
X53643561Y-60017624D01*
X53722957Y-60052536D01*
X53872417Y-60121426D01*
X53872417Y-60694038D01*
X53824792Y-60650631D01*
X53709263Y-60564266D01*
X53575133Y-60494771D01*
X53431444Y-60444322D01*
X53287238Y-60415095D01*
X53151557Y-60409263D01*
X53033442Y-60429004D01*
X52984921Y-60448567D01*
X52909148Y-60497477D01*
X52860308Y-60557800D01*
X52833739Y-60638814D01*
X52824781Y-60749797D01*
X52824667Y-60767586D01*
X52825670Y-60834484D01*
X52830460Y-60893539D01*
X52841707Y-60948509D01*
X52862081Y-61003151D01*
X52894253Y-61061222D01*
X52940894Y-61126479D01*
X53004673Y-61202681D01*
X53088261Y-61293583D01*
X53194329Y-61402945D01*
X53325546Y-61534522D01*
X53474936Y-61682538D01*
X54022102Y-62223334D01*
X54016051Y-62455122D01*
X54010000Y-62686909D01*
X52200250Y-62697947D01*
X52200250Y-62169041D01*
X53284370Y-62157743D01*
X52941146Y-61852829D01*
X52776909Y-61704077D01*
X52642478Y-61575438D01*
X52533492Y-61462025D01*
X52445591Y-61358955D01*
X52374415Y-61261344D01*
X52315603Y-61164306D01*
X52299347Y-61133861D01*
X52228547Y-60972494D01*
X52190596Y-60819269D01*
X52182388Y-60659982D01*
X52185073Y-60611334D01*
X52210046Y-60453532D01*
X52262254Y-60319487D01*
X52347080Y-60196699D01*
X52379002Y-60160928D01*
X52509322Y-60052250D01*
X52667874Y-59973319D01*
X52851955Y-59924980D01*
X53058864Y-59908082D01*
X53173917Y-59911953D01*
G36*
X67454759Y-60715678D02*
G01*
X67602249Y-60771877D01*
X67727574Y-60861208D01*
X67778164Y-60913078D01*
X67863584Y-61010119D01*
X67863584Y-60728993D01*
X68477417Y-60728993D01*
X68477417Y-62697493D01*
X67863584Y-62697493D01*
X67863584Y-62101990D01*
X67862616Y-61885099D01*
X67859693Y-61709684D01*
X67854784Y-61574934D01*
X67847859Y-61480034D01*
X67838887Y-61424173D01*
X67838168Y-61421659D01*
X67787401Y-61318714D01*
X67707243Y-61233626D01*
X67608709Y-61177582D01*
X67592632Y-61172255D01*
X67487695Y-61161238D01*
X67388970Y-61188243D01*
X67306219Y-61249168D01*
X67262352Y-61311076D01*
X67249795Y-61337157D01*
X67239774Y-61365523D01*
X67231943Y-61401186D01*
X67225955Y-61449162D01*
X67221464Y-61514463D01*
X67218125Y-61602104D01*
X67215591Y-61717099D01*
X67213516Y-61864463D01*
X67211579Y-62046618D01*
X67205159Y-62697493D01*
X66593584Y-62697493D01*
X66593584Y-62000034D01*
X66594376Y-61785383D01*
X66596692Y-61597843D01*
X66600438Y-61440612D01*
X66605518Y-61316890D01*
X66611839Y-61229872D01*
X66617383Y-61190409D01*
X66669021Y-61024239D01*
X66746424Y-60891617D01*
X66849812Y-60792377D01*
X66979405Y-60726352D01*
X67135424Y-60693379D01*
X67280978Y-60690766D01*
X67454759Y-60715678D01*
G37*
X67454759Y-60715678D02*
X67602249Y-60771877D01*
X67727574Y-60861208D01*
X67778164Y-60913078D01*
X67863584Y-61010119D01*
X67863584Y-60728993D01*
X68477417Y-60728993D01*
X68477417Y-62697493D01*
X67863584Y-62697493D01*
X67863584Y-62101990D01*
X67862616Y-61885099D01*
X67859693Y-61709684D01*
X67854784Y-61574934D01*
X67847859Y-61480034D01*
X67838887Y-61424173D01*
X67838168Y-61421659D01*
X67787401Y-61318714D01*
X67707243Y-61233626D01*
X67608709Y-61177582D01*
X67592632Y-61172255D01*
X67487695Y-61161238D01*
X67388970Y-61188243D01*
X67306219Y-61249168D01*
X67262352Y-61311076D01*
X67249795Y-61337157D01*
X67239774Y-61365523D01*
X67231943Y-61401186D01*
X67225955Y-61449162D01*
X67221464Y-61514463D01*
X67218125Y-61602104D01*
X67215591Y-61717099D01*
X67213516Y-61864463D01*
X67211579Y-62046618D01*
X67205159Y-62697493D01*
X66593584Y-62697493D01*
X66593584Y-62000034D01*
X66594376Y-61785383D01*
X66596692Y-61597843D01*
X66600438Y-61440612D01*
X66605518Y-61316890D01*
X66611839Y-61229872D01*
X66617383Y-61190409D01*
X66669021Y-61024239D01*
X66746424Y-60891617D01*
X66849812Y-60792377D01*
X66979405Y-60726352D01*
X67135424Y-60693379D01*
X67280978Y-60690766D01*
X67454759Y-60715678D01*
G36*
X71542917Y-61411618D02*
G01*
X71574831Y-61577650D01*
X71604070Y-61731674D01*
X71629663Y-61868426D01*
X71650639Y-61982646D01*
X71666029Y-62069074D01*
X71674863Y-62122449D01*
X71676619Y-62136576D01*
X71680849Y-62142384D01*
X71689983Y-62113016D01*
X71698463Y-62073076D01*
X71708526Y-62025090D01*
X71726743Y-61942967D01*
X71751476Y-61833757D01*
X71781083Y-61704508D01*
X71813924Y-61562267D01*
X71848359Y-61414082D01*
X71882748Y-61267004D01*
X71915450Y-61128078D01*
X71944825Y-61004355D01*
X71969232Y-60902881D01*
X71987032Y-60830706D01*
X71992793Y-60808368D01*
X72013882Y-60728993D01*
X72599483Y-60728993D01*
X72668145Y-60988284D01*
X72735544Y-61242574D01*
X72792852Y-61458255D01*
X72840705Y-61637672D01*
X72879738Y-61783169D01*
X72910587Y-61897090D01*
X72933887Y-61981778D01*
X72950273Y-62039578D01*
X72960382Y-62072834D01*
X72964848Y-62083888D01*
X72965115Y-62083659D01*
X72970128Y-62061138D01*
X72982910Y-62002203D01*
X73002389Y-61911843D01*
X73027491Y-61795043D01*
X73057146Y-61656791D01*
X73090280Y-61502074D01*
X73110762Y-61406326D01*
X73253332Y-60739576D01*
X73564124Y-60733718D01*
X73692735Y-60732238D01*
X73783552Y-60733601D01*
X73841041Y-60738094D01*
X73869664Y-60746000D01*
X73874917Y-60753538D01*
X73869328Y-60778365D01*
X73853490Y-60838943D01*
X73828793Y-60930332D01*
X73796628Y-61047591D01*
X73758388Y-61185781D01*
X73715462Y-61339962D01*
X73669243Y-61505194D01*
X73621122Y-61676537D01*
X73572490Y-61849052D01*
X73524737Y-62017798D01*
X73479257Y-62177836D01*
X73437439Y-62324226D01*
X73400674Y-62452028D01*
X73370355Y-62556302D01*
X73347873Y-62632108D01*
X73334618Y-62674507D01*
X73331898Y-62681615D01*
X73308351Y-62687254D01*
X73250245Y-62692010D01*
X73165353Y-62695495D01*
X73061444Y-62697317D01*
X73015894Y-62697493D01*
X72896320Y-62697234D01*
X72812267Y-62695789D01*
X72756922Y-62692159D01*
X72723470Y-62685343D01*
X72705101Y-62674338D01*
X72695001Y-62658145D01*
X72691703Y-62649868D01*
X72677784Y-62606801D01*
X72655890Y-62531493D01*
X72627719Y-62430421D01*
X72594968Y-62310065D01*
X72559333Y-62176905D01*
X72522510Y-62037420D01*
X72486196Y-61898089D01*
X72452087Y-61765391D01*
X72421881Y-61645807D01*
X72397274Y-61545814D01*
X72379962Y-61471893D01*
X72371641Y-61430523D01*
X72371155Y-61425671D01*
X72366075Y-61432765D01*
X72352096Y-61476593D01*
X72330411Y-61552778D01*
X72302214Y-61656942D01*
X72268699Y-61784709D01*
X72231059Y-61931699D01*
X72206132Y-62030743D01*
X72042038Y-62686909D01*
X71719776Y-62692755D01*
X71588928Y-62694260D01*
X71495334Y-62693081D01*
X71433979Y-62688896D01*
X71399850Y-62681385D01*
X71388292Y-62671588D01*
X71380735Y-62646244D01*
X71362751Y-62584382D01*
X71335543Y-62490186D01*
X71300315Y-62367841D01*
X71258272Y-62221532D01*
X71210617Y-62055445D01*
X71158554Y-61873764D01*
X71112605Y-61713243D01*
X71057795Y-61521778D01*
X71006398Y-61342433D01*
X70959618Y-61179392D01*
X70918656Y-61036835D01*
X70884714Y-60918944D01*
X70858996Y-60829902D01*
X70842704Y-60773889D01*
X70837192Y-60755451D01*
X70843328Y-60744403D01*
X70873667Y-60736692D01*
X70933052Y-60731865D01*
X71026326Y-60729469D01*
X71119580Y-60728993D01*
X71410914Y-60728993D01*
X71542917Y-61411618D01*
G37*
X71542917Y-61411618D02*
X71574831Y-61577650D01*
X71604070Y-61731674D01*
X71629663Y-61868426D01*
X71650639Y-61982646D01*
X71666029Y-62069074D01*
X71674863Y-62122449D01*
X71676619Y-62136576D01*
X71680849Y-62142384D01*
X71689983Y-62113016D01*
X71698463Y-62073076D01*
X71708526Y-62025090D01*
X71726743Y-61942967D01*
X71751476Y-61833757D01*
X71781083Y-61704508D01*
X71813924Y-61562267D01*
X71848359Y-61414082D01*
X71882748Y-61267004D01*
X71915450Y-61128078D01*
X71944825Y-61004355D01*
X71969232Y-60902881D01*
X71987032Y-60830706D01*
X71992793Y-60808368D01*
X72013882Y-60728993D01*
X72599483Y-60728993D01*
X72668145Y-60988284D01*
X72735544Y-61242574D01*
X72792852Y-61458255D01*
X72840705Y-61637672D01*
X72879738Y-61783169D01*
X72910587Y-61897090D01*
X72933887Y-61981778D01*
X72950273Y-62039578D01*
X72960382Y-62072834D01*
X72964848Y-62083888D01*
X72965115Y-62083659D01*
X72970128Y-62061138D01*
X72982910Y-62002203D01*
X73002389Y-61911843D01*
X73027491Y-61795043D01*
X73057146Y-61656791D01*
X73090280Y-61502074D01*
X73110762Y-61406326D01*
X73253332Y-60739576D01*
X73564124Y-60733718D01*
X73692735Y-60732238D01*
X73783552Y-60733601D01*
X73841041Y-60738094D01*
X73869664Y-60746000D01*
X73874917Y-60753538D01*
X73869328Y-60778365D01*
X73853490Y-60838943D01*
X73828793Y-60930332D01*
X73796628Y-61047591D01*
X73758388Y-61185781D01*
X73715462Y-61339962D01*
X73669243Y-61505194D01*
X73621122Y-61676537D01*
X73572490Y-61849052D01*
X73524737Y-62017798D01*
X73479257Y-62177836D01*
X73437439Y-62324226D01*
X73400674Y-62452028D01*
X73370355Y-62556302D01*
X73347873Y-62632108D01*
X73334618Y-62674507D01*
X73331898Y-62681615D01*
X73308351Y-62687254D01*
X73250245Y-62692010D01*
X73165353Y-62695495D01*
X73061444Y-62697317D01*
X73015894Y-62697493D01*
X72896320Y-62697234D01*
X72812267Y-62695789D01*
X72756922Y-62692159D01*
X72723470Y-62685343D01*
X72705101Y-62674338D01*
X72695001Y-62658145D01*
X72691703Y-62649868D01*
X72677784Y-62606801D01*
X72655890Y-62531493D01*
X72627719Y-62430421D01*
X72594968Y-62310065D01*
X72559333Y-62176905D01*
X72522510Y-62037420D01*
X72486196Y-61898089D01*
X72452087Y-61765391D01*
X72421881Y-61645807D01*
X72397274Y-61545814D01*
X72379962Y-61471893D01*
X72371641Y-61430523D01*
X72371155Y-61425671D01*
X72366075Y-61432765D01*
X72352096Y-61476593D01*
X72330411Y-61552778D01*
X72302214Y-61656942D01*
X72268699Y-61784709D01*
X72231059Y-61931699D01*
X72206132Y-62030743D01*
X72042038Y-62686909D01*
X71719776Y-62692755D01*
X71588928Y-62694260D01*
X71495334Y-62693081D01*
X71433979Y-62688896D01*
X71399850Y-62681385D01*
X71388292Y-62671588D01*
X71380735Y-62646244D01*
X71362751Y-62584382D01*
X71335543Y-62490186D01*
X71300315Y-62367841D01*
X71258272Y-62221532D01*
X71210617Y-62055445D01*
X71158554Y-61873764D01*
X71112605Y-61713243D01*
X71057795Y-61521778D01*
X71006398Y-61342433D01*
X70959618Y-61179392D01*
X70918656Y-61036835D01*
X70884714Y-60918944D01*
X70858996Y-60829902D01*
X70842704Y-60773889D01*
X70837192Y-60755451D01*
X70843328Y-60744403D01*
X70873667Y-60736692D01*
X70933052Y-60731865D01*
X71026326Y-60729469D01*
X71119580Y-60728993D01*
X71410914Y-60728993D01*
X71542917Y-61411618D01*
G36*
X82085464Y-60698299D02*
G01*
X82159383Y-60702830D01*
X82214891Y-60712877D01*
X82263938Y-60730484D01*
X82310683Y-60753557D01*
X82387320Y-60802887D01*
X82466734Y-60867517D01*
X82506475Y-60906542D01*
X82595584Y-61003213D01*
X82595584Y-60728993D01*
X83209417Y-60728993D01*
X83209417Y-62697493D01*
X82595584Y-62697493D01*
X82595119Y-62078368D01*
X82594758Y-61897223D01*
X82593788Y-61753251D01*
X82591920Y-61641289D01*
X82588866Y-61556178D01*
X82584338Y-61492757D01*
X82578048Y-61445865D01*
X82569708Y-61410342D01*
X82559031Y-61381028D01*
X82555797Y-61373700D01*
X82491287Y-61272449D01*
X82409488Y-61203884D01*
X82317510Y-61167470D01*
X82222461Y-61162674D01*
X82131448Y-61188960D01*
X82051580Y-61245793D01*
X81989966Y-61332639D01*
X81959683Y-61418547D01*
X81954626Y-61461187D01*
X81950029Y-61539795D01*
X81946076Y-61648007D01*
X81942954Y-61779459D01*
X81940846Y-61927788D01*
X81939937Y-62086629D01*
X81939922Y-62099534D01*
X81939417Y-62697493D01*
X81323112Y-62697493D01*
X81330571Y-61951368D01*
X81332855Y-61747423D01*
X81335385Y-61581142D01*
X81338400Y-61447855D01*
X81342142Y-61342892D01*
X81346850Y-61261583D01*
X81352765Y-61199260D01*
X81360128Y-61151251D01*
X81369179Y-61112887D01*
X81374682Y-61095052D01*
X81439635Y-60955902D01*
X81531544Y-60840318D01*
X81643956Y-60756262D01*
X81653297Y-60751315D01*
X81706550Y-60726336D01*
X81757048Y-60710417D01*
X81816761Y-60701585D01*
X81897659Y-60697865D01*
X81981185Y-60697243D01*
X82085464Y-60698299D01*
G37*
X82085464Y-60698299D02*
X82159383Y-60702830D01*
X82214891Y-60712877D01*
X82263938Y-60730484D01*
X82310683Y-60753557D01*
X82387320Y-60802887D01*
X82466734Y-60867517D01*
X82506475Y-60906542D01*
X82595584Y-61003213D01*
X82595584Y-60728993D01*
X83209417Y-60728993D01*
X83209417Y-62697493D01*
X82595584Y-62697493D01*
X82595119Y-62078368D01*
X82594758Y-61897223D01*
X82593788Y-61753251D01*
X82591920Y-61641289D01*
X82588866Y-61556178D01*
X82584338Y-61492757D01*
X82578048Y-61445865D01*
X82569708Y-61410342D01*
X82559031Y-61381028D01*
X82555797Y-61373700D01*
X82491287Y-61272449D01*
X82409488Y-61203884D01*
X82317510Y-61167470D01*
X82222461Y-61162674D01*
X82131448Y-61188960D01*
X82051580Y-61245793D01*
X81989966Y-61332639D01*
X81959683Y-61418547D01*
X81954626Y-61461187D01*
X81950029Y-61539795D01*
X81946076Y-61648007D01*
X81942954Y-61779459D01*
X81940846Y-61927788D01*
X81939937Y-62086629D01*
X81939922Y-62099534D01*
X81939417Y-62697493D01*
X81323112Y-62697493D01*
X81330571Y-61951368D01*
X81332855Y-61747423D01*
X81335385Y-61581142D01*
X81338400Y-61447855D01*
X81342142Y-61342892D01*
X81346850Y-61261583D01*
X81352765Y-61199260D01*
X81360128Y-61151251D01*
X81369179Y-61112887D01*
X81374682Y-61095052D01*
X81439635Y-60955902D01*
X81531544Y-60840318D01*
X81643956Y-60756262D01*
X81653297Y-60751315D01*
X81706550Y-60726336D01*
X81757048Y-60710417D01*
X81816761Y-60701585D01*
X81897659Y-60697865D01*
X81981185Y-60697243D01*
X82085464Y-60698299D01*
G36*
X84320667Y-62686909D02*
G01*
X84023126Y-62692757D01*
X83914874Y-62693874D01*
X83822078Y-62692922D01*
X83752795Y-62690130D01*
X83715081Y-62685725D01*
X83710918Y-62683938D01*
X83707918Y-62660401D01*
X83705124Y-62598802D01*
X83702600Y-62503411D01*
X83700410Y-62378498D01*
X83698617Y-62228335D01*
X83697285Y-62057192D01*
X83696477Y-61869338D01*
X83696250Y-61699131D01*
X83696250Y-60728993D01*
X84331673Y-60728993D01*
X84320667Y-62686909D01*
G37*
X84320667Y-62686909D02*
X84023126Y-62692757D01*
X83914874Y-62693874D01*
X83822078Y-62692922D01*
X83752795Y-62690130D01*
X83715081Y-62685725D01*
X83710918Y-62683938D01*
X83707918Y-62660401D01*
X83705124Y-62598802D01*
X83702600Y-62503411D01*
X83700410Y-62378498D01*
X83698617Y-62228335D01*
X83697285Y-62057192D01*
X83696477Y-61869338D01*
X83696250Y-61699131D01*
X83696250Y-60728993D01*
X84331673Y-60728993D01*
X84320667Y-62686909D01*
G36*
X87823750Y-62697493D02*
G01*
X87209917Y-62697493D01*
X87209917Y-59797659D01*
X87823750Y-59797659D01*
X87823750Y-62697493D01*
G37*
X87823750Y-62697493D02*
X87209917Y-62697493D01*
X87209917Y-59797659D01*
X87823750Y-59797659D01*
X87823750Y-62697493D01*
G36*
X88924417Y-62697493D02*
G01*
X88310584Y-62697493D01*
X88310584Y-60728993D01*
X88924417Y-60728993D01*
X88924417Y-62697493D01*
G37*
X88924417Y-62697493D02*
X88310584Y-62697493D01*
X88310584Y-60728993D01*
X88924417Y-60728993D01*
X88924417Y-62697493D01*
G36*
X90072484Y-60857906D02*
G01*
X90078000Y-61769986D01*
X90670667Y-60858423D01*
X91263334Y-59946861D01*
X91596709Y-59946344D01*
X91930084Y-59945826D01*
X91930084Y-62697493D01*
X91335391Y-62697493D01*
X91341696Y-61747823D01*
X91348000Y-60798154D01*
X91181467Y-61054615D01*
X91131053Y-61132055D01*
X91061255Y-61238983D01*
X90975931Y-61369502D01*
X90878939Y-61517717D01*
X90774137Y-61677732D01*
X90665383Y-61843653D01*
X90560013Y-62004284D01*
X90105092Y-62697493D01*
X89474750Y-62697493D01*
X89474750Y-59945826D01*
X90066967Y-59945826D01*
X90072484Y-60857906D01*
G37*
X90072484Y-60857906D02*
X90078000Y-61769986D01*
X90670667Y-60858423D01*
X91263334Y-59946861D01*
X91596709Y-59946344D01*
X91930084Y-59945826D01*
X91930084Y-62697493D01*
X91335391Y-62697493D01*
X91341696Y-61747823D01*
X91348000Y-60798154D01*
X91181467Y-61054615D01*
X91131053Y-61132055D01*
X91061255Y-61238983D01*
X90975931Y-61369502D01*
X90878939Y-61517717D01*
X90774137Y-61677732D01*
X90665383Y-61843653D01*
X90560013Y-62004284D01*
X90105092Y-62697493D01*
X89474750Y-62697493D01*
X89474750Y-59945826D01*
X90066967Y-59945826D01*
X90072484Y-60857906D01*
G36*
X84157372Y-59829344D02*
G01*
X84248886Y-59881817D01*
X84313741Y-59962548D01*
X84347959Y-60068756D01*
X84352338Y-60129410D01*
X84333597Y-60239902D01*
X84277668Y-60330393D01*
X84185254Y-60399765D01*
X84181613Y-60401669D01*
X84102589Y-60425675D01*
X84004035Y-60432739D01*
X83904259Y-60423410D01*
X83821572Y-60398238D01*
X83807182Y-60390440D01*
X83720513Y-60317372D01*
X83671515Y-60225718D01*
X83658980Y-60113090D01*
X83659828Y-60098605D01*
X83686593Y-59987861D01*
X83747323Y-59901536D01*
X83839764Y-59842136D01*
X83910275Y-59820298D01*
X84043176Y-59807911D01*
X84157372Y-59829344D01*
G37*
X84157372Y-59829344D02*
X84248886Y-59881817D01*
X84313741Y-59962548D01*
X84347959Y-60068756D01*
X84352338Y-60129410D01*
X84333597Y-60239902D01*
X84277668Y-60330393D01*
X84185254Y-60399765D01*
X84181613Y-60401669D01*
X84102589Y-60425675D01*
X84004035Y-60432739D01*
X83904259Y-60423410D01*
X83821572Y-60398238D01*
X83807182Y-60390440D01*
X83720513Y-60317372D01*
X83671515Y-60225718D01*
X83658980Y-60113090D01*
X83659828Y-60098605D01*
X83686593Y-59987861D01*
X83747323Y-59901536D01*
X83839764Y-59842136D01*
X83910275Y-59820298D01*
X84043176Y-59807911D01*
X84157372Y-59829344D01*
G36*
X88706488Y-59816624D02*
G01*
X88797057Y-59839943D01*
X88814228Y-59847938D01*
X88897429Y-59910754D01*
X88946341Y-59995765D01*
X88962443Y-60105921D01*
X88961296Y-60141328D01*
X88940832Y-60249631D01*
X88891668Y-60331206D01*
X88808167Y-60394823D01*
X88793176Y-60402920D01*
X88715919Y-60426161D01*
X88618497Y-60432800D01*
X88519371Y-60423456D01*
X88437006Y-60398750D01*
X88421515Y-60390440D01*
X88338524Y-60318148D01*
X88287448Y-60227803D01*
X88268319Y-60128234D01*
X88281166Y-60028268D01*
X88326020Y-59936732D01*
X88402913Y-59862455D01*
X88419648Y-59851899D01*
X88500110Y-59822780D01*
X88601615Y-59810962D01*
X88706488Y-59816624D01*
G37*
X88706488Y-59816624D02*
X88797057Y-59839943D01*
X88814228Y-59847938D01*
X88897429Y-59910754D01*
X88946341Y-59995765D01*
X88962443Y-60105921D01*
X88961296Y-60141328D01*
X88940832Y-60249631D01*
X88891668Y-60331206D01*
X88808167Y-60394823D01*
X88793176Y-60402920D01*
X88715919Y-60426161D01*
X88618497Y-60432800D01*
X88519371Y-60423456D01*
X88437006Y-60398750D01*
X88421515Y-60390440D01*
X88338524Y-60318148D01*
X88287448Y-60227803D01*
X88268319Y-60128234D01*
X88281166Y-60028268D01*
X88326020Y-59936732D01*
X88402913Y-59862455D01*
X88419648Y-59851899D01*
X88500110Y-59822780D01*
X88601615Y-59810962D01*
X88706488Y-59816624D01*
G36*
X80150181Y-55882549D02*
G01*
X80247711Y-55884547D01*
X80321628Y-55887564D01*
X80364832Y-55891341D01*
X80373084Y-55894021D01*
X80365346Y-55915461D01*
X80343153Y-55972291D01*
X80308036Y-56060701D01*
X80261522Y-56176880D01*
X80205144Y-56317020D01*
X80140429Y-56477308D01*
X80068909Y-56653937D01*
X79992112Y-56843096D01*
X79982077Y-56867780D01*
X79591070Y-57829344D01*
X79661233Y-57983306D01*
X79733870Y-58114276D01*
X79815760Y-58204723D01*
X79910268Y-58256046D01*
X80020755Y-58269642D01*
X80150585Y-58246911D01*
X80230209Y-58219912D01*
X80246099Y-58217053D01*
X80256678Y-58227466D01*
X80263009Y-58257767D01*
X80266158Y-58314576D01*
X80267191Y-58404510D01*
X80267250Y-58450062D01*
X80265465Y-58569989D01*
X80259865Y-58651366D01*
X80250081Y-58697838D01*
X80240792Y-58711397D01*
X80210012Y-58718586D01*
X80146510Y-58725290D01*
X80059897Y-58730710D01*
X79970917Y-58733814D01*
X79857325Y-58735163D01*
X79774264Y-58732326D01*
X79710029Y-58723994D01*
X79652916Y-58708858D01*
X79611084Y-58693584D01*
X79507384Y-58636715D01*
X79398426Y-58549169D01*
X79293466Y-58440037D01*
X79201759Y-58318411D01*
X79161969Y-58252493D01*
X79145211Y-58216137D01*
X79115729Y-58145783D01*
X79075170Y-58045718D01*
X79025178Y-57920230D01*
X78967401Y-57773604D01*
X78903483Y-57610129D01*
X78835070Y-57434092D01*
X78763808Y-57249779D01*
X78691342Y-57061478D01*
X78619319Y-56873477D01*
X78549383Y-56690062D01*
X78483181Y-56515520D01*
X78422358Y-56354139D01*
X78368561Y-56210206D01*
X78323434Y-56088007D01*
X78288623Y-55991831D01*
X78265774Y-55925965D01*
X78256533Y-55894695D01*
X78256417Y-55893448D01*
X78276340Y-55889330D01*
X78331135Y-55885853D01*
X78413345Y-55883302D01*
X78515510Y-55881961D01*
X78561907Y-55881826D01*
X78682460Y-55882306D01*
X78767222Y-55884256D01*
X78822727Y-55888441D01*
X78855513Y-55895627D01*
X78872115Y-55906579D01*
X78878224Y-55918868D01*
X78887123Y-55948275D01*
X78906752Y-56012500D01*
X78935379Y-56105900D01*
X78971275Y-56222836D01*
X79012708Y-56357665D01*
X79057949Y-56504747D01*
X79059822Y-56510836D01*
X79106554Y-56663202D01*
X79150683Y-56808041D01*
X79190206Y-56938702D01*
X79223120Y-57048535D01*
X79247421Y-57130889D01*
X79260696Y-57177586D01*
X79276867Y-57229860D01*
X79288335Y-57252210D01*
X79292190Y-57243648D01*
X79298492Y-57213248D01*
X79315534Y-57148392D01*
X79341545Y-57055068D01*
X79374755Y-56939265D01*
X79413390Y-56806967D01*
X79455680Y-56664164D01*
X79499853Y-56516841D01*
X79544137Y-56370987D01*
X79586761Y-56232588D01*
X79625953Y-56107631D01*
X79656008Y-56014118D01*
X79699202Y-55881826D01*
X80036143Y-55881826D01*
X80150181Y-55882549D01*
G37*
X80150181Y-55882549D02*
X80247711Y-55884547D01*
X80321628Y-55887564D01*
X80364832Y-55891341D01*
X80373084Y-55894021D01*
X80365346Y-55915461D01*
X80343153Y-55972291D01*
X80308036Y-56060701D01*
X80261522Y-56176880D01*
X80205144Y-56317020D01*
X80140429Y-56477308D01*
X80068909Y-56653937D01*
X79992112Y-56843096D01*
X79982077Y-56867780D01*
X79591070Y-57829344D01*
X79661233Y-57983306D01*
X79733870Y-58114276D01*
X79815760Y-58204723D01*
X79910268Y-58256046D01*
X80020755Y-58269642D01*
X80150585Y-58246911D01*
X80230209Y-58219912D01*
X80246099Y-58217053D01*
X80256678Y-58227466D01*
X80263009Y-58257767D01*
X80266158Y-58314576D01*
X80267191Y-58404510D01*
X80267250Y-58450062D01*
X80265465Y-58569989D01*
X80259865Y-58651366D01*
X80250081Y-58697838D01*
X80240792Y-58711397D01*
X80210012Y-58718586D01*
X80146510Y-58725290D01*
X80059897Y-58730710D01*
X79970917Y-58733814D01*
X79857325Y-58735163D01*
X79774264Y-58732326D01*
X79710029Y-58723994D01*
X79652916Y-58708858D01*
X79611084Y-58693584D01*
X79507384Y-58636715D01*
X79398426Y-58549169D01*
X79293466Y-58440037D01*
X79201759Y-58318411D01*
X79161969Y-58252493D01*
X79145211Y-58216137D01*
X79115729Y-58145783D01*
X79075170Y-58045718D01*
X79025178Y-57920230D01*
X78967401Y-57773604D01*
X78903483Y-57610129D01*
X78835070Y-57434092D01*
X78763808Y-57249779D01*
X78691342Y-57061478D01*
X78619319Y-56873477D01*
X78549383Y-56690062D01*
X78483181Y-56515520D01*
X78422358Y-56354139D01*
X78368561Y-56210206D01*
X78323434Y-56088007D01*
X78288623Y-55991831D01*
X78265774Y-55925965D01*
X78256533Y-55894695D01*
X78256417Y-55893448D01*
X78276340Y-55889330D01*
X78331135Y-55885853D01*
X78413345Y-55883302D01*
X78515510Y-55881961D01*
X78561907Y-55881826D01*
X78682460Y-55882306D01*
X78767222Y-55884256D01*
X78822727Y-55888441D01*
X78855513Y-55895627D01*
X78872115Y-55906579D01*
X78878224Y-55918868D01*
X78887123Y-55948275D01*
X78906752Y-56012500D01*
X78935379Y-56105900D01*
X78971275Y-56222836D01*
X79012708Y-56357665D01*
X79057949Y-56504747D01*
X79059822Y-56510836D01*
X79106554Y-56663202D01*
X79150683Y-56808041D01*
X79190206Y-56938702D01*
X79223120Y-57048535D01*
X79247421Y-57130889D01*
X79260696Y-57177586D01*
X79276867Y-57229860D01*
X79288335Y-57252210D01*
X79292190Y-57243648D01*
X79298492Y-57213248D01*
X79315534Y-57148392D01*
X79341545Y-57055068D01*
X79374755Y-56939265D01*
X79413390Y-56806967D01*
X79455680Y-56664164D01*
X79499853Y-56516841D01*
X79544137Y-56370987D01*
X79586761Y-56232588D01*
X79625953Y-56107631D01*
X79656008Y-56014118D01*
X79699202Y-55881826D01*
X80036143Y-55881826D01*
X80150181Y-55882549D01*
G36*
X55154860Y-55070880D02*
G01*
X55232949Y-55076034D01*
X55297782Y-55085242D01*
X55359044Y-55099433D01*
X55417584Y-55116747D01*
X55566850Y-55171218D01*
X55685659Y-55233517D01*
X55785879Y-55310623D01*
X55840972Y-55365754D01*
X55919416Y-55461174D01*
X55972226Y-55554367D01*
X56003680Y-55657392D01*
X56018053Y-55782306D01*
X56020254Y-55871243D01*
X56019288Y-55973644D01*
X56014163Y-56047040D01*
X56002537Y-56104718D01*
X55982065Y-56159965D01*
X55961689Y-56203349D01*
X55901040Y-56300979D01*
X55819159Y-56398046D01*
X55786104Y-56430209D01*
X55737432Y-56472226D01*
X55685161Y-56511165D01*
X55623255Y-56550392D01*
X55545678Y-56593271D01*
X55446394Y-56643168D01*
X55319367Y-56703447D01*
X55184392Y-56765673D01*
X55032795Y-56844435D01*
X54922218Y-56923855D01*
X54851355Y-57005375D01*
X54818901Y-57090436D01*
X54820649Y-57167182D01*
X54853676Y-57234544D01*
X54921485Y-57295298D01*
X55016525Y-57343353D01*
X55054848Y-57356053D01*
X55207473Y-57380859D01*
X55376935Y-57374590D01*
X55553545Y-57339159D01*
X55727612Y-57276480D01*
X55883388Y-57192411D01*
X55947384Y-57151868D01*
X55996435Y-57122326D01*
X56020826Y-57109614D01*
X56021548Y-57109493D01*
X56025031Y-57129421D01*
X56027975Y-57184254D01*
X56030141Y-57266565D01*
X56031293Y-57368926D01*
X56031417Y-57417599D01*
X56031417Y-57725706D01*
X55939182Y-57766506D01*
X55816403Y-57808691D01*
X55663323Y-57842574D01*
X55491381Y-57866912D01*
X55312017Y-57880464D01*
X55136668Y-57881990D01*
X54979816Y-57870628D01*
X54766096Y-57829658D01*
X54584563Y-57763286D01*
X54432720Y-57670377D01*
X54330289Y-57575459D01*
X54246925Y-57464626D01*
X54192249Y-57343950D01*
X54161453Y-57201395D01*
X54154779Y-57136003D01*
X54158835Y-56947749D01*
X54200834Y-56776727D01*
X54280112Y-56624615D01*
X54396002Y-56493090D01*
X54417358Y-56474521D01*
X54461878Y-56443776D01*
X54536882Y-56399223D01*
X54634597Y-56345173D01*
X54747246Y-56285935D01*
X54856667Y-56230918D01*
X55015361Y-56150606D01*
X55138667Y-56082372D01*
X55230717Y-56023115D01*
X55295643Y-55969736D01*
X55337575Y-55919135D01*
X55360646Y-55868214D01*
X55365075Y-55849494D01*
X55359364Y-55772159D01*
X55317860Y-55697423D01*
X55246573Y-55634554D01*
X55213707Y-55616086D01*
X55103146Y-55580580D01*
X54966735Y-55565651D01*
X54815125Y-55570435D01*
X54658966Y-55594067D01*
X54508910Y-55635681D01*
X54398507Y-55682302D01*
X54339853Y-55710989D01*
X54297825Y-55729630D01*
X54285273Y-55733659D01*
X54281369Y-55713774D01*
X54278863Y-55659212D01*
X54277911Y-55577609D01*
X54278671Y-55476602D01*
X54279278Y-55442618D01*
X54285167Y-55151576D01*
X54433334Y-55111349D01*
X54508605Y-55094069D01*
X54592221Y-55081984D01*
X54693538Y-55074282D01*
X54821916Y-55070149D01*
X54920167Y-55069016D01*
X55053828Y-55068851D01*
X55154860Y-55070880D01*
G37*
X55154860Y-55070880D02*
X55232949Y-55076034D01*
X55297782Y-55085242D01*
X55359044Y-55099433D01*
X55417584Y-55116747D01*
X55566850Y-55171218D01*
X55685659Y-55233517D01*
X55785879Y-55310623D01*
X55840972Y-55365754D01*
X55919416Y-55461174D01*
X55972226Y-55554367D01*
X56003680Y-55657392D01*
X56018053Y-55782306D01*
X56020254Y-55871243D01*
X56019288Y-55973644D01*
X56014163Y-56047040D01*
X56002537Y-56104718D01*
X55982065Y-56159965D01*
X55961689Y-56203349D01*
X55901040Y-56300979D01*
X55819159Y-56398046D01*
X55786104Y-56430209D01*
X55737432Y-56472226D01*
X55685161Y-56511165D01*
X55623255Y-56550392D01*
X55545678Y-56593271D01*
X55446394Y-56643168D01*
X55319367Y-56703447D01*
X55184392Y-56765673D01*
X55032795Y-56844435D01*
X54922218Y-56923855D01*
X54851355Y-57005375D01*
X54818901Y-57090436D01*
X54820649Y-57167182D01*
X54853676Y-57234544D01*
X54921485Y-57295298D01*
X55016525Y-57343353D01*
X55054848Y-57356053D01*
X55207473Y-57380859D01*
X55376935Y-57374590D01*
X55553545Y-57339159D01*
X55727612Y-57276480D01*
X55883388Y-57192411D01*
X55947384Y-57151868D01*
X55996435Y-57122326D01*
X56020826Y-57109614D01*
X56021548Y-57109493D01*
X56025031Y-57129421D01*
X56027975Y-57184254D01*
X56030141Y-57266565D01*
X56031293Y-57368926D01*
X56031417Y-57417599D01*
X56031417Y-57725706D01*
X55939182Y-57766506D01*
X55816403Y-57808691D01*
X55663323Y-57842574D01*
X55491381Y-57866912D01*
X55312017Y-57880464D01*
X55136668Y-57881990D01*
X54979816Y-57870628D01*
X54766096Y-57829658D01*
X54584563Y-57763286D01*
X54432720Y-57670377D01*
X54330289Y-57575459D01*
X54246925Y-57464626D01*
X54192249Y-57343950D01*
X54161453Y-57201395D01*
X54154779Y-57136003D01*
X54158835Y-56947749D01*
X54200834Y-56776727D01*
X54280112Y-56624615D01*
X54396002Y-56493090D01*
X54417358Y-56474521D01*
X54461878Y-56443776D01*
X54536882Y-56399223D01*
X54634597Y-56345173D01*
X54747246Y-56285935D01*
X54856667Y-56230918D01*
X55015361Y-56150606D01*
X55138667Y-56082372D01*
X55230717Y-56023115D01*
X55295643Y-55969736D01*
X55337575Y-55919135D01*
X55360646Y-55868214D01*
X55365075Y-55849494D01*
X55359364Y-55772159D01*
X55317860Y-55697423D01*
X55246573Y-55634554D01*
X55213707Y-55616086D01*
X55103146Y-55580580D01*
X54966735Y-55565651D01*
X54815125Y-55570435D01*
X54658966Y-55594067D01*
X54508910Y-55635681D01*
X54398507Y-55682302D01*
X54339853Y-55710989D01*
X54297825Y-55729630D01*
X54285273Y-55733659D01*
X54281369Y-55713774D01*
X54278863Y-55659212D01*
X54277911Y-55577609D01*
X54278671Y-55476602D01*
X54279278Y-55442618D01*
X54285167Y-55151576D01*
X54433334Y-55111349D01*
X54508605Y-55094069D01*
X54592221Y-55081984D01*
X54693538Y-55074282D01*
X54821916Y-55070149D01*
X54920167Y-55069016D01*
X55053828Y-55068851D01*
X55154860Y-55070880D01*
G36*
X68135675Y-56468159D02*
G01*
X68795230Y-56468159D01*
X68807626Y-56679106D01*
X68846258Y-56859158D01*
X68912059Y-57011362D01*
X68998367Y-57130492D01*
X69118559Y-57233608D01*
X69257306Y-57301015D01*
X69408668Y-57331528D01*
X69566703Y-57323963D01*
X69725469Y-57277137D01*
X69728238Y-57275953D01*
X69852829Y-57200040D01*
X69958163Y-57090689D01*
X70042046Y-56953203D01*
X70102285Y-56792885D01*
X70136686Y-56615039D01*
X70143056Y-56424967D01*
X70131592Y-56300633D01*
X70088196Y-56110286D01*
X70016474Y-55944343D01*
X69918708Y-55806483D01*
X69797180Y-55700381D01*
X69736834Y-55664739D01*
X69636607Y-55629825D01*
X69514007Y-55611636D01*
X69385953Y-55611143D01*
X69269362Y-55629318D01*
X69245126Y-55636513D01*
X69110616Y-55702754D01*
X68998062Y-55803412D01*
X68908867Y-55935897D01*
X68844431Y-56097620D01*
X68806156Y-56285991D01*
X68795230Y-56468159D01*
X68135675Y-56468159D01*
X68135476Y-56463909D01*
X68147283Y-56213041D01*
X68185866Y-55991521D01*
X68252940Y-55794580D01*
X68350217Y-55617449D01*
X68479412Y-55455360D01*
X68508878Y-55424686D01*
X68676165Y-55284693D01*
X68866325Y-55177061D01*
X69074058Y-55102551D01*
X69294069Y-55061922D01*
X69521060Y-55055936D01*
X69749735Y-55085351D01*
X69974795Y-55150928D01*
X70086084Y-55198354D01*
X70252986Y-55299458D01*
X70407093Y-55435055D01*
X70542656Y-55597897D01*
X70653927Y-55780734D01*
X70735158Y-55976317D01*
X70753912Y-56040576D01*
X70780440Y-56179384D01*
X70796529Y-56343423D01*
X70801731Y-56516785D01*
X70795595Y-56683563D01*
X70777673Y-56827849D01*
X70776339Y-56834803D01*
X70711635Y-57063621D01*
X70613629Y-57268430D01*
X70485154Y-57447271D01*
X70329046Y-57598186D01*
X70148138Y-57719217D01*
X69945265Y-57808404D01*
X69723261Y-57863790D01*
X69484961Y-57883416D01*
X69276557Y-57871112D01*
X69052246Y-57825676D01*
X68849258Y-57745160D01*
X68663600Y-57627510D01*
X68491280Y-57470671D01*
X68484704Y-57463656D01*
X68351705Y-57295013D01*
X68251572Y-57108214D01*
X68183061Y-56899702D01*
X68144929Y-56665920D01*
X68135675Y-56468159D01*
G37*
X68135675Y-56468159D02*
X68795230Y-56468159D01*
X68807626Y-56679106D01*
X68846258Y-56859158D01*
X68912059Y-57011362D01*
X68998367Y-57130492D01*
X69118559Y-57233608D01*
X69257306Y-57301015D01*
X69408668Y-57331528D01*
X69566703Y-57323963D01*
X69725469Y-57277137D01*
X69728238Y-57275953D01*
X69852829Y-57200040D01*
X69958163Y-57090689D01*
X70042046Y-56953203D01*
X70102285Y-56792885D01*
X70136686Y-56615039D01*
X70143056Y-56424967D01*
X70131592Y-56300633D01*
X70088196Y-56110286D01*
X70016474Y-55944343D01*
X69918708Y-55806483D01*
X69797180Y-55700381D01*
X69736834Y-55664739D01*
X69636607Y-55629825D01*
X69514007Y-55611636D01*
X69385953Y-55611143D01*
X69269362Y-55629318D01*
X69245126Y-55636513D01*
X69110616Y-55702754D01*
X68998062Y-55803412D01*
X68908867Y-55935897D01*
X68844431Y-56097620D01*
X68806156Y-56285991D01*
X68795230Y-56468159D01*
X68135675Y-56468159D01*
X68135476Y-56463909D01*
X68147283Y-56213041D01*
X68185866Y-55991521D01*
X68252940Y-55794580D01*
X68350217Y-55617449D01*
X68479412Y-55455360D01*
X68508878Y-55424686D01*
X68676165Y-55284693D01*
X68866325Y-55177061D01*
X69074058Y-55102551D01*
X69294069Y-55061922D01*
X69521060Y-55055936D01*
X69749735Y-55085351D01*
X69974795Y-55150928D01*
X70086084Y-55198354D01*
X70252986Y-55299458D01*
X70407093Y-55435055D01*
X70542656Y-55597897D01*
X70653927Y-55780734D01*
X70735158Y-55976317D01*
X70753912Y-56040576D01*
X70780440Y-56179384D01*
X70796529Y-56343423D01*
X70801731Y-56516785D01*
X70795595Y-56683563D01*
X70777673Y-56827849D01*
X70776339Y-56834803D01*
X70711635Y-57063621D01*
X70613629Y-57268430D01*
X70485154Y-57447271D01*
X70329046Y-57598186D01*
X70148138Y-57719217D01*
X69945265Y-57808404D01*
X69723261Y-57863790D01*
X69484961Y-57883416D01*
X69276557Y-57871112D01*
X69052246Y-57825676D01*
X68849258Y-57745160D01*
X68663600Y-57627510D01*
X68491280Y-57470671D01*
X68484704Y-57463656D01*
X68351705Y-57295013D01*
X68251572Y-57108214D01*
X68183061Y-56899702D01*
X68144929Y-56665920D01*
X68135675Y-56468159D01*
G36*
X74405345Y-56437451D02*
G01*
X74406374Y-56637057D01*
X74408757Y-56799057D01*
X74412939Y-56928166D01*
X74419365Y-57029100D01*
X74428478Y-57106578D01*
X74440723Y-57165314D01*
X74456545Y-57210025D01*
X74476387Y-57245428D01*
X74482247Y-57253674D01*
X74565021Y-57336927D01*
X74660601Y-57387510D01*
X74761204Y-57405484D01*
X74859044Y-57390910D01*
X74946338Y-57343848D01*
X75015301Y-57264360D01*
X75023683Y-57249455D01*
X75036786Y-57222766D01*
X75047232Y-57194420D01*
X75055397Y-57159333D01*
X75061659Y-57112424D01*
X75066395Y-57048610D01*
X75069980Y-56962808D01*
X75072793Y-56849935D01*
X75075209Y-56704909D01*
X75077606Y-56522647D01*
X75077613Y-56522118D01*
X75085555Y-55881826D01*
X75698676Y-55881826D01*
X75690416Y-56596201D01*
X75688006Y-56791248D01*
X75685540Y-56949058D01*
X75682693Y-57074728D01*
X75679145Y-57173352D01*
X75674569Y-57250027D01*
X75668645Y-57309848D01*
X75661047Y-57357911D01*
X75651453Y-57399312D01*
X75639539Y-57439147D01*
X75636297Y-57449044D01*
X75568926Y-57600226D01*
X75477110Y-57717359D01*
X75358489Y-57802511D01*
X75210702Y-57857752D01*
X75156233Y-57869566D01*
X75079390Y-57882961D01*
X75023644Y-57888622D01*
X74970667Y-57886620D01*
X74902130Y-57877023D01*
X74863879Y-57870675D01*
X74725570Y-57826762D01*
X74593722Y-57744576D01*
X74490844Y-57646597D01*
X74404084Y-57548032D01*
X74404084Y-57829159D01*
X73790250Y-57829159D01*
X73790250Y-55881826D01*
X74404084Y-55881826D01*
X74405345Y-56437451D01*
G37*
X74405345Y-56437451D02*
X74406374Y-56637057D01*
X74408757Y-56799057D01*
X74412939Y-56928166D01*
X74419365Y-57029100D01*
X74428478Y-57106578D01*
X74440723Y-57165314D01*
X74456545Y-57210025D01*
X74476387Y-57245428D01*
X74482247Y-57253674D01*
X74565021Y-57336927D01*
X74660601Y-57387510D01*
X74761204Y-57405484D01*
X74859044Y-57390910D01*
X74946338Y-57343848D01*
X75015301Y-57264360D01*
X75023683Y-57249455D01*
X75036786Y-57222766D01*
X75047232Y-57194420D01*
X75055397Y-57159333D01*
X75061659Y-57112424D01*
X75066395Y-57048610D01*
X75069980Y-56962808D01*
X75072793Y-56849935D01*
X75075209Y-56704909D01*
X75077606Y-56522647D01*
X75077613Y-56522118D01*
X75085555Y-55881826D01*
X75698676Y-55881826D01*
X75690416Y-56596201D01*
X75688006Y-56791248D01*
X75685540Y-56949058D01*
X75682693Y-57074728D01*
X75679145Y-57173352D01*
X75674569Y-57250027D01*
X75668645Y-57309848D01*
X75661047Y-57357911D01*
X75651453Y-57399312D01*
X75639539Y-57439147D01*
X75636297Y-57449044D01*
X75568926Y-57600226D01*
X75477110Y-57717359D01*
X75358489Y-57802511D01*
X75210702Y-57857752D01*
X75156233Y-57869566D01*
X75079390Y-57882961D01*
X75023644Y-57888622D01*
X74970667Y-57886620D01*
X74902130Y-57877023D01*
X74863879Y-57870675D01*
X74725570Y-57826762D01*
X74593722Y-57744576D01*
X74490844Y-57646597D01*
X74404084Y-57548032D01*
X74404084Y-57829159D01*
X73790250Y-57829159D01*
X73790250Y-55881826D01*
X74404084Y-55881826D01*
X74405345Y-56437451D01*
G36*
X76035757Y-56875414D02*
G01*
X76663269Y-56875414D01*
X76675425Y-57018715D01*
X76706388Y-57147233D01*
X76741303Y-57224922D01*
X76815837Y-57312616D01*
X76915509Y-57372754D01*
X77031451Y-57402991D01*
X77154793Y-57400983D01*
X77273831Y-57365687D01*
X77374646Y-57297539D01*
X77448262Y-57197377D01*
X77494403Y-57065859D01*
X77512788Y-56903644D01*
X77511133Y-56804510D01*
X77491997Y-56654546D01*
X77451170Y-56535716D01*
X77385882Y-56441283D01*
X77346216Y-56403628D01*
X77242959Y-56341158D01*
X77128062Y-56311790D01*
X77010595Y-56314256D01*
X76899627Y-56347286D01*
X76804227Y-56409612D01*
X76739896Y-56488463D01*
X76695480Y-56597123D01*
X76669945Y-56730495D01*
X76663269Y-56875414D01*
X76035757Y-56875414D01*
X76036540Y-56726863D01*
X76057092Y-56567897D01*
X76066363Y-56528149D01*
X76135028Y-56343689D01*
X76237415Y-56183732D01*
X76371236Y-56050522D01*
X76534207Y-55946300D01*
X76724040Y-55873309D01*
X76737834Y-55869545D01*
X76834849Y-55852403D01*
X76959151Y-55842785D01*
X77096377Y-55840641D01*
X77232163Y-55845921D01*
X77352146Y-55858576D01*
X77419454Y-55871903D01*
X77611696Y-55942110D01*
X77777690Y-56044369D01*
X77915570Y-56176126D01*
X78023468Y-56334826D01*
X78099517Y-56517912D01*
X78141850Y-56722831D01*
X78150424Y-56872260D01*
X78142399Y-56979083D01*
X78120652Y-57104728D01*
X78089161Y-57231975D01*
X78051902Y-57343607D01*
X78030335Y-57392221D01*
X77939043Y-57529185D01*
X77815141Y-57651390D01*
X77667594Y-57752055D01*
X77505367Y-57824397D01*
X77430917Y-57845679D01*
X77307893Y-57866555D01*
X77164234Y-57878574D01*
X77020091Y-57880770D01*
X76895617Y-57872176D01*
X76891167Y-57871572D01*
X76692556Y-57824776D01*
X76511553Y-57743967D01*
X76353161Y-57632534D01*
X76222384Y-57493865D01*
X76139267Y-57362223D01*
X76088148Y-57229806D01*
X76053219Y-57070991D01*
X76035633Y-56898952D01*
X76035757Y-56875414D01*
G37*
X76035757Y-56875414D02*
X76663269Y-56875414D01*
X76675425Y-57018715D01*
X76706388Y-57147233D01*
X76741303Y-57224922D01*
X76815837Y-57312616D01*
X76915509Y-57372754D01*
X77031451Y-57402991D01*
X77154793Y-57400983D01*
X77273831Y-57365687D01*
X77374646Y-57297539D01*
X77448262Y-57197377D01*
X77494403Y-57065859D01*
X77512788Y-56903644D01*
X77511133Y-56804510D01*
X77491997Y-56654546D01*
X77451170Y-56535716D01*
X77385882Y-56441283D01*
X77346216Y-56403628D01*
X77242959Y-56341158D01*
X77128062Y-56311790D01*
X77010595Y-56314256D01*
X76899627Y-56347286D01*
X76804227Y-56409612D01*
X76739896Y-56488463D01*
X76695480Y-56597123D01*
X76669945Y-56730495D01*
X76663269Y-56875414D01*
X76035757Y-56875414D01*
X76036540Y-56726863D01*
X76057092Y-56567897D01*
X76066363Y-56528149D01*
X76135028Y-56343689D01*
X76237415Y-56183732D01*
X76371236Y-56050522D01*
X76534207Y-55946300D01*
X76724040Y-55873309D01*
X76737834Y-55869545D01*
X76834849Y-55852403D01*
X76959151Y-55842785D01*
X77096377Y-55840641D01*
X77232163Y-55845921D01*
X77352146Y-55858576D01*
X77419454Y-55871903D01*
X77611696Y-55942110D01*
X77777690Y-56044369D01*
X77915570Y-56176126D01*
X78023468Y-56334826D01*
X78099517Y-56517912D01*
X78141850Y-56722831D01*
X78150424Y-56872260D01*
X78142399Y-56979083D01*
X78120652Y-57104728D01*
X78089161Y-57231975D01*
X78051902Y-57343607D01*
X78030335Y-57392221D01*
X77939043Y-57529185D01*
X77815141Y-57651390D01*
X77667594Y-57752055D01*
X77505367Y-57824397D01*
X77430917Y-57845679D01*
X77307893Y-57866555D01*
X77164234Y-57878574D01*
X77020091Y-57880770D01*
X76895617Y-57872176D01*
X76891167Y-57871572D01*
X76692556Y-57824776D01*
X76511553Y-57743967D01*
X76353161Y-57632534D01*
X76222384Y-57493865D01*
X76139267Y-57362223D01*
X76088148Y-57229806D01*
X76053219Y-57070991D01*
X76035633Y-56898952D01*
X76035757Y-56875414D01*
G36*
X81978678Y-55294692D02*
G01*
X82033459Y-55309252D01*
X82105893Y-55329785D01*
X82111760Y-55331493D01*
X82213583Y-55361191D01*
X82327221Y-55394340D01*
X82405084Y-55417055D01*
X82553250Y-55460285D01*
X82553250Y-55881826D01*
X82870750Y-55881826D01*
X82870750Y-56347493D01*
X82556322Y-56347493D01*
X82548653Y-56913701D01*
X82545874Y-57095667D01*
X82542376Y-57240873D01*
X82537204Y-57354890D01*
X82529404Y-57443290D01*
X82518021Y-57511645D01*
X82502098Y-57565527D01*
X82480683Y-57610508D01*
X82452818Y-57652159D01*
X82417549Y-57696053D01*
X82413788Y-57700532D01*
X82322041Y-57780957D01*
X82199775Y-57838591D01*
X82077733Y-57869566D01*
X81998351Y-57882662D01*
X81932746Y-57888111D01*
X81862255Y-57886450D01*
X81770084Y-57878403D01*
X81699845Y-57867766D01*
X81620880Y-57851043D01*
X81606042Y-57847289D01*
X81516084Y-57823657D01*
X81516084Y-57591106D01*
X81516358Y-57489620D01*
X81518189Y-57423553D01*
X81523084Y-57385993D01*
X81532553Y-57370026D01*
X81548106Y-57368739D01*
X81563709Y-57372957D01*
X81615907Y-57385180D01*
X81684123Y-57397012D01*
X81698260Y-57399004D01*
X81758896Y-57402286D01*
X81804524Y-57387346D01*
X81856224Y-57347213D01*
X81857010Y-57346512D01*
X81928834Y-57282377D01*
X81941708Y-56347493D01*
X81516084Y-56347493D01*
X81516084Y-55881826D01*
X81939417Y-55881826D01*
X81939417Y-55585493D01*
X81940330Y-55478992D01*
X81942837Y-55389471D01*
X81946591Y-55324504D01*
X81951245Y-55291662D01*
X81953010Y-55289159D01*
X81978678Y-55294692D01*
G37*
X81978678Y-55294692D02*
X82033459Y-55309252D01*
X82105893Y-55329785D01*
X82111760Y-55331493D01*
X82213583Y-55361191D01*
X82327221Y-55394340D01*
X82405084Y-55417055D01*
X82553250Y-55460285D01*
X82553250Y-55881826D01*
X82870750Y-55881826D01*
X82870750Y-56347493D01*
X82556322Y-56347493D01*
X82548653Y-56913701D01*
X82545874Y-57095667D01*
X82542376Y-57240873D01*
X82537204Y-57354890D01*
X82529404Y-57443290D01*
X82518021Y-57511645D01*
X82502098Y-57565527D01*
X82480683Y-57610508D01*
X82452818Y-57652159D01*
X82417549Y-57696053D01*
X82413788Y-57700532D01*
X82322041Y-57780957D01*
X82199775Y-57838591D01*
X82077733Y-57869566D01*
X81998351Y-57882662D01*
X81932746Y-57888111D01*
X81862255Y-57886450D01*
X81770084Y-57878403D01*
X81699845Y-57867766D01*
X81620880Y-57851043D01*
X81606042Y-57847289D01*
X81516084Y-57823657D01*
X81516084Y-57591106D01*
X81516358Y-57489620D01*
X81518189Y-57423553D01*
X81523084Y-57385993D01*
X81532553Y-57370026D01*
X81548106Y-57368739D01*
X81563709Y-57372957D01*
X81615907Y-57385180D01*
X81684123Y-57397012D01*
X81698260Y-57399004D01*
X81758896Y-57402286D01*
X81804524Y-57387346D01*
X81856224Y-57347213D01*
X81857010Y-57346512D01*
X81928834Y-57282377D01*
X81941708Y-56347493D01*
X81516084Y-56347493D01*
X81516084Y-55881826D01*
X81939417Y-55881826D01*
X81939417Y-55585493D01*
X81940330Y-55478992D01*
X81942837Y-55389471D01*
X81946591Y-55324504D01*
X81951245Y-55291662D01*
X81953010Y-55289159D01*
X81978678Y-55294692D01*
G36*
X83147162Y-57028436D02*
G01*
X83739048Y-57028436D01*
X83756352Y-57166292D01*
X83806049Y-57279254D01*
X83886664Y-57364996D01*
X83985891Y-57417493D01*
X84048447Y-57438374D01*
X84092130Y-57445321D01*
X84137720Y-57439225D01*
X84187412Y-57426145D01*
X84271912Y-57383702D01*
X84327924Y-57317011D01*
X84352508Y-57235570D01*
X84342720Y-57148882D01*
X84297955Y-57069183D01*
X84250879Y-57025807D01*
X84188338Y-56994008D01*
X84101608Y-56970637D01*
X83981966Y-56952544D01*
X83971417Y-56951311D01*
X83893850Y-56941574D01*
X83824576Y-56931528D01*
X83796792Y-56926774D01*
X83763150Y-56922297D01*
X83745921Y-56931934D01*
X83739695Y-56965211D01*
X83739048Y-57028436D01*
X83147162Y-57028436D01*
X83147221Y-57014092D01*
X83149899Y-56834161D01*
X83154902Y-56686270D01*
X83162762Y-56565283D01*
X83174014Y-56466063D01*
X83189189Y-56383472D01*
X83208820Y-56312373D01*
X83233440Y-56247630D01*
X83252662Y-56205924D01*
X83317694Y-56095344D01*
X83396289Y-56010524D01*
X83499790Y-55940714D01*
X83569250Y-55905833D01*
X83625356Y-55882235D01*
X83680436Y-55866024D01*
X83745272Y-55855458D01*
X83830645Y-55848792D01*
X83947338Y-55844281D01*
X83950250Y-55844195D01*
X84072707Y-55841896D01*
X84167427Y-55844191D01*
X84248884Y-55852466D01*
X84331553Y-55868109D01*
X84415917Y-55888843D01*
X84509627Y-55914020D01*
X84593778Y-55937985D01*
X84655862Y-55957114D01*
X84675209Y-55963924D01*
X84733417Y-55986611D01*
X84733417Y-56219969D01*
X84732807Y-56313647D01*
X84731155Y-56389383D01*
X84728723Y-56438644D01*
X84726214Y-56453326D01*
X84705091Y-56444608D01*
X84656785Y-56421788D01*
X84593923Y-56390881D01*
X84443612Y-56328051D01*
X84289547Y-56285520D01*
X84141076Y-56264597D01*
X84007545Y-56266591D01*
X83898301Y-56292810D01*
X83897117Y-56293302D01*
X83831840Y-56337159D01*
X83776929Y-56402738D01*
X83743663Y-56474662D01*
X83738663Y-56509348D01*
X83742421Y-56531698D01*
X83759147Y-56547420D01*
X83796876Y-56559560D01*
X83863642Y-56571163D01*
X83923792Y-56579509D01*
X84100408Y-56604088D01*
X84241506Y-56626319D01*
X84353728Y-56647666D01*
X84443719Y-56669593D01*
X84518121Y-56693563D01*
X84583576Y-56721041D01*
X84598450Y-56728201D01*
X84727572Y-56808547D01*
X84822236Y-56907422D01*
X84884742Y-57028859D01*
X84917390Y-57176888D01*
X84923710Y-57298471D01*
X84906864Y-57463539D01*
X84856809Y-57602401D01*
X84773583Y-57714997D01*
X84657220Y-57801268D01*
X84606417Y-57826223D01*
X84482006Y-57864185D01*
X84340329Y-57881341D01*
X84202166Y-57875445D01*
X84181400Y-57872145D01*
X84027824Y-57823713D01*
X83888283Y-57737424D01*
X83822377Y-57677564D01*
X83738584Y-57591221D01*
X83738584Y-57829159D01*
X83145917Y-57829159D01*
X83146336Y-57231201D01*
X83147162Y-57028436D01*
G37*
X83147162Y-57028436D02*
X83739048Y-57028436D01*
X83756352Y-57166292D01*
X83806049Y-57279254D01*
X83886664Y-57364996D01*
X83985891Y-57417493D01*
X84048447Y-57438374D01*
X84092130Y-57445321D01*
X84137720Y-57439225D01*
X84187412Y-57426145D01*
X84271912Y-57383702D01*
X84327924Y-57317011D01*
X84352508Y-57235570D01*
X84342720Y-57148882D01*
X84297955Y-57069183D01*
X84250879Y-57025807D01*
X84188338Y-56994008D01*
X84101608Y-56970637D01*
X83981966Y-56952544D01*
X83971417Y-56951311D01*
X83893850Y-56941574D01*
X83824576Y-56931528D01*
X83796792Y-56926774D01*
X83763150Y-56922297D01*
X83745921Y-56931934D01*
X83739695Y-56965211D01*
X83739048Y-57028436D01*
X83147162Y-57028436D01*
X83147221Y-57014092D01*
X83149899Y-56834161D01*
X83154902Y-56686270D01*
X83162762Y-56565283D01*
X83174014Y-56466063D01*
X83189189Y-56383472D01*
X83208820Y-56312373D01*
X83233440Y-56247630D01*
X83252662Y-56205924D01*
X83317694Y-56095344D01*
X83396289Y-56010524D01*
X83499790Y-55940714D01*
X83569250Y-55905833D01*
X83625356Y-55882235D01*
X83680436Y-55866024D01*
X83745272Y-55855458D01*
X83830645Y-55848792D01*
X83947338Y-55844281D01*
X83950250Y-55844195D01*
X84072707Y-55841896D01*
X84167427Y-55844191D01*
X84248884Y-55852466D01*
X84331553Y-55868109D01*
X84415917Y-55888843D01*
X84509627Y-55914020D01*
X84593778Y-55937985D01*
X84655862Y-55957114D01*
X84675209Y-55963924D01*
X84733417Y-55986611D01*
X84733417Y-56219969D01*
X84732807Y-56313647D01*
X84731155Y-56389383D01*
X84728723Y-56438644D01*
X84726214Y-56453326D01*
X84705091Y-56444608D01*
X84656785Y-56421788D01*
X84593923Y-56390881D01*
X84443612Y-56328051D01*
X84289547Y-56285520D01*
X84141076Y-56264597D01*
X84007545Y-56266591D01*
X83898301Y-56292810D01*
X83897117Y-56293302D01*
X83831840Y-56337159D01*
X83776929Y-56402738D01*
X83743663Y-56474662D01*
X83738663Y-56509348D01*
X83742421Y-56531698D01*
X83759147Y-56547420D01*
X83796876Y-56559560D01*
X83863642Y-56571163D01*
X83923792Y-56579509D01*
X84100408Y-56604088D01*
X84241506Y-56626319D01*
X84353728Y-56647666D01*
X84443719Y-56669593D01*
X84518121Y-56693563D01*
X84583576Y-56721041D01*
X84598450Y-56728201D01*
X84727572Y-56808547D01*
X84822236Y-56907422D01*
X84884742Y-57028859D01*
X84917390Y-57176888D01*
X84923710Y-57298471D01*
X84906864Y-57463539D01*
X84856809Y-57602401D01*
X84773583Y-57714997D01*
X84657220Y-57801268D01*
X84606417Y-57826223D01*
X84482006Y-57864185D01*
X84340329Y-57881341D01*
X84202166Y-57875445D01*
X84181400Y-57872145D01*
X84027824Y-57823713D01*
X83888283Y-57737424D01*
X83822377Y-57677564D01*
X83738584Y-57591221D01*
X83738584Y-57829159D01*
X83145917Y-57829159D01*
X83146336Y-57231201D01*
X83147162Y-57028436D01*
G36*
X86209323Y-56620236D02*
G01*
X86226100Y-56495421D01*
X86252765Y-56390602D01*
X86292232Y-56294708D01*
X86347413Y-56196668D01*
X86355256Y-56184191D01*
X86460975Y-56056483D01*
X86598134Y-55954878D01*
X86762767Y-55882274D01*
X86772614Y-55879157D01*
X86849344Y-55857937D01*
X86920831Y-55845587D01*
X87001301Y-55840756D01*
X87104978Y-55842095D01*
X87146541Y-55843653D01*
X87254538Y-55849341D01*
X87333326Y-55857771D01*
X87396031Y-55871691D01*
X87455776Y-55893846D01*
X87511710Y-55920057D01*
X87685143Y-56027707D01*
X87828624Y-56163560D01*
X87940705Y-56324518D01*
X88019937Y-56507484D01*
X88064869Y-56709362D01*
X88074055Y-56927053D01*
X88058257Y-57088372D01*
X88009549Y-57284247D01*
X87928628Y-57457382D01*
X87818281Y-57604568D01*
X87681295Y-57722597D01*
X87520455Y-57808260D01*
X87400417Y-57846023D01*
X87317665Y-57860442D01*
X87210471Y-57872181D01*
X87094799Y-57880179D01*
X86986610Y-57883376D01*
X86901868Y-57880713D01*
X86892417Y-57879771D01*
X86738961Y-57857127D01*
X86598120Y-57826266D01*
X86483329Y-57790243D01*
X86463792Y-57782308D01*
X86363250Y-57739279D01*
X86363250Y-57519636D01*
X86364792Y-57428984D01*
X86368958Y-57356533D01*
X86375060Y-57311078D01*
X86380441Y-57299993D01*
X86408635Y-57308498D01*
X86459030Y-57329864D01*
X86480983Y-57340168D01*
X86615133Y-57393292D01*
X86755514Y-57423463D01*
X86917840Y-57433931D01*
X86934750Y-57434018D01*
X87099927Y-57421312D01*
X87232775Y-57382209D01*
X87334807Y-57315738D01*
X87407540Y-57220934D01*
X87450766Y-57104201D01*
X87464723Y-57045993D01*
X86188298Y-57045993D01*
X86199523Y-56776118D01*
X86207839Y-56643826D01*
X86761696Y-56643826D01*
X87466770Y-56643826D01*
X87452405Y-56596201D01*
X87395279Y-56462386D01*
X87309860Y-56353861D01*
X87292347Y-56337407D01*
X87235684Y-56291589D01*
X87185249Y-56269560D01*
X87119597Y-56263068D01*
X87098731Y-56262905D01*
X86980449Y-56278202D01*
X86889555Y-56324860D01*
X86824464Y-56404313D01*
X86783589Y-56517993D01*
X86776643Y-56553868D01*
X86761696Y-56643826D01*
X86207839Y-56643826D01*
X86209323Y-56620236D01*
G37*
X86209323Y-56620236D02*
X86226100Y-56495421D01*
X86252765Y-56390602D01*
X86292232Y-56294708D01*
X86347413Y-56196668D01*
X86355256Y-56184191D01*
X86460975Y-56056483D01*
X86598134Y-55954878D01*
X86762767Y-55882274D01*
X86772614Y-55879157D01*
X86849344Y-55857937D01*
X86920831Y-55845587D01*
X87001301Y-55840756D01*
X87104978Y-55842095D01*
X87146541Y-55843653D01*
X87254538Y-55849341D01*
X87333326Y-55857771D01*
X87396031Y-55871691D01*
X87455776Y-55893846D01*
X87511710Y-55920057D01*
X87685143Y-56027707D01*
X87828624Y-56163560D01*
X87940705Y-56324518D01*
X88019937Y-56507484D01*
X88064869Y-56709362D01*
X88074055Y-56927053D01*
X88058257Y-57088372D01*
X88009549Y-57284247D01*
X87928628Y-57457382D01*
X87818281Y-57604568D01*
X87681295Y-57722597D01*
X87520455Y-57808260D01*
X87400417Y-57846023D01*
X87317665Y-57860442D01*
X87210471Y-57872181D01*
X87094799Y-57880179D01*
X86986610Y-57883376D01*
X86901868Y-57880713D01*
X86892417Y-57879771D01*
X86738961Y-57857127D01*
X86598120Y-57826266D01*
X86483329Y-57790243D01*
X86463792Y-57782308D01*
X86363250Y-57739279D01*
X86363250Y-57519636D01*
X86364792Y-57428984D01*
X86368958Y-57356533D01*
X86375060Y-57311078D01*
X86380441Y-57299993D01*
X86408635Y-57308498D01*
X86459030Y-57329864D01*
X86480983Y-57340168D01*
X86615133Y-57393292D01*
X86755514Y-57423463D01*
X86917840Y-57433931D01*
X86934750Y-57434018D01*
X87099927Y-57421312D01*
X87232775Y-57382209D01*
X87334807Y-57315738D01*
X87407540Y-57220934D01*
X87450766Y-57104201D01*
X87464723Y-57045993D01*
X86188298Y-57045993D01*
X86199523Y-56776118D01*
X86207839Y-56643826D01*
X86761696Y-56643826D01*
X87466770Y-56643826D01*
X87452405Y-56596201D01*
X87395279Y-56462386D01*
X87309860Y-56353861D01*
X87292347Y-56337407D01*
X87235684Y-56291589D01*
X87185249Y-56269560D01*
X87119597Y-56263068D01*
X87098731Y-56262905D01*
X86980449Y-56278202D01*
X86889555Y-56324860D01*
X86824464Y-56404313D01*
X86783589Y-56517993D01*
X86776643Y-56553868D01*
X86761696Y-56643826D01*
X86207839Y-56643826D01*
X86209323Y-56620236D01*
G36*
X89051833Y-55844548D02*
G01*
X89156629Y-55849907D01*
X89220750Y-55858478D01*
X89398280Y-55912067D01*
X89544951Y-55991195D01*
X89659037Y-56093394D01*
X89738812Y-56216195D01*
X89782548Y-56357132D01*
X89788520Y-56513737D01*
X89767260Y-56639656D01*
X89738027Y-56716365D01*
X89685940Y-56791309D01*
X89634428Y-56846742D01*
X89595033Y-56884900D01*
X89557672Y-56916420D01*
X89515989Y-56944468D01*
X89463629Y-56972209D01*
X89394234Y-57002809D01*
X89301448Y-57039434D01*
X89178915Y-57085247D01*
X89089681Y-57118021D01*
X88984765Y-57166531D01*
X88915195Y-57220899D01*
X88882812Y-57278387D01*
X88889459Y-57336258D01*
X88917118Y-57374337D01*
X88967573Y-57411931D01*
X89034055Y-57435082D01*
X89126110Y-57446215D01*
X89207703Y-57448159D01*
X89412890Y-57427577D01*
X89612929Y-57365471D01*
X89691709Y-57329025D01*
X89792250Y-57278113D01*
X89792250Y-57785186D01*
X89681125Y-57818337D01*
X89610927Y-57834954D01*
X89515079Y-57852063D01*
X89407086Y-57867865D01*
X89300457Y-57880560D01*
X89208698Y-57888350D01*
X89146667Y-57889517D01*
X89102170Y-57885405D01*
X89034178Y-57877486D01*
X88987917Y-57871530D01*
X88809867Y-57838791D01*
X88665054Y-57791268D01*
X88546021Y-57725849D01*
X88454862Y-57649193D01*
X88371698Y-57547814D01*
X88320565Y-57437857D01*
X88295781Y-57306168D01*
X88293450Y-57275467D01*
X88293889Y-57145482D01*
X88314837Y-57035349D01*
X88359901Y-56940936D01*
X88432686Y-56858110D01*
X88536800Y-56782740D01*
X88675850Y-56710696D01*
X88848390Y-56639751D01*
X88970590Y-56591715D01*
X89057819Y-56552004D01*
X89115604Y-56516618D01*
X89149475Y-56481559D01*
X89164960Y-56442830D01*
X89167834Y-56408708D01*
X89161476Y-56357151D01*
X89134715Y-56323649D01*
X89093750Y-56299900D01*
X88988379Y-56268543D01*
X88857149Y-56264361D01*
X88706055Y-56286646D01*
X88541091Y-56334691D01*
X88432292Y-56378063D01*
X88416375Y-56381882D01*
X88405793Y-56372290D01*
X88399470Y-56342711D01*
X88396334Y-56286567D01*
X88395309Y-56197279D01*
X88395250Y-56151248D01*
X88395250Y-55908142D01*
X88485209Y-55882961D01*
X88563237Y-55867949D01*
X88671208Y-55856192D01*
X88796828Y-55848100D01*
X88927801Y-55844083D01*
X89051833Y-55844548D01*
G37*
X89051833Y-55844548D02*
X89156629Y-55849907D01*
X89220750Y-55858478D01*
X89398280Y-55912067D01*
X89544951Y-55991195D01*
X89659037Y-56093394D01*
X89738812Y-56216195D01*
X89782548Y-56357132D01*
X89788520Y-56513737D01*
X89767260Y-56639656D01*
X89738027Y-56716365D01*
X89685940Y-56791309D01*
X89634428Y-56846742D01*
X89595033Y-56884900D01*
X89557672Y-56916420D01*
X89515989Y-56944468D01*
X89463629Y-56972209D01*
X89394234Y-57002809D01*
X89301448Y-57039434D01*
X89178915Y-57085247D01*
X89089681Y-57118021D01*
X88984765Y-57166531D01*
X88915195Y-57220899D01*
X88882812Y-57278387D01*
X88889459Y-57336258D01*
X88917118Y-57374337D01*
X88967573Y-57411931D01*
X89034055Y-57435082D01*
X89126110Y-57446215D01*
X89207703Y-57448159D01*
X89412890Y-57427577D01*
X89612929Y-57365471D01*
X89691709Y-57329025D01*
X89792250Y-57278113D01*
X89792250Y-57785186D01*
X89681125Y-57818337D01*
X89610927Y-57834954D01*
X89515079Y-57852063D01*
X89407086Y-57867865D01*
X89300457Y-57880560D01*
X89208698Y-57888350D01*
X89146667Y-57889517D01*
X89102170Y-57885405D01*
X89034178Y-57877486D01*
X88987917Y-57871530D01*
X88809867Y-57838791D01*
X88665054Y-57791268D01*
X88546021Y-57725849D01*
X88454862Y-57649193D01*
X88371698Y-57547814D01*
X88320565Y-57437857D01*
X88295781Y-57306168D01*
X88293450Y-57275467D01*
X88293889Y-57145482D01*
X88314837Y-57035349D01*
X88359901Y-56940936D01*
X88432686Y-56858110D01*
X88536800Y-56782740D01*
X88675850Y-56710696D01*
X88848390Y-56639751D01*
X88970590Y-56591715D01*
X89057819Y-56552004D01*
X89115604Y-56516618D01*
X89149475Y-56481559D01*
X89164960Y-56442830D01*
X89167834Y-56408708D01*
X89161476Y-56357151D01*
X89134715Y-56323649D01*
X89093750Y-56299900D01*
X88988379Y-56268543D01*
X88857149Y-56264361D01*
X88706055Y-56286646D01*
X88541091Y-56334691D01*
X88432292Y-56378063D01*
X88416375Y-56381882D01*
X88405793Y-56372290D01*
X88399470Y-56342711D01*
X88396334Y-56286567D01*
X88395309Y-56197279D01*
X88395250Y-56151248D01*
X88395250Y-55908142D01*
X88485209Y-55882961D01*
X88563237Y-55867949D01*
X88671208Y-55856192D01*
X88796828Y-55848100D01*
X88927801Y-55844083D01*
X89051833Y-55844548D01*
G36*
X90812324Y-56024701D02*
G01*
X90813933Y-56246930D01*
X90815495Y-56430950D01*
X90817230Y-56580884D01*
X90819356Y-56700853D01*
X90822095Y-56794982D01*
X90825665Y-56867392D01*
X90830286Y-56922207D01*
X90836178Y-56963550D01*
X90843561Y-56995544D01*
X90852654Y-57022311D01*
X90863676Y-57047975D01*
X90867267Y-57055802D01*
X90901695Y-57123449D01*
X90936097Y-57180117D01*
X90951934Y-57200930D01*
X91041440Y-57270502D01*
X91153450Y-57313789D01*
X91277874Y-57331099D01*
X91404621Y-57322740D01*
X91523603Y-57289018D01*
X91624729Y-57230242D01*
X91676005Y-57178875D01*
X91702795Y-57144494D01*
X91725114Y-57112795D01*
X91743399Y-57079703D01*
X91758087Y-57041142D01*
X91769615Y-56993038D01*
X91778419Y-56931314D01*
X91784938Y-56851897D01*
X91789607Y-56750710D01*
X91792863Y-56623679D01*
X91795144Y-56466729D01*
X91796886Y-56275784D01*
X91798526Y-56046769D01*
X91798605Y-56035284D01*
X91805128Y-55098659D01*
X92438084Y-55098659D01*
X92437716Y-56014118D01*
X92437369Y-56258918D01*
X92436248Y-56465755D01*
X92433912Y-56639000D01*
X92429922Y-56783022D01*
X92423838Y-56902191D01*
X92415220Y-57000876D01*
X92403628Y-57083447D01*
X92388622Y-57154273D01*
X92369763Y-57217725D01*
X92346609Y-57278172D01*
X92318723Y-57339983D01*
X92300438Y-57377708D01*
X92200365Y-57537799D01*
X92072672Y-57666467D01*
X91916177Y-57764644D01*
X91729697Y-57833261D01*
X91718417Y-57836229D01*
X91584613Y-57861588D01*
X91428849Y-57876817D01*
X91270539Y-57880752D01*
X91129095Y-57872226D01*
X91125750Y-57871819D01*
X90907929Y-57830325D01*
X90722424Y-57762856D01*
X90567057Y-57667982D01*
X90439653Y-57544270D01*
X90338033Y-57390289D01*
X90311501Y-57336348D01*
X90283699Y-57274661D01*
X90260441Y-57218521D01*
X90241276Y-57163504D01*
X90225756Y-57105187D01*
X90213430Y-57039145D01*
X90203849Y-56960953D01*
X90196565Y-56866188D01*
X90191127Y-56750426D01*
X90187085Y-56609242D01*
X90183991Y-56438213D01*
X90181395Y-56232913D01*
X90179317Y-56035284D01*
X90169816Y-55098659D01*
X90805814Y-55098659D01*
X90812324Y-56024701D01*
G37*
X90812324Y-56024701D02*
X90813933Y-56246930D01*
X90815495Y-56430950D01*
X90817230Y-56580884D01*
X90819356Y-56700853D01*
X90822095Y-56794982D01*
X90825665Y-56867392D01*
X90830286Y-56922207D01*
X90836178Y-56963550D01*
X90843561Y-56995544D01*
X90852654Y-57022311D01*
X90863676Y-57047975D01*
X90867267Y-57055802D01*
X90901695Y-57123449D01*
X90936097Y-57180117D01*
X90951934Y-57200930D01*
X91041440Y-57270502D01*
X91153450Y-57313789D01*
X91277874Y-57331099D01*
X91404621Y-57322740D01*
X91523603Y-57289018D01*
X91624729Y-57230242D01*
X91676005Y-57178875D01*
X91702795Y-57144494D01*
X91725114Y-57112795D01*
X91743399Y-57079703D01*
X91758087Y-57041142D01*
X91769615Y-56993038D01*
X91778419Y-56931314D01*
X91784938Y-56851897D01*
X91789607Y-56750710D01*
X91792863Y-56623679D01*
X91795144Y-56466729D01*
X91796886Y-56275784D01*
X91798526Y-56046769D01*
X91798605Y-56035284D01*
X91805128Y-55098659D01*
X92438084Y-55098659D01*
X92437716Y-56014118D01*
X92437369Y-56258918D01*
X92436248Y-56465755D01*
X92433912Y-56639000D01*
X92429922Y-56783022D01*
X92423838Y-56902191D01*
X92415220Y-57000876D01*
X92403628Y-57083447D01*
X92388622Y-57154273D01*
X92369763Y-57217725D01*
X92346609Y-57278172D01*
X92318723Y-57339983D01*
X92300438Y-57377708D01*
X92200365Y-57537799D01*
X92072672Y-57666467D01*
X91916177Y-57764644D01*
X91729697Y-57833261D01*
X91718417Y-57836229D01*
X91584613Y-57861588D01*
X91428849Y-57876817D01*
X91270539Y-57880752D01*
X91129095Y-57872226D01*
X91125750Y-57871819D01*
X90907929Y-57830325D01*
X90722424Y-57762856D01*
X90567057Y-57667982D01*
X90439653Y-57544270D01*
X90338033Y-57390289D01*
X90311501Y-57336348D01*
X90283699Y-57274661D01*
X90260441Y-57218521D01*
X90241276Y-57163504D01*
X90225756Y-57105187D01*
X90213430Y-57039145D01*
X90203849Y-56960953D01*
X90196565Y-56866188D01*
X90191127Y-56750426D01*
X90187085Y-56609242D01*
X90183991Y-56438213D01*
X90181395Y-56232913D01*
X90179317Y-56035284D01*
X90169816Y-55098659D01*
X90805814Y-55098659D01*
X90812324Y-56024701D01*
G36*
X53724250Y-57829159D02*
G01*
X53089250Y-57829159D01*
X53089250Y-56557643D01*
X52666072Y-57193401D01*
X52242895Y-57829159D01*
X51433226Y-57829159D01*
X51485313Y-57760368D01*
X51529414Y-57701259D01*
X51590377Y-57618308D01*
X51664928Y-57516071D01*
X51749798Y-57399104D01*
X51841714Y-57271964D01*
X51937404Y-57139205D01*
X52033598Y-57005384D01*
X52127024Y-56875056D01*
X52214409Y-56752779D01*
X52292482Y-56643107D01*
X52357973Y-56550597D01*
X52407608Y-56479805D01*
X52438117Y-56435286D01*
X52446487Y-56421860D01*
X52436994Y-56398374D01*
X52404722Y-56344653D01*
X52352191Y-56264401D01*
X52281923Y-56161325D01*
X52196439Y-56039131D01*
X52098259Y-55901523D01*
X52004540Y-55772237D01*
X51900134Y-55629070D01*
X51803368Y-55496112D01*
X51717147Y-55377377D01*
X51644378Y-55276879D01*
X51587968Y-55198632D01*
X51550823Y-55146649D01*
X51535949Y-55125118D01*
X51538859Y-55115324D01*
X51563722Y-55108134D01*
X51615006Y-55103222D01*
X51697177Y-55100264D01*
X51814705Y-55098932D01*
X51897376Y-55098775D01*
X52274334Y-55098891D01*
X52644750Y-55661614D01*
X52737165Y-55802376D01*
X52823456Y-55934513D01*
X52900475Y-56053149D01*
X52965073Y-56153408D01*
X53014102Y-56230414D01*
X53044413Y-56279293D01*
X53051321Y-56291206D01*
X53061621Y-56308657D01*
X53069764Y-56315952D01*
X53076012Y-56309122D01*
X53080627Y-56284196D01*
X53083868Y-56237205D01*
X53085998Y-56164180D01*
X53087278Y-56061149D01*
X53087969Y-55924143D01*
X53088333Y-55749192D01*
X53088363Y-55728368D01*
X53089250Y-55098659D01*
X53724250Y-55098659D01*
X53724250Y-57829159D01*
G37*
X53724250Y-57829159D02*
X53089250Y-57829159D01*
X53089250Y-56557643D01*
X52666072Y-57193401D01*
X52242895Y-57829159D01*
X51433226Y-57829159D01*
X51485313Y-57760368D01*
X51529414Y-57701259D01*
X51590377Y-57618308D01*
X51664928Y-57516071D01*
X51749798Y-57399104D01*
X51841714Y-57271964D01*
X51937404Y-57139205D01*
X52033598Y-57005384D01*
X52127024Y-56875056D01*
X52214409Y-56752779D01*
X52292482Y-56643107D01*
X52357973Y-56550597D01*
X52407608Y-56479805D01*
X52438117Y-56435286D01*
X52446487Y-56421860D01*
X52436994Y-56398374D01*
X52404722Y-56344653D01*
X52352191Y-56264401D01*
X52281923Y-56161325D01*
X52196439Y-56039131D01*
X52098259Y-55901523D01*
X52004540Y-55772237D01*
X51900134Y-55629070D01*
X51803368Y-55496112D01*
X51717147Y-55377377D01*
X51644378Y-55276879D01*
X51587968Y-55198632D01*
X51550823Y-55146649D01*
X51535949Y-55125118D01*
X51538859Y-55115324D01*
X51563722Y-55108134D01*
X51615006Y-55103222D01*
X51697177Y-55100264D01*
X51814705Y-55098932D01*
X51897376Y-55098775D01*
X52274334Y-55098891D01*
X52644750Y-55661614D01*
X52737165Y-55802376D01*
X52823456Y-55934513D01*
X52900475Y-56053149D01*
X52965073Y-56153408D01*
X53014102Y-56230414D01*
X53044413Y-56279293D01*
X53051321Y-56291206D01*
X53061621Y-56308657D01*
X53069764Y-56315952D01*
X53076012Y-56309122D01*
X53080627Y-56284196D01*
X53083868Y-56237205D01*
X53085998Y-56164180D01*
X53087278Y-56061149D01*
X53087969Y-55924143D01*
X53088333Y-55749192D01*
X53088363Y-55728368D01*
X53089250Y-55098659D01*
X53724250Y-55098659D01*
X53724250Y-57829159D01*
G36*
X57343750Y-55585493D02*
G01*
X57132084Y-55585493D01*
X57132084Y-57342326D01*
X57343750Y-57342326D01*
X57343750Y-57829159D01*
X56264250Y-57829159D01*
X56264250Y-57342326D01*
X56497084Y-57342326D01*
X56497084Y-55585493D01*
X56264250Y-55585493D01*
X56264250Y-55098659D01*
X57343750Y-55098659D01*
X57343750Y-55585493D01*
G37*
X57343750Y-55585493D02*
X57132084Y-55585493D01*
X57132084Y-57342326D01*
X57343750Y-57342326D01*
X57343750Y-57829159D01*
X56264250Y-57829159D01*
X56264250Y-57342326D01*
X56497084Y-57342326D01*
X56497084Y-55585493D01*
X56264250Y-55585493D01*
X56264250Y-55098659D01*
X57343750Y-55098659D01*
X57343750Y-55585493D01*
G36*
X57693575Y-55918222D02*
G01*
X58346971Y-55918222D01*
X58360205Y-56021422D01*
X58397017Y-56115013D01*
X58405998Y-56129545D01*
X58470807Y-56206520D01*
X58550941Y-56259326D01*
X58653721Y-56290916D01*
X58786473Y-56304245D01*
X58841292Y-56305142D01*
X59037084Y-56305159D01*
X59037084Y-55581850D01*
X58795139Y-55588963D01*
X58673080Y-55594646D01*
X58583914Y-55605745D01*
X58518242Y-55625820D01*
X58466663Y-55658437D01*
X58419778Y-55707158D01*
X58393161Y-55741338D01*
X58357795Y-55820000D01*
X58346971Y-55918222D01*
X57693575Y-55918222D01*
X57693158Y-55850076D01*
X57694984Y-55742394D01*
X57701655Y-55663671D01*
X57715233Y-55600622D01*
X57737780Y-55539964D01*
X57743177Y-55527770D01*
X57805272Y-55425233D01*
X57892051Y-55327676D01*
X57990300Y-55248358D01*
X58059403Y-55210539D01*
X58123556Y-55184400D01*
X58183237Y-55163366D01*
X58244144Y-55146794D01*
X58311975Y-55134040D01*
X58392426Y-55124461D01*
X58491194Y-55117413D01*
X58613977Y-55112255D01*
X58766471Y-55108342D01*
X58954374Y-55105031D01*
X59000042Y-55104334D01*
X59650917Y-55094569D01*
X59650917Y-57829159D01*
X59037084Y-57829159D01*
X59037084Y-56791993D01*
X58943211Y-56791993D01*
X58880183Y-56794526D01*
X58824838Y-56804549D01*
X58773609Y-56825693D01*
X58722931Y-56861591D01*
X58669236Y-56915875D01*
X58608958Y-56992176D01*
X58538530Y-57094128D01*
X58454387Y-57225362D01*
X58352961Y-57389510D01*
X58347106Y-57399082D01*
X58090590Y-57818576D01*
X57362888Y-57830168D01*
X57388514Y-57782284D01*
X57415600Y-57735965D01*
X57461655Y-57661804D01*
X57522450Y-57566241D01*
X57593754Y-57455714D01*
X57671335Y-57336665D01*
X57750963Y-57215533D01*
X57828407Y-57098758D01*
X57899435Y-56992779D01*
X57959818Y-56904037D01*
X58005324Y-56838972D01*
X58029434Y-56806741D01*
X58089533Y-56743158D01*
X58157280Y-56685089D01*
X58184720Y-56665873D01*
X58267168Y-56613836D01*
X58144235Y-56555698D01*
X58007647Y-56473264D01*
X57884648Y-56365283D01*
X57786769Y-56242761D01*
X57751512Y-56180834D01*
X57723843Y-56119872D01*
X57706528Y-56065037D01*
X57697224Y-56003057D01*
X57693589Y-55920660D01*
X57693575Y-55918222D01*
G37*
X57693575Y-55918222D02*
X58346971Y-55918222D01*
X58360205Y-56021422D01*
X58397017Y-56115013D01*
X58405998Y-56129545D01*
X58470807Y-56206520D01*
X58550941Y-56259326D01*
X58653721Y-56290916D01*
X58786473Y-56304245D01*
X58841292Y-56305142D01*
X59037084Y-56305159D01*
X59037084Y-55581850D01*
X58795139Y-55588963D01*
X58673080Y-55594646D01*
X58583914Y-55605745D01*
X58518242Y-55625820D01*
X58466663Y-55658437D01*
X58419778Y-55707158D01*
X58393161Y-55741338D01*
X58357795Y-55820000D01*
X58346971Y-55918222D01*
X57693575Y-55918222D01*
X57693158Y-55850076D01*
X57694984Y-55742394D01*
X57701655Y-55663671D01*
X57715233Y-55600622D01*
X57737780Y-55539964D01*
X57743177Y-55527770D01*
X57805272Y-55425233D01*
X57892051Y-55327676D01*
X57990300Y-55248358D01*
X58059403Y-55210539D01*
X58123556Y-55184400D01*
X58183237Y-55163366D01*
X58244144Y-55146794D01*
X58311975Y-55134040D01*
X58392426Y-55124461D01*
X58491194Y-55117413D01*
X58613977Y-55112255D01*
X58766471Y-55108342D01*
X58954374Y-55105031D01*
X59000042Y-55104334D01*
X59650917Y-55094569D01*
X59650917Y-57829159D01*
X59037084Y-57829159D01*
X59037084Y-56791993D01*
X58943211Y-56791993D01*
X58880183Y-56794526D01*
X58824838Y-56804549D01*
X58773609Y-56825693D01*
X58722931Y-56861591D01*
X58669236Y-56915875D01*
X58608958Y-56992176D01*
X58538530Y-57094128D01*
X58454387Y-57225362D01*
X58352961Y-57389510D01*
X58347106Y-57399082D01*
X58090590Y-57818576D01*
X57362888Y-57830168D01*
X57388514Y-57782284D01*
X57415600Y-57735965D01*
X57461655Y-57661804D01*
X57522450Y-57566241D01*
X57593754Y-57455714D01*
X57671335Y-57336665D01*
X57750963Y-57215533D01*
X57828407Y-57098758D01*
X57899435Y-56992779D01*
X57959818Y-56904037D01*
X58005324Y-56838972D01*
X58029434Y-56806741D01*
X58089533Y-56743158D01*
X58157280Y-56685089D01*
X58184720Y-56665873D01*
X58267168Y-56613836D01*
X58144235Y-56555698D01*
X58007647Y-56473264D01*
X57884648Y-56365283D01*
X57786769Y-56242761D01*
X57751512Y-56180834D01*
X57723843Y-56119872D01*
X57706528Y-56065037D01*
X57697224Y-56003057D01*
X57693589Y-55920660D01*
X57693575Y-55918222D01*
G36*
X63799584Y-57829159D02*
G01*
X63206917Y-57829159D01*
X63206759Y-55934743D01*
X63161991Y-56008826D01*
X63141656Y-56041022D01*
X63100559Y-56104854D01*
X63041153Y-56196555D01*
X62965889Y-56312359D01*
X62877218Y-56448498D01*
X62777590Y-56601207D01*
X62669458Y-56766718D01*
X62555271Y-56941265D01*
X62545603Y-56956034D01*
X61973981Y-57829159D01*
X61323084Y-57829159D01*
X61323084Y-55098659D01*
X61939376Y-55098659D01*
X61932855Y-56015734D01*
X61926334Y-56932810D01*
X62085084Y-56687979D01*
X62134350Y-56612112D01*
X62202841Y-56506803D01*
X62286645Y-56378063D01*
X62381847Y-56231898D01*
X62484534Y-56074318D01*
X62590793Y-55911332D01*
X62678933Y-55776195D01*
X63114032Y-55109243D01*
X63799584Y-55097611D01*
X63799584Y-57829159D01*
G37*
X63799584Y-57829159D02*
X63206917Y-57829159D01*
X63206759Y-55934743D01*
X63161991Y-56008826D01*
X63141656Y-56041022D01*
X63100559Y-56104854D01*
X63041153Y-56196555D01*
X62965889Y-56312359D01*
X62877218Y-56448498D01*
X62777590Y-56601207D01*
X62669458Y-56766718D01*
X62555271Y-56941265D01*
X62545603Y-56956034D01*
X61973981Y-57829159D01*
X61323084Y-57829159D01*
X61323084Y-55098659D01*
X61939376Y-55098659D01*
X61932855Y-56015734D01*
X61926334Y-56932810D01*
X62085084Y-56687979D01*
X62134350Y-56612112D01*
X62202841Y-56506803D01*
X62286645Y-56378063D01*
X62381847Y-56231898D01*
X62484534Y-56074318D01*
X62590793Y-55911332D01*
X62678933Y-55776195D01*
X63114032Y-55109243D01*
X63799584Y-55097611D01*
X63799584Y-57829159D01*
G36*
X67962477Y-55145747D02*
G01*
X67955109Y-55174187D01*
X67937952Y-55239992D01*
X67911944Y-55339577D01*
X67878023Y-55469356D01*
X67837126Y-55625742D01*
X67790192Y-55805149D01*
X67738158Y-56003993D01*
X67681963Y-56218685D01*
X67622543Y-56445641D01*
X67605326Y-56511392D01*
X67260334Y-57828876D01*
X66896710Y-57829017D01*
X66533087Y-57829159D01*
X66501545Y-57718034D01*
X66469858Y-57604475D01*
X66432787Y-57468415D01*
X66391639Y-57314940D01*
X66347722Y-57149140D01*
X66302344Y-56976101D01*
X66256813Y-56800912D01*
X66212438Y-56628660D01*
X66170526Y-56464434D01*
X66132385Y-56313321D01*
X66099323Y-56180408D01*
X66072649Y-56070785D01*
X66053669Y-55989538D01*
X66043693Y-55941756D01*
X66042487Y-55932395D01*
X66037362Y-55937010D01*
X66023172Y-55978416D01*
X66001129Y-56052337D01*
X65972443Y-56154497D01*
X65938327Y-56280618D01*
X65899990Y-56426425D01*
X65873975Y-56527409D01*
X65828192Y-56706378D01*
X65781466Y-56888828D01*
X65735988Y-57066217D01*
X65693950Y-57230002D01*
X65657543Y-57371639D01*
X65628960Y-57482584D01*
X65624184Y-57501076D01*
X65542143Y-57818576D01*
X64838655Y-57830174D01*
X64817445Y-57750292D01*
X64808325Y-57715836D01*
X64789405Y-57644262D01*
X64761692Y-57539383D01*
X64726193Y-57405012D01*
X64683916Y-57244962D01*
X64635866Y-57063046D01*
X64583052Y-56863076D01*
X64526481Y-56648865D01*
X64467159Y-56424226D01*
X64466460Y-56421576D01*
X64407488Y-56198345D01*
X64351527Y-55986681D01*
X64299543Y-55790234D01*
X64252505Y-55612653D01*
X64211382Y-55457589D01*
X64177140Y-55328691D01*
X64150748Y-55229610D01*
X64133174Y-55163995D01*
X64125386Y-55135497D01*
X64125280Y-55135141D01*
X64123610Y-55120832D01*
X64132697Y-55110892D01*
X64158497Y-55104713D01*
X64206968Y-55101688D01*
X64284064Y-55101209D01*
X64395743Y-55102669D01*
X64436694Y-55103391D01*
X64759513Y-55109243D01*
X64946167Y-56008826D01*
X64986163Y-56202668D01*
X65023881Y-56387538D01*
X65058340Y-56558479D01*
X65088559Y-56710533D01*
X65113558Y-56838741D01*
X65132355Y-56938148D01*
X65143970Y-57003794D01*
X65146932Y-57023637D01*
X65161043Y-57138866D01*
X65206086Y-56938971D01*
X65221291Y-56873195D01*
X65245146Y-56772189D01*
X65276235Y-56641841D01*
X65313146Y-56488042D01*
X65354464Y-56316681D01*
X65398775Y-56133648D01*
X65444666Y-55944831D01*
X65451112Y-55918367D01*
X65651097Y-55097659D01*
X66326259Y-55109243D01*
X66524215Y-55828909D01*
X66574222Y-56011150D01*
X66623969Y-56193264D01*
X66671491Y-56367991D01*
X66714819Y-56528067D01*
X66751985Y-56666231D01*
X66781022Y-56775221D01*
X66793746Y-56823675D01*
X66824701Y-56938035D01*
X66847956Y-57012977D01*
X66864280Y-57050560D01*
X66874440Y-57052845D01*
X66876632Y-57045925D01*
X66883209Y-57014744D01*
X66897528Y-56946554D01*
X66918660Y-56845782D01*
X66945680Y-56716855D01*
X66977657Y-56564200D01*
X67013666Y-56392245D01*
X67052779Y-56205416D01*
X67085065Y-56051159D01*
X67282187Y-55109243D01*
X67628411Y-55103414D01*
X67974635Y-55097586D01*
X67962477Y-55145747D01*
G37*
X67962477Y-55145747D02*
X67955109Y-55174187D01*
X67937952Y-55239992D01*
X67911944Y-55339577D01*
X67878023Y-55469356D01*
X67837126Y-55625742D01*
X67790192Y-55805149D01*
X67738158Y-56003993D01*
X67681963Y-56218685D01*
X67622543Y-56445641D01*
X67605326Y-56511392D01*
X67260334Y-57828876D01*
X66896710Y-57829017D01*
X66533087Y-57829159D01*
X66501545Y-57718034D01*
X66469858Y-57604475D01*
X66432787Y-57468415D01*
X66391639Y-57314940D01*
X66347722Y-57149140D01*
X66302344Y-56976101D01*
X66256813Y-56800912D01*
X66212438Y-56628660D01*
X66170526Y-56464434D01*
X66132385Y-56313321D01*
X66099323Y-56180408D01*
X66072649Y-56070785D01*
X66053669Y-55989538D01*
X66043693Y-55941756D01*
X66042487Y-55932395D01*
X66037362Y-55937010D01*
X66023172Y-55978416D01*
X66001129Y-56052337D01*
X65972443Y-56154497D01*
X65938327Y-56280618D01*
X65899990Y-56426425D01*
X65873975Y-56527409D01*
X65828192Y-56706378D01*
X65781466Y-56888828D01*
X65735988Y-57066217D01*
X65693950Y-57230002D01*
X65657543Y-57371639D01*
X65628960Y-57482584D01*
X65624184Y-57501076D01*
X65542143Y-57818576D01*
X64838655Y-57830174D01*
X64817445Y-57750292D01*
X64808325Y-57715836D01*
X64789405Y-57644262D01*
X64761692Y-57539383D01*
X64726193Y-57405012D01*
X64683916Y-57244962D01*
X64635866Y-57063046D01*
X64583052Y-56863076D01*
X64526481Y-56648865D01*
X64467159Y-56424226D01*
X64466460Y-56421576D01*
X64407488Y-56198345D01*
X64351527Y-55986681D01*
X64299543Y-55790234D01*
X64252505Y-55612653D01*
X64211382Y-55457589D01*
X64177140Y-55328691D01*
X64150748Y-55229610D01*
X64133174Y-55163995D01*
X64125386Y-55135497D01*
X64125280Y-55135141D01*
X64123610Y-55120832D01*
X64132697Y-55110892D01*
X64158497Y-55104713D01*
X64206968Y-55101688D01*
X64284064Y-55101209D01*
X64395743Y-55102669D01*
X64436694Y-55103391D01*
X64759513Y-55109243D01*
X64946167Y-56008826D01*
X64986163Y-56202668D01*
X65023881Y-56387538D01*
X65058340Y-56558479D01*
X65088559Y-56710533D01*
X65113558Y-56838741D01*
X65132355Y-56938148D01*
X65143970Y-57003794D01*
X65146932Y-57023637D01*
X65161043Y-57138866D01*
X65206086Y-56938971D01*
X65221291Y-56873195D01*
X65245146Y-56772189D01*
X65276235Y-56641841D01*
X65313146Y-56488042D01*
X65354464Y-56316681D01*
X65398775Y-56133648D01*
X65444666Y-55944831D01*
X65451112Y-55918367D01*
X65651097Y-55097659D01*
X66326259Y-55109243D01*
X66524215Y-55828909D01*
X66574222Y-56011150D01*
X66623969Y-56193264D01*
X66671491Y-56367991D01*
X66714819Y-56528067D01*
X66751985Y-56666231D01*
X66781022Y-56775221D01*
X66793746Y-56823675D01*
X66824701Y-56938035D01*
X66847956Y-57012977D01*
X66864280Y-57050560D01*
X66874440Y-57052845D01*
X66876632Y-57045925D01*
X66883209Y-57014744D01*
X66897528Y-56946554D01*
X66918660Y-56845782D01*
X66945680Y-56716855D01*
X66977657Y-56564200D01*
X67013666Y-56392245D01*
X67052779Y-56205416D01*
X67085065Y-56051159D01*
X67282187Y-55109243D01*
X67628411Y-55103414D01*
X67974635Y-55097586D01*
X67962477Y-55145747D01*
G36*
X72379972Y-55876882D02*
G01*
X72500457Y-55948143D01*
X72603909Y-56054039D01*
X72644949Y-56114659D01*
X72689425Y-56188743D01*
X72689504Y-56035284D01*
X72689584Y-55881826D01*
X73303417Y-55881826D01*
X73303417Y-57829159D01*
X72689584Y-57829159D01*
X72689584Y-57303834D01*
X72688935Y-57123437D01*
X72686815Y-56980140D01*
X72682965Y-56868726D01*
X72677125Y-56783980D01*
X72669035Y-56720685D01*
X72658435Y-56673626D01*
X72658157Y-56672686D01*
X72614548Y-56575645D01*
X72549311Y-56490511D01*
X72472130Y-56427565D01*
X72399691Y-56398235D01*
X72330382Y-56392236D01*
X72243419Y-56393886D01*
X72156585Y-56401949D01*
X72087664Y-56415193D01*
X72070459Y-56421077D01*
X72055598Y-56424365D01*
X72045333Y-56415425D01*
X72038823Y-56388097D01*
X72035228Y-56336225D01*
X72033707Y-56253648D01*
X72033417Y-56149633D01*
X72033417Y-55862577D01*
X72108506Y-55848491D01*
X72247604Y-55842812D01*
X72379972Y-55876882D01*
G37*
X72379972Y-55876882D02*
X72500457Y-55948143D01*
X72603909Y-56054039D01*
X72644949Y-56114659D01*
X72689425Y-56188743D01*
X72689504Y-56035284D01*
X72689584Y-55881826D01*
X73303417Y-55881826D01*
X73303417Y-57829159D01*
X72689584Y-57829159D01*
X72689584Y-57303834D01*
X72688935Y-57123437D01*
X72686815Y-56980140D01*
X72682965Y-56868726D01*
X72677125Y-56783980D01*
X72669035Y-56720685D01*
X72658435Y-56673626D01*
X72658157Y-56672686D01*
X72614548Y-56575645D01*
X72549311Y-56490511D01*
X72472130Y-56427565D01*
X72399691Y-56398235D01*
X72330382Y-56392236D01*
X72243419Y-56393886D01*
X72156585Y-56401949D01*
X72087664Y-56415193D01*
X72070459Y-56421077D01*
X72055598Y-56424365D01*
X72045333Y-56415425D01*
X72038823Y-56388097D01*
X72035228Y-56336225D01*
X72033707Y-56253648D01*
X72033417Y-56149633D01*
X72033417Y-55862577D01*
X72108506Y-55848491D01*
X72247604Y-55842812D01*
X72379972Y-55876882D01*
%TD*%
M02*
